%TF.GenerationSoftware,KiCad,Pcbnew,(6.0.9)*%
%TF.CreationDate,2022-11-24T22:47:09+01:00*%
%TF.ProjectId,telinksensor-hw,74656c69-6e6b-4736-956e-736f722d6877,rev?*%
%TF.SameCoordinates,Original*%
%TF.FileFunction,Drillmap*%
%TF.FilePolarity,Positive*%
%FSLAX45Y45*%
G04 Gerber Fmt 4.5, Leading zero omitted, Abs format (unit mm)*
G04 Created by KiCad (PCBNEW (6.0.9)) date 2022-11-24 22:47:09*
%MOMM*%
%LPD*%
G01*
G04 APERTURE LIST*
%ADD10C,0.200000*%
%ADD11C,0.020000*%
%ADD12C,0.030000*%
%ADD13C,0.050000*%
%ADD14C,0.152000*%
%ADD15C,0.320000*%
G04 APERTURE END LIST*
D10*
X15240000Y-8350000D02*
X15240000Y-8650000D01*
X14860000Y-11700000D02*
X18320000Y-11700000D01*
X18790000Y-11700000D02*
X18440000Y-11700000D01*
X14690000Y-9200000D02*
X14390000Y-9200000D01*
X18790000Y-9200000D02*
X18490000Y-9200000D01*
X18320000Y-11700000D02*
X18320000Y-11090000D01*
X17940000Y-8650000D02*
G75*
G03*
X18490000Y-9200000I550000J0D01*
G01*
X18440000Y-11090000D02*
G75*
G03*
X18320000Y-11090000I-60000J0D01*
G01*
X14740000Y-11700000D02*
X14390000Y-11700000D01*
X18790000Y-9200000D02*
X18790000Y-11700000D01*
X14390000Y-9200000D02*
X14390000Y-11700000D01*
X14740000Y-11090000D02*
X14740000Y-11700000D01*
X18440000Y-11700000D02*
X18440000Y-11090000D01*
X17940000Y-8650000D02*
X17940000Y-8350000D01*
X14860000Y-11090000D02*
X14860000Y-11700000D01*
X14690000Y-9200000D02*
G75*
G03*
X15240000Y-8650000I0J550000D01*
G01*
X17940000Y-8350000D02*
X15240000Y-8350000D01*
X14860000Y-11090000D02*
G75*
G03*
X14740000Y-11090000I-60000J0D01*
G01*
D11*
X14440000Y-10950000D02*
X14460000Y-10970000D01*
X14460000Y-10950000D02*
X14440000Y-10970000D01*
X14451451Y-11245000D02*
X14471451Y-11265000D01*
X14471451Y-11245000D02*
X14451451Y-11265000D01*
X14490000Y-10550000D02*
X14510000Y-10570000D01*
X14510000Y-10550000D02*
X14490000Y-10570000D01*
X14520000Y-10260000D02*
X14540000Y-10280000D01*
X14540000Y-10260000D02*
X14520000Y-10280000D01*
X14530000Y-10800000D02*
X14550000Y-10820000D01*
X14550000Y-10800000D02*
X14530000Y-10820000D01*
X14555000Y-11545000D02*
X14575000Y-11565000D01*
X14575000Y-11545000D02*
X14555000Y-11565000D01*
X14620000Y-10140000D02*
X14640000Y-10160000D01*
X14640000Y-10140000D02*
X14620000Y-10160000D01*
X14630000Y-9400000D02*
X14650000Y-9420000D01*
X14650000Y-9400000D02*
X14630000Y-9420000D01*
X14664113Y-10955651D02*
X14684113Y-10975651D01*
X14684113Y-10955651D02*
X14664113Y-10975651D01*
X14940000Y-9990000D02*
X14960000Y-10010000D01*
X14960000Y-9990000D02*
X14940000Y-10010000D01*
X14950000Y-11610000D02*
X14970000Y-11630000D01*
X14970000Y-11610000D02*
X14950000Y-11630000D01*
X14980000Y-9200000D02*
X15000000Y-9220000D01*
X15000000Y-9200000D02*
X14980000Y-9220000D01*
X15000000Y-11380000D02*
X15020000Y-11400000D01*
X15020000Y-11380000D02*
X15000000Y-11400000D01*
X15120000Y-11440000D02*
X15140000Y-11460000D01*
X15140000Y-11440000D02*
X15120000Y-11460000D01*
X15122500Y-9674431D02*
X15142500Y-9694431D01*
X15142500Y-9674431D02*
X15122500Y-9694431D01*
X15122500Y-9765896D02*
X15142500Y-9785896D01*
X15142500Y-9765896D02*
X15122500Y-9785896D01*
X15122500Y-9857616D02*
X15142500Y-9877616D01*
X15142500Y-9857616D02*
X15122500Y-9877616D01*
X15122500Y-9950000D02*
X15142500Y-9970000D01*
X15142500Y-9950000D02*
X15122500Y-9970000D01*
X15130000Y-9130000D02*
X15150000Y-9150000D01*
X15150000Y-9130000D02*
X15130000Y-9150000D01*
X15164655Y-11159566D02*
X15184655Y-11179566D01*
X15184655Y-11159566D02*
X15164655Y-11179566D01*
X15170000Y-10130000D02*
X15190000Y-10150000D01*
X15190000Y-10130000D02*
X15170000Y-10150000D01*
X15220000Y-10740000D02*
X15240000Y-10760000D01*
X15240000Y-10740000D02*
X15220000Y-10760000D01*
X15230000Y-8930000D02*
X15250000Y-8950000D01*
X15250000Y-8930000D02*
X15230000Y-8950000D01*
X15236000Y-11442000D02*
X15256000Y-11462000D01*
X15256000Y-11442000D02*
X15236000Y-11462000D01*
X15290000Y-10620000D02*
X15310000Y-10640000D01*
X15310000Y-10620000D02*
X15290000Y-10640000D01*
X15319966Y-9629966D02*
X15339966Y-9649966D01*
X15339966Y-9629966D02*
X15319966Y-9649966D01*
X15320000Y-11140000D02*
X15340000Y-11160000D01*
X15340000Y-11140000D02*
X15320000Y-11160000D01*
X15320000Y-11240000D02*
X15340000Y-11260000D01*
X15340000Y-11240000D02*
X15320000Y-11260000D01*
X15320000Y-11340000D02*
X15340000Y-11360000D01*
X15340000Y-11340000D02*
X15320000Y-11360000D01*
X15370000Y-8680000D02*
X15390000Y-8700000D01*
X15390000Y-8680000D02*
X15370000Y-8700000D01*
X15420000Y-9069458D02*
X15440000Y-9089458D01*
X15440000Y-9069458D02*
X15420000Y-9089458D01*
X15430000Y-10320000D02*
X15450000Y-10340000D01*
X15450000Y-10320000D02*
X15430000Y-10340000D01*
X15440000Y-9900000D02*
X15460000Y-9920000D01*
X15460000Y-9900000D02*
X15440000Y-9920000D01*
X15460000Y-11040000D02*
X15480000Y-11060000D01*
X15480000Y-11040000D02*
X15460000Y-11060000D01*
X15465000Y-9225000D02*
X15485000Y-9245000D01*
X15485000Y-9225000D02*
X15465000Y-9245000D01*
X15508548Y-10172262D02*
X15528548Y-10192262D01*
X15528548Y-10172262D02*
X15508548Y-10192262D01*
X15510000Y-9069458D02*
X15530000Y-9089458D01*
X15530000Y-9069458D02*
X15510000Y-9089458D01*
X15556526Y-10011335D02*
X15576526Y-10031335D01*
X15576526Y-10011335D02*
X15556526Y-10031335D01*
X15600000Y-10172262D02*
X15620000Y-10192262D01*
X15620000Y-10172262D02*
X15600000Y-10192262D01*
X15603479Y-9069458D02*
X15623479Y-9089458D01*
X15623479Y-9069458D02*
X15603479Y-9089458D01*
X15695641Y-9069458D02*
X15715641Y-9089458D01*
X15715641Y-9069458D02*
X15695641Y-9089458D01*
X15720000Y-8980000D02*
X15740000Y-9000000D01*
X15740000Y-8980000D02*
X15720000Y-9000000D01*
X15720000Y-11040000D02*
X15740000Y-11060000D01*
X15740000Y-11040000D02*
X15720000Y-11060000D01*
X15751250Y-10298750D02*
X15771250Y-10318750D01*
X15771250Y-10298750D02*
X15751250Y-10318750D01*
X15803439Y-8843440D02*
X15823439Y-8863440D01*
X15823439Y-8843440D02*
X15803439Y-8863440D01*
X15820000Y-11040000D02*
X15840000Y-11060000D01*
X15840000Y-11040000D02*
X15820000Y-11060000D01*
X15895540Y-9142296D02*
X15915540Y-9162296D01*
X15915540Y-9142296D02*
X15895540Y-9162296D01*
X15898059Y-8964840D02*
X15918059Y-8984840D01*
X15918059Y-8964840D02*
X15898059Y-8984840D01*
X15920000Y-11440000D02*
X15940000Y-11460000D01*
X15940000Y-11440000D02*
X15920000Y-11460000D01*
X15920000Y-11540000D02*
X15940000Y-11560000D01*
X15940000Y-11540000D02*
X15920000Y-11560000D01*
X15929343Y-10109842D02*
X15949343Y-10129842D01*
X15949343Y-10109842D02*
X15929343Y-10129842D01*
X15930000Y-10700000D02*
X15950000Y-10720000D01*
X15950000Y-10700000D02*
X15930000Y-10720000D01*
X15937390Y-9401049D02*
X15957390Y-9421049D01*
X15957390Y-9401049D02*
X15937390Y-9421049D01*
X15940000Y-9910000D02*
X15960000Y-9930000D01*
X15960000Y-9910000D02*
X15940000Y-9930000D01*
X15990002Y-9354950D02*
X16010002Y-9374950D01*
X16010002Y-9354950D02*
X15990002Y-9374950D01*
X15992500Y-10227500D02*
X16012500Y-10247500D01*
X16012500Y-10227500D02*
X15992500Y-10247500D01*
X16056021Y-8965329D02*
X16076021Y-8985329D01*
X16076021Y-8965329D02*
X16056021Y-8985329D01*
X16088152Y-8453000D02*
X16108152Y-8473000D01*
X16108152Y-8453000D02*
X16088152Y-8473000D01*
X16149500Y-9565500D02*
X16169500Y-9585500D01*
X16169500Y-9565500D02*
X16149500Y-9585500D01*
X16150000Y-10730000D02*
X16170000Y-10750000D01*
X16170000Y-10730000D02*
X16150000Y-10750000D01*
X16180000Y-8790000D02*
X16200000Y-8810000D01*
X16200000Y-8790000D02*
X16180000Y-8810000D01*
X16190000Y-8530000D02*
X16210000Y-8550000D01*
X16210000Y-8530000D02*
X16190000Y-8550000D01*
X16250000Y-10110000D02*
X16270000Y-10130000D01*
X16270000Y-10110000D02*
X16250000Y-10130000D01*
X16252000Y-11442000D02*
X16272000Y-11462000D01*
X16272000Y-11442000D02*
X16252000Y-11462000D01*
X16270000Y-9880000D02*
X16290000Y-9900000D01*
X16290000Y-9880000D02*
X16270000Y-9900000D01*
X16305000Y-9520000D02*
X16325000Y-9540000D01*
X16325000Y-9520000D02*
X16305000Y-9540000D01*
X16305000Y-9612500D02*
X16325000Y-9632500D01*
X16325000Y-9612500D02*
X16305000Y-9632500D01*
X16309626Y-8398955D02*
X16329626Y-8418955D01*
X16329626Y-8398955D02*
X16309626Y-8418955D01*
X16310000Y-8470000D02*
X16330000Y-8490000D01*
X16330000Y-8470000D02*
X16310000Y-8490000D01*
X16310000Y-8550000D02*
X16330000Y-8570000D01*
X16330000Y-8550000D02*
X16310000Y-8570000D01*
X16310000Y-8630000D02*
X16330000Y-8650000D01*
X16330000Y-8630000D02*
X16310000Y-8650000D01*
X16310000Y-8710000D02*
X16330000Y-8730000D01*
X16330000Y-8710000D02*
X16310000Y-8730000D01*
X16310000Y-8790000D02*
X16330000Y-8810000D01*
X16330000Y-8790000D02*
X16310000Y-8810000D01*
X16310000Y-8870000D02*
X16330000Y-8890000D01*
X16330000Y-8870000D02*
X16310000Y-8890000D01*
X16310000Y-8940000D02*
X16330000Y-8960000D01*
X16330000Y-8940000D02*
X16310000Y-8960000D01*
X16320000Y-11240000D02*
X16340000Y-11260000D01*
X16340000Y-11240000D02*
X16320000Y-11260000D01*
X16320000Y-11340000D02*
X16340000Y-11360000D01*
X16340000Y-11340000D02*
X16320000Y-11360000D01*
X16329303Y-9840751D02*
X16349303Y-9860751D01*
X16349303Y-9840751D02*
X16329303Y-9860751D01*
X16379134Y-9587932D02*
X16399134Y-9607932D01*
X16399134Y-9587932D02*
X16379134Y-9607932D01*
X16390000Y-8940000D02*
X16410000Y-8960000D01*
X16410000Y-8940000D02*
X16390000Y-8960000D01*
X16390000Y-10120000D02*
X16410000Y-10140000D01*
X16410000Y-10120000D02*
X16390000Y-10140000D01*
X16393806Y-9841058D02*
X16413806Y-9861058D01*
X16413806Y-9841058D02*
X16393806Y-9861058D01*
X16420000Y-11040000D02*
X16440000Y-11060000D01*
X16440000Y-11040000D02*
X16420000Y-11060000D01*
X16460000Y-9590000D02*
X16480000Y-9610000D01*
X16480000Y-9590000D02*
X16460000Y-9610000D01*
X16460000Y-9810000D02*
X16480000Y-9830000D01*
X16480000Y-9810000D02*
X16460000Y-9830000D01*
X16470000Y-8940000D02*
X16490000Y-8960000D01*
X16490000Y-8940000D02*
X16470000Y-8960000D01*
X16500000Y-10105218D02*
X16520000Y-10125218D01*
X16520000Y-10105218D02*
X16500000Y-10125218D01*
X16520000Y-10430000D02*
X16540000Y-10450000D01*
X16540000Y-10430000D02*
X16520000Y-10450000D01*
X16520000Y-11040000D02*
X16540000Y-11060000D01*
X16540000Y-11040000D02*
X16520000Y-11060000D01*
X16520321Y-9865644D02*
X16540321Y-9885644D01*
X16540321Y-9865644D02*
X16520321Y-9885644D01*
X16530000Y-10820000D02*
X16550000Y-10840000D01*
X16550000Y-10820000D02*
X16530000Y-10840000D01*
X16537850Y-9586814D02*
X16557850Y-9606814D01*
X16557850Y-9586814D02*
X16537850Y-9606814D01*
X16550000Y-8940000D02*
X16570000Y-8960000D01*
X16570000Y-8940000D02*
X16550000Y-8960000D01*
X16580000Y-9810000D02*
X16600000Y-9830000D01*
X16600000Y-9810000D02*
X16580000Y-9830000D01*
X16606030Y-9586814D02*
X16626030Y-9606814D01*
X16626030Y-9586814D02*
X16606030Y-9606814D01*
X16620000Y-10200000D02*
X16640000Y-10220000D01*
X16640000Y-10200000D02*
X16620000Y-10220000D01*
X16630000Y-8940000D02*
X16650000Y-8960000D01*
X16650000Y-8940000D02*
X16630000Y-8960000D01*
X16639703Y-9836587D02*
X16659703Y-9856587D01*
X16659703Y-9836587D02*
X16639703Y-9856587D01*
X16685388Y-9587932D02*
X16705388Y-9607932D01*
X16705388Y-9587932D02*
X16685388Y-9607932D01*
X16704530Y-9834352D02*
X16724530Y-9854352D01*
X16724530Y-9834352D02*
X16704530Y-9854352D01*
X16710000Y-8940000D02*
X16730000Y-8960000D01*
X16730000Y-8940000D02*
X16710000Y-8960000D01*
X16725000Y-10295000D02*
X16745000Y-10315000D01*
X16745000Y-10295000D02*
X16725000Y-10315000D01*
X16730000Y-9290000D02*
X16750000Y-9310000D01*
X16750000Y-9290000D02*
X16730000Y-9310000D01*
X16764745Y-9587932D02*
X16784745Y-9607932D01*
X16784745Y-9587932D02*
X16764745Y-9607932D01*
X16781954Y-9811089D02*
X16801954Y-9831089D01*
X16801954Y-9811089D02*
X16781954Y-9831089D01*
X16790000Y-8940000D02*
X16810000Y-8960000D01*
X16810000Y-8940000D02*
X16790000Y-8960000D01*
X16820000Y-10340000D02*
X16840000Y-10360000D01*
X16840000Y-10340000D02*
X16820000Y-10360000D01*
X16820000Y-10740000D02*
X16840000Y-10760000D01*
X16840000Y-10740000D02*
X16820000Y-10760000D01*
X16820000Y-11140000D02*
X16840000Y-11160000D01*
X16840000Y-11140000D02*
X16820000Y-11160000D01*
X16820000Y-11240000D02*
X16840000Y-11260000D01*
X16840000Y-11240000D02*
X16820000Y-11260000D01*
X16820000Y-11340000D02*
X16840000Y-11360000D01*
X16840000Y-11340000D02*
X16820000Y-11360000D01*
X16820000Y-11440000D02*
X16840000Y-11460000D01*
X16840000Y-11440000D02*
X16820000Y-11460000D01*
X16830000Y-9460000D02*
X16850000Y-9480000D01*
X16850000Y-9460000D02*
X16830000Y-9480000D01*
X16842813Y-9866296D02*
X16862813Y-9886296D01*
X16862813Y-9866296D02*
X16842813Y-9886296D01*
X16842985Y-9587932D02*
X16862985Y-9607932D01*
X16862985Y-9587932D02*
X16842985Y-9607932D01*
X16870000Y-8940000D02*
X16890000Y-8960000D01*
X16890000Y-8940000D02*
X16870000Y-8960000D01*
X16890000Y-9050000D02*
X16910000Y-9070000D01*
X16910000Y-9050000D02*
X16890000Y-9070000D01*
X16900000Y-9810000D02*
X16920000Y-9830000D01*
X16920000Y-9810000D02*
X16900000Y-9830000D01*
X16920000Y-11140000D02*
X16940000Y-11160000D01*
X16940000Y-11140000D02*
X16920000Y-11160000D01*
X16920000Y-11440000D02*
X16940000Y-11460000D01*
X16940000Y-11440000D02*
X16920000Y-11460000D01*
X16922343Y-9587932D02*
X16942343Y-9607932D01*
X16942343Y-9587932D02*
X16922343Y-9607932D01*
X16950000Y-8940000D02*
X16970000Y-8960000D01*
X16970000Y-8940000D02*
X16950000Y-8960000D01*
X16990000Y-10780000D02*
X17010000Y-10800000D01*
X17010000Y-10780000D02*
X16990000Y-10800000D01*
X17020000Y-9140000D02*
X17040000Y-9160000D01*
X17040000Y-9140000D02*
X17020000Y-9160000D01*
X17020000Y-9340000D02*
X17040000Y-9360000D01*
X17040000Y-9340000D02*
X17020000Y-9360000D01*
X17020000Y-9940000D02*
X17040000Y-9960000D01*
X17040000Y-9940000D02*
X17020000Y-9960000D01*
X17020000Y-10340000D02*
X17040000Y-10360000D01*
X17040000Y-10340000D02*
X17020000Y-10360000D01*
X17030000Y-8940000D02*
X17050000Y-8960000D01*
X17050000Y-8940000D02*
X17030000Y-8960000D01*
X17110000Y-8940000D02*
X17130000Y-8960000D01*
X17130000Y-8940000D02*
X17110000Y-8960000D01*
X17110000Y-9480000D02*
X17130000Y-9500000D01*
X17130000Y-9480000D02*
X17110000Y-9500000D01*
X17129833Y-9712770D02*
X17149833Y-9732770D01*
X17149833Y-9712770D02*
X17129833Y-9732770D01*
X17130000Y-9240000D02*
X17150000Y-9260000D01*
X17150000Y-9240000D02*
X17130000Y-9260000D01*
X17190000Y-8940000D02*
X17210000Y-8960000D01*
X17210000Y-8940000D02*
X17190000Y-8960000D01*
X17220000Y-9140000D02*
X17240000Y-9160000D01*
X17240000Y-9140000D02*
X17220000Y-9160000D01*
X17220000Y-9340000D02*
X17240000Y-9360000D01*
X17240000Y-9340000D02*
X17220000Y-9360000D01*
X17220000Y-9940000D02*
X17240000Y-9960000D01*
X17240000Y-9940000D02*
X17220000Y-9960000D01*
X17220000Y-11540000D02*
X17240000Y-11560000D01*
X17240000Y-11540000D02*
X17220000Y-11560000D01*
X17270000Y-8940000D02*
X17290000Y-8960000D01*
X17290000Y-8940000D02*
X17270000Y-8960000D01*
X17299569Y-10294131D02*
X17319569Y-10314131D01*
X17319569Y-10294131D02*
X17299569Y-10314131D01*
X17307000Y-10105000D02*
X17327000Y-10125000D01*
X17327000Y-10105000D02*
X17307000Y-10125000D01*
X17310000Y-9050000D02*
X17330000Y-9070000D01*
X17330000Y-9050000D02*
X17310000Y-9070000D01*
X17320000Y-11140000D02*
X17340000Y-11160000D01*
X17340000Y-11140000D02*
X17320000Y-11160000D01*
X17320000Y-11240000D02*
X17340000Y-11260000D01*
X17340000Y-11240000D02*
X17320000Y-11260000D01*
X17320000Y-11340000D02*
X17340000Y-11360000D01*
X17340000Y-11340000D02*
X17320000Y-11360000D01*
X17320000Y-11540000D02*
X17340000Y-11560000D01*
X17340000Y-11540000D02*
X17320000Y-11560000D01*
X17324528Y-9844722D02*
X17344528Y-9864722D01*
X17344528Y-9844722D02*
X17324528Y-9864722D01*
X17328666Y-9586958D02*
X17348666Y-9606958D01*
X17348666Y-9586958D02*
X17328666Y-9606958D01*
X17340000Y-9460000D02*
X17360000Y-9480000D01*
X17360000Y-9460000D02*
X17340000Y-9480000D01*
X17350000Y-8940000D02*
X17370000Y-8960000D01*
X17370000Y-8940000D02*
X17350000Y-8960000D01*
X17370000Y-10190000D02*
X17390000Y-10210000D01*
X17390000Y-10190000D02*
X17370000Y-10210000D01*
X17405000Y-9845000D02*
X17425000Y-9865000D01*
X17425000Y-9845000D02*
X17405000Y-9865000D01*
X17413262Y-9585086D02*
X17433262Y-9605086D01*
X17433262Y-9585086D02*
X17413262Y-9605086D01*
X17420000Y-11540000D02*
X17440000Y-11560000D01*
X17440000Y-11540000D02*
X17420000Y-11560000D01*
X17430000Y-8940000D02*
X17450000Y-8960000D01*
X17450000Y-8940000D02*
X17430000Y-8960000D01*
X17450000Y-10000000D02*
X17470000Y-10020000D01*
X17470000Y-10000000D02*
X17450000Y-10020000D01*
X17470480Y-9036651D02*
X17490480Y-9056651D01*
X17490480Y-9036651D02*
X17470480Y-9056651D01*
X17472421Y-9109742D02*
X17492421Y-9129742D01*
X17492421Y-9109742D02*
X17472421Y-9129742D01*
X17474651Y-9517334D02*
X17494651Y-9537334D01*
X17494651Y-9517334D02*
X17474651Y-9537334D01*
X17475000Y-9186000D02*
X17495000Y-9206000D01*
X17495000Y-9186000D02*
X17475000Y-9206000D01*
X17475000Y-9268250D02*
X17495000Y-9288250D01*
X17495000Y-9268250D02*
X17475000Y-9288250D01*
X17475000Y-9350500D02*
X17495000Y-9370500D01*
X17495000Y-9350500D02*
X17475000Y-9370500D01*
X17475000Y-9432750D02*
X17495000Y-9452750D01*
X17495000Y-9432750D02*
X17475000Y-9452750D01*
X17488758Y-9835123D02*
X17508758Y-9855123D01*
X17508758Y-9835123D02*
X17488758Y-9855123D01*
X17520000Y-11540000D02*
X17540000Y-11560000D01*
X17540000Y-11540000D02*
X17520000Y-11560000D01*
X17571552Y-9798254D02*
X17591552Y-9818254D01*
X17591552Y-9798254D02*
X17571552Y-9818254D01*
X17620000Y-9940000D02*
X17640000Y-9960000D01*
X17640000Y-9940000D02*
X17620000Y-9960000D01*
X17620000Y-11540000D02*
X17640000Y-11560000D01*
X17640000Y-11540000D02*
X17620000Y-11560000D01*
X17643349Y-9747155D02*
X17663349Y-9767155D01*
X17663349Y-9747155D02*
X17643349Y-9767155D01*
X17670000Y-10550000D02*
X17690000Y-10570000D01*
X17690000Y-10550000D02*
X17670000Y-10570000D01*
X17690567Y-9676004D02*
X17710567Y-9696004D01*
X17710567Y-9676004D02*
X17690567Y-9696004D01*
X17700438Y-9055869D02*
X17720438Y-9075869D01*
X17720438Y-9055869D02*
X17700438Y-9075869D01*
X17700764Y-8930999D02*
X17720764Y-8950999D01*
X17720764Y-8930999D02*
X17700764Y-8950999D01*
X17718381Y-9596445D02*
X17738381Y-9616445D01*
X17738381Y-9596445D02*
X17718381Y-9616445D01*
X17720000Y-11040000D02*
X17740000Y-11060000D01*
X17740000Y-11040000D02*
X17720000Y-11060000D01*
X17720000Y-11540000D02*
X17740000Y-11560000D01*
X17740000Y-11540000D02*
X17720000Y-11560000D01*
X17733738Y-9111036D02*
X17753738Y-9131036D01*
X17753738Y-9111036D02*
X17733738Y-9131036D01*
X17735000Y-9186000D02*
X17755000Y-9206000D01*
X17755000Y-9186000D02*
X17735000Y-9206000D01*
X17735000Y-9268250D02*
X17755000Y-9288250D01*
X17755000Y-9268250D02*
X17735000Y-9288250D01*
X17735000Y-9350500D02*
X17755000Y-9370500D01*
X17755000Y-9350500D02*
X17735000Y-9370500D01*
X17735000Y-9432750D02*
X17755000Y-9452750D01*
X17755000Y-9432750D02*
X17735000Y-9452750D01*
X17735000Y-9515000D02*
X17755000Y-9535000D01*
X17755000Y-9515000D02*
X17735000Y-9535000D01*
X17758146Y-8994249D02*
X17778146Y-9014249D01*
X17778146Y-8994249D02*
X17758146Y-9014249D01*
X17813085Y-10702801D02*
X17833085Y-10722801D01*
X17833085Y-10702801D02*
X17813085Y-10722801D01*
X17820000Y-9740000D02*
X17840000Y-9760000D01*
X17840000Y-9740000D02*
X17820000Y-9760000D01*
X17820000Y-9940000D02*
X17840000Y-9960000D01*
X17840000Y-9940000D02*
X17820000Y-9960000D01*
X17820000Y-10140000D02*
X17840000Y-10160000D01*
X17840000Y-10140000D02*
X17820000Y-10160000D01*
X17820000Y-10340000D02*
X17840000Y-10360000D01*
X17840000Y-10340000D02*
X17820000Y-10360000D01*
X17820000Y-11240000D02*
X17840000Y-11260000D01*
X17840000Y-11240000D02*
X17820000Y-11260000D01*
X17820000Y-11340000D02*
X17840000Y-11360000D01*
X17840000Y-11340000D02*
X17820000Y-11360000D01*
X17820000Y-11540000D02*
X17840000Y-11560000D01*
X17840000Y-11540000D02*
X17820000Y-11560000D01*
X17850000Y-9210000D02*
X17870000Y-9230000D01*
X17870000Y-9210000D02*
X17850000Y-9230000D01*
X17872500Y-10782500D02*
X17892500Y-10802500D01*
X17892500Y-10782500D02*
X17872500Y-10802500D01*
X17920000Y-11540000D02*
X17940000Y-11560000D01*
X17940000Y-11540000D02*
X17920000Y-11560000D01*
X17956069Y-9595434D02*
X17976069Y-9615434D01*
X17976069Y-9595434D02*
X17956069Y-9615434D01*
X17961086Y-9864275D02*
X17981086Y-9884275D01*
X17981086Y-9864275D02*
X17961086Y-9884275D01*
X18020000Y-9140000D02*
X18040000Y-9160000D01*
X18040000Y-9140000D02*
X18020000Y-9160000D01*
X18020000Y-9340000D02*
X18040000Y-9360000D01*
X18040000Y-9340000D02*
X18020000Y-9360000D01*
X18020000Y-11340000D02*
X18040000Y-11360000D01*
X18040000Y-11340000D02*
X18020000Y-11360000D01*
X18090000Y-10810000D02*
X18110000Y-10830000D01*
X18110000Y-10810000D02*
X18090000Y-10830000D01*
X18120000Y-10010000D02*
X18140000Y-10030000D01*
X18140000Y-10010000D02*
X18120000Y-10030000D01*
X18120000Y-11340000D02*
X18140000Y-11360000D01*
X18140000Y-11340000D02*
X18120000Y-11360000D01*
X18131694Y-9867494D02*
X18151694Y-9887494D01*
X18151694Y-9867494D02*
X18131694Y-9887494D01*
X18134913Y-9595487D02*
X18154913Y-9615487D01*
X18154913Y-9595487D02*
X18134913Y-9615487D01*
X18220000Y-9340000D02*
X18240000Y-9360000D01*
X18240000Y-9340000D02*
X18220000Y-9360000D01*
X18220000Y-11340000D02*
X18240000Y-11360000D01*
X18240000Y-11340000D02*
X18220000Y-11360000D01*
X18220000Y-11440000D02*
X18240000Y-11460000D01*
X18240000Y-11440000D02*
X18220000Y-11460000D01*
X18220000Y-11540000D02*
X18240000Y-11560000D01*
X18240000Y-11540000D02*
X18220000Y-11560000D01*
X18420000Y-9340000D02*
X18440000Y-9360000D01*
X18440000Y-9340000D02*
X18420000Y-9360000D01*
X18420000Y-9540000D02*
X18440000Y-9560000D01*
X18440000Y-9540000D02*
X18420000Y-9560000D01*
X18420000Y-9740000D02*
X18440000Y-9760000D01*
X18440000Y-9740000D02*
X18420000Y-9760000D01*
X18420000Y-9940000D02*
X18440000Y-9960000D01*
X18440000Y-9940000D02*
X18420000Y-9960000D01*
X18498180Y-10956881D02*
X18518180Y-10976881D01*
X18518180Y-10956881D02*
X18498180Y-10976881D01*
X18565000Y-11520000D02*
X18585000Y-11540000D01*
X18585000Y-11520000D02*
X18565000Y-11540000D01*
X18620000Y-9340000D02*
X18640000Y-9360000D01*
X18640000Y-9340000D02*
X18620000Y-9360000D01*
X18620000Y-9540000D02*
X18640000Y-9560000D01*
X18640000Y-9540000D02*
X18620000Y-9560000D01*
X18620000Y-9740000D02*
X18640000Y-9760000D01*
X18640000Y-9740000D02*
X18620000Y-9760000D01*
X18620000Y-9940000D02*
X18640000Y-9960000D01*
X18640000Y-9940000D02*
X18620000Y-9960000D01*
X18620000Y-10140000D02*
X18640000Y-10160000D01*
X18640000Y-10140000D02*
X18620000Y-10160000D01*
X18620000Y-10340000D02*
X18640000Y-10360000D01*
X18640000Y-10340000D02*
X18620000Y-10360000D01*
X18620000Y-10540000D02*
X18640000Y-10560000D01*
X18640000Y-10540000D02*
X18620000Y-10560000D01*
X18620000Y-10740000D02*
X18640000Y-10760000D01*
X18640000Y-10740000D02*
X18620000Y-10760000D01*
X18645000Y-11520000D02*
X18665000Y-11540000D01*
X18665000Y-11520000D02*
X18645000Y-11540000D01*
X18713369Y-10956044D02*
X18733369Y-10976044D01*
X18733369Y-10956044D02*
X18713369Y-10976044D01*
X15610000Y-9550000D02*
G75*
G03*
X15610000Y-9550000I-10000J0D01*
G01*
X15610000Y-9650000D02*
G75*
G03*
X15610000Y-9650000I-10000J0D01*
G01*
X15610000Y-9750000D02*
G75*
G03*
X15610000Y-9750000I-10000J0D01*
G01*
X15710000Y-9550000D02*
G75*
G03*
X15710000Y-9550000I-10000J0D01*
G01*
X15710000Y-9650000D02*
G75*
G03*
X15710000Y-9650000I-10000J0D01*
G01*
X15710000Y-9750000D02*
G75*
G03*
X15710000Y-9750000I-10000J0D01*
G01*
X15810000Y-9550000D02*
G75*
G03*
X15810000Y-9550000I-10000J0D01*
G01*
X15810000Y-9650000D02*
G75*
G03*
X15810000Y-9650000I-10000J0D01*
G01*
X15810000Y-9750000D02*
G75*
G03*
X15810000Y-9750000I-10000J0D01*
G01*
D12*
X17825000Y-8897500D02*
X17825000Y-8927500D01*
X17810000Y-8912500D02*
X17840000Y-8912500D01*
D13*
X14727678Y-10457678D02*
X14727678Y-10422322D01*
X14692322Y-10422322D01*
X14692322Y-10457678D01*
X14727678Y-10457678D01*
X14797972Y-10287972D02*
X14797972Y-10252617D01*
X14762617Y-10252617D01*
X14762617Y-10287972D01*
X14797972Y-10287972D01*
X14797972Y-10627383D02*
X14797972Y-10592028D01*
X14762617Y-10592028D01*
X14762617Y-10627383D01*
X14797972Y-10627383D01*
X14967678Y-10217678D02*
X14967678Y-10182322D01*
X14932322Y-10182322D01*
X14932322Y-10217678D01*
X14967678Y-10217678D01*
X14967678Y-10697678D02*
X14967678Y-10662322D01*
X14932322Y-10662322D01*
X14932322Y-10697678D01*
X14967678Y-10697678D01*
X15137383Y-10287972D02*
X15137383Y-10252617D01*
X15102028Y-10252617D01*
X15102028Y-10287972D01*
X15137383Y-10287972D01*
X15137383Y-10627383D02*
X15137383Y-10592028D01*
X15102028Y-10592028D01*
X15102028Y-10627383D01*
X15137383Y-10627383D01*
X15207678Y-10457678D02*
X15207678Y-10422322D01*
X15172322Y-10422322D01*
X15172322Y-10457678D01*
X15207678Y-10457678D01*
X18007678Y-10467678D02*
X18007678Y-10432322D01*
X17972322Y-10432322D01*
X17972322Y-10467678D01*
X18007678Y-10467678D01*
X18077972Y-10297972D02*
X18077972Y-10262617D01*
X18042617Y-10262617D01*
X18042617Y-10297972D01*
X18077972Y-10297972D01*
X18077972Y-10637383D02*
X18077972Y-10602028D01*
X18042617Y-10602028D01*
X18042617Y-10637383D01*
X18077972Y-10637383D01*
X18247678Y-10227678D02*
X18247678Y-10192322D01*
X18212322Y-10192322D01*
X18212322Y-10227678D01*
X18247678Y-10227678D01*
X18247678Y-10707678D02*
X18247678Y-10672322D01*
X18212322Y-10672322D01*
X18212322Y-10707678D01*
X18247678Y-10707678D01*
X18417383Y-10297972D02*
X18417383Y-10262617D01*
X18382028Y-10262617D01*
X18382028Y-10297972D01*
X18417383Y-10297972D01*
X18417383Y-10637383D02*
X18417383Y-10602028D01*
X18382028Y-10602028D01*
X18382028Y-10637383D01*
X18417383Y-10637383D01*
X18487678Y-10467678D02*
X18487678Y-10432322D01*
X18452322Y-10432322D01*
X18452322Y-10467678D01*
X18487678Y-10467678D01*
D14*
X15576000Y-11356000D02*
X15652000Y-11280000D01*
X15576000Y-11204000D01*
X15500000Y-11280000D01*
X15576000Y-11356000D01*
X16084000Y-11356000D02*
X16160000Y-11280000D01*
X16084000Y-11204000D01*
X16008000Y-11280000D01*
X16084000Y-11356000D01*
X16590000Y-11356000D02*
X16666000Y-11280000D01*
X16590000Y-11204000D01*
X16514000Y-11280000D01*
X16590000Y-11356000D01*
X17098000Y-11356000D02*
X17174000Y-11280000D01*
X17098000Y-11204000D01*
X17022000Y-11280000D01*
X17098000Y-11356000D01*
X17606000Y-11356000D02*
X17682000Y-11280000D01*
X17606000Y-11204000D01*
X17530000Y-11280000D01*
X17606000Y-11356000D01*
D15*
X14790000Y-10280000D02*
X15110000Y-10600000D01*
X15110000Y-10280000D02*
X14790000Y-10600000D01*
X15110000Y-10440000D02*
G75*
G03*
X15110000Y-10440000I-160000J0D01*
G01*
X18070000Y-10290000D02*
X18390000Y-10610000D01*
X18390000Y-10290000D02*
X18070000Y-10610000D01*
X18390000Y-10450000D02*
G75*
G03*
X18390000Y-10450000I-160000J0D01*
G01*
D10*
X14637619Y-12020476D02*
X14637619Y-11820476D01*
X14685238Y-11820476D01*
X14713809Y-11830000D01*
X14732857Y-11849048D01*
X14742381Y-11868095D01*
X14751905Y-11906190D01*
X14751905Y-11934762D01*
X14742381Y-11972857D01*
X14732857Y-11991905D01*
X14713809Y-12010952D01*
X14685238Y-12020476D01*
X14637619Y-12020476D01*
X14837619Y-12020476D02*
X14837619Y-11887143D01*
X14837619Y-11925238D02*
X14847143Y-11906190D01*
X14856667Y-11896667D01*
X14875714Y-11887143D01*
X14894762Y-11887143D01*
X14961428Y-12020476D02*
X14961428Y-11887143D01*
X14961428Y-11820476D02*
X14951905Y-11830000D01*
X14961428Y-11839524D01*
X14970952Y-11830000D01*
X14961428Y-11820476D01*
X14961428Y-11839524D01*
X15085238Y-12020476D02*
X15066190Y-12010952D01*
X15056667Y-11991905D01*
X15056667Y-11820476D01*
X15190000Y-12020476D02*
X15170952Y-12010952D01*
X15161428Y-11991905D01*
X15161428Y-11820476D01*
X15418571Y-12020476D02*
X15418571Y-11820476D01*
X15485238Y-11963333D01*
X15551905Y-11820476D01*
X15551905Y-12020476D01*
X15732857Y-12020476D02*
X15732857Y-11915714D01*
X15723333Y-11896667D01*
X15704286Y-11887143D01*
X15666190Y-11887143D01*
X15647143Y-11896667D01*
X15732857Y-12010952D02*
X15713809Y-12020476D01*
X15666190Y-12020476D01*
X15647143Y-12010952D01*
X15637619Y-11991905D01*
X15637619Y-11972857D01*
X15647143Y-11953809D01*
X15666190Y-11944286D01*
X15713809Y-11944286D01*
X15732857Y-11934762D01*
X15828095Y-11887143D02*
X15828095Y-12087143D01*
X15828095Y-11896667D02*
X15847143Y-11887143D01*
X15885238Y-11887143D01*
X15904286Y-11896667D01*
X15913809Y-11906190D01*
X15923333Y-11925238D01*
X15923333Y-11982381D01*
X15913809Y-12001428D01*
X15904286Y-12010952D01*
X15885238Y-12020476D01*
X15847143Y-12020476D01*
X15828095Y-12010952D01*
X16009048Y-12001428D02*
X16018571Y-12010952D01*
X16009048Y-12020476D01*
X15999524Y-12010952D01*
X16009048Y-12001428D01*
X16009048Y-12020476D01*
X16009048Y-11896667D02*
X16018571Y-11906190D01*
X16009048Y-11915714D01*
X15999524Y-11906190D01*
X16009048Y-11896667D01*
X16009048Y-11915714D01*
D11*
X14360000Y-12340000D02*
X14380000Y-12360000D01*
X14380000Y-12340000D02*
X14360000Y-12360000D01*
D10*
X14675714Y-12240476D02*
X14694762Y-12240476D01*
X14713809Y-12250000D01*
X14723333Y-12259524D01*
X14732857Y-12278571D01*
X14742381Y-12316667D01*
X14742381Y-12364286D01*
X14732857Y-12402381D01*
X14723333Y-12421428D01*
X14713809Y-12430952D01*
X14694762Y-12440476D01*
X14675714Y-12440476D01*
X14656667Y-12430952D01*
X14647143Y-12421428D01*
X14637619Y-12402381D01*
X14628095Y-12364286D01*
X14628095Y-12316667D01*
X14637619Y-12278571D01*
X14647143Y-12259524D01*
X14656667Y-12250000D01*
X14675714Y-12240476D01*
X14828095Y-12421428D02*
X14837619Y-12430952D01*
X14828095Y-12440476D01*
X14818571Y-12430952D01*
X14828095Y-12421428D01*
X14828095Y-12440476D01*
X14913809Y-12259524D02*
X14923333Y-12250000D01*
X14942381Y-12240476D01*
X14990000Y-12240476D01*
X15009048Y-12250000D01*
X15018571Y-12259524D01*
X15028095Y-12278571D01*
X15028095Y-12297619D01*
X15018571Y-12326190D01*
X14904286Y-12440476D01*
X15028095Y-12440476D01*
X15151905Y-12240476D02*
X15170952Y-12240476D01*
X15190000Y-12250000D01*
X15199524Y-12259524D01*
X15209048Y-12278571D01*
X15218571Y-12316667D01*
X15218571Y-12364286D01*
X15209048Y-12402381D01*
X15199524Y-12421428D01*
X15190000Y-12430952D01*
X15170952Y-12440476D01*
X15151905Y-12440476D01*
X15132857Y-12430952D01*
X15123333Y-12421428D01*
X15113809Y-12402381D01*
X15104286Y-12364286D01*
X15104286Y-12316667D01*
X15113809Y-12278571D01*
X15123333Y-12259524D01*
X15132857Y-12250000D01*
X15151905Y-12240476D01*
X15342381Y-12240476D02*
X15361428Y-12240476D01*
X15380476Y-12250000D01*
X15390000Y-12259524D01*
X15399524Y-12278571D01*
X15409048Y-12316667D01*
X15409048Y-12364286D01*
X15399524Y-12402381D01*
X15390000Y-12421428D01*
X15380476Y-12430952D01*
X15361428Y-12440476D01*
X15342381Y-12440476D01*
X15323333Y-12430952D01*
X15313809Y-12421428D01*
X15304286Y-12402381D01*
X15294762Y-12364286D01*
X15294762Y-12316667D01*
X15304286Y-12278571D01*
X15313809Y-12259524D01*
X15323333Y-12250000D01*
X15342381Y-12240476D01*
X15494762Y-12440476D02*
X15494762Y-12307143D01*
X15494762Y-12326190D02*
X15504286Y-12316667D01*
X15523333Y-12307143D01*
X15551905Y-12307143D01*
X15570952Y-12316667D01*
X15580476Y-12335714D01*
X15580476Y-12440476D01*
X15580476Y-12335714D02*
X15590000Y-12316667D01*
X15609048Y-12307143D01*
X15637619Y-12307143D01*
X15656667Y-12316667D01*
X15666190Y-12335714D01*
X15666190Y-12440476D01*
X15761428Y-12440476D02*
X15761428Y-12307143D01*
X15761428Y-12326190D02*
X15770952Y-12316667D01*
X15790000Y-12307143D01*
X15818571Y-12307143D01*
X15837619Y-12316667D01*
X15847143Y-12335714D01*
X15847143Y-12440476D01*
X15847143Y-12335714D02*
X15856667Y-12316667D01*
X15875714Y-12307143D01*
X15904286Y-12307143D01*
X15923333Y-12316667D01*
X15932857Y-12335714D01*
X15932857Y-12440476D01*
X16323333Y-12230952D02*
X16151905Y-12488095D01*
X16580476Y-12240476D02*
X16599524Y-12240476D01*
X16618571Y-12250000D01*
X16628095Y-12259524D01*
X16637619Y-12278571D01*
X16647143Y-12316667D01*
X16647143Y-12364286D01*
X16637619Y-12402381D01*
X16628095Y-12421428D01*
X16618571Y-12430952D01*
X16599524Y-12440476D01*
X16580476Y-12440476D01*
X16561428Y-12430952D01*
X16551905Y-12421428D01*
X16542381Y-12402381D01*
X16532857Y-12364286D01*
X16532857Y-12316667D01*
X16542381Y-12278571D01*
X16551905Y-12259524D01*
X16561428Y-12250000D01*
X16580476Y-12240476D01*
X16732857Y-12421428D02*
X16742381Y-12430952D01*
X16732857Y-12440476D01*
X16723333Y-12430952D01*
X16732857Y-12421428D01*
X16732857Y-12440476D01*
X16866190Y-12240476D02*
X16885238Y-12240476D01*
X16904286Y-12250000D01*
X16913810Y-12259524D01*
X16923333Y-12278571D01*
X16932857Y-12316667D01*
X16932857Y-12364286D01*
X16923333Y-12402381D01*
X16913810Y-12421428D01*
X16904286Y-12430952D01*
X16885238Y-12440476D01*
X16866190Y-12440476D01*
X16847143Y-12430952D01*
X16837619Y-12421428D01*
X16828095Y-12402381D01*
X16818571Y-12364286D01*
X16818571Y-12316667D01*
X16828095Y-12278571D01*
X16837619Y-12259524D01*
X16847143Y-12250000D01*
X16866190Y-12240476D01*
X17056667Y-12240476D02*
X17075714Y-12240476D01*
X17094762Y-12250000D01*
X17104286Y-12259524D01*
X17113810Y-12278571D01*
X17123333Y-12316667D01*
X17123333Y-12364286D01*
X17113810Y-12402381D01*
X17104286Y-12421428D01*
X17094762Y-12430952D01*
X17075714Y-12440476D01*
X17056667Y-12440476D01*
X17037619Y-12430952D01*
X17028095Y-12421428D01*
X17018571Y-12402381D01*
X17009048Y-12364286D01*
X17009048Y-12316667D01*
X17018571Y-12278571D01*
X17028095Y-12259524D01*
X17037619Y-12250000D01*
X17056667Y-12240476D01*
X17190000Y-12240476D02*
X17323333Y-12240476D01*
X17237619Y-12440476D01*
X17409048Y-12440476D02*
X17447143Y-12440476D01*
X17466190Y-12430952D01*
X17475714Y-12421428D01*
X17494762Y-12392857D01*
X17504286Y-12354762D01*
X17504286Y-12278571D01*
X17494762Y-12259524D01*
X17485238Y-12250000D01*
X17466190Y-12240476D01*
X17428095Y-12240476D01*
X17409048Y-12250000D01*
X17399524Y-12259524D01*
X17390000Y-12278571D01*
X17390000Y-12326190D01*
X17399524Y-12345238D01*
X17409048Y-12354762D01*
X17428095Y-12364286D01*
X17466190Y-12364286D01*
X17485238Y-12354762D01*
X17494762Y-12345238D01*
X17504286Y-12326190D01*
X17580476Y-12240476D02*
X17580476Y-12278571D01*
X17656667Y-12240476D02*
X17656667Y-12278571D01*
X17951905Y-12516667D02*
X17942381Y-12507143D01*
X17923333Y-12478571D01*
X17913810Y-12459524D01*
X17904286Y-12430952D01*
X17894762Y-12383333D01*
X17894762Y-12345238D01*
X17904286Y-12297619D01*
X17913810Y-12269048D01*
X17923333Y-12250000D01*
X17942381Y-12221428D01*
X17951905Y-12211905D01*
X18018571Y-12259524D02*
X18028095Y-12250000D01*
X18047143Y-12240476D01*
X18094762Y-12240476D01*
X18113810Y-12250000D01*
X18123333Y-12259524D01*
X18132857Y-12278571D01*
X18132857Y-12297619D01*
X18123333Y-12326190D01*
X18009048Y-12440476D01*
X18132857Y-12440476D01*
X18209048Y-12259524D02*
X18218571Y-12250000D01*
X18237619Y-12240476D01*
X18285238Y-12240476D01*
X18304286Y-12250000D01*
X18313810Y-12259524D01*
X18323333Y-12278571D01*
X18323333Y-12297619D01*
X18313810Y-12326190D01*
X18199524Y-12440476D01*
X18323333Y-12440476D01*
X18390000Y-12240476D02*
X18513810Y-12240476D01*
X18447143Y-12316667D01*
X18475714Y-12316667D01*
X18494762Y-12326190D01*
X18504286Y-12335714D01*
X18513810Y-12354762D01*
X18513810Y-12402381D01*
X18504286Y-12421428D01*
X18494762Y-12430952D01*
X18475714Y-12440476D01*
X18418571Y-12440476D01*
X18399524Y-12430952D01*
X18390000Y-12421428D01*
X18751905Y-12440476D02*
X18751905Y-12240476D01*
X18837619Y-12440476D02*
X18837619Y-12335714D01*
X18828095Y-12316667D01*
X18809048Y-12307143D01*
X18780476Y-12307143D01*
X18761429Y-12316667D01*
X18751905Y-12326190D01*
X18961429Y-12440476D02*
X18942381Y-12430952D01*
X18932857Y-12421428D01*
X18923333Y-12402381D01*
X18923333Y-12345238D01*
X18932857Y-12326190D01*
X18942381Y-12316667D01*
X18961429Y-12307143D01*
X18990000Y-12307143D01*
X19009048Y-12316667D01*
X19018571Y-12326190D01*
X19028095Y-12345238D01*
X19028095Y-12402381D01*
X19018571Y-12421428D01*
X19009048Y-12430952D01*
X18990000Y-12440476D01*
X18961429Y-12440476D01*
X19142381Y-12440476D02*
X19123333Y-12430952D01*
X19113810Y-12411905D01*
X19113810Y-12240476D01*
X19294762Y-12430952D02*
X19275714Y-12440476D01*
X19237619Y-12440476D01*
X19218571Y-12430952D01*
X19209048Y-12411905D01*
X19209048Y-12335714D01*
X19218571Y-12316667D01*
X19237619Y-12307143D01*
X19275714Y-12307143D01*
X19294762Y-12316667D01*
X19304286Y-12335714D01*
X19304286Y-12354762D01*
X19209048Y-12373809D01*
X19380476Y-12430952D02*
X19399524Y-12440476D01*
X19437619Y-12440476D01*
X19456667Y-12430952D01*
X19466190Y-12411905D01*
X19466190Y-12402381D01*
X19456667Y-12383333D01*
X19437619Y-12373809D01*
X19409048Y-12373809D01*
X19390000Y-12364286D01*
X19380476Y-12345238D01*
X19380476Y-12335714D01*
X19390000Y-12316667D01*
X19409048Y-12307143D01*
X19437619Y-12307143D01*
X19456667Y-12316667D01*
X19532857Y-12516667D02*
X19542381Y-12507143D01*
X19561429Y-12478571D01*
X19570952Y-12459524D01*
X19580476Y-12430952D01*
X19590000Y-12383333D01*
X19590000Y-12345238D01*
X19580476Y-12297619D01*
X19570952Y-12269048D01*
X19561429Y-12250000D01*
X19542381Y-12221428D01*
X19532857Y-12211905D01*
D11*
X14380000Y-12614000D02*
G75*
G03*
X14380000Y-12614000I-10000J0D01*
G01*
D10*
X14675714Y-12504476D02*
X14694762Y-12504476D01*
X14713809Y-12514000D01*
X14723333Y-12523524D01*
X14732857Y-12542571D01*
X14742381Y-12580667D01*
X14742381Y-12628286D01*
X14732857Y-12666381D01*
X14723333Y-12685428D01*
X14713809Y-12694952D01*
X14694762Y-12704476D01*
X14675714Y-12704476D01*
X14656667Y-12694952D01*
X14647143Y-12685428D01*
X14637619Y-12666381D01*
X14628095Y-12628286D01*
X14628095Y-12580667D01*
X14637619Y-12542571D01*
X14647143Y-12523524D01*
X14656667Y-12514000D01*
X14675714Y-12504476D01*
X14828095Y-12685428D02*
X14837619Y-12694952D01*
X14828095Y-12704476D01*
X14818571Y-12694952D01*
X14828095Y-12685428D01*
X14828095Y-12704476D01*
X14913809Y-12523524D02*
X14923333Y-12514000D01*
X14942381Y-12504476D01*
X14990000Y-12504476D01*
X15009048Y-12514000D01*
X15018571Y-12523524D01*
X15028095Y-12542571D01*
X15028095Y-12561619D01*
X15018571Y-12590190D01*
X14904286Y-12704476D01*
X15028095Y-12704476D01*
X15151905Y-12504476D02*
X15170952Y-12504476D01*
X15190000Y-12514000D01*
X15199524Y-12523524D01*
X15209048Y-12542571D01*
X15218571Y-12580667D01*
X15218571Y-12628286D01*
X15209048Y-12666381D01*
X15199524Y-12685428D01*
X15190000Y-12694952D01*
X15170952Y-12704476D01*
X15151905Y-12704476D01*
X15132857Y-12694952D01*
X15123333Y-12685428D01*
X15113809Y-12666381D01*
X15104286Y-12628286D01*
X15104286Y-12580667D01*
X15113809Y-12542571D01*
X15123333Y-12523524D01*
X15132857Y-12514000D01*
X15151905Y-12504476D01*
X15342381Y-12504476D02*
X15361428Y-12504476D01*
X15380476Y-12514000D01*
X15390000Y-12523524D01*
X15399524Y-12542571D01*
X15409048Y-12580667D01*
X15409048Y-12628286D01*
X15399524Y-12666381D01*
X15390000Y-12685428D01*
X15380476Y-12694952D01*
X15361428Y-12704476D01*
X15342381Y-12704476D01*
X15323333Y-12694952D01*
X15313809Y-12685428D01*
X15304286Y-12666381D01*
X15294762Y-12628286D01*
X15294762Y-12580667D01*
X15304286Y-12542571D01*
X15313809Y-12523524D01*
X15323333Y-12514000D01*
X15342381Y-12504476D01*
X15494762Y-12704476D02*
X15494762Y-12571143D01*
X15494762Y-12590190D02*
X15504286Y-12580667D01*
X15523333Y-12571143D01*
X15551905Y-12571143D01*
X15570952Y-12580667D01*
X15580476Y-12599714D01*
X15580476Y-12704476D01*
X15580476Y-12599714D02*
X15590000Y-12580667D01*
X15609048Y-12571143D01*
X15637619Y-12571143D01*
X15656667Y-12580667D01*
X15666190Y-12599714D01*
X15666190Y-12704476D01*
X15761428Y-12704476D02*
X15761428Y-12571143D01*
X15761428Y-12590190D02*
X15770952Y-12580667D01*
X15790000Y-12571143D01*
X15818571Y-12571143D01*
X15837619Y-12580667D01*
X15847143Y-12599714D01*
X15847143Y-12704476D01*
X15847143Y-12599714D02*
X15856667Y-12580667D01*
X15875714Y-12571143D01*
X15904286Y-12571143D01*
X15923333Y-12580667D01*
X15932857Y-12599714D01*
X15932857Y-12704476D01*
X16323333Y-12494952D02*
X16151905Y-12752095D01*
X16580476Y-12504476D02*
X16599524Y-12504476D01*
X16618571Y-12514000D01*
X16628095Y-12523524D01*
X16637619Y-12542571D01*
X16647143Y-12580667D01*
X16647143Y-12628286D01*
X16637619Y-12666381D01*
X16628095Y-12685428D01*
X16618571Y-12694952D01*
X16599524Y-12704476D01*
X16580476Y-12704476D01*
X16561428Y-12694952D01*
X16551905Y-12685428D01*
X16542381Y-12666381D01*
X16532857Y-12628286D01*
X16532857Y-12580667D01*
X16542381Y-12542571D01*
X16551905Y-12523524D01*
X16561428Y-12514000D01*
X16580476Y-12504476D01*
X16732857Y-12685428D02*
X16742381Y-12694952D01*
X16732857Y-12704476D01*
X16723333Y-12694952D01*
X16732857Y-12685428D01*
X16732857Y-12704476D01*
X16866190Y-12504476D02*
X16885238Y-12504476D01*
X16904286Y-12514000D01*
X16913810Y-12523524D01*
X16923333Y-12542571D01*
X16932857Y-12580667D01*
X16932857Y-12628286D01*
X16923333Y-12666381D01*
X16913810Y-12685428D01*
X16904286Y-12694952D01*
X16885238Y-12704476D01*
X16866190Y-12704476D01*
X16847143Y-12694952D01*
X16837619Y-12685428D01*
X16828095Y-12666381D01*
X16818571Y-12628286D01*
X16818571Y-12580667D01*
X16828095Y-12542571D01*
X16837619Y-12523524D01*
X16847143Y-12514000D01*
X16866190Y-12504476D01*
X17056667Y-12504476D02*
X17075714Y-12504476D01*
X17094762Y-12514000D01*
X17104286Y-12523524D01*
X17113810Y-12542571D01*
X17123333Y-12580667D01*
X17123333Y-12628286D01*
X17113810Y-12666381D01*
X17104286Y-12685428D01*
X17094762Y-12694952D01*
X17075714Y-12704476D01*
X17056667Y-12704476D01*
X17037619Y-12694952D01*
X17028095Y-12685428D01*
X17018571Y-12666381D01*
X17009048Y-12628286D01*
X17009048Y-12580667D01*
X17018571Y-12542571D01*
X17028095Y-12523524D01*
X17037619Y-12514000D01*
X17056667Y-12504476D01*
X17190000Y-12504476D02*
X17323333Y-12504476D01*
X17237619Y-12704476D01*
X17409048Y-12704476D02*
X17447143Y-12704476D01*
X17466190Y-12694952D01*
X17475714Y-12685428D01*
X17494762Y-12656857D01*
X17504286Y-12618762D01*
X17504286Y-12542571D01*
X17494762Y-12523524D01*
X17485238Y-12514000D01*
X17466190Y-12504476D01*
X17428095Y-12504476D01*
X17409048Y-12514000D01*
X17399524Y-12523524D01*
X17390000Y-12542571D01*
X17390000Y-12590190D01*
X17399524Y-12609238D01*
X17409048Y-12618762D01*
X17428095Y-12628286D01*
X17466190Y-12628286D01*
X17485238Y-12618762D01*
X17494762Y-12609238D01*
X17504286Y-12590190D01*
X17580476Y-12504476D02*
X17580476Y-12542571D01*
X17656667Y-12504476D02*
X17656667Y-12542571D01*
X17951905Y-12780667D02*
X17942381Y-12771143D01*
X17923333Y-12742571D01*
X17913810Y-12723524D01*
X17904286Y-12694952D01*
X17894762Y-12647333D01*
X17894762Y-12609238D01*
X17904286Y-12561619D01*
X17913810Y-12533048D01*
X17923333Y-12514000D01*
X17942381Y-12485428D01*
X17951905Y-12475905D01*
X18037619Y-12704476D02*
X18075714Y-12704476D01*
X18094762Y-12694952D01*
X18104286Y-12685428D01*
X18123333Y-12656857D01*
X18132857Y-12618762D01*
X18132857Y-12542571D01*
X18123333Y-12523524D01*
X18113810Y-12514000D01*
X18094762Y-12504476D01*
X18056667Y-12504476D01*
X18037619Y-12514000D01*
X18028095Y-12523524D01*
X18018571Y-12542571D01*
X18018571Y-12590190D01*
X18028095Y-12609238D01*
X18037619Y-12618762D01*
X18056667Y-12628286D01*
X18094762Y-12628286D01*
X18113810Y-12618762D01*
X18123333Y-12609238D01*
X18132857Y-12590190D01*
X18370952Y-12704476D02*
X18370952Y-12504476D01*
X18456667Y-12704476D02*
X18456667Y-12599714D01*
X18447143Y-12580667D01*
X18428095Y-12571143D01*
X18399524Y-12571143D01*
X18380476Y-12580667D01*
X18370952Y-12590190D01*
X18580476Y-12704476D02*
X18561429Y-12694952D01*
X18551905Y-12685428D01*
X18542381Y-12666381D01*
X18542381Y-12609238D01*
X18551905Y-12590190D01*
X18561429Y-12580667D01*
X18580476Y-12571143D01*
X18609048Y-12571143D01*
X18628095Y-12580667D01*
X18637619Y-12590190D01*
X18647143Y-12609238D01*
X18647143Y-12666381D01*
X18637619Y-12685428D01*
X18628095Y-12694952D01*
X18609048Y-12704476D01*
X18580476Y-12704476D01*
X18761429Y-12704476D02*
X18742381Y-12694952D01*
X18732857Y-12675905D01*
X18732857Y-12504476D01*
X18913810Y-12694952D02*
X18894762Y-12704476D01*
X18856667Y-12704476D01*
X18837619Y-12694952D01*
X18828095Y-12675905D01*
X18828095Y-12599714D01*
X18837619Y-12580667D01*
X18856667Y-12571143D01*
X18894762Y-12571143D01*
X18913810Y-12580667D01*
X18923333Y-12599714D01*
X18923333Y-12618762D01*
X18828095Y-12637809D01*
X18999524Y-12694952D02*
X19018571Y-12704476D01*
X19056667Y-12704476D01*
X19075714Y-12694952D01*
X19085238Y-12675905D01*
X19085238Y-12666381D01*
X19075714Y-12647333D01*
X19056667Y-12637809D01*
X19028095Y-12637809D01*
X19009048Y-12628286D01*
X18999524Y-12609238D01*
X18999524Y-12599714D01*
X19009048Y-12580667D01*
X19028095Y-12571143D01*
X19056667Y-12571143D01*
X19075714Y-12580667D01*
X19151905Y-12780667D02*
X19161429Y-12771143D01*
X19180476Y-12742571D01*
X19190000Y-12723524D01*
X19199524Y-12694952D01*
X19209048Y-12647333D01*
X19209048Y-12609238D01*
X19199524Y-12561619D01*
X19190000Y-12533048D01*
X19180476Y-12514000D01*
X19161429Y-12485428D01*
X19151905Y-12475905D01*
D12*
X14365000Y-12863000D02*
X14365000Y-12893000D01*
X14350000Y-12878000D02*
X14380000Y-12878000D01*
D10*
X14675714Y-12768476D02*
X14694762Y-12768476D01*
X14713809Y-12778000D01*
X14723333Y-12787524D01*
X14732857Y-12806571D01*
X14742381Y-12844667D01*
X14742381Y-12892286D01*
X14732857Y-12930381D01*
X14723333Y-12949428D01*
X14713809Y-12958952D01*
X14694762Y-12968476D01*
X14675714Y-12968476D01*
X14656667Y-12958952D01*
X14647143Y-12949428D01*
X14637619Y-12930381D01*
X14628095Y-12892286D01*
X14628095Y-12844667D01*
X14637619Y-12806571D01*
X14647143Y-12787524D01*
X14656667Y-12778000D01*
X14675714Y-12768476D01*
X14828095Y-12949428D02*
X14837619Y-12958952D01*
X14828095Y-12968476D01*
X14818571Y-12958952D01*
X14828095Y-12949428D01*
X14828095Y-12968476D01*
X14904286Y-12768476D02*
X15028095Y-12768476D01*
X14961428Y-12844667D01*
X14990000Y-12844667D01*
X15009048Y-12854190D01*
X15018571Y-12863714D01*
X15028095Y-12882762D01*
X15028095Y-12930381D01*
X15018571Y-12949428D01*
X15009048Y-12958952D01*
X14990000Y-12968476D01*
X14932857Y-12968476D01*
X14913809Y-12958952D01*
X14904286Y-12949428D01*
X15151905Y-12768476D02*
X15170952Y-12768476D01*
X15190000Y-12778000D01*
X15199524Y-12787524D01*
X15209048Y-12806571D01*
X15218571Y-12844667D01*
X15218571Y-12892286D01*
X15209048Y-12930381D01*
X15199524Y-12949428D01*
X15190000Y-12958952D01*
X15170952Y-12968476D01*
X15151905Y-12968476D01*
X15132857Y-12958952D01*
X15123333Y-12949428D01*
X15113809Y-12930381D01*
X15104286Y-12892286D01*
X15104286Y-12844667D01*
X15113809Y-12806571D01*
X15123333Y-12787524D01*
X15132857Y-12778000D01*
X15151905Y-12768476D01*
X15342381Y-12768476D02*
X15361428Y-12768476D01*
X15380476Y-12778000D01*
X15390000Y-12787524D01*
X15399524Y-12806571D01*
X15409048Y-12844667D01*
X15409048Y-12892286D01*
X15399524Y-12930381D01*
X15390000Y-12949428D01*
X15380476Y-12958952D01*
X15361428Y-12968476D01*
X15342381Y-12968476D01*
X15323333Y-12958952D01*
X15313809Y-12949428D01*
X15304286Y-12930381D01*
X15294762Y-12892286D01*
X15294762Y-12844667D01*
X15304286Y-12806571D01*
X15313809Y-12787524D01*
X15323333Y-12778000D01*
X15342381Y-12768476D01*
X15494762Y-12968476D02*
X15494762Y-12835143D01*
X15494762Y-12854190D02*
X15504286Y-12844667D01*
X15523333Y-12835143D01*
X15551905Y-12835143D01*
X15570952Y-12844667D01*
X15580476Y-12863714D01*
X15580476Y-12968476D01*
X15580476Y-12863714D02*
X15590000Y-12844667D01*
X15609048Y-12835143D01*
X15637619Y-12835143D01*
X15656667Y-12844667D01*
X15666190Y-12863714D01*
X15666190Y-12968476D01*
X15761428Y-12968476D02*
X15761428Y-12835143D01*
X15761428Y-12854190D02*
X15770952Y-12844667D01*
X15790000Y-12835143D01*
X15818571Y-12835143D01*
X15837619Y-12844667D01*
X15847143Y-12863714D01*
X15847143Y-12968476D01*
X15847143Y-12863714D02*
X15856667Y-12844667D01*
X15875714Y-12835143D01*
X15904286Y-12835143D01*
X15923333Y-12844667D01*
X15932857Y-12863714D01*
X15932857Y-12968476D01*
X16323333Y-12758952D02*
X16151905Y-13016095D01*
X16580476Y-12768476D02*
X16599524Y-12768476D01*
X16618571Y-12778000D01*
X16628095Y-12787524D01*
X16637619Y-12806571D01*
X16647143Y-12844667D01*
X16647143Y-12892286D01*
X16637619Y-12930381D01*
X16628095Y-12949428D01*
X16618571Y-12958952D01*
X16599524Y-12968476D01*
X16580476Y-12968476D01*
X16561428Y-12958952D01*
X16551905Y-12949428D01*
X16542381Y-12930381D01*
X16532857Y-12892286D01*
X16532857Y-12844667D01*
X16542381Y-12806571D01*
X16551905Y-12787524D01*
X16561428Y-12778000D01*
X16580476Y-12768476D01*
X16732857Y-12949428D02*
X16742381Y-12958952D01*
X16732857Y-12968476D01*
X16723333Y-12958952D01*
X16732857Y-12949428D01*
X16732857Y-12968476D01*
X16866190Y-12768476D02*
X16885238Y-12768476D01*
X16904286Y-12778000D01*
X16913810Y-12787524D01*
X16923333Y-12806571D01*
X16932857Y-12844667D01*
X16932857Y-12892286D01*
X16923333Y-12930381D01*
X16913810Y-12949428D01*
X16904286Y-12958952D01*
X16885238Y-12968476D01*
X16866190Y-12968476D01*
X16847143Y-12958952D01*
X16837619Y-12949428D01*
X16828095Y-12930381D01*
X16818571Y-12892286D01*
X16818571Y-12844667D01*
X16828095Y-12806571D01*
X16837619Y-12787524D01*
X16847143Y-12778000D01*
X16866190Y-12768476D01*
X17123333Y-12968476D02*
X17009048Y-12968476D01*
X17066190Y-12968476D02*
X17066190Y-12768476D01*
X17047143Y-12797048D01*
X17028095Y-12816095D01*
X17009048Y-12825619D01*
X17313810Y-12968476D02*
X17199524Y-12968476D01*
X17256667Y-12968476D02*
X17256667Y-12768476D01*
X17237619Y-12797048D01*
X17218571Y-12816095D01*
X17199524Y-12825619D01*
X17428095Y-12854190D02*
X17409048Y-12844667D01*
X17399524Y-12835143D01*
X17390000Y-12816095D01*
X17390000Y-12806571D01*
X17399524Y-12787524D01*
X17409048Y-12778000D01*
X17428095Y-12768476D01*
X17466190Y-12768476D01*
X17485238Y-12778000D01*
X17494762Y-12787524D01*
X17504286Y-12806571D01*
X17504286Y-12816095D01*
X17494762Y-12835143D01*
X17485238Y-12844667D01*
X17466190Y-12854190D01*
X17428095Y-12854190D01*
X17409048Y-12863714D01*
X17399524Y-12873238D01*
X17390000Y-12892286D01*
X17390000Y-12930381D01*
X17399524Y-12949428D01*
X17409048Y-12958952D01*
X17428095Y-12968476D01*
X17466190Y-12968476D01*
X17485238Y-12958952D01*
X17494762Y-12949428D01*
X17504286Y-12930381D01*
X17504286Y-12892286D01*
X17494762Y-12873238D01*
X17485238Y-12863714D01*
X17466190Y-12854190D01*
X17580476Y-12768476D02*
X17580476Y-12806571D01*
X17656667Y-12768476D02*
X17656667Y-12806571D01*
X17951905Y-13044667D02*
X17942381Y-13035143D01*
X17923333Y-13006571D01*
X17913810Y-12987524D01*
X17904286Y-12958952D01*
X17894762Y-12911333D01*
X17894762Y-12873238D01*
X17904286Y-12825619D01*
X17913810Y-12797048D01*
X17923333Y-12778000D01*
X17942381Y-12749428D01*
X17951905Y-12739905D01*
X18132857Y-12968476D02*
X18018571Y-12968476D01*
X18075714Y-12968476D02*
X18075714Y-12768476D01*
X18056667Y-12797048D01*
X18037619Y-12816095D01*
X18018571Y-12825619D01*
X18370952Y-12968476D02*
X18370952Y-12768476D01*
X18456667Y-12968476D02*
X18456667Y-12863714D01*
X18447143Y-12844667D01*
X18428095Y-12835143D01*
X18399524Y-12835143D01*
X18380476Y-12844667D01*
X18370952Y-12854190D01*
X18580476Y-12968476D02*
X18561429Y-12958952D01*
X18551905Y-12949428D01*
X18542381Y-12930381D01*
X18542381Y-12873238D01*
X18551905Y-12854190D01*
X18561429Y-12844667D01*
X18580476Y-12835143D01*
X18609048Y-12835143D01*
X18628095Y-12844667D01*
X18637619Y-12854190D01*
X18647143Y-12873238D01*
X18647143Y-12930381D01*
X18637619Y-12949428D01*
X18628095Y-12958952D01*
X18609048Y-12968476D01*
X18580476Y-12968476D01*
X18761429Y-12968476D02*
X18742381Y-12958952D01*
X18732857Y-12939905D01*
X18732857Y-12768476D01*
X18913810Y-12958952D02*
X18894762Y-12968476D01*
X18856667Y-12968476D01*
X18837619Y-12958952D01*
X18828095Y-12939905D01*
X18828095Y-12863714D01*
X18837619Y-12844667D01*
X18856667Y-12835143D01*
X18894762Y-12835143D01*
X18913810Y-12844667D01*
X18923333Y-12863714D01*
X18923333Y-12882762D01*
X18828095Y-12901809D01*
X18990000Y-13044667D02*
X18999524Y-13035143D01*
X19018571Y-13006571D01*
X19028095Y-12987524D01*
X19037619Y-12958952D01*
X19047143Y-12911333D01*
X19047143Y-12873238D01*
X19037619Y-12825619D01*
X19028095Y-12797048D01*
X19018571Y-12778000D01*
X18999524Y-12749428D01*
X18990000Y-12739905D01*
D13*
X14372678Y-13159678D02*
X14372678Y-13124322D01*
X14337322Y-13124322D01*
X14337322Y-13159678D01*
X14372678Y-13159678D01*
D10*
X14675714Y-13032476D02*
X14694762Y-13032476D01*
X14713809Y-13042000D01*
X14723333Y-13051524D01*
X14732857Y-13070571D01*
X14742381Y-13108667D01*
X14742381Y-13156286D01*
X14732857Y-13194381D01*
X14723333Y-13213428D01*
X14713809Y-13222952D01*
X14694762Y-13232476D01*
X14675714Y-13232476D01*
X14656667Y-13222952D01*
X14647143Y-13213428D01*
X14637619Y-13194381D01*
X14628095Y-13156286D01*
X14628095Y-13108667D01*
X14637619Y-13070571D01*
X14647143Y-13051524D01*
X14656667Y-13042000D01*
X14675714Y-13032476D01*
X14828095Y-13213428D02*
X14837619Y-13222952D01*
X14828095Y-13232476D01*
X14818571Y-13222952D01*
X14828095Y-13213428D01*
X14828095Y-13232476D01*
X15018571Y-13032476D02*
X14923333Y-13032476D01*
X14913809Y-13127714D01*
X14923333Y-13118190D01*
X14942381Y-13108667D01*
X14990000Y-13108667D01*
X15009048Y-13118190D01*
X15018571Y-13127714D01*
X15028095Y-13146762D01*
X15028095Y-13194381D01*
X15018571Y-13213428D01*
X15009048Y-13222952D01*
X14990000Y-13232476D01*
X14942381Y-13232476D01*
X14923333Y-13222952D01*
X14913809Y-13213428D01*
X15151905Y-13032476D02*
X15170952Y-13032476D01*
X15190000Y-13042000D01*
X15199524Y-13051524D01*
X15209048Y-13070571D01*
X15218571Y-13108667D01*
X15218571Y-13156286D01*
X15209048Y-13194381D01*
X15199524Y-13213428D01*
X15190000Y-13222952D01*
X15170952Y-13232476D01*
X15151905Y-13232476D01*
X15132857Y-13222952D01*
X15123333Y-13213428D01*
X15113809Y-13194381D01*
X15104286Y-13156286D01*
X15104286Y-13108667D01*
X15113809Y-13070571D01*
X15123333Y-13051524D01*
X15132857Y-13042000D01*
X15151905Y-13032476D01*
X15342381Y-13032476D02*
X15361428Y-13032476D01*
X15380476Y-13042000D01*
X15390000Y-13051524D01*
X15399524Y-13070571D01*
X15409048Y-13108667D01*
X15409048Y-13156286D01*
X15399524Y-13194381D01*
X15390000Y-13213428D01*
X15380476Y-13222952D01*
X15361428Y-13232476D01*
X15342381Y-13232476D01*
X15323333Y-13222952D01*
X15313809Y-13213428D01*
X15304286Y-13194381D01*
X15294762Y-13156286D01*
X15294762Y-13108667D01*
X15304286Y-13070571D01*
X15313809Y-13051524D01*
X15323333Y-13042000D01*
X15342381Y-13032476D01*
X15494762Y-13232476D02*
X15494762Y-13099143D01*
X15494762Y-13118190D02*
X15504286Y-13108667D01*
X15523333Y-13099143D01*
X15551905Y-13099143D01*
X15570952Y-13108667D01*
X15580476Y-13127714D01*
X15580476Y-13232476D01*
X15580476Y-13127714D02*
X15590000Y-13108667D01*
X15609048Y-13099143D01*
X15637619Y-13099143D01*
X15656667Y-13108667D01*
X15666190Y-13127714D01*
X15666190Y-13232476D01*
X15761428Y-13232476D02*
X15761428Y-13099143D01*
X15761428Y-13118190D02*
X15770952Y-13108667D01*
X15790000Y-13099143D01*
X15818571Y-13099143D01*
X15837619Y-13108667D01*
X15847143Y-13127714D01*
X15847143Y-13232476D01*
X15847143Y-13127714D02*
X15856667Y-13108667D01*
X15875714Y-13099143D01*
X15904286Y-13099143D01*
X15923333Y-13108667D01*
X15932857Y-13127714D01*
X15932857Y-13232476D01*
X16323333Y-13022952D02*
X16151905Y-13280095D01*
X16580476Y-13032476D02*
X16599524Y-13032476D01*
X16618571Y-13042000D01*
X16628095Y-13051524D01*
X16637619Y-13070571D01*
X16647143Y-13108667D01*
X16647143Y-13156286D01*
X16637619Y-13194381D01*
X16628095Y-13213428D01*
X16618571Y-13222952D01*
X16599524Y-13232476D01*
X16580476Y-13232476D01*
X16561428Y-13222952D01*
X16551905Y-13213428D01*
X16542381Y-13194381D01*
X16532857Y-13156286D01*
X16532857Y-13108667D01*
X16542381Y-13070571D01*
X16551905Y-13051524D01*
X16561428Y-13042000D01*
X16580476Y-13032476D01*
X16732857Y-13213428D02*
X16742381Y-13222952D01*
X16732857Y-13232476D01*
X16723333Y-13222952D01*
X16732857Y-13213428D01*
X16732857Y-13232476D01*
X16866190Y-13032476D02*
X16885238Y-13032476D01*
X16904286Y-13042000D01*
X16913810Y-13051524D01*
X16923333Y-13070571D01*
X16932857Y-13108667D01*
X16932857Y-13156286D01*
X16923333Y-13194381D01*
X16913810Y-13213428D01*
X16904286Y-13222952D01*
X16885238Y-13232476D01*
X16866190Y-13232476D01*
X16847143Y-13222952D01*
X16837619Y-13213428D01*
X16828095Y-13194381D01*
X16818571Y-13156286D01*
X16818571Y-13108667D01*
X16828095Y-13070571D01*
X16837619Y-13051524D01*
X16847143Y-13042000D01*
X16866190Y-13032476D01*
X17123333Y-13232476D02*
X17009048Y-13232476D01*
X17066190Y-13232476D02*
X17066190Y-13032476D01*
X17047143Y-13061048D01*
X17028095Y-13080095D01*
X17009048Y-13089619D01*
X17218571Y-13232476D02*
X17256667Y-13232476D01*
X17275714Y-13222952D01*
X17285238Y-13213428D01*
X17304286Y-13184857D01*
X17313810Y-13146762D01*
X17313810Y-13070571D01*
X17304286Y-13051524D01*
X17294762Y-13042000D01*
X17275714Y-13032476D01*
X17237619Y-13032476D01*
X17218571Y-13042000D01*
X17209048Y-13051524D01*
X17199524Y-13070571D01*
X17199524Y-13118190D01*
X17209048Y-13137238D01*
X17218571Y-13146762D01*
X17237619Y-13156286D01*
X17275714Y-13156286D01*
X17294762Y-13146762D01*
X17304286Y-13137238D01*
X17313810Y-13118190D01*
X17380476Y-13032476D02*
X17513810Y-13032476D01*
X17428095Y-13232476D01*
X17580476Y-13032476D02*
X17580476Y-13070571D01*
X17656667Y-13032476D02*
X17656667Y-13070571D01*
X17951905Y-13308667D02*
X17942381Y-13299143D01*
X17923333Y-13270571D01*
X17913810Y-13251524D01*
X17904286Y-13222952D01*
X17894762Y-13175333D01*
X17894762Y-13137238D01*
X17904286Y-13089619D01*
X17913810Y-13061048D01*
X17923333Y-13042000D01*
X17942381Y-13013428D01*
X17951905Y-13003905D01*
X18132857Y-13232476D02*
X18018571Y-13232476D01*
X18075714Y-13232476D02*
X18075714Y-13032476D01*
X18056667Y-13061048D01*
X18037619Y-13080095D01*
X18018571Y-13089619D01*
X18304286Y-13032476D02*
X18266190Y-13032476D01*
X18247143Y-13042000D01*
X18237619Y-13051524D01*
X18218571Y-13080095D01*
X18209048Y-13118190D01*
X18209048Y-13194381D01*
X18218571Y-13213428D01*
X18228095Y-13222952D01*
X18247143Y-13232476D01*
X18285238Y-13232476D01*
X18304286Y-13222952D01*
X18313810Y-13213428D01*
X18323333Y-13194381D01*
X18323333Y-13146762D01*
X18313810Y-13127714D01*
X18304286Y-13118190D01*
X18285238Y-13108667D01*
X18247143Y-13108667D01*
X18228095Y-13118190D01*
X18218571Y-13127714D01*
X18209048Y-13146762D01*
X18561429Y-13232476D02*
X18561429Y-13032476D01*
X18647143Y-13232476D02*
X18647143Y-13127714D01*
X18637619Y-13108667D01*
X18618571Y-13099143D01*
X18590000Y-13099143D01*
X18570952Y-13108667D01*
X18561429Y-13118190D01*
X18770952Y-13232476D02*
X18751905Y-13222952D01*
X18742381Y-13213428D01*
X18732857Y-13194381D01*
X18732857Y-13137238D01*
X18742381Y-13118190D01*
X18751905Y-13108667D01*
X18770952Y-13099143D01*
X18799524Y-13099143D01*
X18818571Y-13108667D01*
X18828095Y-13118190D01*
X18837619Y-13137238D01*
X18837619Y-13194381D01*
X18828095Y-13213428D01*
X18818571Y-13222952D01*
X18799524Y-13232476D01*
X18770952Y-13232476D01*
X18951905Y-13232476D02*
X18932857Y-13222952D01*
X18923333Y-13203905D01*
X18923333Y-13032476D01*
X19104286Y-13222952D02*
X19085238Y-13232476D01*
X19047143Y-13232476D01*
X19028095Y-13222952D01*
X19018571Y-13203905D01*
X19018571Y-13127714D01*
X19028095Y-13108667D01*
X19047143Y-13099143D01*
X19085238Y-13099143D01*
X19104286Y-13108667D01*
X19113810Y-13127714D01*
X19113810Y-13146762D01*
X19018571Y-13165809D01*
X19190000Y-13222952D02*
X19209048Y-13232476D01*
X19247143Y-13232476D01*
X19266190Y-13222952D01*
X19275714Y-13203905D01*
X19275714Y-13194381D01*
X19266190Y-13175333D01*
X19247143Y-13165809D01*
X19218571Y-13165809D01*
X19199524Y-13156286D01*
X19190000Y-13137238D01*
X19190000Y-13127714D01*
X19199524Y-13108667D01*
X19218571Y-13099143D01*
X19247143Y-13099143D01*
X19266190Y-13108667D01*
X19342381Y-13308667D02*
X19351905Y-13299143D01*
X19370952Y-13270571D01*
X19380476Y-13251524D01*
X19390000Y-13222952D01*
X19399524Y-13175333D01*
X19399524Y-13137238D01*
X19390000Y-13089619D01*
X19380476Y-13061048D01*
X19370952Y-13042000D01*
X19351905Y-13013428D01*
X19342381Y-13003905D01*
D14*
X14304000Y-13482000D02*
X14380000Y-13406000D01*
X14304000Y-13330000D01*
X14228000Y-13406000D01*
X14304000Y-13482000D01*
D10*
X14742381Y-13496476D02*
X14628095Y-13496476D01*
X14685238Y-13496476D02*
X14685238Y-13296476D01*
X14666190Y-13325048D01*
X14647143Y-13344095D01*
X14628095Y-13353619D01*
X14828095Y-13477428D02*
X14837619Y-13486952D01*
X14828095Y-13496476D01*
X14818571Y-13486952D01*
X14828095Y-13477428D01*
X14828095Y-13496476D01*
X15018571Y-13296476D02*
X14923333Y-13296476D01*
X14913809Y-13391714D01*
X14923333Y-13382190D01*
X14942381Y-13372667D01*
X14990000Y-13372667D01*
X15009048Y-13382190D01*
X15018571Y-13391714D01*
X15028095Y-13410762D01*
X15028095Y-13458381D01*
X15018571Y-13477428D01*
X15009048Y-13486952D01*
X14990000Y-13496476D01*
X14942381Y-13496476D01*
X14923333Y-13486952D01*
X14913809Y-13477428D01*
X15104286Y-13315524D02*
X15113809Y-13306000D01*
X15132857Y-13296476D01*
X15180476Y-13296476D01*
X15199524Y-13306000D01*
X15209048Y-13315524D01*
X15218571Y-13334571D01*
X15218571Y-13353619D01*
X15209048Y-13382190D01*
X15094762Y-13496476D01*
X15218571Y-13496476D01*
X15342381Y-13296476D02*
X15361428Y-13296476D01*
X15380476Y-13306000D01*
X15390000Y-13315524D01*
X15399524Y-13334571D01*
X15409048Y-13372667D01*
X15409048Y-13420286D01*
X15399524Y-13458381D01*
X15390000Y-13477428D01*
X15380476Y-13486952D01*
X15361428Y-13496476D01*
X15342381Y-13496476D01*
X15323333Y-13486952D01*
X15313809Y-13477428D01*
X15304286Y-13458381D01*
X15294762Y-13420286D01*
X15294762Y-13372667D01*
X15304286Y-13334571D01*
X15313809Y-13315524D01*
X15323333Y-13306000D01*
X15342381Y-13296476D01*
X15494762Y-13496476D02*
X15494762Y-13363143D01*
X15494762Y-13382190D02*
X15504286Y-13372667D01*
X15523333Y-13363143D01*
X15551905Y-13363143D01*
X15570952Y-13372667D01*
X15580476Y-13391714D01*
X15580476Y-13496476D01*
X15580476Y-13391714D02*
X15590000Y-13372667D01*
X15609048Y-13363143D01*
X15637619Y-13363143D01*
X15656667Y-13372667D01*
X15666190Y-13391714D01*
X15666190Y-13496476D01*
X15761428Y-13496476D02*
X15761428Y-13363143D01*
X15761428Y-13382190D02*
X15770952Y-13372667D01*
X15790000Y-13363143D01*
X15818571Y-13363143D01*
X15837619Y-13372667D01*
X15847143Y-13391714D01*
X15847143Y-13496476D01*
X15847143Y-13391714D02*
X15856667Y-13372667D01*
X15875714Y-13363143D01*
X15904286Y-13363143D01*
X15923333Y-13372667D01*
X15932857Y-13391714D01*
X15932857Y-13496476D01*
X16323333Y-13286952D02*
X16151905Y-13544095D01*
X16580476Y-13296476D02*
X16599524Y-13296476D01*
X16618571Y-13306000D01*
X16628095Y-13315524D01*
X16637619Y-13334571D01*
X16647143Y-13372667D01*
X16647143Y-13420286D01*
X16637619Y-13458381D01*
X16628095Y-13477428D01*
X16618571Y-13486952D01*
X16599524Y-13496476D01*
X16580476Y-13496476D01*
X16561428Y-13486952D01*
X16551905Y-13477428D01*
X16542381Y-13458381D01*
X16532857Y-13420286D01*
X16532857Y-13372667D01*
X16542381Y-13334571D01*
X16551905Y-13315524D01*
X16561428Y-13306000D01*
X16580476Y-13296476D01*
X16732857Y-13477428D02*
X16742381Y-13486952D01*
X16732857Y-13496476D01*
X16723333Y-13486952D01*
X16732857Y-13477428D01*
X16732857Y-13496476D01*
X16866190Y-13296476D02*
X16885238Y-13296476D01*
X16904286Y-13306000D01*
X16913810Y-13315524D01*
X16923333Y-13334571D01*
X16932857Y-13372667D01*
X16932857Y-13420286D01*
X16923333Y-13458381D01*
X16913810Y-13477428D01*
X16904286Y-13486952D01*
X16885238Y-13496476D01*
X16866190Y-13496476D01*
X16847143Y-13486952D01*
X16837619Y-13477428D01*
X16828095Y-13458381D01*
X16818571Y-13420286D01*
X16818571Y-13372667D01*
X16828095Y-13334571D01*
X16837619Y-13315524D01*
X16847143Y-13306000D01*
X16866190Y-13296476D01*
X17113810Y-13296476D02*
X17018571Y-13296476D01*
X17009048Y-13391714D01*
X17018571Y-13382190D01*
X17037619Y-13372667D01*
X17085238Y-13372667D01*
X17104286Y-13382190D01*
X17113810Y-13391714D01*
X17123333Y-13410762D01*
X17123333Y-13458381D01*
X17113810Y-13477428D01*
X17104286Y-13486952D01*
X17085238Y-13496476D01*
X17037619Y-13496476D01*
X17018571Y-13486952D01*
X17009048Y-13477428D01*
X17218571Y-13496476D02*
X17256667Y-13496476D01*
X17275714Y-13486952D01*
X17285238Y-13477428D01*
X17304286Y-13448857D01*
X17313810Y-13410762D01*
X17313810Y-13334571D01*
X17304286Y-13315524D01*
X17294762Y-13306000D01*
X17275714Y-13296476D01*
X17237619Y-13296476D01*
X17218571Y-13306000D01*
X17209048Y-13315524D01*
X17199524Y-13334571D01*
X17199524Y-13382190D01*
X17209048Y-13401238D01*
X17218571Y-13410762D01*
X17237619Y-13420286D01*
X17275714Y-13420286D01*
X17294762Y-13410762D01*
X17304286Y-13401238D01*
X17313810Y-13382190D01*
X17428095Y-13382190D02*
X17409048Y-13372667D01*
X17399524Y-13363143D01*
X17390000Y-13344095D01*
X17390000Y-13334571D01*
X17399524Y-13315524D01*
X17409048Y-13306000D01*
X17428095Y-13296476D01*
X17466190Y-13296476D01*
X17485238Y-13306000D01*
X17494762Y-13315524D01*
X17504286Y-13334571D01*
X17504286Y-13344095D01*
X17494762Y-13363143D01*
X17485238Y-13372667D01*
X17466190Y-13382190D01*
X17428095Y-13382190D01*
X17409048Y-13391714D01*
X17399524Y-13401238D01*
X17390000Y-13420286D01*
X17390000Y-13458381D01*
X17399524Y-13477428D01*
X17409048Y-13486952D01*
X17428095Y-13496476D01*
X17466190Y-13496476D01*
X17485238Y-13486952D01*
X17494762Y-13477428D01*
X17504286Y-13458381D01*
X17504286Y-13420286D01*
X17494762Y-13401238D01*
X17485238Y-13391714D01*
X17466190Y-13382190D01*
X17580476Y-13296476D02*
X17580476Y-13334571D01*
X17656667Y-13296476D02*
X17656667Y-13334571D01*
X17951905Y-13572667D02*
X17942381Y-13563143D01*
X17923333Y-13534571D01*
X17913810Y-13515524D01*
X17904286Y-13486952D01*
X17894762Y-13439333D01*
X17894762Y-13401238D01*
X17904286Y-13353619D01*
X17913810Y-13325048D01*
X17923333Y-13306000D01*
X17942381Y-13277428D01*
X17951905Y-13267905D01*
X18123333Y-13296476D02*
X18028095Y-13296476D01*
X18018571Y-13391714D01*
X18028095Y-13382190D01*
X18047143Y-13372667D01*
X18094762Y-13372667D01*
X18113810Y-13382190D01*
X18123333Y-13391714D01*
X18132857Y-13410762D01*
X18132857Y-13458381D01*
X18123333Y-13477428D01*
X18113810Y-13486952D01*
X18094762Y-13496476D01*
X18047143Y-13496476D01*
X18028095Y-13486952D01*
X18018571Y-13477428D01*
X18370952Y-13496476D02*
X18370952Y-13296476D01*
X18456667Y-13496476D02*
X18456667Y-13391714D01*
X18447143Y-13372667D01*
X18428095Y-13363143D01*
X18399524Y-13363143D01*
X18380476Y-13372667D01*
X18370952Y-13382190D01*
X18580476Y-13496476D02*
X18561429Y-13486952D01*
X18551905Y-13477428D01*
X18542381Y-13458381D01*
X18542381Y-13401238D01*
X18551905Y-13382190D01*
X18561429Y-13372667D01*
X18580476Y-13363143D01*
X18609048Y-13363143D01*
X18628095Y-13372667D01*
X18637619Y-13382190D01*
X18647143Y-13401238D01*
X18647143Y-13458381D01*
X18637619Y-13477428D01*
X18628095Y-13486952D01*
X18609048Y-13496476D01*
X18580476Y-13496476D01*
X18761429Y-13496476D02*
X18742381Y-13486952D01*
X18732857Y-13467905D01*
X18732857Y-13296476D01*
X18913810Y-13486952D02*
X18894762Y-13496476D01*
X18856667Y-13496476D01*
X18837619Y-13486952D01*
X18828095Y-13467905D01*
X18828095Y-13391714D01*
X18837619Y-13372667D01*
X18856667Y-13363143D01*
X18894762Y-13363143D01*
X18913810Y-13372667D01*
X18923333Y-13391714D01*
X18923333Y-13410762D01*
X18828095Y-13429809D01*
X18999524Y-13486952D02*
X19018571Y-13496476D01*
X19056667Y-13496476D01*
X19075714Y-13486952D01*
X19085238Y-13467905D01*
X19085238Y-13458381D01*
X19075714Y-13439333D01*
X19056667Y-13429809D01*
X19028095Y-13429809D01*
X19009048Y-13420286D01*
X18999524Y-13401238D01*
X18999524Y-13391714D01*
X19009048Y-13372667D01*
X19028095Y-13363143D01*
X19056667Y-13363143D01*
X19075714Y-13372667D01*
X19151905Y-13572667D02*
X19161429Y-13563143D01*
X19180476Y-13534571D01*
X19190000Y-13515524D01*
X19199524Y-13486952D01*
X19209048Y-13439333D01*
X19209048Y-13401238D01*
X19199524Y-13353619D01*
X19190000Y-13325048D01*
X19180476Y-13306000D01*
X19161429Y-13277428D01*
X19151905Y-13267905D01*
X14180000Y-13578000D02*
X14380000Y-13778000D01*
X14380000Y-13578000D02*
X14180000Y-13778000D01*
X14380000Y-13678000D02*
G75*
G03*
X14380000Y-13678000I-100000J0D01*
G01*
X14618571Y-13568476D02*
X14742381Y-13568476D01*
X14675714Y-13644667D01*
X14704286Y-13644667D01*
X14723333Y-13654190D01*
X14732857Y-13663714D01*
X14742381Y-13682762D01*
X14742381Y-13730381D01*
X14732857Y-13749428D01*
X14723333Y-13758952D01*
X14704286Y-13768476D01*
X14647143Y-13768476D01*
X14628095Y-13758952D01*
X14618571Y-13749428D01*
X14828095Y-13749428D02*
X14837619Y-13758952D01*
X14828095Y-13768476D01*
X14818571Y-13758952D01*
X14828095Y-13749428D01*
X14828095Y-13768476D01*
X14913809Y-13587524D02*
X14923333Y-13578000D01*
X14942381Y-13568476D01*
X14990000Y-13568476D01*
X15009048Y-13578000D01*
X15018571Y-13587524D01*
X15028095Y-13606571D01*
X15028095Y-13625619D01*
X15018571Y-13654190D01*
X14904286Y-13768476D01*
X15028095Y-13768476D01*
X15151905Y-13568476D02*
X15170952Y-13568476D01*
X15190000Y-13578000D01*
X15199524Y-13587524D01*
X15209048Y-13606571D01*
X15218571Y-13644667D01*
X15218571Y-13692286D01*
X15209048Y-13730381D01*
X15199524Y-13749428D01*
X15190000Y-13758952D01*
X15170952Y-13768476D01*
X15151905Y-13768476D01*
X15132857Y-13758952D01*
X15123333Y-13749428D01*
X15113809Y-13730381D01*
X15104286Y-13692286D01*
X15104286Y-13644667D01*
X15113809Y-13606571D01*
X15123333Y-13587524D01*
X15132857Y-13578000D01*
X15151905Y-13568476D01*
X15342381Y-13568476D02*
X15361428Y-13568476D01*
X15380476Y-13578000D01*
X15390000Y-13587524D01*
X15399524Y-13606571D01*
X15409048Y-13644667D01*
X15409048Y-13692286D01*
X15399524Y-13730381D01*
X15390000Y-13749428D01*
X15380476Y-13758952D01*
X15361428Y-13768476D01*
X15342381Y-13768476D01*
X15323333Y-13758952D01*
X15313809Y-13749428D01*
X15304286Y-13730381D01*
X15294762Y-13692286D01*
X15294762Y-13644667D01*
X15304286Y-13606571D01*
X15313809Y-13587524D01*
X15323333Y-13578000D01*
X15342381Y-13568476D01*
X15494762Y-13768476D02*
X15494762Y-13635143D01*
X15494762Y-13654190D02*
X15504286Y-13644667D01*
X15523333Y-13635143D01*
X15551905Y-13635143D01*
X15570952Y-13644667D01*
X15580476Y-13663714D01*
X15580476Y-13768476D01*
X15580476Y-13663714D02*
X15590000Y-13644667D01*
X15609048Y-13635143D01*
X15637619Y-13635143D01*
X15656667Y-13644667D01*
X15666190Y-13663714D01*
X15666190Y-13768476D01*
X15761428Y-13768476D02*
X15761428Y-13635143D01*
X15761428Y-13654190D02*
X15770952Y-13644667D01*
X15790000Y-13635143D01*
X15818571Y-13635143D01*
X15837619Y-13644667D01*
X15847143Y-13663714D01*
X15847143Y-13768476D01*
X15847143Y-13663714D02*
X15856667Y-13644667D01*
X15875714Y-13635143D01*
X15904286Y-13635143D01*
X15923333Y-13644667D01*
X15932857Y-13663714D01*
X15932857Y-13768476D01*
X16323333Y-13558952D02*
X16151905Y-13816095D01*
X16580476Y-13568476D02*
X16599524Y-13568476D01*
X16618571Y-13578000D01*
X16628095Y-13587524D01*
X16637619Y-13606571D01*
X16647143Y-13644667D01*
X16647143Y-13692286D01*
X16637619Y-13730381D01*
X16628095Y-13749428D01*
X16618571Y-13758952D01*
X16599524Y-13768476D01*
X16580476Y-13768476D01*
X16561428Y-13758952D01*
X16551905Y-13749428D01*
X16542381Y-13730381D01*
X16532857Y-13692286D01*
X16532857Y-13644667D01*
X16542381Y-13606571D01*
X16551905Y-13587524D01*
X16561428Y-13578000D01*
X16580476Y-13568476D01*
X16732857Y-13749428D02*
X16742381Y-13758952D01*
X16732857Y-13768476D01*
X16723333Y-13758952D01*
X16732857Y-13749428D01*
X16732857Y-13768476D01*
X16932857Y-13768476D02*
X16818571Y-13768476D01*
X16875714Y-13768476D02*
X16875714Y-13568476D01*
X16856667Y-13597048D01*
X16837619Y-13616095D01*
X16818571Y-13625619D01*
X17009048Y-13587524D02*
X17018571Y-13578000D01*
X17037619Y-13568476D01*
X17085238Y-13568476D01*
X17104286Y-13578000D01*
X17113810Y-13587524D01*
X17123333Y-13606571D01*
X17123333Y-13625619D01*
X17113810Y-13654190D01*
X16999524Y-13768476D01*
X17123333Y-13768476D01*
X17294762Y-13568476D02*
X17256667Y-13568476D01*
X17237619Y-13578000D01*
X17228095Y-13587524D01*
X17209048Y-13616095D01*
X17199524Y-13654190D01*
X17199524Y-13730381D01*
X17209048Y-13749428D01*
X17218571Y-13758952D01*
X17237619Y-13768476D01*
X17275714Y-13768476D01*
X17294762Y-13758952D01*
X17304286Y-13749428D01*
X17313810Y-13730381D01*
X17313810Y-13682762D01*
X17304286Y-13663714D01*
X17294762Y-13654190D01*
X17275714Y-13644667D01*
X17237619Y-13644667D01*
X17218571Y-13654190D01*
X17209048Y-13663714D01*
X17199524Y-13682762D01*
X17437619Y-13568476D02*
X17456667Y-13568476D01*
X17475714Y-13578000D01*
X17485238Y-13587524D01*
X17494762Y-13606571D01*
X17504286Y-13644667D01*
X17504286Y-13692286D01*
X17494762Y-13730381D01*
X17485238Y-13749428D01*
X17475714Y-13758952D01*
X17456667Y-13768476D01*
X17437619Y-13768476D01*
X17418571Y-13758952D01*
X17409048Y-13749428D01*
X17399524Y-13730381D01*
X17390000Y-13692286D01*
X17390000Y-13644667D01*
X17399524Y-13606571D01*
X17409048Y-13587524D01*
X17418571Y-13578000D01*
X17437619Y-13568476D01*
X17580476Y-13568476D02*
X17580476Y-13606571D01*
X17656667Y-13568476D02*
X17656667Y-13606571D01*
X17951905Y-13844667D02*
X17942381Y-13835143D01*
X17923333Y-13806571D01*
X17913810Y-13787524D01*
X17904286Y-13758952D01*
X17894762Y-13711333D01*
X17894762Y-13673238D01*
X17904286Y-13625619D01*
X17913810Y-13597048D01*
X17923333Y-13578000D01*
X17942381Y-13549428D01*
X17951905Y-13539905D01*
X18018571Y-13587524D02*
X18028095Y-13578000D01*
X18047143Y-13568476D01*
X18094762Y-13568476D01*
X18113810Y-13578000D01*
X18123333Y-13587524D01*
X18132857Y-13606571D01*
X18132857Y-13625619D01*
X18123333Y-13654190D01*
X18009048Y-13768476D01*
X18132857Y-13768476D01*
X18370952Y-13768476D02*
X18370952Y-13568476D01*
X18456667Y-13768476D02*
X18456667Y-13663714D01*
X18447143Y-13644667D01*
X18428095Y-13635143D01*
X18399524Y-13635143D01*
X18380476Y-13644667D01*
X18370952Y-13654190D01*
X18580476Y-13768476D02*
X18561429Y-13758952D01*
X18551905Y-13749428D01*
X18542381Y-13730381D01*
X18542381Y-13673238D01*
X18551905Y-13654190D01*
X18561429Y-13644667D01*
X18580476Y-13635143D01*
X18609048Y-13635143D01*
X18628095Y-13644667D01*
X18637619Y-13654190D01*
X18647143Y-13673238D01*
X18647143Y-13730381D01*
X18637619Y-13749428D01*
X18628095Y-13758952D01*
X18609048Y-13768476D01*
X18580476Y-13768476D01*
X18761429Y-13768476D02*
X18742381Y-13758952D01*
X18732857Y-13739905D01*
X18732857Y-13568476D01*
X18913810Y-13758952D02*
X18894762Y-13768476D01*
X18856667Y-13768476D01*
X18837619Y-13758952D01*
X18828095Y-13739905D01*
X18828095Y-13663714D01*
X18837619Y-13644667D01*
X18856667Y-13635143D01*
X18894762Y-13635143D01*
X18913810Y-13644667D01*
X18923333Y-13663714D01*
X18923333Y-13682762D01*
X18828095Y-13701809D01*
X18999524Y-13758952D02*
X19018571Y-13768476D01*
X19056667Y-13768476D01*
X19075714Y-13758952D01*
X19085238Y-13739905D01*
X19085238Y-13730381D01*
X19075714Y-13711333D01*
X19056667Y-13701809D01*
X19028095Y-13701809D01*
X19009048Y-13692286D01*
X18999524Y-13673238D01*
X18999524Y-13663714D01*
X19009048Y-13644667D01*
X19028095Y-13635143D01*
X19056667Y-13635143D01*
X19075714Y-13644667D01*
X19151905Y-13844667D02*
X19161429Y-13835143D01*
X19180476Y-13806571D01*
X19190000Y-13787524D01*
X19199524Y-13758952D01*
X19209048Y-13711333D01*
X19209048Y-13673238D01*
X19199524Y-13625619D01*
X19190000Y-13597048D01*
X19180476Y-13578000D01*
X19161429Y-13549428D01*
X19151905Y-13539905D01*
M02*
