G04 #@! TF.GenerationSoftware,KiCad,Pcbnew,(6.0.9)*
G04 #@! TF.CreationDate,2022-11-24T22:46:59+01:00*
G04 #@! TF.ProjectId,telinksensor-hw,74656c69-6e6b-4736-956e-736f722d6877,rev?*
G04 #@! TF.SameCoordinates,Original*
G04 #@! TF.FileFunction,Legend,Top*
G04 #@! TF.FilePolarity,Positive*
%FSLAX46Y46*%
G04 Gerber Fmt 4.6, Leading zero omitted, Abs format (unit mm)*
G04 Created by KiCad (PCBNEW (6.0.9)) date 2022-11-24 22:46:59*
%MOMM*%
%LPD*%
G01*
G04 APERTURE LIST*
G04 Aperture macros list*
%AMRoundRect*
0 Rectangle with rounded corners*
0 $1 Rounding radius*
0 $2 $3 $4 $5 $6 $7 $8 $9 X,Y pos of 4 corners*
0 Add a 4 corners polygon primitive as box body*
4,1,4,$2,$3,$4,$5,$6,$7,$8,$9,$2,$3,0*
0 Add four circle primitives for the rounded corners*
1,1,$1+$1,$2,$3*
1,1,$1+$1,$4,$5*
1,1,$1+$1,$6,$7*
1,1,$1+$1,$8,$9*
0 Add four rect primitives between the rounded corners*
20,1,$1+$1,$2,$3,$4,$5,0*
20,1,$1+$1,$4,$5,$6,$7,0*
20,1,$1+$1,$6,$7,$8,$9,0*
20,1,$1+$1,$8,$9,$2,$3,0*%
G04 Aperture macros list end*
%ADD10C,0.120000*%
%ADD11C,0.100000*%
%ADD12RoundRect,0.160000X0.160000X-0.160000X0.160000X0.160000X-0.160000X0.160000X-0.160000X-0.160000X0*%
%ADD13RoundRect,0.140000X0.170000X-0.140000X0.170000X0.140000X-0.170000X0.140000X-0.170000X-0.140000X0*%
%ADD14RoundRect,0.140000X0.140000X0.170000X-0.140000X0.170000X-0.140000X-0.170000X0.140000X-0.170000X0*%
%ADD15RoundRect,0.225000X-0.225000X-0.250000X0.225000X-0.250000X0.225000X0.250000X-0.225000X0.250000X0*%
%ADD16RoundRect,0.140000X-0.170000X0.140000X-0.170000X-0.140000X0.170000X-0.140000X0.170000X0.140000X0*%
%ADD17C,1.000000*%
%ADD18RoundRect,0.200000X0.275000X-0.200000X0.275000X0.200000X-0.275000X0.200000X-0.275000X-0.200000X0*%
%ADD19C,6.400000*%
%ADD20C,0.800000*%
%ADD21RoundRect,0.140000X-0.140000X-0.170000X0.140000X-0.170000X0.140000X0.170000X-0.140000X0.170000X0*%
%ADD22RoundRect,0.147500X0.172500X-0.147500X0.172500X0.147500X-0.172500X0.147500X-0.172500X-0.147500X0*%
%ADD23RoundRect,0.062500X-0.062500X0.337500X-0.062500X-0.337500X0.062500X-0.337500X0.062500X0.337500X0*%
%ADD24RoundRect,0.062500X-0.337500X0.062500X-0.337500X-0.062500X0.337500X-0.062500X0.337500X0.062500X0*%
%ADD25R,3.600000X3.600000*%
%ADD26R,0.450000X0.600000*%
%ADD27RoundRect,0.200000X0.200000X0.275000X-0.200000X0.275000X-0.200000X-0.275000X0.200000X-0.275000X0*%
%ADD28RoundRect,0.200000X-0.200000X-0.275000X0.200000X-0.275000X0.200000X0.275000X-0.200000X0.275000X0*%
%ADD29RoundRect,0.150000X0.150000X-0.587500X0.150000X0.587500X-0.150000X0.587500X-0.150000X-0.587500X0*%
%ADD30RoundRect,0.150000X0.587500X0.150000X-0.587500X0.150000X-0.587500X-0.150000X0.587500X-0.150000X0*%
%ADD31RoundRect,0.218750X0.381250X-0.218750X0.381250X0.218750X-0.381250X0.218750X-0.381250X-0.218750X0*%
%ADD32C,0.700000*%
%ADD33O,0.800000X1.500000*%
%ADD34RoundRect,0.200000X-0.275000X0.200000X-0.275000X-0.200000X0.275000X-0.200000X0.275000X0.200000X0*%
%ADD35RoundRect,0.225000X0.250000X-0.225000X0.250000X0.225000X-0.250000X0.225000X-0.250000X-0.225000X0*%
%ADD36RoundRect,0.225000X-0.250000X0.225000X-0.250000X-0.225000X0.250000X-0.225000X0.250000X0.225000X0*%
%ADD37R,0.580000X0.500000*%
%ADD38R,0.800000X0.750000*%
%ADD39RoundRect,0.150000X-0.587500X-0.150000X0.587500X-0.150000X0.587500X0.150000X-0.587500X0.150000X0*%
%ADD40RoundRect,0.147500X-0.147500X-0.172500X0.147500X-0.172500X0.147500X0.172500X-0.147500X0.172500X0*%
%ADD41RoundRect,0.150000X-0.150000X0.587500X-0.150000X-0.587500X0.150000X-0.587500X0.150000X0.587500X0*%
%ADD42R,0.275000X0.250000*%
%ADD43R,0.250000X0.275000*%
%ADD44R,1.400000X1.200000*%
%ADD45R,3.000000X3.000000*%
%ADD46C,3.000000*%
G04 APERTURE END LIST*
D10*
X176510000Y-91587836D02*
X176510000Y-91372164D01*
X175790000Y-91587836D02*
X175790000Y-91372164D01*
X152482372Y-98118963D02*
X152266700Y-98118963D01*
X152482372Y-97398963D02*
X152266700Y-97398963D01*
X159259420Y-105260000D02*
X159540580Y-105260000D01*
X159259420Y-104240000D02*
X159540580Y-104240000D01*
X162459999Y-97627164D02*
X162459999Y-97842836D01*
X161739999Y-97627164D02*
X161739999Y-97842836D01*
X164940001Y-97622164D02*
X164940001Y-97837836D01*
X165660001Y-97622164D02*
X165660001Y-97837836D01*
X156696411Y-91977922D02*
X156696411Y-91762250D01*
X157416411Y-91977922D02*
X157416411Y-91762250D01*
X155774793Y-91984009D02*
X155774793Y-91768337D01*
X156494793Y-91984009D02*
X156494793Y-91768337D01*
X146100000Y-107100000D02*
G75*
G03*
X146100000Y-107100000I-700000J0D01*
G01*
X173777500Y-104137258D02*
X173777500Y-103662742D01*
X174822500Y-104137258D02*
X174822500Y-103662742D01*
X149459420Y-96910000D02*
X149740580Y-96910000D01*
X149459420Y-95890000D02*
X149740580Y-95890000D01*
X152487108Y-99960000D02*
X152271436Y-99960000D01*
X152487108Y-99240000D02*
X152271436Y-99240000D01*
X161969470Y-94938807D02*
X162185142Y-94938807D01*
X161969470Y-95658807D02*
X162185142Y-95658807D01*
X186257836Y-113617570D02*
X186042164Y-113617570D01*
X186257836Y-112897570D02*
X186042164Y-112897570D01*
X159610000Y-99110000D02*
X159135000Y-99110000D01*
X159610000Y-98635000D02*
X159610000Y-99110000D01*
X159610000Y-94365000D02*
X159610000Y-93890000D01*
X154390000Y-99110000D02*
X154865000Y-99110000D01*
X154390000Y-94365000D02*
X154390000Y-93890000D01*
X154390000Y-93890000D02*
X154865000Y-93890000D01*
X154390000Y-98635000D02*
X154390000Y-99110000D01*
X185250000Y-116590000D02*
X185750000Y-116590000D01*
X185250000Y-116040000D02*
X185250000Y-114540000D01*
X187050000Y-114540000D02*
X187050000Y-116040000D01*
X185250000Y-116040000D02*
X185250000Y-116590000D01*
X149837258Y-93922500D02*
X149362742Y-93922500D01*
X149837258Y-92877500D02*
X149362742Y-92877500D01*
X146259420Y-96910000D02*
X146540580Y-96910000D01*
X146259420Y-95890000D02*
X146540580Y-95890000D01*
X155740000Y-100614788D02*
X155740000Y-100830460D01*
X156460000Y-100614788D02*
X156460000Y-100830460D01*
X154100000Y-101800000D02*
G75*
G03*
X154100000Y-101800000I-700000J0D01*
G01*
X149362742Y-95422500D02*
X149837258Y-95422500D01*
X149362742Y-94377500D02*
X149837258Y-94377500D01*
X168880000Y-97622164D02*
X168880000Y-97837836D01*
X168160000Y-97622164D02*
X168160000Y-97837836D01*
X158552500Y-91637258D02*
X158552500Y-91162742D01*
X159597500Y-91637258D02*
X159597500Y-91162742D01*
X155059420Y-90110000D02*
X155340580Y-90110000D01*
X155059420Y-89090000D02*
X155340580Y-89090000D01*
X154440000Y-106700000D02*
X154440000Y-108375000D01*
X154440000Y-106700000D02*
X154440000Y-106050000D01*
X157560000Y-106700000D02*
X157560000Y-107350000D01*
X157560000Y-106700000D02*
X157560000Y-106050000D01*
X161967164Y-95865000D02*
X162182836Y-95865000D01*
X161967164Y-96585000D02*
X162182836Y-96585000D01*
X161677500Y-103262258D02*
X161677500Y-102787742D01*
X162722500Y-103262258D02*
X162722500Y-102787742D01*
X163592164Y-96890000D02*
X163807836Y-96890000D01*
X163592164Y-97610000D02*
X163807836Y-97610000D01*
X171140000Y-103660000D02*
X172815000Y-103660000D01*
X171140000Y-100540000D02*
X171790000Y-100540000D01*
X171140000Y-100540000D02*
X170490000Y-100540000D01*
X171140000Y-103660000D02*
X170490000Y-103660000D01*
X168965670Y-106910000D02*
X169246830Y-106910000D01*
X168965670Y-105890000D02*
X169246830Y-105890000D01*
X173777500Y-107337258D02*
X173777500Y-106862742D01*
X174822500Y-107337258D02*
X174822500Y-106862742D01*
X152485424Y-99036164D02*
X152269752Y-99036164D01*
X152485424Y-98316164D02*
X152269752Y-98316164D01*
X152935000Y-94799622D02*
X152935000Y-94000378D01*
X151815000Y-94799622D02*
X151815000Y-94000378D01*
X145536178Y-112832664D02*
X145751850Y-112832664D01*
X145536178Y-113552664D02*
X145751850Y-113552664D01*
X155437258Y-88622500D02*
X154962742Y-88622500D01*
X155437258Y-87577500D02*
X154962742Y-87577500D01*
X146162742Y-93922500D02*
X146637258Y-93922500D01*
X146162742Y-92877500D02*
X146637258Y-92877500D01*
X146800000Y-99100000D02*
G75*
G03*
X146800000Y-99100000I-700000J0D01*
G01*
D11*
X155435000Y-84261000D02*
X155435000Y-85150000D01*
X154165000Y-84261000D02*
X154165000Y-85150000D01*
X155435000Y-84261000D02*
G75*
G03*
X154165000Y-84261000I-635000J0D01*
G01*
D10*
X175477500Y-106862742D02*
X175477500Y-107337258D01*
X176522500Y-106862742D02*
X176522500Y-107337258D01*
X161169441Y-91540580D02*
X161169441Y-91259420D01*
X160149441Y-91540580D02*
X160149441Y-91259420D01*
X177177500Y-106862742D02*
X177177500Y-107337258D01*
X178222500Y-106862742D02*
X178222500Y-107337258D01*
X170609420Y-104190000D02*
X170890580Y-104190000D01*
X170609420Y-105210000D02*
X170890580Y-105210000D01*
X167321920Y-105210000D02*
X167603080Y-105210000D01*
X167321920Y-104190000D02*
X167603080Y-104190000D01*
X167235000Y-106962742D02*
X167235000Y-107437258D01*
X166190000Y-106962742D02*
X166190000Y-107437258D01*
X153940000Y-91980239D02*
X153940000Y-91764567D01*
X154660000Y-91980239D02*
X154660000Y-91764567D01*
X155545478Y-100608812D02*
X155545478Y-100824484D01*
X154825478Y-100608812D02*
X154825478Y-100824484D01*
X159162742Y-107377500D02*
X159637258Y-107377500D01*
X159162742Y-108422500D02*
X159637258Y-108422500D01*
X167110000Y-91259420D02*
X167110000Y-91540580D01*
X166090000Y-91259420D02*
X166090000Y-91540580D01*
X161392164Y-99660000D02*
X161607836Y-99660000D01*
X161392164Y-98940000D02*
X161607836Y-98940000D01*
X169100000Y-97250000D02*
X169700000Y-97250000D01*
X171100000Y-98650000D02*
X171700000Y-98650000D01*
X173700000Y-97250000D02*
X173500000Y-97450000D01*
X173100000Y-97250000D02*
X173700000Y-97250000D01*
X169700000Y-97250000D02*
X169500000Y-97050000D01*
X169700000Y-97250000D02*
X169500000Y-97450000D01*
X171100000Y-95850000D02*
X171700000Y-95850000D01*
X173700000Y-97250000D02*
X173500000Y-97050000D01*
X149500000Y-98500000D02*
G75*
G03*
X149500000Y-98500000I-700000J0D01*
G01*
X176522164Y-90410000D02*
X176737836Y-90410000D01*
X176522164Y-89690000D02*
X176737836Y-89690000D01*
X167062500Y-103660000D02*
X167712500Y-103660000D01*
X167062500Y-103660000D02*
X166412500Y-103660000D01*
X167062500Y-100540000D02*
X165387500Y-100540000D01*
X167062500Y-100540000D02*
X167712500Y-100540000D01*
X172022500Y-106862742D02*
X172022500Y-107337258D01*
X170977500Y-106862742D02*
X170977500Y-107337258D01*
X164522500Y-102787742D02*
X164522500Y-103262258D01*
X163477500Y-102787742D02*
X163477500Y-103262258D01*
X176522500Y-104137258D02*
X176522500Y-103662742D01*
X175477500Y-104137258D02*
X175477500Y-103662742D01*
X154400000Y-110100000D02*
G75*
G03*
X154400000Y-110100000I-700000J0D01*
G01*
X159400000Y-87500000D02*
G75*
G03*
X159400000Y-87500000I-700000J0D01*
G01*
X159637258Y-102652500D02*
X159162742Y-102652500D01*
X159637258Y-103697500D02*
X159162742Y-103697500D01*
X164660000Y-106700000D02*
X164660000Y-107350000D01*
X161540000Y-106700000D02*
X161540000Y-107350000D01*
X161540000Y-106700000D02*
X161540000Y-106050000D01*
X164660000Y-106700000D02*
X164660000Y-105025000D01*
X155576441Y-91982836D02*
X155576441Y-91767164D01*
X154856441Y-91982836D02*
X154856441Y-91767164D01*
X153300000Y-91400000D02*
G75*
G03*
X153300000Y-91400000I-700000J0D01*
G01*
X146637258Y-94377500D02*
X146162742Y-94377500D01*
X146637258Y-95422500D02*
X146162742Y-95422500D01*
X150682233Y-111122500D02*
X151156749Y-111122500D01*
X150682233Y-110077500D02*
X151156749Y-110077500D01*
X165400000Y-94700000D02*
G75*
G03*
X165400000Y-94700000I-700000J0D01*
G01*
X152482836Y-96484312D02*
X152267164Y-96484312D01*
X152482836Y-97204312D02*
X152267164Y-97204312D01*
X144150000Y-113850000D02*
X144650000Y-113850000D01*
X144150000Y-114350000D02*
X144150000Y-113850000D01*
X145650000Y-116550000D02*
X144450000Y-116550000D01*
X144450000Y-116550000D02*
X144450000Y-114150000D01*
X144450000Y-114150000D02*
X146850000Y-114150000D01*
X146850000Y-116550000D02*
X145650000Y-116550000D01*
X146850000Y-114150000D02*
X146850000Y-116550000D01*
X159162742Y-106847500D02*
X159637258Y-106847500D01*
X159162742Y-105802500D02*
X159637258Y-105802500D01*
X161630151Y-93050000D02*
X165630151Y-93050000D01*
X161630151Y-89750000D02*
X161630151Y-93050000D01*
X159637258Y-101102500D02*
X159162742Y-101102500D01*
X159637258Y-102147500D02*
X159162742Y-102147500D01*
%LPC*%
D12*
X176150000Y-91960000D03*
D13*
X176150000Y-91000000D03*
D14*
X152854536Y-97758963D03*
X151894536Y-97758963D03*
D15*
X158625000Y-104750000D03*
X160175000Y-104750000D03*
D16*
X162099999Y-97255000D03*
X162099999Y-98215000D03*
X165300001Y-97250000D03*
X165300001Y-98210000D03*
D13*
X157056411Y-92350086D03*
X157056411Y-91390086D03*
X156134793Y-92356173D03*
X156134793Y-91396173D03*
D17*
X145400000Y-107100000D03*
D18*
X174300000Y-104725000D03*
X174300000Y-103075000D03*
D15*
X148825000Y-96400000D03*
X150375000Y-96400000D03*
D19*
X182300000Y-104500000D03*
D20*
X183997056Y-106197056D03*
X180602944Y-106197056D03*
X184700000Y-104500000D03*
X182300000Y-106900000D03*
X179900000Y-104500000D03*
X183997056Y-102802944D03*
X182300000Y-102100000D03*
X180602944Y-102802944D03*
D14*
X152859272Y-99600000D03*
X151899272Y-99600000D03*
D21*
X161597306Y-95298807D03*
X162557306Y-95298807D03*
D22*
X160900000Y-98220000D03*
X160900000Y-97250000D03*
D14*
X186630000Y-113257570D03*
X185670000Y-113257570D03*
D23*
X158750000Y-94050000D03*
X158250000Y-94050000D03*
X157750000Y-94050000D03*
X157250000Y-94050000D03*
X156750000Y-94050000D03*
X156250000Y-94050000D03*
X155750000Y-94050000D03*
X155250000Y-94050000D03*
D24*
X154550000Y-94750000D03*
X154550000Y-95250000D03*
X154550000Y-95750000D03*
X154550000Y-96250000D03*
X154550000Y-96750000D03*
X154550000Y-97250000D03*
X154550000Y-97750000D03*
X154550000Y-98250000D03*
D23*
X155250000Y-98950000D03*
X155750000Y-98950000D03*
X156250000Y-98950000D03*
X156750000Y-98950000D03*
X157250000Y-98950000D03*
X157750000Y-98950000D03*
X158250000Y-98950000D03*
X158750000Y-98950000D03*
D24*
X159450000Y-98250000D03*
X159450000Y-97750000D03*
X159450000Y-97250000D03*
X159450000Y-96750000D03*
X159450000Y-96250000D03*
X159450000Y-95750000D03*
X159450000Y-95250000D03*
X159450000Y-94750000D03*
D25*
X157000000Y-96500000D03*
D26*
X185750000Y-116040000D03*
X186550000Y-116040000D03*
X186550000Y-114540000D03*
X185750000Y-114540000D03*
D27*
X150425000Y-93400000D03*
X148775000Y-93400000D03*
D15*
X145625000Y-96400000D03*
X147175000Y-96400000D03*
D16*
X156100000Y-100242624D03*
X156100000Y-101202624D03*
D17*
X153400000Y-101800000D03*
D28*
X148775000Y-94900000D03*
X150425000Y-94900000D03*
D16*
X168520000Y-97250000D03*
X168520000Y-98210000D03*
D18*
X159075000Y-92225000D03*
X159075000Y-90575000D03*
D15*
X154425000Y-89600000D03*
X155975000Y-89600000D03*
D29*
X155050000Y-107637500D03*
X156950000Y-107637500D03*
X156000000Y-105762500D03*
D21*
X161595000Y-96225000D03*
X162555000Y-96225000D03*
D18*
X162200000Y-103850000D03*
X162200000Y-102200000D03*
D21*
X163220000Y-97250000D03*
X164180000Y-97250000D03*
D30*
X172077500Y-103050000D03*
X172077500Y-101150000D03*
X170202500Y-102100000D03*
D15*
X168331250Y-106400000D03*
X169881250Y-106400000D03*
D18*
X174300000Y-107925000D03*
X174300000Y-106275000D03*
D14*
X152857588Y-98676164D03*
X151897588Y-98676164D03*
D31*
X152375000Y-95462500D03*
X152375000Y-93337500D03*
D21*
X145164014Y-113192664D03*
X146124014Y-113192664D03*
D27*
X156025000Y-88100000D03*
X154375000Y-88100000D03*
D28*
X145575000Y-93400000D03*
X147225000Y-93400000D03*
D17*
X146100000Y-99100000D03*
D20*
X147802944Y-102702944D03*
X149500000Y-102000000D03*
X151197056Y-102702944D03*
X151197056Y-106097056D03*
D19*
X149500000Y-104400000D03*
D20*
X147100000Y-104400000D03*
X149500000Y-106800000D03*
X147802944Y-106097056D03*
X151900000Y-104400000D03*
D32*
X154165000Y-85785000D03*
X155435000Y-85785000D03*
X159245000Y-85785000D03*
X156705000Y-85785000D03*
X157975000Y-85785000D03*
D33*
X154800000Y-84630000D03*
X156070000Y-84630000D03*
X157340000Y-84630000D03*
X158610000Y-84630000D03*
D34*
X176000000Y-106275000D03*
X176000000Y-107925000D03*
D35*
X160659441Y-92175000D03*
X160659441Y-90625000D03*
D34*
X177700000Y-106275000D03*
X177700000Y-107925000D03*
D15*
X169975000Y-104700000D03*
X171525000Y-104700000D03*
X166687500Y-104700000D03*
X168237500Y-104700000D03*
D34*
X166712500Y-106375000D03*
X166712500Y-108025000D03*
D13*
X154300000Y-92352403D03*
X154300000Y-91392403D03*
D16*
X155185478Y-100236648D03*
X155185478Y-101196648D03*
D28*
X158575000Y-107900000D03*
X160225000Y-107900000D03*
D36*
X166600000Y-90625000D03*
X166600000Y-92175000D03*
D21*
X161020000Y-99300000D03*
X161980000Y-99300000D03*
D37*
X172560000Y-97250000D03*
X170240000Y-97250000D03*
D38*
X170450000Y-98275000D03*
X170450000Y-96225000D03*
X172350000Y-98275000D03*
X172350000Y-96225000D03*
D17*
X148800000Y-98500000D03*
D21*
X176150000Y-90050000D03*
X177110000Y-90050000D03*
D39*
X166125000Y-101150000D03*
X166125000Y-103050000D03*
X168000000Y-102100000D03*
D40*
X166435000Y-97250000D03*
X167405000Y-97250000D03*
D34*
X171500000Y-106275000D03*
X171500000Y-107925000D03*
X164000000Y-102200000D03*
X164000000Y-103850000D03*
D18*
X176000000Y-104725000D03*
X176000000Y-103075000D03*
D17*
X153700000Y-110100000D03*
X158700000Y-87500000D03*
D27*
X160225000Y-103175000D03*
X158575000Y-103175000D03*
D41*
X164050000Y-105762500D03*
X162150000Y-105762500D03*
X163100000Y-107637500D03*
D13*
X155216441Y-92355000D03*
X155216441Y-91395000D03*
D17*
X152600000Y-91400000D03*
D27*
X147225000Y-94900000D03*
X145575000Y-94900000D03*
D28*
X150094491Y-110600000D03*
X151744491Y-110600000D03*
D17*
X164700000Y-94700000D03*
D14*
X152855000Y-96844312D03*
X151895000Y-96844312D03*
D42*
X144887500Y-115100000D03*
X144887500Y-115600000D03*
D43*
X145150000Y-116112500D03*
X145650000Y-116112500D03*
X146150000Y-116112500D03*
D42*
X146412500Y-115600000D03*
X146412500Y-115100000D03*
D43*
X146150000Y-114587500D03*
X145650000Y-114587500D03*
X145150000Y-114587500D03*
D28*
X158575000Y-106325000D03*
X160225000Y-106325000D03*
D44*
X162530151Y-92250000D03*
X164730151Y-92250000D03*
X164730151Y-90550000D03*
X162530151Y-90550000D03*
D27*
X160225000Y-101625000D03*
X158575000Y-101625000D03*
D45*
X155760000Y-112800000D03*
D46*
X160840000Y-112800000D03*
D45*
X165900000Y-112800000D03*
D46*
X170980000Y-112800000D03*
X176060000Y-112800000D03*
M02*
