G04 #@! TF.GenerationSoftware,KiCad,Pcbnew,(6.0.9)*
G04 #@! TF.CreationDate,2022-11-24T22:46:59+01:00*
G04 #@! TF.ProjectId,telinksensor-hw,74656c69-6e6b-4736-956e-736f722d6877,rev?*
G04 #@! TF.SameCoordinates,Original*
G04 #@! TF.FileFunction,Legend,Bot*
G04 #@! TF.FilePolarity,Positive*
%FSLAX46Y46*%
G04 Gerber Fmt 4.6, Leading zero omitted, Abs format (unit mm)*
G04 Created by KiCad (PCBNEW (6.0.9)) date 2022-11-24 22:46:59*
%MOMM*%
%LPD*%
G01*
G04 APERTURE LIST*
G04 Aperture macros list*
%AMRoundRect*
0 Rectangle with rounded corners*
0 $1 Rounding radius*
0 $2 $3 $4 $5 $6 $7 $8 $9 X,Y pos of 4 corners*
0 Add a 4 corners polygon primitive as box body*
4,1,4,$2,$3,$4,$5,$6,$7,$8,$9,$2,$3,0*
0 Add four circle primitives for the rounded corners*
1,1,$1+$1,$2,$3*
1,1,$1+$1,$4,$5*
1,1,$1+$1,$6,$7*
1,1,$1+$1,$8,$9*
0 Add four rect primitives between the rounded corners*
20,1,$1+$1,$2,$3,$4,$5,0*
20,1,$1+$1,$4,$5,$6,$7,0*
20,1,$1+$1,$6,$7,$8,$9,0*
20,1,$1+$1,$8,$9,$2,$3,0*%
G04 Aperture macros list end*
%ADD10C,0.098115*%
%ADD11C,0.150000*%
%ADD12C,0.172200*%
%ADD13C,0.120000*%
%ADD14C,6.400000*%
%ADD15C,0.800000*%
%ADD16C,0.700000*%
%ADD17O,0.800000X1.500000*%
%ADD18R,1.600000X2.000000*%
%ADD19R,2.600000X3.600000*%
%ADD20R,3.000000X3.000000*%
%ADD21C,3.000000*%
%ADD22RoundRect,0.218750X0.218750X0.256250X-0.218750X0.256250X-0.218750X-0.256250X0.218750X-0.256250X0*%
G04 APERTURE END LIST*
D10*
X183793978Y-93891937D02*
X183798742Y-93891014D01*
X185771527Y-93962146D02*
X185785478Y-93949266D01*
X183816238Y-93888415D02*
X183816238Y-93888415D01*
X184830316Y-96781287D02*
X184825778Y-96780136D01*
X184028468Y-93962151D02*
X184030707Y-93964407D01*
D11*
X160800000Y-107950000D02*
X160800000Y-108500000D01*
D10*
X183902446Y-93893072D02*
X183907007Y-93894142D01*
D12*
X185735325Y-94007262D02*
X185730208Y-94015681D01*
D10*
X183585568Y-94128587D02*
X183585944Y-94123884D01*
D12*
X185042744Y-96740560D02*
X185053119Y-96732837D01*
X185068525Y-96733281D02*
X185075953Y-96727229D01*
D10*
X184653939Y-96633037D02*
X184653939Y-96633037D01*
D12*
X183866865Y-93887653D02*
X183854288Y-93886922D01*
D10*
X184786117Y-96766176D02*
X184786117Y-96766176D01*
D12*
X183816234Y-93888447D02*
X183803512Y-93890222D01*
X184909628Y-96788658D02*
X184919232Y-96788428D01*
X184722817Y-96726207D02*
X184732578Y-96734172D01*
D10*
X183749886Y-93905048D02*
X183753001Y-93903840D01*
D11*
X155800000Y-107950000D02*
X155800000Y-108500000D01*
D12*
X185971037Y-93887306D02*
X185964686Y-93886975D01*
D10*
X183593055Y-94211015D02*
X183591887Y-94206267D01*
X183651628Y-93973059D02*
X183653760Y-93970722D01*
X183784464Y-93894059D02*
X183789218Y-93892952D01*
D11*
X159800000Y-107300000D02*
X159800000Y-108600000D01*
D12*
X184064672Y-94007263D02*
X184057420Y-93996430D01*
X186202366Y-94226833D02*
X186206108Y-94214225D01*
X185145725Y-96587115D02*
X185148249Y-96574869D01*
D10*
X183723982Y-93916925D02*
X183728429Y-93914645D01*
X183819418Y-93888070D02*
X183822596Y-93887762D01*
X183591601Y-94088340D02*
X183592323Y-94085302D01*
D12*
X184908382Y-96788191D02*
X184921099Y-96787055D01*
X183597623Y-94226830D02*
X183602036Y-94239358D01*
X184899991Y-96788531D02*
X184909628Y-96788658D01*
X185725377Y-94024349D02*
X185720840Y-94033263D01*
D10*
X184669219Y-96662612D02*
X184665091Y-96655474D01*
X183674309Y-93950798D02*
X183676742Y-93948711D01*
X184720435Y-96724094D02*
X184718074Y-96721993D01*
D12*
X184679912Y-96679071D02*
X184687636Y-96689446D01*
X185785479Y-93949293D02*
X185778397Y-93955594D01*
X184695809Y-96699355D02*
X184704412Y-96708791D01*
X183607130Y-94251783D02*
X183607130Y-94251783D01*
X186214908Y-94138076D02*
X186214176Y-94125499D01*
D10*
X184753112Y-96748518D02*
X184753112Y-96748518D01*
X184883042Y-96788548D02*
X184879890Y-96788418D01*
D12*
X183585469Y-94163411D02*
X183586605Y-94176128D01*
D11*
X175100000Y-107300000D02*
X175100000Y-108600000D01*
D10*
X183765527Y-93899421D02*
X183765527Y-93899421D01*
X183756124Y-93902672D02*
X183759253Y-93901546D01*
X183660335Y-93963856D02*
X183662585Y-93961617D01*
D12*
X184083389Y-94042420D02*
X184077678Y-94030266D01*
D10*
X184794724Y-96769831D02*
X184791841Y-96768647D01*
D12*
X185089880Y-96697655D02*
X185097844Y-96687894D01*
D10*
X184886198Y-96788639D02*
X184883042Y-96788548D01*
X183585075Y-94138027D02*
X183585278Y-94133301D01*
X184041523Y-93976121D02*
X184043607Y-93978552D01*
X183597417Y-94067288D02*
X183598391Y-94064326D01*
X183602035Y-94239307D02*
X183602035Y-94239307D01*
X186002841Y-93891322D02*
X186009190Y-93892615D01*
X183637108Y-93990687D02*
X183640461Y-93986326D01*
D12*
X184966443Y-96782038D02*
X184975658Y-96779737D01*
D10*
X183992069Y-93932059D02*
X183994645Y-93933841D01*
D12*
X184833358Y-96782052D02*
X184845603Y-96784577D01*
D10*
X183607135Y-94251741D02*
X183607135Y-94251741D01*
D11*
X159800000Y-107950000D02*
X160800000Y-107950000D01*
X172100000Y-108600000D02*
X172100000Y-107300000D01*
D10*
X183594316Y-94215756D02*
X183593055Y-94211015D01*
X183600301Y-94234621D02*
X183598662Y-94229921D01*
D12*
X185053124Y-96732839D02*
X185042750Y-96740562D01*
D10*
X183587582Y-94109859D02*
X183588295Y-94105214D01*
X183588295Y-94105214D02*
X183589090Y-94100587D01*
X184812303Y-96776202D02*
X184809341Y-96775230D01*
X184661164Y-96648164D02*
X184657445Y-96640684D01*
D12*
X184921099Y-96787055D02*
X184933821Y-96785280D01*
D10*
X184895692Y-96788668D02*
X184895692Y-96788668D01*
X183669529Y-93955047D02*
X183671905Y-93952909D01*
D12*
X184984329Y-96771624D02*
X184996754Y-96766530D01*
D10*
X183835303Y-93886935D02*
X183838477Y-93886826D01*
D12*
X184004755Y-93941330D02*
X183994650Y-93933872D01*
X184960804Y-96779322D02*
X184954748Y-96780912D01*
D10*
X184765202Y-96755704D02*
X184761131Y-96753383D01*
D12*
X185002680Y-96770855D02*
X185011448Y-96767246D01*
X183705421Y-93927690D02*
X183694589Y-93934942D01*
D10*
X186144080Y-93968423D02*
X186152543Y-93977819D01*
X184691673Y-96694418D02*
X184689645Y-96691927D01*
X184797621Y-96770981D02*
X184794724Y-96769831D01*
D12*
X184899991Y-96788531D02*
X184899991Y-96788531D01*
D10*
X183844813Y-93886729D02*
X183847976Y-93886739D01*
X183684215Y-93942613D02*
X183684215Y-93942613D01*
X184853318Y-96785813D02*
X184848680Y-96785073D01*
X184737590Y-96737916D02*
X184733825Y-96735085D01*
D12*
X185746381Y-93991184D02*
X185740719Y-93999095D01*
D10*
X184938316Y-96786866D02*
X184919242Y-96788385D01*
X184693729Y-96696879D02*
X184691673Y-96694418D01*
X183584984Y-94141182D02*
X183585075Y-94138027D01*
D12*
X185151864Y-96512091D02*
X185150727Y-96499373D01*
D10*
X183681694Y-93944617D02*
X183684215Y-93942613D01*
D12*
X185720840Y-94033263D02*
X185716608Y-94042419D01*
D10*
X186015530Y-93894071D02*
X186021857Y-93895693D01*
X183813056Y-93888796D02*
X183816238Y-93888415D01*
X184058351Y-93997730D02*
X184061105Y-94001761D01*
X185958355Y-93886774D02*
X185958355Y-93886774D01*
X184711135Y-96715507D02*
X184708870Y-96713284D01*
D12*
X184899991Y-95900027D02*
X184899991Y-95900027D01*
X185137152Y-96651401D02*
X185141759Y-96642367D01*
D10*
X184055531Y-93993763D02*
X184058351Y-93997730D01*
X184722819Y-96726164D02*
X184720435Y-96724094D01*
X184870463Y-96787806D02*
X184867331Y-96787528D01*
D12*
X185977394Y-93887795D02*
X185971037Y-93887306D01*
D10*
X183994645Y-93933841D02*
X183994645Y-93933841D01*
X184848680Y-96785073D02*
X184844059Y-96784250D01*
X184045664Y-93981013D02*
X184047694Y-93983503D01*
D12*
X184946526Y-96782857D02*
X184959193Y-96779779D01*
D10*
X185716602Y-94042392D02*
X185716602Y-94042392D01*
X183832127Y-93887084D02*
X183835303Y-93886935D01*
X183984227Y-93926911D02*
X183984227Y-93926911D01*
X183798742Y-93891014D02*
X183803510Y-93890182D01*
X186083294Y-93920901D02*
X186094576Y-93927661D01*
X183816238Y-93888415D02*
X183819418Y-93888070D01*
X183976206Y-93922047D02*
X183984227Y-93926911D01*
X183994645Y-93933841D02*
X183998474Y-93936578D01*
X184083384Y-94042392D02*
X184900000Y-95900000D01*
D12*
X185143459Y-96461277D02*
X185146537Y-96473944D01*
X183903975Y-93893450D02*
X183891730Y-93890925D01*
X183984222Y-93926930D02*
X183973493Y-93920511D01*
X185911342Y-93890382D02*
X185902119Y-93892110D01*
D10*
X183592323Y-94085302D02*
X183593082Y-94082273D01*
X186187215Y-94029852D02*
X186192562Y-94041121D01*
D12*
X184687636Y-96689446D02*
X184695809Y-96699355D01*
X183607435Y-94041148D02*
X183602635Y-94052654D01*
D10*
X183591601Y-94088340D02*
X183591601Y-94088340D01*
D12*
X184984775Y-96777104D02*
X184993786Y-96774142D01*
X186192858Y-94251786D02*
X186192858Y-94251786D01*
D10*
X183585075Y-94138027D02*
X183585075Y-94138027D01*
D12*
X185103471Y-96700165D02*
X185109757Y-96692703D01*
X185150727Y-96499373D02*
X185148952Y-96486652D01*
D10*
X184809341Y-96775230D02*
X184809341Y-96775230D01*
X184900000Y-95900000D02*
X185716602Y-94042392D01*
X183684215Y-93942613D02*
X183686765Y-93940640D01*
D12*
X183973493Y-93920511D02*
X183962483Y-93914623D01*
D10*
X183731428Y-93913165D02*
X183734453Y-93911717D01*
D12*
X185130209Y-96423716D02*
X185135303Y-96436142D01*
D10*
X183599401Y-94061377D02*
X183600445Y-94058440D01*
X183589090Y-94100587D02*
X183589665Y-94097513D01*
D12*
X186015521Y-93894098D02*
X186009181Y-93892641D01*
X186115773Y-93942663D02*
X186105399Y-93934940D01*
D10*
X184061105Y-94001761D02*
X184063791Y-94005856D01*
X183595671Y-94220488D02*
X183594316Y-94215756D01*
X184083384Y-94042392D02*
X184083384Y-94042392D01*
X183584934Y-94144341D02*
X183584984Y-94141182D01*
X183828950Y-93887269D02*
X183828950Y-93887269D01*
D12*
X184912156Y-96787858D02*
X184906070Y-96788266D01*
D10*
X183803510Y-93890182D02*
X183806690Y-93889679D01*
D12*
X183841643Y-93886805D02*
X183828951Y-93887311D01*
D10*
X185990125Y-93889223D02*
X185996485Y-93890192D01*
X183942603Y-93905598D02*
X183951214Y-93909252D01*
X183951214Y-93909252D02*
X183959691Y-93913213D01*
D12*
X185097844Y-96687894D02*
X185105302Y-96677789D01*
X184665900Y-96656958D02*
X184672660Y-96668239D01*
D10*
X184761131Y-96753383D02*
X184757101Y-96750987D01*
X184867331Y-96787528D02*
X184864206Y-96787213D01*
X184919242Y-96788385D02*
X184900002Y-96788489D01*
X183884005Y-93889616D02*
X183888643Y-93890355D01*
X184749165Y-96745976D02*
X184745262Y-96743362D01*
X183671905Y-93952909D02*
X183674309Y-93950798D01*
D12*
X183664869Y-93959441D02*
X183655916Y-93968451D01*
X186197353Y-94052654D02*
X186192553Y-94041147D01*
D10*
X183584955Y-94150669D02*
X183584924Y-94147504D01*
D12*
X183625089Y-94008141D02*
X183618670Y-94018870D01*
X185096939Y-96707352D02*
X185103471Y-96700165D01*
D10*
X183828950Y-93887269D02*
X183832127Y-93887084D01*
X186210913Y-94100607D02*
X186212848Y-94112985D01*
X184049696Y-93986024D02*
X184049696Y-93986024D01*
D12*
X186197952Y-94239360D02*
X186202366Y-94226833D01*
X184990824Y-96769056D02*
X184984863Y-96771421D01*
D10*
X184077675Y-94030239D02*
X184079153Y-94033237D01*
X184993792Y-96774098D02*
X184975665Y-96779693D01*
D12*
X186187206Y-94029879D02*
X186181318Y-94018869D01*
D10*
X184079153Y-94033237D02*
X184080597Y-94036262D01*
X183866869Y-93887610D02*
X183866869Y-93887610D01*
X184857974Y-96786469D02*
X184853318Y-96785813D01*
X184876743Y-96788251D02*
X184873601Y-96788047D01*
X184037275Y-93971348D02*
X184039412Y-93973720D01*
D12*
X185148959Y-96486649D02*
X185150734Y-96499371D01*
D10*
X184781863Y-96764235D02*
X184777643Y-96762216D01*
D12*
X185105307Y-96677790D02*
X185097850Y-96687895D01*
X184966846Y-96777579D02*
X184960804Y-96779322D01*
X183655916Y-93968451D02*
X183647453Y-93977847D01*
D10*
X185060899Y-96738996D02*
X185045081Y-96749622D01*
X186201605Y-94064351D02*
X186205283Y-94076269D01*
D12*
X185008909Y-96760818D02*
X185020631Y-96754572D01*
X185138941Y-96611125D02*
X185142619Y-96599207D01*
D10*
X183586257Y-94172897D02*
X183585814Y-94168126D01*
D12*
X186211608Y-94188853D02*
X186213383Y-94176130D01*
X185146053Y-96633083D02*
X186192858Y-94251786D01*
D10*
X184864206Y-96787213D02*
X184861086Y-96786860D01*
X185971046Y-93887279D02*
X185977403Y-93887768D01*
D12*
X186214176Y-94125499D02*
X186212839Y-94113011D01*
X185758473Y-93976145D02*
X185752302Y-93983533D01*
X186125683Y-93950837D02*
X186115773Y-93942663D01*
X185778397Y-93955594D02*
X185771529Y-93962172D01*
D10*
X183916060Y-93896526D02*
X183925017Y-93899232D01*
D12*
X183951215Y-93909276D02*
X183939709Y-93904476D01*
X185866117Y-93902282D02*
X185857384Y-93905621D01*
X186105399Y-93934940D02*
X186094566Y-93927687D01*
X183891730Y-93890925D02*
X183879353Y-93888990D01*
X184041523Y-93976146D02*
X184032921Y-93966711D01*
X184996754Y-96766530D02*
X185008909Y-96760818D01*
X186135118Y-93959439D02*
X186125683Y-93950837D01*
X185063034Y-96724665D02*
X185053124Y-96732839D01*
X184959193Y-96779779D02*
X184971801Y-96776038D01*
X186021848Y-93895720D02*
X186015521Y-93894098D01*
D10*
X185815773Y-93926901D02*
X185831974Y-93917471D01*
D12*
X185121549Y-96676970D02*
X185127038Y-96668706D01*
X184996760Y-96766532D02*
X184990824Y-96769056D01*
D10*
X183602639Y-94052606D02*
X183604670Y-94047544D01*
X183879350Y-93888960D02*
X183884005Y-93889616D01*
D12*
X185020082Y-96763319D02*
X185028571Y-96759078D01*
D10*
X183585279Y-94160183D02*
X183585133Y-94157009D01*
D12*
X185150734Y-96499371D02*
X185151870Y-96512089D01*
D10*
X184082007Y-94039314D02*
X184083384Y-94042392D01*
X183998474Y-93936578D02*
X184002256Y-93939387D01*
D12*
X185129898Y-96634354D02*
X185134698Y-96622848D01*
D10*
X184073041Y-94021407D02*
X184074619Y-94024324D01*
D12*
X185135296Y-96436144D02*
X185130202Y-96423718D01*
D10*
X183728429Y-93914645D02*
X183728429Y-93914645D01*
X186040740Y-93901558D02*
X186046992Y-93903849D01*
D12*
X185920636Y-93888986D02*
X185911342Y-93890382D01*
D10*
X185045081Y-96749622D02*
X185028574Y-96759033D01*
D12*
X185752302Y-93983533D02*
X185746381Y-93991184D01*
X185929992Y-93887927D02*
X185920636Y-93888986D01*
X185857384Y-93905621D02*
X185848776Y-93909273D01*
D10*
X184706630Y-96711030D02*
X184704415Y-96708747D01*
D12*
X185118663Y-96656632D02*
X185124551Y-96645623D01*
X183716702Y-93920930D02*
X183705421Y-93927690D01*
X185740719Y-93999095D02*
X185735325Y-94007262D01*
D10*
X183689343Y-93938695D02*
X183691950Y-93936779D01*
D12*
X184972871Y-96775682D02*
X184966846Y-96777579D01*
D10*
X185115783Y-96684927D02*
X185103470Y-96700121D01*
D12*
X184906070Y-96788266D02*
X184899991Y-96788531D01*
X183587149Y-94113010D02*
X183585812Y-94125497D01*
D10*
X183598662Y-94229921D02*
X183597119Y-94225210D01*
D12*
X185134698Y-96622848D02*
X185138941Y-96611125D01*
X185045079Y-96749666D02*
X185053079Y-96744503D01*
X185730208Y-94015681D02*
X185725377Y-94024349D01*
X183632031Y-93997713D02*
X183625089Y-94008141D01*
D10*
X183753001Y-93903840D02*
X183753001Y-93903840D01*
D12*
X186083285Y-93920927D02*
X186071564Y-93914681D01*
D10*
X183619059Y-94018145D02*
X183621817Y-94013424D01*
D11*
X172100000Y-107950000D02*
X171100000Y-107950000D01*
D12*
X184948681Y-96782351D02*
X184942603Y-96783639D01*
D10*
X183585133Y-94157009D02*
X183585025Y-94153838D01*
D12*
X185764885Y-93969024D02*
X185758473Y-93976145D01*
X186059409Y-93908970D02*
X186053210Y-93906337D01*
X185848776Y-93909273D02*
X185840302Y-93913233D01*
X185127038Y-96668706D02*
X185132242Y-96660182D01*
D10*
X184020435Y-93954499D02*
X184023914Y-93957731D01*
D12*
X185081417Y-96707051D02*
X185089880Y-96697655D01*
D10*
X184665091Y-96655474D02*
X184661164Y-96648164D01*
X183984227Y-93926911D02*
X183986861Y-93928597D01*
D12*
X183585081Y-94138074D02*
X183584964Y-94150719D01*
D10*
X183857444Y-93887003D02*
X183860591Y-93887167D01*
X183588127Y-94187214D02*
X183587413Y-94182442D01*
D12*
X186160499Y-93987607D02*
X186152534Y-93977845D01*
D10*
X183968025Y-93917480D02*
X183976206Y-93922047D01*
X183879350Y-93888960D02*
X183879350Y-93888960D01*
X183907007Y-93894142D02*
X183911545Y-93895293D01*
X183647458Y-93977804D02*
X183647458Y-93977804D01*
D12*
X185060898Y-96739040D02*
X185068525Y-96733281D01*
D10*
X184039412Y-93973720D02*
X184041523Y-93976121D01*
X183803510Y-93890182D02*
X183803510Y-93890182D01*
X183759253Y-93901546D02*
X183762387Y-93900462D01*
D12*
X185042750Y-96740562D02*
X185031918Y-96747815D01*
D10*
X184032922Y-93966692D02*
X184035111Y-93969005D01*
X186212848Y-94112985D02*
X186214185Y-94125472D01*
X186071573Y-93914655D02*
X186083294Y-93920901D01*
D12*
X185148952Y-96486652D02*
X185146530Y-96473947D01*
D10*
X183989475Y-93930312D02*
X183992069Y-93932059D01*
D12*
X185840302Y-93913233D02*
X185831970Y-93917498D01*
D10*
X183959691Y-93913213D02*
X183968025Y-93917480D01*
D12*
X185983754Y-93888443D02*
X185977394Y-93887795D01*
D10*
X185146049Y-96633041D02*
X185137148Y-96651358D01*
D12*
X185150190Y-96562491D02*
X185148255Y-96574868D01*
X185800250Y-93937535D02*
X185792766Y-93943272D01*
X183916068Y-93896555D02*
X183903975Y-93893450D01*
D10*
X186202375Y-94226807D02*
X186197962Y-94239334D01*
X185028574Y-96759033D02*
X185011453Y-96767201D01*
X184718074Y-96721993D02*
X184715737Y-96719862D01*
X184900002Y-96788489D02*
X184895692Y-96788668D01*
X183711007Y-93924203D02*
X183715270Y-93921705D01*
X184713424Y-96717699D02*
X184713424Y-96717699D01*
X184080597Y-94036262D02*
X184082007Y-94039314D01*
D12*
X185883922Y-93896551D02*
X185874966Y-93899257D01*
D10*
X183770247Y-93897940D02*
X183774977Y-93896553D01*
X183662585Y-93961617D02*
X183664868Y-93959402D01*
X186214917Y-94138049D02*
X186215034Y-94150695D01*
X184063791Y-94005856D02*
X184066408Y-94010015D01*
X183595576Y-94073249D02*
X183596479Y-94070263D01*
X183585462Y-94163359D02*
X183585462Y-94163359D01*
D12*
X185083170Y-96720888D02*
X185090169Y-96714261D01*
X185130202Y-96423718D02*
X185130202Y-96423718D01*
D10*
X184773459Y-96760121D02*
X184769311Y-96757950D01*
D12*
X186152534Y-93977845D02*
X186144071Y-93968449D01*
D10*
X184803455Y-96773176D02*
X184800531Y-96772096D01*
X183691950Y-93936779D02*
X183694586Y-93934892D01*
D12*
X186028161Y-93897507D02*
X186021848Y-93895720D01*
D10*
X183986861Y-93928597D02*
X183989475Y-93930312D01*
D12*
X184845603Y-96784577D02*
X184857981Y-96786511D01*
X186208380Y-94088388D02*
X186205274Y-94076295D01*
D10*
X186214185Y-94125472D02*
X186214917Y-94138049D01*
X183586952Y-94114519D02*
X183587582Y-94109859D01*
X186192868Y-94251760D02*
X186192868Y-94251760D01*
D12*
X185112244Y-96667361D02*
X185118663Y-96656632D01*
D10*
X183593082Y-94082273D02*
X183593878Y-94079254D01*
D12*
X186205274Y-94076295D02*
X186201596Y-94064377D01*
D10*
X183605797Y-94248644D02*
X183604500Y-94245538D01*
D12*
X183740578Y-93908972D02*
X183740578Y-93908972D01*
X183927986Y-93900233D02*
X183916068Y-93896555D01*
X185075953Y-96727229D02*
X185083170Y-96720888D01*
D10*
X183916060Y-93896526D02*
X183916060Y-93896526D01*
X184809341Y-96775230D02*
X184806391Y-96774221D01*
D12*
X184918246Y-96787307D02*
X184912156Y-96787858D01*
D10*
X186167965Y-93997685D02*
X186174908Y-94008113D01*
D12*
X184077678Y-94030266D02*
X184071432Y-94018544D01*
D10*
X184005992Y-93942268D02*
X184009678Y-93945221D01*
X183925017Y-93899232D02*
X183933867Y-93902257D01*
X183806690Y-93889679D02*
X183809873Y-93889217D01*
D12*
X184032921Y-93966711D02*
X184023912Y-93957758D01*
D10*
X184002256Y-93939387D02*
X184005992Y-93942268D01*
X185137148Y-96651358D02*
X185127034Y-96668663D01*
D12*
X186214519Y-94163413D02*
X186215025Y-94150721D01*
D10*
X184883042Y-96788548D02*
X184883042Y-96788548D01*
X185958355Y-93886774D02*
X185964696Y-93886948D01*
D12*
X184014516Y-93949294D02*
X184004755Y-93941330D01*
D10*
X186197362Y-94052628D02*
X186201605Y-94064351D01*
D12*
X185146537Y-96473944D02*
X185148959Y-96486649D01*
D10*
X184071431Y-94018518D02*
X184073041Y-94021407D01*
X184682761Y-96682976D02*
X184678060Y-96676365D01*
X183589825Y-94196750D02*
X183588931Y-94191984D01*
X184715737Y-96719862D02*
X184713424Y-96717699D01*
X183679204Y-93946650D02*
X183681694Y-93944617D01*
D12*
X185815771Y-93926928D02*
X185807921Y-93932086D01*
X184023912Y-93957758D02*
X184014516Y-93949294D01*
D10*
X183655922Y-93968409D02*
X183655922Y-93968409D01*
D12*
X183694589Y-93934942D02*
X183684214Y-93942665D01*
X185141759Y-96642367D02*
X185146053Y-96633083D01*
D10*
X183613849Y-94027748D02*
X183616403Y-94022920D01*
D12*
X184763840Y-96754991D02*
X184774850Y-96760878D01*
D10*
X183674309Y-93950798D02*
X183674309Y-93950798D01*
X184016901Y-93951337D02*
X184020435Y-93954499D01*
D12*
X184936519Y-96784777D02*
X184930430Y-96785767D01*
X185939402Y-93887207D02*
X185929992Y-93887927D01*
D10*
X186125692Y-93950810D02*
X186135127Y-93959413D01*
X186192868Y-94251760D02*
X185146049Y-96633041D01*
X183640461Y-93986326D02*
X183643912Y-93982031D01*
X184900000Y-95900000D02*
X184900000Y-95900000D01*
X186209195Y-94201531D02*
X186206117Y-94214199D01*
X184689645Y-96691927D02*
X184687643Y-96689406D01*
D12*
X184947758Y-96785628D02*
X184957140Y-96784003D01*
D10*
X183664868Y-93959402D02*
X183664868Y-93959402D01*
X184047694Y-93983503D02*
X184049696Y-93986024D01*
X183658114Y-93966120D02*
X183660335Y-93963856D01*
X186046992Y-93903849D02*
X186053219Y-93906311D01*
D12*
X186040731Y-93901584D02*
X186034456Y-93899462D01*
X184975658Y-96779737D02*
X184984775Y-96777104D01*
X185031918Y-96747815D02*
X185020636Y-96754574D01*
X184071432Y-94018544D02*
X184064672Y-94007263D01*
D10*
X185964696Y-93886948D02*
X185971046Y-93887279D01*
D12*
X186212839Y-94113011D02*
X186210904Y-94100634D01*
D10*
X183585462Y-94163359D02*
X183585279Y-94160183D01*
X184708870Y-96713284D02*
X184706630Y-96711030D01*
X186192562Y-94041121D02*
X186197362Y-94052628D01*
D12*
X185090169Y-96714261D02*
X185096939Y-96707352D01*
D11*
X176100000Y-107950000D02*
X176100000Y-108500000D01*
D12*
X183612782Y-94029879D02*
X183607435Y-94041148D01*
X183639489Y-93987608D02*
X183632031Y-93997713D01*
D11*
X171100000Y-107950000D02*
X165900000Y-107950000D01*
D10*
X184757101Y-96750987D02*
X184753112Y-96748518D01*
X184900002Y-96788489D02*
X184900002Y-96788489D01*
D12*
X186144071Y-93968449D02*
X186135118Y-93959439D01*
D10*
X183702669Y-93929409D02*
X183706807Y-93926771D01*
X183728429Y-93914645D02*
X183731428Y-93913165D01*
X186115782Y-93942637D02*
X186125692Y-93950810D01*
X183590811Y-94201511D02*
X183589825Y-94196750D01*
X185800251Y-93937509D02*
X185815773Y-93926901D01*
X183933867Y-93902257D02*
X183942603Y-93905598D01*
X184861086Y-96786860D02*
X184857974Y-96786469D01*
D12*
X183728424Y-93914684D02*
X183716702Y-93920930D01*
D10*
X183598391Y-94064326D02*
X183598391Y-94064326D01*
D12*
X185135303Y-96436142D02*
X185139717Y-96448669D01*
D10*
X183737505Y-93910303D02*
X183740583Y-93908925D01*
X183603245Y-94242426D02*
X183602035Y-94239307D01*
D12*
X183647453Y-93977847D02*
X183639489Y-93987608D01*
X185028571Y-96759078D02*
X185036906Y-96754525D01*
D10*
X183653760Y-93970722D02*
X183655922Y-93968409D01*
D12*
X186181318Y-94018869D02*
X186174899Y-94008140D01*
D10*
X184009678Y-93945221D02*
X184013315Y-93948244D01*
D11*
X171100000Y-107950000D02*
X171100000Y-108500000D01*
D12*
X185151870Y-96512089D02*
X185152376Y-96524781D01*
X186206108Y-94214225D02*
X186209186Y-94201558D01*
D10*
X183765527Y-93899421D02*
X183770247Y-93897940D01*
X183746778Y-93906297D02*
X183749886Y-93905048D01*
X184704415Y-96708747D02*
X184702225Y-96706433D01*
D12*
X183618670Y-94018870D02*
X183612782Y-94029879D01*
D10*
X183627636Y-94004150D02*
X183630694Y-93999600D01*
D12*
X185139717Y-96448669D02*
X185143459Y-96461277D01*
D10*
X186214528Y-94163387D02*
X186213392Y-94176104D01*
X184013315Y-93948244D02*
X184016901Y-93951337D01*
X183594709Y-94076246D02*
X183595576Y-94073249D01*
X184026204Y-93959925D02*
X184028468Y-93962151D01*
D12*
X184083389Y-94042420D02*
X184083389Y-94042420D01*
D10*
X184806391Y-96774221D02*
X184803455Y-96773176D01*
D11*
X156800000Y-108600000D02*
X156800000Y-107300000D01*
D10*
X185716602Y-94042392D02*
X185725371Y-94024323D01*
X183601524Y-94055517D02*
X183602639Y-94052606D01*
X186211617Y-94188826D02*
X186209195Y-94201531D01*
X183838477Y-93886826D02*
X183841647Y-93886759D01*
X183851136Y-93886788D02*
X183854292Y-93886876D01*
D12*
X185139710Y-96448672D02*
X185135296Y-96436144D01*
X185124551Y-96645623D02*
X185129898Y-96634354D01*
X186059409Y-93908970D02*
X186059409Y-93908970D01*
X186201596Y-94064377D02*
X186197353Y-94052654D01*
X186167956Y-93997712D02*
X186160499Y-93987607D01*
X186215025Y-94150721D02*
X186214908Y-94138076D01*
D10*
X183860591Y-93887167D02*
X183863733Y-93887370D01*
X186181327Y-94018843D02*
X186187215Y-94029852D01*
D12*
X186209186Y-94201558D02*
X186211608Y-94188853D01*
X185996476Y-93890218D02*
X185990116Y-93889250D01*
D10*
X183911545Y-93895293D02*
X183916060Y-93896526D01*
D11*
X156800000Y-107950000D02*
X155800000Y-107950000D01*
D12*
X183684214Y-93942665D02*
X183674305Y-93950839D01*
D10*
X184844059Y-96784250D02*
X184839458Y-96783344D01*
X183586406Y-94119195D02*
X183586952Y-94114519D01*
X183630694Y-93999600D02*
X183633852Y-93995112D01*
X183586790Y-94177669D02*
X183586257Y-94172897D01*
X183762387Y-93900462D02*
X183765527Y-93899421D01*
X184957148Y-96783959D02*
X184938316Y-96786866D01*
D11*
X175100000Y-107950000D02*
X176100000Y-107950000D01*
D12*
X185031912Y-96747812D02*
X185042744Y-96740560D01*
D10*
X185831974Y-93917471D02*
X185848781Y-93909247D01*
X184821263Y-96778904D02*
X184821263Y-96778904D01*
X183686765Y-93940640D02*
X183689343Y-93938695D01*
X183740583Y-93908925D02*
X183743678Y-93907589D01*
X184695813Y-96699312D02*
X184695813Y-96699312D01*
D12*
X184933821Y-96785280D02*
X184946526Y-96782857D01*
D10*
X183589090Y-94100587D02*
X183589090Y-94100587D01*
X185866124Y-93902255D02*
X185883929Y-93896525D01*
X183664868Y-93959402D02*
X183667183Y-93957212D01*
D12*
X183586605Y-94176128D02*
X183588381Y-94188850D01*
D10*
X183649527Y-93975419D02*
X183651628Y-93973059D01*
D12*
X185089885Y-96697657D02*
X185081422Y-96707053D01*
X185807921Y-93932086D02*
X185800250Y-93937535D01*
D10*
X185746376Y-93991158D02*
X185758469Y-93976119D01*
X183897865Y-93892084D02*
X183902446Y-93893072D01*
X183706807Y-93926771D02*
X183711007Y-93924203D01*
D12*
X184659654Y-96645236D02*
X184665900Y-96656958D01*
D10*
X183789218Y-93892952D02*
X183793978Y-93891937D01*
X184678060Y-96676365D02*
X184673544Y-96669577D01*
D12*
X185008915Y-96760821D02*
X184996760Y-96766532D01*
X183594714Y-94076295D02*
X183591608Y-94088387D01*
X184809347Y-96775268D02*
X184821266Y-96778947D01*
D10*
X185939411Y-93887181D02*
X185958355Y-93886774D01*
X183590274Y-94094446D02*
X183590918Y-94091388D01*
D12*
X186192858Y-94251786D02*
X186197952Y-94239360D01*
D10*
X184879890Y-96788418D02*
X184876743Y-96788251D01*
X185146049Y-96633041D02*
X185146049Y-96633041D01*
D11*
X159800000Y-108600000D02*
X156800000Y-108600000D01*
D10*
X183633852Y-93995112D02*
X183637108Y-93990687D01*
D12*
X186210904Y-94100634D02*
X186208380Y-94088388D01*
D10*
X183719596Y-93919279D02*
X183723982Y-93916925D01*
X183611398Y-94032626D02*
X183613849Y-94027748D01*
X184697924Y-96701716D02*
X184695813Y-96699312D01*
X183597119Y-94225210D02*
X183595671Y-94220488D01*
D12*
X183593881Y-94214222D02*
X183597623Y-94226830D01*
X185081422Y-96707053D02*
X185072469Y-96716063D01*
X184996754Y-96766530D02*
X184996754Y-96766530D01*
D10*
X186206117Y-94214199D02*
X186202375Y-94226807D01*
D12*
X184938307Y-96786909D02*
X184947758Y-96785628D01*
D10*
X184722819Y-96726164D02*
X184722819Y-96726164D01*
D12*
X185036906Y-96754525D02*
X185045079Y-96749666D01*
D10*
X186009190Y-93892615D02*
X186015530Y-93894071D01*
D12*
X184883045Y-96788580D02*
X184895690Y-96788697D01*
X184753111Y-96748572D02*
X184763840Y-96754991D01*
D10*
X183590918Y-94091388D02*
X183591601Y-94088340D01*
D12*
X185130209Y-96423716D02*
X185130209Y-96423716D01*
D10*
X184726438Y-96729209D02*
X184722819Y-96726164D01*
X184713424Y-96717699D02*
X184711135Y-96715507D01*
X183598391Y-94064326D02*
X183599401Y-94061377D01*
D12*
X185948855Y-93886830D02*
X185939402Y-93887207D01*
X184924338Y-96786610D02*
X184918246Y-96787307D01*
X185716608Y-94042419D02*
X185716608Y-94042419D01*
D10*
X184800531Y-96772096D02*
X184797621Y-96770981D01*
X184035111Y-93969005D02*
X184037275Y-93971348D01*
D12*
X185990116Y-93889250D02*
X185983754Y-93888443D01*
X185958345Y-93886801D02*
X185958345Y-93886801D01*
D10*
X183740583Y-93908925D02*
X183740583Y-93908925D01*
X185725371Y-94024323D02*
X185735319Y-94007235D01*
X185883929Y-93896525D02*
X185902127Y-93892084D01*
X183809873Y-93889217D02*
X183813056Y-93888796D01*
D12*
X184930430Y-96785767D02*
X184924338Y-96786610D01*
X184732578Y-96734172D02*
X184742683Y-96741629D01*
X185150184Y-96562492D02*
X185151521Y-96550005D01*
D10*
X184052646Y-93989861D02*
X184055531Y-93993763D01*
X186215034Y-94150695D02*
X186214528Y-94163387D01*
D12*
X183674305Y-93950839D02*
X183664869Y-93959441D01*
X184870468Y-96787849D02*
X184883045Y-96788580D01*
X185115786Y-96684971D02*
X185121549Y-96676970D01*
D10*
X183643912Y-93982031D02*
X183647458Y-93977804D01*
X183893263Y-93891178D02*
X183897865Y-93892084D01*
D12*
X185138947Y-96611125D02*
X185134704Y-96622848D01*
D10*
X183873122Y-93888210D02*
X183876238Y-93888567D01*
X185735319Y-94007235D02*
X185746376Y-93991158D01*
X184030707Y-93964407D02*
X184032922Y-93966692D01*
D12*
X184774850Y-96760878D02*
X184786118Y-96766226D01*
X185130202Y-96423718D02*
X184083389Y-94042420D01*
X186071564Y-93914681D02*
X186059409Y-93908970D01*
D10*
X186135127Y-93959413D02*
X186144080Y-93968423D01*
D12*
X183765532Y-93899464D02*
X183753004Y-93903878D01*
D10*
X184889360Y-96788687D02*
X184886198Y-96788639D01*
X185103470Y-96700121D02*
X185090168Y-96714217D01*
D12*
X184857981Y-96786511D02*
X184870468Y-96787849D01*
X184928795Y-96787844D02*
X184938307Y-96786909D01*
X184797625Y-96771025D02*
X184809347Y-96775268D01*
D10*
X184702225Y-96706433D02*
X184700061Y-96704090D01*
X183854292Y-93886876D02*
X183857444Y-93887003D01*
X183647458Y-93977804D02*
X183649527Y-93975419D01*
X183588931Y-94191984D02*
X183588127Y-94187214D01*
X186174908Y-94008113D02*
X186181327Y-94018843D01*
X184066408Y-94010015D02*
X184068955Y-94014235D01*
X183841646Y-93886758D02*
X183841646Y-93886758D01*
X183585814Y-94168126D02*
X183585462Y-94163359D01*
D12*
X184978877Y-96773630D02*
X184972871Y-96775682D01*
X183590803Y-94201555D02*
X183593881Y-94214222D01*
D10*
X184821263Y-96778904D02*
X184818265Y-96778037D01*
X184788972Y-96767428D02*
X184786117Y-96766176D01*
D12*
X183740578Y-93908972D02*
X183740578Y-93908972D01*
D10*
X183585944Y-94123884D02*
X183586406Y-94119195D01*
D12*
X186094566Y-93927687D02*
X186083285Y-93920927D01*
X185011448Y-96767246D02*
X185020082Y-96763319D01*
D10*
X184857974Y-96786469D02*
X184857974Y-96786469D01*
X183602035Y-94239307D02*
X183600301Y-94234621D01*
D12*
X184786118Y-96766226D02*
X184797625Y-96771025D01*
X183588381Y-94188850D02*
X183590803Y-94201555D01*
X185152259Y-96537426D02*
X185151527Y-96550003D01*
D10*
X183593878Y-94079254D02*
X183594709Y-94076246D01*
X184975665Y-96779693D02*
X184957148Y-96783959D01*
D12*
X184713421Y-96717744D02*
X184722817Y-96726207D01*
D10*
X183667183Y-93957212D02*
X183669529Y-93955047D01*
X186034465Y-93899435D02*
X186040740Y-93901558D01*
D12*
X185097850Y-96687895D02*
X185089885Y-96697657D01*
X185124557Y-96645623D02*
X185118669Y-96656633D01*
X185112250Y-96667362D02*
X185105307Y-96677790D01*
X183879353Y-93888990D02*
X183866865Y-93887653D01*
X185902119Y-93892110D02*
X185892976Y-93894168D01*
X186034456Y-93899462D02*
X186028161Y-93897507D01*
D10*
X185920645Y-93888960D02*
X185939411Y-93887181D01*
D12*
X183790807Y-93892644D02*
X183778140Y-93895722D01*
D10*
X184071431Y-94018518D02*
X184071431Y-94018518D01*
X184700061Y-96704090D02*
X184697924Y-96701716D01*
D12*
X185118669Y-96656633D02*
X185112250Y-96667362D01*
X185072463Y-96716061D02*
X185081417Y-96707051D01*
X185823790Y-93922064D02*
X185815771Y-93926928D01*
D10*
X183621817Y-94013424D02*
X183624676Y-94008758D01*
D12*
X185151527Y-96550003D02*
X185150190Y-96562491D01*
D10*
X186205283Y-94076269D02*
X186208389Y-94088362D01*
X186094576Y-93927661D02*
X186105408Y-93934913D01*
X183609051Y-94037552D02*
X183611398Y-94032626D01*
X184687643Y-96689406D02*
X184682761Y-96682976D01*
D12*
X185109757Y-96692703D02*
X185115786Y-96684971D01*
D10*
X186105408Y-93934913D02*
X186115782Y-93942637D01*
D12*
X185132242Y-96660182D02*
X185137152Y-96651401D01*
X183584964Y-94150719D02*
X183585469Y-94163411D01*
X183753004Y-93903878D02*
X183740578Y-93908972D01*
D10*
X183604500Y-94245538D02*
X183603245Y-94242426D01*
D12*
X185053079Y-96744503D02*
X185060898Y-96739040D01*
D10*
X184076163Y-94027268D02*
X184077675Y-94030239D01*
D12*
X186046983Y-93903876D02*
X186040731Y-93901584D01*
X185105302Y-96677789D02*
X185112244Y-96667361D01*
D10*
X184043607Y-93978552D02*
X184045664Y-93981013D01*
X183888643Y-93890355D02*
X183893263Y-93891178D01*
X183863733Y-93887370D02*
X183866869Y-93887610D01*
X183596479Y-94070263D02*
X183597417Y-94067288D01*
X185127034Y-96668663D02*
X185115783Y-96684927D01*
D12*
X183828951Y-93887311D02*
X183816234Y-93888447D01*
X185964686Y-93886975D02*
X185958345Y-93886801D01*
X186213383Y-94176130D02*
X186214519Y-94163413D01*
D10*
X183590811Y-94201511D02*
X183590811Y-94201511D01*
X184892525Y-96788696D02*
X184889360Y-96788687D01*
D12*
X185831970Y-93917498D02*
X185823790Y-93922064D01*
X183803512Y-93890222D02*
X183790807Y-93892644D01*
X183740578Y-93908972D02*
X183728424Y-93914684D01*
D10*
X183694586Y-93934892D02*
X183698596Y-93932117D01*
D12*
X184821266Y-96778947D02*
X184833358Y-96782052D01*
X185063028Y-96724663D02*
X185072463Y-96716061D01*
X185145731Y-96587114D02*
X185142625Y-96599206D01*
D11*
X175100000Y-108600000D02*
X172100000Y-108600000D01*
D10*
X183584924Y-94147504D02*
X183584934Y-94144341D01*
D12*
X185020631Y-96754572D02*
X185031912Y-96747812D01*
D10*
X184834876Y-96782357D02*
X184830316Y-96781287D01*
X184032922Y-93966692D02*
X184032922Y-93966692D01*
X183841647Y-93886759D02*
X183841646Y-93886758D01*
D12*
X185892976Y-93894168D02*
X185883922Y-93896551D01*
D10*
X183604670Y-94047544D02*
X183606808Y-94042525D01*
X184074619Y-94024324D02*
X184076163Y-94027268D01*
X183607135Y-94251741D02*
X183605797Y-94248644D01*
D12*
X183585812Y-94125497D02*
X183585081Y-94138074D01*
X184049697Y-93986056D02*
X184041523Y-93976146D01*
X184993786Y-96774142D02*
X185002680Y-96770855D01*
D10*
X184023914Y-93957731D02*
X184023914Y-93957731D01*
D12*
X185148249Y-96574869D02*
X185150184Y-96562492D01*
X185053119Y-96732837D02*
X185063028Y-96724663D01*
X185072469Y-96716063D02*
X185063034Y-96724665D01*
D10*
X184815278Y-96777137D02*
X184812303Y-96776202D01*
D12*
X185134704Y-96622848D02*
X185129904Y-96634354D01*
D10*
X184839458Y-96783344D02*
X184834876Y-96782357D01*
X186053219Y-93906311D02*
X186059418Y-93908944D01*
D12*
X185146053Y-96633083D02*
X185146053Y-96633083D01*
X185129904Y-96634354D02*
X185124557Y-96645623D01*
D10*
X183734453Y-93911717D02*
X183737505Y-93910303D01*
X186208389Y-94088362D02*
X186210913Y-94100607D01*
X186152543Y-93977819D02*
X186160508Y-93987580D01*
D12*
X185874966Y-93899257D02*
X185866117Y-93902282D01*
X185151521Y-96550005D02*
X185152252Y-96537428D01*
D10*
X184873601Y-96788047D02*
X184870463Y-96787806D01*
D12*
X184919232Y-96788428D02*
X184928795Y-96787844D01*
D10*
X183779717Y-93895260D02*
X183784464Y-93894059D01*
D12*
X183607130Y-94251783D02*
X184653943Y-96633082D01*
D10*
X183743678Y-93907589D02*
X183746778Y-93906297D01*
D12*
X184899991Y-95900027D02*
X185130209Y-96423716D01*
D10*
X185848781Y-93909247D02*
X185866124Y-93902255D01*
X183876238Y-93888567D02*
X183879350Y-93888960D01*
D12*
X183778140Y-93895722D02*
X183765532Y-93899464D01*
D10*
X184653939Y-96633037D02*
X183607135Y-94251741D01*
X184753112Y-96748518D02*
X184749165Y-96745976D01*
D12*
X185020636Y-96754574D02*
X185008915Y-96760821D01*
D10*
X184733825Y-96735085D02*
X184730107Y-96732183D01*
X185902127Y-93892084D02*
X185920645Y-93888960D01*
D12*
X184954748Y-96780912D02*
X184948681Y-96782351D01*
D10*
X183870000Y-93887890D02*
X183873122Y-93888210D01*
X183616403Y-94022920D02*
X183619059Y-94018145D01*
D12*
X185146530Y-96473947D02*
X185143452Y-96461279D01*
X186174899Y-94008140D02*
X186167956Y-93997712D01*
X183994650Y-93933872D02*
X183984222Y-93926930D01*
D10*
X186028170Y-93897481D02*
X186034465Y-93899435D01*
X184695813Y-96699312D02*
X184693729Y-96696879D01*
D12*
X185771529Y-93962172D02*
X185764885Y-93969024D01*
X185958345Y-93886801D02*
X185958345Y-93886801D01*
X184704412Y-96708791D02*
X184713421Y-96717744D01*
X183598392Y-94064377D02*
X183594714Y-94076295D01*
X186053210Y-93906337D02*
X186046983Y-93903876D01*
D10*
X184657445Y-96640684D02*
X184653939Y-96633037D01*
D12*
X185152252Y-96537428D02*
X185152369Y-96524783D01*
D10*
X186197962Y-94239334D02*
X186192868Y-94251760D01*
D12*
X183589084Y-94100633D02*
X183587149Y-94113010D01*
D10*
X183585278Y-94133301D02*
X183585568Y-94128587D01*
D12*
X183591608Y-94088387D02*
X183589084Y-94100633D01*
X183939709Y-93904476D02*
X183927986Y-93900233D01*
D10*
X184769311Y-96757950D02*
X184765202Y-96755704D01*
D12*
X185152376Y-96524781D02*
X185152259Y-96537426D01*
D10*
X183585025Y-94153838D02*
X183584955Y-94150669D01*
D12*
X185716608Y-94042419D02*
X184899991Y-95900027D01*
D10*
X185996485Y-93890192D02*
X186002841Y-93891322D01*
D12*
X184653943Y-96633082D02*
X184659654Y-96645236D01*
X184942603Y-96783639D02*
X184936519Y-96784777D01*
D10*
X183753001Y-93903840D02*
X183756124Y-93902672D01*
D12*
X183854288Y-93886922D02*
X183841643Y-93886805D01*
X184984863Y-96771421D02*
X184978877Y-96773630D01*
X185142619Y-96599207D02*
X185145725Y-96587115D01*
D10*
X184791841Y-96768647D02*
X184788972Y-96767428D01*
X183841646Y-93886758D02*
X183844813Y-93886729D01*
X183600445Y-94058440D02*
X183601524Y-94055517D01*
X184818265Y-96778037D02*
X184815278Y-96777137D01*
X183694586Y-93934892D02*
X183694586Y-93934892D01*
X185011453Y-96767201D02*
X184993792Y-96774098D01*
X183676742Y-93948711D02*
X183679204Y-93946650D01*
X184068955Y-94014235D02*
X184071431Y-94018518D01*
X183624676Y-94008758D02*
X183627636Y-94004150D01*
D12*
X184957140Y-96784003D02*
X184966443Y-96782038D01*
D10*
X186160508Y-93987580D02*
X186167965Y-93997685D01*
X186059418Y-93908944D02*
X186059418Y-93908944D01*
D12*
X186192553Y-94041147D02*
X186187206Y-94029879D01*
D10*
X183847976Y-93886739D02*
X183851136Y-93886788D01*
X186213392Y-94176104D02*
X186211617Y-94188826D01*
D12*
X185152369Y-96524783D02*
X185151864Y-96512091D01*
D10*
X186021857Y-93895693D02*
X186028170Y-93897481D01*
X184786117Y-96766176D02*
X184781863Y-96764235D01*
D12*
X184996760Y-96766532D02*
X184996760Y-96766532D01*
D10*
X185075953Y-96727185D02*
X185060899Y-96738996D01*
D11*
X156800000Y-107300000D02*
X159800000Y-107300000D01*
D12*
X183602635Y-94052654D02*
X183598392Y-94064377D01*
D10*
X184777643Y-96762216D02*
X184773459Y-96760121D01*
X185785478Y-93949266D02*
X185800251Y-93937509D01*
X186059418Y-93908944D02*
X186071573Y-93914655D01*
X184745262Y-96743362D02*
X184741403Y-96740675D01*
X184741403Y-96740675D02*
X184737590Y-96737916D01*
X183825773Y-93887494D02*
X183828950Y-93887269D01*
D12*
X185792766Y-93943272D02*
X185785479Y-93949293D01*
D10*
X183698596Y-93932117D02*
X183702669Y-93929409D01*
D12*
X183962483Y-93914623D02*
X183951215Y-93909276D01*
X184653943Y-96633082D02*
X184653943Y-96633082D01*
D10*
X183591887Y-94206267D02*
X183590811Y-94201511D01*
X185977403Y-93887768D02*
X185983764Y-93888416D01*
X183715270Y-93921705D02*
X183719596Y-93919279D01*
X184023914Y-93957731D02*
X184026204Y-93959925D01*
X185758469Y-93976119D02*
X185771527Y-93962146D01*
D12*
X184057420Y-93996430D02*
X184049697Y-93986056D01*
D10*
X184673544Y-96669577D02*
X184669219Y-96662612D01*
X183606808Y-94042525D02*
X183609051Y-94037552D01*
X183655922Y-93968409D02*
X183658114Y-93966120D01*
X183822596Y-93887762D02*
X183825773Y-93887494D01*
X184687643Y-96689406D02*
X184687643Y-96689406D01*
X185983764Y-93888416D02*
X185990125Y-93889223D01*
D12*
X185142625Y-96599206D02*
X185138947Y-96611125D01*
D10*
X185090168Y-96714217D02*
X185075953Y-96727185D01*
D11*
X165900000Y-107950000D02*
X165900000Y-108500000D01*
D12*
X184971801Y-96776038D02*
X184984329Y-96771624D01*
D10*
X184825778Y-96780136D02*
X184821263Y-96778904D01*
X184730107Y-96732183D02*
X184726438Y-96729209D01*
X183866869Y-93887610D02*
X183870000Y-93887890D01*
X183774977Y-93896553D02*
X183779717Y-93895260D01*
D12*
X185958345Y-93886801D02*
X185948855Y-93886830D01*
D10*
X184049696Y-93986024D02*
X184052646Y-93989861D01*
D11*
X172100000Y-107300000D02*
X175100000Y-107300000D01*
D12*
X186009181Y-93892641D02*
X186002832Y-93891348D01*
D10*
X183589665Y-94097513D02*
X183590274Y-94094446D01*
D12*
X184672660Y-96668239D02*
X184679912Y-96679071D01*
D10*
X184895692Y-96788668D02*
X184892525Y-96788696D01*
X183587413Y-94182442D02*
X183586790Y-94177669D01*
D12*
X184895690Y-96788697D02*
X184908382Y-96788191D01*
X183602036Y-94239358D02*
X183607130Y-94251783D01*
X184742683Y-96741629D02*
X184753111Y-96748572D01*
X185143452Y-96461279D02*
X185139710Y-96448672D01*
D10*
X183602639Y-94052606D02*
X183602639Y-94052606D01*
D12*
X186002832Y-93891348D02*
X185996476Y-93890218D01*
X185148255Y-96574868D02*
X185145731Y-96587114D01*
D11*
X186995238Y-97779775D02*
X186728571Y-98579775D01*
X186461904Y-97779775D01*
X186080952Y-98579775D02*
X186157142Y-98541680D01*
X186195238Y-98503585D01*
X186233333Y-98427394D01*
X186233333Y-98198823D01*
X186195238Y-98122632D01*
X186157142Y-98084537D01*
X186080952Y-98046442D01*
X185966666Y-98046442D01*
X185890476Y-98084537D01*
X185852380Y-98122632D01*
X185814285Y-98198823D01*
X185814285Y-98427394D01*
X185852380Y-98503585D01*
X185890476Y-98541680D01*
X185966666Y-98579775D01*
X186080952Y-98579775D01*
X185471428Y-98046442D02*
X185471428Y-98732156D01*
X185509523Y-98808347D01*
X185585714Y-98846442D01*
X185623809Y-98846442D01*
X185471428Y-97779775D02*
X185509523Y-97817871D01*
X185471428Y-97855966D01*
X185433333Y-97817871D01*
X185471428Y-97779775D01*
X185471428Y-97855966D01*
X185204761Y-98046442D02*
X184900000Y-98046442D01*
X185090476Y-97779775D02*
X185090476Y-98465490D01*
X185052380Y-98541680D01*
X184976190Y-98579775D01*
X184900000Y-98579775D01*
X184328571Y-98541680D02*
X184404761Y-98579775D01*
X184557142Y-98579775D01*
X184633333Y-98541680D01*
X184671428Y-98465490D01*
X184671428Y-98160728D01*
X184633333Y-98084537D01*
X184557142Y-98046442D01*
X184404761Y-98046442D01*
X184328571Y-98084537D01*
X184290476Y-98160728D01*
X184290476Y-98236918D01*
X184671428Y-98313109D01*
X184633333Y-97741680D02*
X184480952Y-97855966D01*
X184328571Y-97741680D01*
X183604761Y-98541680D02*
X183680952Y-98579775D01*
X183833333Y-98579775D01*
X183909523Y-98541680D01*
X183947619Y-98503585D01*
X183985714Y-98427394D01*
X183985714Y-98198823D01*
X183947619Y-98122632D01*
X183909523Y-98084537D01*
X183833333Y-98046442D01*
X183680952Y-98046442D01*
X183604761Y-98084537D01*
X183261904Y-98579775D02*
X183261904Y-97779775D01*
X182919047Y-98579775D02*
X182919047Y-98160728D01*
X182957142Y-98084537D01*
X183033333Y-98046442D01*
X183147619Y-98046442D01*
X183223809Y-98084537D01*
X183261904Y-98122632D01*
X187147619Y-99067775D02*
X186880952Y-99867775D01*
X186614285Y-99067775D01*
X186233333Y-99867775D02*
X186309523Y-99829680D01*
X186347619Y-99791585D01*
X186385714Y-99715394D01*
X186385714Y-99486823D01*
X186347619Y-99410632D01*
X186309523Y-99372537D01*
X186233333Y-99334442D01*
X186119047Y-99334442D01*
X186042857Y-99372537D01*
X186004761Y-99410632D01*
X185966666Y-99486823D01*
X185966666Y-99715394D01*
X186004761Y-99791585D01*
X186042857Y-99829680D01*
X186119047Y-99867775D01*
X186233333Y-99867775D01*
X185661904Y-99829680D02*
X185585714Y-99867775D01*
X185433333Y-99867775D01*
X185357142Y-99829680D01*
X185319047Y-99753490D01*
X185319047Y-99715394D01*
X185357142Y-99639204D01*
X185433333Y-99601109D01*
X185547619Y-99601109D01*
X185623809Y-99563013D01*
X185661904Y-99486823D01*
X185661904Y-99448728D01*
X185623809Y-99372537D01*
X185547619Y-99334442D01*
X185433333Y-99334442D01*
X185357142Y-99372537D01*
X184633333Y-99867775D02*
X184633333Y-99448728D01*
X184671428Y-99372537D01*
X184747619Y-99334442D01*
X184900000Y-99334442D01*
X184976190Y-99372537D01*
X184633333Y-99829680D02*
X184709523Y-99867775D01*
X184900000Y-99867775D01*
X184976190Y-99829680D01*
X185014285Y-99753490D01*
X185014285Y-99677299D01*
X184976190Y-99601109D01*
X184900000Y-99563013D01*
X184709523Y-99563013D01*
X184633333Y-99524918D01*
X184747619Y-99029680D02*
X184861904Y-99143966D01*
X184252380Y-99867775D02*
X184252380Y-99067775D01*
X183909523Y-99867775D02*
X183909523Y-99448728D01*
X183947619Y-99372537D01*
X184023809Y-99334442D01*
X184138095Y-99334442D01*
X184214285Y-99372537D01*
X184252380Y-99410632D01*
X183414285Y-99867775D02*
X183490476Y-99829680D01*
X183528571Y-99753490D01*
X183528571Y-99067775D01*
X182995238Y-99867775D02*
X183071428Y-99829680D01*
X183109523Y-99791585D01*
X183147619Y-99715394D01*
X183147619Y-99486823D01*
X183109523Y-99410632D01*
X183071428Y-99372537D01*
X182995238Y-99334442D01*
X182880952Y-99334442D01*
X182804761Y-99372537D01*
X182766666Y-99410632D01*
X182728571Y-99486823D01*
X182728571Y-99715394D01*
X182766666Y-99791585D01*
X182804761Y-99829680D01*
X182880952Y-99867775D01*
X182995238Y-99867775D01*
X169595238Y-96961904D02*
X169595238Y-97533333D01*
X169633333Y-97647619D01*
X169709523Y-97723809D01*
X169823809Y-97761904D01*
X169900000Y-97761904D01*
X168833333Y-97761904D02*
X169214285Y-97761904D01*
X169214285Y-96961904D01*
X168109523Y-97685714D02*
X168147619Y-97723809D01*
X168261904Y-97761904D01*
X168338095Y-97761904D01*
X168452380Y-97723809D01*
X168528571Y-97647619D01*
X168566666Y-97571428D01*
X168604761Y-97419047D01*
X168604761Y-97304761D01*
X168566666Y-97152380D01*
X168528571Y-97076190D01*
X168452380Y-97000000D01*
X168338095Y-96961904D01*
X168261904Y-96961904D01*
X168147619Y-97000000D01*
X168109523Y-97038095D01*
X167538095Y-96961904D02*
X167538095Y-97533333D01*
X167576190Y-97647619D01*
X167652380Y-97723809D01*
X167766666Y-97761904D01*
X167842857Y-97761904D01*
X166776190Y-97761904D02*
X167157142Y-97761904D01*
X167157142Y-96961904D01*
X166052380Y-97685714D02*
X166090476Y-97723809D01*
X166204761Y-97761904D01*
X166280952Y-97761904D01*
X166395238Y-97723809D01*
X166471428Y-97647619D01*
X166509523Y-97571428D01*
X166547619Y-97419047D01*
X166547619Y-97304761D01*
X166509523Y-97152380D01*
X166471428Y-97076190D01*
X166395238Y-97000000D01*
X166280952Y-96961904D01*
X166204761Y-96961904D01*
X166090476Y-97000000D01*
X166052380Y-97038095D01*
X165480952Y-96961904D02*
X165480952Y-97533333D01*
X165519047Y-97647619D01*
X165595238Y-97723809D01*
X165709523Y-97761904D01*
X165785714Y-97761904D01*
X164719047Y-97761904D02*
X165100000Y-97761904D01*
X165100000Y-96961904D01*
X163995238Y-97685714D02*
X164033333Y-97723809D01*
X164147619Y-97761904D01*
X164223809Y-97761904D01*
X164338095Y-97723809D01*
X164414285Y-97647619D01*
X164452380Y-97571428D01*
X164490476Y-97419047D01*
X164490476Y-97304761D01*
X164452380Y-97152380D01*
X164414285Y-97076190D01*
X164338095Y-97000000D01*
X164223809Y-96961904D01*
X164147619Y-96961904D01*
X164033333Y-97000000D01*
X163995238Y-97038095D01*
X163423809Y-96961904D02*
X163423809Y-97533333D01*
X163461904Y-97647619D01*
X163538095Y-97723809D01*
X163652380Y-97761904D01*
X163728571Y-97761904D01*
X162661904Y-97761904D02*
X163042857Y-97761904D01*
X163042857Y-96961904D01*
X161938095Y-97685714D02*
X161976190Y-97723809D01*
X162090476Y-97761904D01*
X162166666Y-97761904D01*
X162280952Y-97723809D01*
X162357142Y-97647619D01*
X162395238Y-97571428D01*
X162433333Y-97419047D01*
X162433333Y-97304761D01*
X162395238Y-97152380D01*
X162357142Y-97076190D01*
X162280952Y-97000000D01*
X162166666Y-96961904D01*
X162090476Y-96961904D01*
X161976190Y-97000000D01*
X161938095Y-97038095D01*
X149690476Y-94129904D02*
X149233333Y-94129904D01*
X149461904Y-94929904D02*
X149461904Y-94129904D01*
X149004761Y-94891809D02*
X148890476Y-94929904D01*
X148700000Y-94929904D01*
X148623809Y-94891809D01*
X148585714Y-94853714D01*
X148547619Y-94777523D01*
X148547619Y-94701333D01*
X148585714Y-94625142D01*
X148623809Y-94587047D01*
X148700000Y-94548952D01*
X148852380Y-94510857D01*
X148928571Y-94472761D01*
X148966666Y-94434666D01*
X149004761Y-94358476D01*
X149004761Y-94282285D01*
X148966666Y-94206095D01*
X148928571Y-94168000D01*
X148852380Y-94129904D01*
X148661904Y-94129904D01*
X148547619Y-94168000D01*
X148204761Y-94510857D02*
X147938095Y-94510857D01*
X147823809Y-94929904D02*
X148204761Y-94929904D01*
X148204761Y-94129904D01*
X147823809Y-94129904D01*
X147480952Y-94929904D02*
X147480952Y-94129904D01*
X147023809Y-94929904D01*
X147023809Y-94129904D01*
X146680952Y-94891809D02*
X146566666Y-94929904D01*
X146376190Y-94929904D01*
X146300000Y-94891809D01*
X146261904Y-94853714D01*
X146223809Y-94777523D01*
X146223809Y-94701333D01*
X146261904Y-94625142D01*
X146300000Y-94587047D01*
X146376190Y-94548952D01*
X146528571Y-94510857D01*
X146604761Y-94472761D01*
X146642857Y-94434666D01*
X146680952Y-94358476D01*
X146680952Y-94282285D01*
X146642857Y-94206095D01*
X146604761Y-94168000D01*
X146528571Y-94129904D01*
X146338095Y-94129904D01*
X146223809Y-94168000D01*
X145728571Y-94129904D02*
X145576190Y-94129904D01*
X145500000Y-94168000D01*
X145423809Y-94244190D01*
X145385714Y-94396571D01*
X145385714Y-94663238D01*
X145423809Y-94815619D01*
X145500000Y-94891809D01*
X145576190Y-94929904D01*
X145728571Y-94929904D01*
X145804761Y-94891809D01*
X145880952Y-94815619D01*
X145919047Y-94663238D01*
X145919047Y-94396571D01*
X145880952Y-94244190D01*
X145804761Y-94168000D01*
X145728571Y-94129904D01*
X144585714Y-94929904D02*
X144852380Y-94548952D01*
X145042857Y-94929904D02*
X145042857Y-94129904D01*
X144738095Y-94129904D01*
X144661904Y-94168000D01*
X144623809Y-94206095D01*
X144585714Y-94282285D01*
X144585714Y-94396571D01*
X144623809Y-94472761D01*
X144661904Y-94510857D01*
X144738095Y-94548952D01*
X145042857Y-94548952D01*
X148319047Y-95417904D02*
X148052380Y-96217904D01*
X147785714Y-95417904D01*
X147100000Y-96217904D02*
X147557142Y-96217904D01*
X147328571Y-96217904D02*
X147328571Y-95417904D01*
X147404761Y-95532190D01*
X147480952Y-95608380D01*
X147557142Y-95646476D01*
X146757142Y-96141714D02*
X146719047Y-96179809D01*
X146757142Y-96217904D01*
X146795238Y-96179809D01*
X146757142Y-96141714D01*
X146757142Y-96217904D01*
X146223809Y-95417904D02*
X146147619Y-95417904D01*
X146071428Y-95456000D01*
X146033333Y-95494095D01*
X145995238Y-95570285D01*
X145957142Y-95722666D01*
X145957142Y-95913142D01*
X145995238Y-96065523D01*
X146033333Y-96141714D01*
X146071428Y-96179809D01*
X146147619Y-96217904D01*
X146223809Y-96217904D01*
X146300000Y-96179809D01*
X146338095Y-96141714D01*
X146376190Y-96065523D01*
X146414285Y-95913142D01*
X146414285Y-95722666D01*
X146376190Y-95570285D01*
X146338095Y-95494095D01*
X146300000Y-95456000D01*
X146223809Y-95417904D01*
X148395238Y-97505904D02*
X148852380Y-97505904D01*
X148623809Y-97505904D02*
X148623809Y-96705904D01*
X148700000Y-96820190D01*
X148776190Y-96896380D01*
X148852380Y-96934476D01*
X147938095Y-97048761D02*
X148014285Y-97010666D01*
X148052380Y-96972571D01*
X148090476Y-96896380D01*
X148090476Y-96858285D01*
X148052380Y-96782095D01*
X148014285Y-96744000D01*
X147938095Y-96705904D01*
X147785714Y-96705904D01*
X147709523Y-96744000D01*
X147671428Y-96782095D01*
X147633333Y-96858285D01*
X147633333Y-96896380D01*
X147671428Y-96972571D01*
X147709523Y-97010666D01*
X147785714Y-97048761D01*
X147938095Y-97048761D01*
X148014285Y-97086857D01*
X148052380Y-97124952D01*
X148090476Y-97201142D01*
X148090476Y-97353523D01*
X148052380Y-97429714D01*
X148014285Y-97467809D01*
X147938095Y-97505904D01*
X147785714Y-97505904D01*
X147709523Y-97467809D01*
X147671428Y-97429714D01*
X147633333Y-97353523D01*
X147633333Y-97201142D01*
X147671428Y-97124952D01*
X147709523Y-97086857D01*
X147785714Y-97048761D01*
X147290476Y-97429714D02*
X147252380Y-97467809D01*
X147290476Y-97505904D01*
X147328571Y-97467809D01*
X147290476Y-97429714D01*
X147290476Y-97505904D01*
X146490476Y-97505904D02*
X146947619Y-97505904D01*
X146719047Y-97505904D02*
X146719047Y-96705904D01*
X146795238Y-96820190D01*
X146871428Y-96896380D01*
X146947619Y-96934476D01*
X145728571Y-97505904D02*
X146185714Y-97505904D01*
X145957142Y-97505904D02*
X145957142Y-96705904D01*
X146033333Y-96820190D01*
X146109523Y-96896380D01*
X146185714Y-96934476D01*
X145385714Y-97429714D02*
X145347619Y-97467809D01*
X145385714Y-97505904D01*
X145423809Y-97467809D01*
X145385714Y-97429714D01*
X145385714Y-97505904D01*
X148471428Y-98070095D02*
X148433333Y-98032000D01*
X148357142Y-97993904D01*
X148166666Y-97993904D01*
X148090476Y-98032000D01*
X148052380Y-98070095D01*
X148014285Y-98146285D01*
X148014285Y-98222476D01*
X148052380Y-98336761D01*
X148509523Y-98793904D01*
X148014285Y-98793904D01*
X147519047Y-97993904D02*
X147442857Y-97993904D01*
X147366666Y-98032000D01*
X147328571Y-98070095D01*
X147290476Y-98146285D01*
X147252380Y-98298666D01*
X147252380Y-98489142D01*
X147290476Y-98641523D01*
X147328571Y-98717714D01*
X147366666Y-98755809D01*
X147442857Y-98793904D01*
X147519047Y-98793904D01*
X147595238Y-98755809D01*
X147633333Y-98717714D01*
X147671428Y-98641523D01*
X147709523Y-98489142D01*
X147709523Y-98298666D01*
X147671428Y-98146285D01*
X147633333Y-98070095D01*
X147595238Y-98032000D01*
X147519047Y-97993904D01*
X146947619Y-98070095D02*
X146909523Y-98032000D01*
X146833333Y-97993904D01*
X146642857Y-97993904D01*
X146566666Y-98032000D01*
X146528571Y-98070095D01*
X146490476Y-98146285D01*
X146490476Y-98222476D01*
X146528571Y-98336761D01*
X146985714Y-98793904D01*
X146490476Y-98793904D01*
X146185714Y-98070095D02*
X146147619Y-98032000D01*
X146071428Y-97993904D01*
X145880952Y-97993904D01*
X145804761Y-98032000D01*
X145766666Y-98070095D01*
X145728571Y-98146285D01*
X145728571Y-98222476D01*
X145766666Y-98336761D01*
X146223809Y-98793904D01*
X145728571Y-98793904D01*
X174057142Y-108361904D02*
X174323809Y-107980952D01*
X174514285Y-108361904D02*
X174514285Y-107561904D01*
X174209523Y-107561904D01*
X174133333Y-107600000D01*
X174095238Y-107638095D01*
X174057142Y-107714285D01*
X174057142Y-107828571D01*
X174095238Y-107904761D01*
X174133333Y-107942857D01*
X174209523Y-107980952D01*
X174514285Y-107980952D01*
X173828571Y-107561904D02*
X173371428Y-107561904D01*
X173600000Y-108361904D02*
X173600000Y-107561904D01*
X173104761Y-108361904D02*
X173104761Y-107561904D01*
X172914285Y-107561904D01*
X172800000Y-107600000D01*
X172723809Y-107676190D01*
X172685714Y-107752380D01*
X172647619Y-107904761D01*
X172647619Y-108019047D01*
X172685714Y-108171428D01*
X172723809Y-108247619D01*
X172800000Y-108323809D01*
X172914285Y-108361904D01*
X173104761Y-108361904D01*
X158757142Y-108361904D02*
X159023809Y-107980952D01*
X159214285Y-108361904D02*
X159214285Y-107561904D01*
X158909523Y-107561904D01*
X158833333Y-107600000D01*
X158795238Y-107638095D01*
X158757142Y-107714285D01*
X158757142Y-107828571D01*
X158795238Y-107904761D01*
X158833333Y-107942857D01*
X158909523Y-107980952D01*
X159214285Y-107980952D01*
X158528571Y-107561904D02*
X158071428Y-107561904D01*
X158300000Y-108361904D02*
X158300000Y-107561904D01*
X157804761Y-108361904D02*
X157804761Y-107561904D01*
X157614285Y-107561904D01*
X157500000Y-107600000D01*
X157423809Y-107676190D01*
X157385714Y-107752380D01*
X157347619Y-107904761D01*
X157347619Y-108019047D01*
X157385714Y-108171428D01*
X157423809Y-108247619D01*
X157500000Y-108323809D01*
X157614285Y-108361904D01*
X157804761Y-108361904D01*
D13*
X179050000Y-116000000D02*
X179050000Y-109800000D01*
X179050000Y-109800000D02*
X179700000Y-109800000D01*
X179700000Y-116000000D02*
X179050000Y-116000000D01*
X182750000Y-109800000D02*
X182100000Y-109800000D01*
X182750000Y-116000000D02*
X182100000Y-116000000D01*
X182750000Y-109800000D02*
X182750000Y-116000000D01*
X175450000Y-105750000D02*
X177250000Y-103950000D01*
X154550000Y-105750000D02*
X154550000Y-101250000D01*
X151350000Y-93550000D02*
X151350000Y-95100000D01*
X154550000Y-93550000D02*
X151350000Y-93550000D01*
X154550000Y-89050000D02*
X154550000Y-93550000D01*
X180450000Y-93550000D02*
X180450000Y-95100000D01*
X154550000Y-101250000D02*
X151350000Y-101250000D01*
X177250000Y-103950000D02*
X177250000Y-101250000D01*
X177250000Y-93550000D02*
X180450000Y-93550000D01*
X151350000Y-101250000D02*
X151350000Y-99700000D01*
X180450000Y-101250000D02*
X180450000Y-99700000D01*
X154550000Y-105750000D02*
X175450000Y-105750000D01*
X177250000Y-89050000D02*
X154550000Y-89050000D01*
X177250000Y-101250000D02*
X180450000Y-101250000D01*
X177250000Y-89050000D02*
X177250000Y-93550000D01*
X153220000Y-108990000D02*
X163380000Y-108990000D01*
X163380000Y-108990000D02*
X163380000Y-116610000D01*
X163380000Y-110260000D02*
X153220000Y-110260000D01*
X153220000Y-116610000D02*
X153220000Y-108990000D01*
X163380000Y-116610000D02*
X153220000Y-116610000D01*
X163360000Y-110260000D02*
X178600000Y-110260000D01*
X163360000Y-116610000D02*
X178600000Y-116610000D01*
X163360000Y-108990000D02*
X163360000Y-116610000D01*
X178600000Y-108990000D02*
X178600000Y-116610000D01*
X163360000Y-108990000D02*
X178600000Y-108990000D01*
X152384491Y-113535000D02*
X150099491Y-113535000D01*
X152384491Y-112065000D02*
X152384491Y-113535000D01*
X150099491Y-112065000D02*
X152384491Y-112065000D01*
%LPC*%
D14*
X182300000Y-104500000D03*
D15*
X183997056Y-106197056D03*
X180602944Y-106197056D03*
X184700000Y-104500000D03*
X182300000Y-106900000D03*
X179900000Y-104500000D03*
X183997056Y-102802944D03*
X182300000Y-102100000D03*
X180602944Y-102802944D03*
X147802944Y-102702944D03*
X149500000Y-102000000D03*
X151197056Y-102702944D03*
X151197056Y-106097056D03*
D14*
X149500000Y-104400000D03*
D15*
X147100000Y-104400000D03*
X149500000Y-106800000D03*
X147802944Y-106097056D03*
X151900000Y-104400000D03*
D16*
X154165000Y-85785000D03*
X155435000Y-85785000D03*
X159245000Y-85785000D03*
X156705000Y-85785000D03*
X157975000Y-85785000D03*
D17*
X158610000Y-84630000D03*
X157340000Y-84630000D03*
X156070000Y-84630000D03*
X154800000Y-84630000D03*
D18*
X180900000Y-115600000D03*
X180900000Y-110200000D03*
D19*
X180550000Y-97400000D03*
X151250000Y-97400000D03*
D20*
X155760000Y-112800000D03*
D21*
X160840000Y-112800000D03*
D20*
X165900000Y-112800000D03*
D21*
X170980000Y-112800000D03*
X176060000Y-112800000D03*
D22*
X151686991Y-112800000D03*
X150111991Y-112800000D03*
M02*
