G04 #@! TF.GenerationSoftware,KiCad,Pcbnew,(6.0.9)*
G04 #@! TF.CreationDate,2022-11-24T22:46:59+01:00*
G04 #@! TF.ProjectId,telinksensor-hw,74656c69-6e6b-4736-956e-736f722d6877,rev?*
G04 #@! TF.SameCoordinates,Original*
G04 #@! TF.FileFunction,Copper,L4,Bot*
G04 #@! TF.FilePolarity,Positive*
%FSLAX46Y46*%
G04 Gerber Fmt 4.6, Leading zero omitted, Abs format (unit mm)*
G04 Created by KiCad (PCBNEW (6.0.9)) date 2022-11-24 22:46:59*
%MOMM*%
%LPD*%
G01*
G04 APERTURE LIST*
G04 Aperture macros list*
%AMRoundRect*
0 Rectangle with rounded corners*
0 $1 Rounding radius*
0 $2 $3 $4 $5 $6 $7 $8 $9 X,Y pos of 4 corners*
0 Add a 4 corners polygon primitive as box body*
4,1,4,$2,$3,$4,$5,$6,$7,$8,$9,$2,$3,0*
0 Add four circle primitives for the rounded corners*
1,1,$1+$1,$2,$3*
1,1,$1+$1,$4,$5*
1,1,$1+$1,$6,$7*
1,1,$1+$1,$8,$9*
0 Add four rect primitives between the rounded corners*
20,1,$1+$1,$2,$3,$4,$5,0*
20,1,$1+$1,$4,$5,$6,$7,0*
20,1,$1+$1,$6,$7,$8,$9,0*
20,1,$1+$1,$8,$9,$2,$3,0*%
G04 Aperture macros list end*
G04 #@! TA.AperFunction,ComponentPad*
%ADD10C,6.400000*%
G04 #@! TD*
G04 #@! TA.AperFunction,ComponentPad*
%ADD11C,0.800000*%
G04 #@! TD*
G04 #@! TA.AperFunction,SMDPad,CuDef*
%ADD12R,2.500000X2.500000*%
G04 #@! TD*
G04 #@! TA.AperFunction,ComponentPad*
%ADD13C,0.500000*%
G04 #@! TD*
G04 #@! TA.AperFunction,SMDPad,CuDef*
%ADD14O,0.800000X1.500000*%
G04 #@! TD*
G04 #@! TA.AperFunction,ComponentPad*
%ADD15R,0.900000X0.800000*%
G04 #@! TD*
G04 #@! TA.AperFunction,SMDPad,CuDef*
%ADD16R,1.600000X2.000000*%
G04 #@! TD*
G04 #@! TA.AperFunction,SMDPad,CuDef*
%ADD17R,2.600000X3.600000*%
G04 #@! TD*
G04 #@! TA.AperFunction,ComponentPad*
%ADD18R,3.000000X3.000000*%
G04 #@! TD*
G04 #@! TA.AperFunction,ComponentPad*
%ADD19C,3.000000*%
G04 #@! TD*
G04 #@! TA.AperFunction,SMDPad,CuDef*
%ADD20RoundRect,0.218750X0.218750X0.256250X-0.218750X0.256250X-0.218750X-0.256250X0.218750X-0.256250X0*%
G04 #@! TD*
G04 #@! TA.AperFunction,ViaPad*
%ADD21C,0.500000*%
G04 #@! TD*
G04 #@! TA.AperFunction,Conductor*
%ADD22C,0.400000*%
G04 #@! TD*
G04 #@! TA.AperFunction,Conductor*
%ADD23C,0.200000*%
G04 #@! TD*
G04 #@! TA.AperFunction,Conductor*
%ADD24C,0.100000*%
G04 #@! TD*
G04 APERTURE END LIST*
D10*
X182300000Y-104500000D03*
D11*
X183997056Y-106197056D03*
X180602944Y-106197056D03*
X184700000Y-104500000D03*
X182300000Y-106900000D03*
X179900000Y-104500000D03*
X183997056Y-102802944D03*
X182300000Y-102100000D03*
X180602944Y-102802944D03*
D12*
X157000000Y-96500000D03*
D13*
X157000000Y-95500000D03*
X158000000Y-96500000D03*
X156000000Y-96500000D03*
X157000000Y-97500000D03*
X158000000Y-95500000D03*
X156000000Y-95500000D03*
X156000000Y-97500000D03*
X158000000Y-97500000D03*
X157000000Y-96500000D03*
D11*
X147802944Y-102702944D03*
X149500000Y-102000000D03*
X151197056Y-102702944D03*
X151197056Y-106097056D03*
D10*
X149500000Y-104400000D03*
D11*
X147100000Y-104400000D03*
X149500000Y-106800000D03*
X147802944Y-106097056D03*
X151900000Y-104400000D03*
D14*
X158610000Y-84630000D03*
X157340000Y-84630000D03*
X156070000Y-84630000D03*
X154800000Y-84630000D03*
D15*
X178250000Y-89125000D03*
D16*
X180900000Y-115600000D03*
X180900000Y-110200000D03*
D17*
X180550000Y-97400000D03*
X151250000Y-97400000D03*
D18*
X155760000Y-112800000D03*
D19*
X160840000Y-112800000D03*
D18*
X165900000Y-112800000D03*
D19*
X170980000Y-112800000D03*
X176060000Y-112800000D03*
D20*
X151686991Y-112800000D03*
X150111991Y-112800000D03*
D21*
X163200000Y-86400000D03*
X178300000Y-112500000D03*
X164038059Y-98510582D03*
X151300000Y-114500000D03*
X176533490Y-97571548D03*
X159300000Y-115500000D03*
X163200000Y-85600000D03*
X163200000Y-89500000D03*
X176300000Y-99500000D03*
X174149999Y-98550000D03*
X174400000Y-89500000D03*
X174600000Y-100100000D03*
X173600000Y-89500000D03*
X151325000Y-96844312D03*
X168300000Y-112500000D03*
X162620000Y-114520000D03*
X171398334Y-97227699D03*
X164000000Y-89500000D03*
X184300000Y-99500000D03*
X167919544Y-98210885D03*
X145300000Y-102700000D03*
X168000000Y-89500000D03*
X181000000Y-108200000D03*
X174824207Y-91197421D03*
X186300000Y-101500000D03*
X162000000Y-85400000D03*
X169000000Y-90600000D03*
X163300000Y-112500000D03*
X176300000Y-115500000D03*
X170300000Y-91500000D03*
X173300000Y-111500000D03*
X151325000Y-99600000D03*
X174850000Y-93605000D03*
X157300000Y-110500000D03*
X173200000Y-90600000D03*
X158300000Y-110500000D03*
X163200000Y-88000000D03*
X169600000Y-89500000D03*
X174300000Y-115500000D03*
X169300000Y-114500000D03*
X146300000Y-101500000D03*
X173300000Y-112500000D03*
X163200000Y-84800000D03*
X145000000Y-105600000D03*
X163300000Y-113500000D03*
X168300000Y-113500000D03*
X167145302Y-98443520D03*
X163150000Y-96225000D03*
X168529853Y-95979315D03*
X177283807Y-96064446D03*
X180300000Y-91500000D03*
X177300000Y-115500000D03*
X177005672Y-96860041D03*
X169300000Y-111500000D03*
X165400000Y-108300000D03*
X182300000Y-113500000D03*
X174846507Y-95273340D03*
X177300000Y-110500000D03*
X163891343Y-95979315D03*
X165478496Y-95968138D03*
X168300000Y-103500000D03*
X178300000Y-97500000D03*
X177450000Y-95250000D03*
X163150000Y-95300000D03*
X170300000Y-93500000D03*
X177107642Y-89409989D03*
X163393035Y-98507508D03*
X165300000Y-104400000D03*
X172300000Y-91500000D03*
X164700000Y-98200000D03*
X186300000Y-105500000D03*
X174850000Y-94427500D03*
X174804803Y-90466509D03*
X171200000Y-94900000D03*
X168800000Y-89500000D03*
X152300000Y-107500000D03*
X170400000Y-89500000D03*
X184300000Y-95500000D03*
X153000000Y-106300000D03*
X177437380Y-91210357D03*
X181300000Y-113500000D03*
X173300000Y-113500000D03*
X149600000Y-116200000D03*
X181300000Y-100200000D03*
X178300000Y-103500000D03*
X166400000Y-89500000D03*
X171400000Y-92500000D03*
X182300000Y-115500000D03*
X178300000Y-99500000D03*
X164300000Y-110500000D03*
X166160301Y-95968138D03*
X159300000Y-114500000D03*
X168528134Y-98762963D03*
X149900000Y-92100000D03*
X174232622Y-95950859D03*
X154300000Y-90794579D03*
X165300000Y-110500000D03*
X165900000Y-98200000D03*
X153300000Y-112500000D03*
X163200000Y-88800000D03*
X174987579Y-98451230D03*
X164800000Y-89500000D03*
X173095687Y-103041314D03*
X160660211Y-89753286D03*
X172300000Y-93500000D03*
X159080594Y-89748395D03*
X175300000Y-115500000D03*
X162800000Y-98900000D03*
X165303208Y-98756442D03*
X170300000Y-103500000D03*
X165600000Y-89500000D03*
X185081803Y-109668806D03*
X186300000Y-95500000D03*
X182300000Y-114500000D03*
X169323430Y-95979315D03*
X178300000Y-113500000D03*
X173300000Y-115500000D03*
X153300000Y-111500000D03*
X166953877Y-95979315D03*
X177450000Y-92782500D03*
X146741131Y-109656510D03*
X177104381Y-90658685D03*
X153300000Y-113500000D03*
X152400000Y-89400000D03*
X157056411Y-90794579D03*
X165100000Y-101152182D03*
X162600000Y-101200000D03*
X178600000Y-92200000D03*
X170300000Y-99500000D03*
X161900000Y-88000000D03*
X184300000Y-97500000D03*
X169100000Y-98200000D03*
X167747454Y-95979315D03*
X178300000Y-115500000D03*
X186300000Y-93500000D03*
X173800000Y-102000000D03*
X172800000Y-89500000D03*
X177681455Y-90042488D03*
X167200000Y-89500000D03*
X156134793Y-90794579D03*
X173345277Y-98547222D03*
X166300000Y-102100000D03*
X163196256Y-84089553D03*
X186300000Y-99500000D03*
X156100000Y-101822624D03*
X186300000Y-103500000D03*
X166497029Y-98465874D03*
X172000000Y-89500000D03*
X186300000Y-107500000D03*
X172300000Y-99500000D03*
X155185478Y-101822624D03*
X186300000Y-97500000D03*
X151325000Y-98676164D03*
X177450000Y-94427500D03*
X180300000Y-113500000D03*
X184300000Y-93500000D03*
X177450000Y-91960000D03*
X175815515Y-98082540D03*
X151325000Y-97758963D03*
X168300000Y-111500000D03*
X167400000Y-93000000D03*
X174850000Y-91960000D03*
X164700000Y-96000000D03*
X174850000Y-92782500D03*
X155200000Y-90794579D03*
X178300000Y-101500000D03*
X168300000Y-107500000D03*
X173500000Y-94700000D03*
X177450000Y-93605000D03*
X180300000Y-93500000D03*
X163200000Y-87200000D03*
X179300000Y-115500000D03*
X173386659Y-95969575D03*
X171200000Y-89500000D03*
X182300000Y-93500000D03*
X152460000Y-114520000D03*
X168400000Y-94700000D03*
X168300000Y-114500000D03*
X172300000Y-115500000D03*
X173170000Y-101150000D03*
X153299656Y-96399656D03*
X176800000Y-105600000D03*
X167350000Y-103050000D03*
X161595000Y-95755000D03*
X159400000Y-107100000D03*
X159500000Y-99200000D03*
X151400000Y-91400000D03*
X154750000Y-92350000D03*
X179660687Y-96054343D03*
X178230851Y-107128014D03*
X155665258Y-100213351D03*
X179710863Y-98742750D03*
X181416941Y-98774940D03*
X153800000Y-86900000D03*
X181449131Y-96054873D03*
X146400000Y-94100000D03*
X154400000Y-103300000D03*
X151800000Y-101400000D03*
X157300000Y-89900000D03*
X160025000Y-102375000D03*
X187233688Y-109660435D03*
X144500000Y-109600000D03*
X149500000Y-100000000D03*
X154500000Y-99100000D03*
X151746552Y-111695661D03*
X160000020Y-93649500D03*
X161600000Y-107400000D03*
X150100000Y-113900000D03*
X178825000Y-107925000D03*
X159473905Y-94110485D03*
X144614514Y-112550000D03*
X145400000Y-108100000D03*
X159393434Y-101198424D03*
X186550000Y-115300000D03*
X185750000Y-115300000D03*
X145650000Y-115550000D03*
X154700000Y-110500000D03*
X157612500Y-103087500D03*
X170000000Y-107900000D03*
X164000000Y-101300000D03*
X159055399Y-91522962D03*
X160981525Y-84630000D03*
X158134395Y-88534395D03*
D22*
X161000000Y-93000000D02*
X161600000Y-93600000D01*
X161600000Y-93600000D02*
X161600000Y-103100000D01*
X153299656Y-93800344D02*
X154100000Y-93000000D01*
X167350000Y-103050000D02*
X161650000Y-103050000D01*
X153299656Y-96399656D02*
X153299656Y-93800344D01*
X161600000Y-103100000D02*
X159400000Y-105300000D01*
X173170000Y-101150000D02*
X176250000Y-101150000D01*
X161650000Y-103050000D02*
X161600000Y-103100000D01*
X159400000Y-105400000D02*
X159400000Y-107100000D01*
X154100000Y-93000000D02*
X161000000Y-93000000D01*
X176250000Y-101150000D02*
X176800000Y-101700000D01*
X169250000Y-101150000D02*
X167350000Y-103050000D01*
X173170000Y-101150000D02*
X169250000Y-101150000D01*
X159400000Y-105300000D02*
X159400000Y-105500000D01*
X176800000Y-101700000D02*
X176800000Y-105600000D01*
D23*
X149400000Y-100800000D02*
X148800000Y-100200000D01*
X152150000Y-92150000D02*
X152150000Y-92250000D01*
X153900000Y-100800000D02*
X149400000Y-100800000D01*
X148800000Y-95600000D02*
X152150000Y-92250000D01*
X153200000Y-84900000D02*
X153470000Y-84630000D01*
X159500000Y-99200000D02*
X155500000Y-99200000D01*
X151400000Y-91400000D02*
X152150000Y-92150000D01*
X148800000Y-100200000D02*
X148800000Y-95600000D01*
X153470000Y-84630000D02*
X154800000Y-84630000D01*
X155500000Y-99200000D02*
X153900000Y-100800000D01*
X153200000Y-91200000D02*
X153200000Y-84900000D01*
X152150000Y-92250000D02*
X153200000Y-91200000D01*
X153500000Y-101400000D02*
X151800000Y-101400000D01*
X154400000Y-103300000D02*
X154400000Y-102300000D01*
X154400000Y-102300000D02*
X153500000Y-101400000D01*
X154500000Y-99600000D02*
X153700000Y-100400000D01*
X153700000Y-100400000D02*
X149900000Y-100400000D01*
X154500000Y-99100000D02*
X154500000Y-99600000D01*
X149900000Y-100400000D02*
X149500000Y-100000000D01*
X151746552Y-112740439D02*
X151686991Y-112800000D01*
X151746552Y-111695661D02*
X151746552Y-112740439D01*
X150111991Y-113888009D02*
X150100000Y-113900000D01*
X158800000Y-105192894D02*
X158800000Y-107500000D01*
X160000020Y-93649500D02*
X161000000Y-94649480D01*
X161350000Y-107650000D02*
X161500000Y-107500000D01*
X161000000Y-94649480D02*
X161000000Y-102992894D01*
X158800000Y-105192894D02*
X161000000Y-102992894D01*
X158950000Y-107650000D02*
X161350000Y-107650000D01*
X161500000Y-107500000D02*
X161600000Y-107400000D01*
X158800000Y-107500000D02*
X158950000Y-107650000D01*
X150111991Y-112800000D02*
X150111991Y-113888009D01*
X180900000Y-110200000D02*
X180900000Y-110000000D01*
X160600000Y-102827208D02*
X158400000Y-105027209D01*
X158400000Y-107700000D02*
X158750000Y-108050000D01*
X180900000Y-110000000D02*
X178825000Y-107925000D01*
X158400000Y-105027209D02*
X158400000Y-107700000D01*
X165134315Y-106100000D02*
X176265686Y-106100000D01*
X158750000Y-108050000D02*
X163184314Y-108050000D01*
X159473905Y-94110485D02*
X160600000Y-95236580D01*
X160600000Y-95236580D02*
X160600000Y-102827208D01*
X178090686Y-107925000D02*
X178825000Y-107925000D01*
X163184314Y-108050000D02*
X165134315Y-106100000D01*
X176265686Y-106100000D02*
X178090686Y-107925000D01*
X154584314Y-108450000D02*
X145450000Y-108450000D01*
X165300000Y-106500000D02*
X176100000Y-106500000D01*
X144850000Y-112350000D02*
X145400000Y-111800000D01*
X145400000Y-111800000D02*
X145400000Y-108500000D01*
X186550000Y-109150000D02*
X186100000Y-108700000D01*
X155500000Y-107534314D02*
X155500000Y-103900000D01*
X158201576Y-101198424D02*
X159393434Y-101198424D01*
X182100000Y-111500000D02*
X181800000Y-111800000D01*
X159393434Y-102706566D02*
X157150000Y-104950000D01*
X179300000Y-111800000D02*
X178800000Y-111300000D01*
X157150000Y-108127818D02*
X157472182Y-108450000D01*
X155500000Y-103900000D02*
X158201576Y-101198424D01*
X178800000Y-111300000D02*
X178800000Y-109200000D01*
X157472182Y-108450000D02*
X163350000Y-108450000D01*
X181800000Y-111800000D02*
X179300000Y-111800000D01*
X163350000Y-108450000D02*
X165300000Y-106500000D01*
X157150000Y-104950000D02*
X157150000Y-108127818D01*
X178800000Y-109200000D02*
X176100000Y-106500000D01*
X182100000Y-109834314D02*
X182100000Y-111500000D01*
X183234314Y-108700000D02*
X182100000Y-109834314D01*
X186100000Y-108700000D02*
X183234314Y-108700000D01*
X145400000Y-108500000D02*
X145400000Y-108100000D01*
X145450000Y-108450000D02*
X145400000Y-108500000D01*
X186550000Y-115300000D02*
X186550000Y-109150000D01*
X159393434Y-101198424D02*
X159393434Y-102706566D01*
X154584314Y-108450000D02*
X155500000Y-107534314D01*
X185750000Y-115300000D02*
X185750000Y-109350000D01*
X163515685Y-108850000D02*
X155950000Y-108850000D01*
X155200000Y-110500000D02*
X154700000Y-110500000D01*
X146769822Y-108850000D02*
X146759911Y-108859911D01*
X155900000Y-109800000D02*
X155200000Y-110500000D01*
X165465686Y-106900000D02*
X175934314Y-106900000D01*
X182500000Y-111665686D02*
X181965686Y-112200000D01*
X182500000Y-110000000D02*
X183400000Y-109100000D01*
X157612500Y-103087500D02*
X155900000Y-104800000D01*
X175934314Y-106900000D02*
X178400000Y-109365686D01*
X163515685Y-108850000D02*
X165465686Y-106900000D01*
X155950000Y-108850000D02*
X146769822Y-108850000D01*
X185500000Y-109100000D02*
X183400000Y-109100000D01*
X155900000Y-104800000D02*
X155900000Y-108800000D01*
X185750000Y-109350000D02*
X185500000Y-109100000D01*
X179134314Y-112200000D02*
X181965686Y-112200000D01*
X146759911Y-108859911D02*
X146100000Y-109519823D01*
X155900000Y-108800000D02*
X155950000Y-108850000D01*
X155900000Y-108800000D02*
X155900000Y-109800000D01*
X146100000Y-109519823D02*
X146100000Y-115100000D01*
X146100000Y-115100000D02*
X145650000Y-115550000D01*
X178400000Y-111465685D02*
X178400000Y-109365686D01*
X182500000Y-110000000D02*
X182500000Y-111665686D01*
X179134314Y-112200000D02*
X178400000Y-111465685D01*
X170000000Y-107900000D02*
X165900000Y-112000000D01*
X165900000Y-112000000D02*
X165900000Y-112800000D01*
X159178361Y-91400000D02*
X159055399Y-91522962D01*
X159055399Y-91522962D02*
X159100000Y-91400000D01*
X161700000Y-91400000D02*
X159178361Y-91400000D01*
X162200000Y-91900000D02*
X161700000Y-91400000D01*
X164000000Y-101300000D02*
X162200000Y-99500000D01*
X162200000Y-99500000D02*
X162200000Y-91900000D01*
X160981525Y-84630000D02*
X158610000Y-84630000D01*
D24*
X157340000Y-84630000D02*
X157340000Y-86260000D01*
D23*
X157340000Y-86260000D02*
X157340000Y-87740000D01*
X157340000Y-87740000D02*
X158134395Y-88534395D01*
G04 #@! TA.AperFunction,Conductor*
G36*
X175827026Y-107219407D02*
G01*
X175838839Y-107229496D01*
X178070504Y-109461161D01*
X178098281Y-109515678D01*
X178099500Y-109531165D01*
X178099500Y-111412177D01*
X178099197Y-111416302D01*
X178097575Y-111421027D01*
X178098646Y-111449560D01*
X178099430Y-111470446D01*
X178099500Y-111474159D01*
X178099500Y-111493633D01*
X178100325Y-111498063D01*
X178100661Y-111503256D01*
X178101774Y-111532893D01*
X178105380Y-111541287D01*
X178105381Y-111541290D01*
X178106317Y-111543468D01*
X178112683Y-111564419D01*
X178114791Y-111575738D01*
X178119588Y-111583520D01*
X178128768Y-111598413D01*
X178135452Y-111611281D01*
X178138444Y-111618244D01*
X178145964Y-111635748D01*
X178149978Y-111640634D01*
X178154342Y-111644998D01*
X178168613Y-111663053D01*
X178173532Y-111671033D01*
X178196769Y-111688703D01*
X178206839Y-111697495D01*
X178883994Y-112374651D01*
X178886694Y-112377780D01*
X178888889Y-112382269D01*
X178895592Y-112388487D01*
X178925136Y-112415893D01*
X178927812Y-112418469D01*
X178941591Y-112432248D01*
X178945301Y-112434793D01*
X178949214Y-112438229D01*
X178961919Y-112450014D01*
X178970960Y-112458401D01*
X178979446Y-112461787D01*
X178979448Y-112461788D01*
X178981651Y-112462667D01*
X179000962Y-112472978D01*
X179002921Y-112474322D01*
X179002924Y-112474323D01*
X179010460Y-112479493D01*
X179019352Y-112481603D01*
X179019354Y-112481604D01*
X179036380Y-112485644D01*
X179050199Y-112490014D01*
X179074936Y-112499883D01*
X179081229Y-112500500D01*
X179087399Y-112500500D01*
X179110255Y-112503175D01*
X179119380Y-112505340D01*
X179148302Y-112501404D01*
X179161651Y-112500500D01*
X181912178Y-112500500D01*
X181916303Y-112500803D01*
X181921028Y-112502425D01*
X181970447Y-112500570D01*
X181974160Y-112500500D01*
X181993634Y-112500500D01*
X181998064Y-112499675D01*
X182003257Y-112499339D01*
X182019288Y-112498737D01*
X182023761Y-112498569D01*
X182032894Y-112498226D01*
X182041288Y-112494620D01*
X182041291Y-112494619D01*
X182043469Y-112493683D01*
X182064420Y-112487317D01*
X182075739Y-112485209D01*
X182098415Y-112471232D01*
X182111282Y-112464548D01*
X182129328Y-112456795D01*
X182129329Y-112456794D01*
X182135749Y-112454036D01*
X182140635Y-112450022D01*
X182144999Y-112445658D01*
X182163054Y-112431387D01*
X182171034Y-112426468D01*
X182188704Y-112403231D01*
X182197496Y-112393161D01*
X182674651Y-111916006D01*
X182677780Y-111913306D01*
X182682269Y-111911111D01*
X182715893Y-111874864D01*
X182718469Y-111872188D01*
X182730496Y-111860161D01*
X182785013Y-111832384D01*
X182845445Y-111841955D01*
X182888710Y-111885220D01*
X182899500Y-111930165D01*
X182899500Y-116600500D01*
X182880593Y-116658691D01*
X182831093Y-116694655D01*
X182800500Y-116699500D01*
X181999000Y-116699500D01*
X181940809Y-116680593D01*
X181904845Y-116631093D01*
X181900000Y-116600500D01*
X181900000Y-115765680D01*
X181895878Y-115752995D01*
X181891757Y-115750000D01*
X179915680Y-115750000D01*
X179902995Y-115754122D01*
X179900000Y-115758243D01*
X179900000Y-116600500D01*
X179881093Y-116658691D01*
X179831593Y-116694655D01*
X179801000Y-116699500D01*
X148999500Y-116699500D01*
X148941309Y-116680593D01*
X148905345Y-116631093D01*
X148900500Y-116600500D01*
X148900500Y-115434320D01*
X179900000Y-115434320D01*
X179904122Y-115447005D01*
X179908243Y-115450000D01*
X180734320Y-115450000D01*
X180747005Y-115445878D01*
X180750000Y-115441757D01*
X180750000Y-115434320D01*
X181050000Y-115434320D01*
X181054122Y-115447005D01*
X181058243Y-115450000D01*
X181884320Y-115450000D01*
X181897005Y-115445878D01*
X181900000Y-115441757D01*
X181900000Y-114585160D01*
X181899052Y-114575538D01*
X181890298Y-114531526D01*
X181882979Y-114513858D01*
X181849611Y-114463918D01*
X181836082Y-114450389D01*
X181786142Y-114417021D01*
X181768474Y-114409702D01*
X181724462Y-114400948D01*
X181714840Y-114400000D01*
X181065680Y-114400000D01*
X181052995Y-114404122D01*
X181050000Y-114408243D01*
X181050000Y-115434320D01*
X180750000Y-115434320D01*
X180750000Y-114415680D01*
X180745878Y-114402995D01*
X180741757Y-114400000D01*
X180085160Y-114400000D01*
X180075538Y-114400948D01*
X180031526Y-114409702D01*
X180013858Y-114417021D01*
X179963918Y-114450389D01*
X179950389Y-114463918D01*
X179917021Y-114513858D01*
X179909702Y-114531526D01*
X179900948Y-114575538D01*
X179900000Y-114585160D01*
X179900000Y-115434320D01*
X148900500Y-115434320D01*
X148900500Y-113089246D01*
X149473991Y-113089246D01*
X149474600Y-113093090D01*
X149474600Y-113093092D01*
X149482587Y-113143517D01*
X149489540Y-113187420D01*
X149493076Y-113194359D01*
X149493076Y-113194360D01*
X149526099Y-113259170D01*
X149549833Y-113305751D01*
X149643740Y-113399658D01*
X149650677Y-113403193D01*
X149650679Y-113403194D01*
X149720556Y-113438798D01*
X149763821Y-113482063D01*
X149773392Y-113542495D01*
X149760678Y-113577650D01*
X149748486Y-113598130D01*
X149748173Y-113597944D01*
X149748030Y-113598173D01*
X149748349Y-113598362D01*
X149727044Y-113634251D01*
X149725926Y-113636157D01*
X149725798Y-113636378D01*
X149724668Y-113638355D01*
X149724573Y-113638524D01*
X149724526Y-113638606D01*
X149707800Y-113668238D01*
X149705549Y-113672225D01*
X149687617Y-113714379D01*
X149686826Y-113717025D01*
X149686823Y-113717033D01*
X149686548Y-113717953D01*
X149681316Y-113731657D01*
X149664754Y-113766932D01*
X149644901Y-113894440D01*
X149645816Y-113901437D01*
X149645816Y-113901438D01*
X149647082Y-113911120D01*
X149661633Y-114022394D01*
X149664471Y-114028845D01*
X149664472Y-114028847D01*
X149710764Y-114134054D01*
X149713605Y-114140510D01*
X149744459Y-114177215D01*
X149792100Y-114233892D01*
X149792103Y-114233894D01*
X149796639Y-114239291D01*
X149904060Y-114310796D01*
X149910788Y-114312898D01*
X149910790Y-114312899D01*
X149947962Y-114324512D01*
X150027233Y-114349278D01*
X150091744Y-114350461D01*
X150149202Y-114351514D01*
X150149204Y-114351514D01*
X150156255Y-114351643D01*
X150163058Y-114349788D01*
X150163060Y-114349788D01*
X150204828Y-114338400D01*
X150280755Y-114317700D01*
X150390724Y-114250179D01*
X150477322Y-114154507D01*
X150533588Y-114038375D01*
X150544596Y-113972941D01*
X150554363Y-113914891D01*
X150554363Y-113914886D01*
X150554997Y-113911120D01*
X150555133Y-113900000D01*
X150536839Y-113772259D01*
X150523771Y-113743519D01*
X150517370Y-113724542D01*
X150515231Y-113715152D01*
X150515227Y-113715141D01*
X150514149Y-113710408D01*
X150497579Y-113673339D01*
X150496555Y-113671085D01*
X150496423Y-113670799D01*
X150495117Y-113668025D01*
X150476511Y-113629243D01*
X150475661Y-113627492D01*
X150459601Y-113594813D01*
X150458935Y-113593431D01*
X150449729Y-113573941D01*
X150441972Y-113513249D01*
X150471370Y-113459589D01*
X150494300Y-113443449D01*
X150573298Y-113403197D01*
X150573302Y-113403194D01*
X150580242Y-113399658D01*
X150674149Y-113305751D01*
X150697884Y-113259170D01*
X150730906Y-113194360D01*
X150730906Y-113194359D01*
X150734442Y-113187420D01*
X150741396Y-113143517D01*
X150749382Y-113093092D01*
X150749382Y-113093090D01*
X150749991Y-113089246D01*
X151048991Y-113089246D01*
X151049600Y-113093090D01*
X151049600Y-113093092D01*
X151057587Y-113143517D01*
X151064540Y-113187420D01*
X151068076Y-113194359D01*
X151068076Y-113194360D01*
X151101099Y-113259170D01*
X151124833Y-113305751D01*
X151218740Y-113399658D01*
X151225677Y-113403193D01*
X151225679Y-113403194D01*
X151295556Y-113438798D01*
X151337071Y-113459951D01*
X151344764Y-113461170D01*
X151344766Y-113461170D01*
X151431399Y-113474891D01*
X151431401Y-113474891D01*
X151435245Y-113475500D01*
X151938737Y-113475500D01*
X151942581Y-113474891D01*
X151942583Y-113474891D01*
X152029216Y-113461170D01*
X152029218Y-113461170D01*
X152036911Y-113459951D01*
X152078426Y-113438798D01*
X152148303Y-113403194D01*
X152148305Y-113403193D01*
X152155242Y-113399658D01*
X152249149Y-113305751D01*
X152272884Y-113259170D01*
X152305906Y-113194360D01*
X152305906Y-113194359D01*
X152309442Y-113187420D01*
X152316396Y-113143517D01*
X152324382Y-113093092D01*
X152324382Y-113093090D01*
X152324991Y-113089246D01*
X152324991Y-112510754D01*
X152321707Y-112490017D01*
X152310661Y-112420275D01*
X152310661Y-112420273D01*
X152309442Y-112412580D01*
X152301961Y-112397898D01*
X152252685Y-112301188D01*
X152252684Y-112301186D01*
X152249149Y-112294249D01*
X152155242Y-112200342D01*
X152148305Y-112196807D01*
X152148303Y-112196806D01*
X152126478Y-112185686D01*
X152083213Y-112142421D01*
X152075387Y-112121521D01*
X152071875Y-112107494D01*
X152078395Y-112041166D01*
X152078711Y-112040497D01*
X152080895Y-112036153D01*
X152092460Y-112014492D01*
X152093293Y-112012963D01*
X152110081Y-111982808D01*
X152110082Y-111982808D01*
X152110082Y-111982807D01*
X152110950Y-111981231D01*
X152111029Y-111981088D01*
X152130771Y-111944818D01*
X152130953Y-111944479D01*
X152132220Y-111942106D01*
X152132304Y-111941947D01*
X152132308Y-111941940D01*
X152132389Y-111941785D01*
X152133712Y-111939221D01*
X152151071Y-111904992D01*
X152167179Y-111861794D01*
X152170847Y-111853216D01*
X152177064Y-111840385D01*
X152177064Y-111840384D01*
X152180140Y-111834036D01*
X152201549Y-111706781D01*
X152201685Y-111695661D01*
X152183391Y-111567920D01*
X152139920Y-111472311D01*
X152132901Y-111456873D01*
X152132900Y-111456872D01*
X152129980Y-111450449D01*
X152045745Y-111352689D01*
X152039828Y-111348854D01*
X152039826Y-111348852D01*
X151943376Y-111286338D01*
X151937458Y-111282502D01*
X151930702Y-111280482D01*
X151930701Y-111280481D01*
X151887887Y-111267677D01*
X151813825Y-111245527D01*
X151737196Y-111245059D01*
X151691834Y-111244782D01*
X151684783Y-111244739D01*
X151678006Y-111246676D01*
X151678005Y-111246676D01*
X151567487Y-111278262D01*
X151567485Y-111278263D01*
X151560707Y-111280200D01*
X151451571Y-111349060D01*
X151366148Y-111445783D01*
X151311306Y-111562593D01*
X151291453Y-111690101D01*
X151292368Y-111697098D01*
X151292368Y-111697099D01*
X151306729Y-111806918D01*
X151308185Y-111818055D01*
X151322071Y-111849614D01*
X151331499Y-111871041D01*
X151336218Y-111884223D01*
X151342032Y-111904991D01*
X151344232Y-111909330D01*
X151344234Y-111909334D01*
X151346456Y-111913715D01*
X151359390Y-111939219D01*
X151360714Y-111941785D01*
X151360872Y-111942086D01*
X151362329Y-111944812D01*
X151382016Y-111980984D01*
X151382073Y-111981088D01*
X151382944Y-111982670D01*
X151383020Y-111982808D01*
X151392187Y-111999272D01*
X151403976Y-112059311D01*
X151378223Y-112114812D01*
X151339225Y-112139708D01*
X151337071Y-112140049D01*
X151282813Y-112167695D01*
X151225679Y-112196806D01*
X151225677Y-112196807D01*
X151218740Y-112200342D01*
X151124833Y-112294249D01*
X151121298Y-112301186D01*
X151121297Y-112301188D01*
X151072021Y-112397898D01*
X151064540Y-112412580D01*
X151063321Y-112420273D01*
X151063321Y-112420275D01*
X151052275Y-112490017D01*
X151048991Y-112510754D01*
X151048991Y-113089246D01*
X150749991Y-113089246D01*
X150749991Y-112510754D01*
X150746707Y-112490017D01*
X150735661Y-112420275D01*
X150735661Y-112420273D01*
X150734442Y-112412580D01*
X150726961Y-112397898D01*
X150677685Y-112301188D01*
X150677684Y-112301186D01*
X150674149Y-112294249D01*
X150580242Y-112200342D01*
X150573305Y-112196807D01*
X150573303Y-112196806D01*
X150468851Y-112143585D01*
X150468850Y-112143585D01*
X150461911Y-112140049D01*
X150454218Y-112138830D01*
X150454216Y-112138830D01*
X150367583Y-112125109D01*
X150367581Y-112125109D01*
X150363737Y-112124500D01*
X149860245Y-112124500D01*
X149856401Y-112125109D01*
X149856399Y-112125109D01*
X149769766Y-112138830D01*
X149769764Y-112138830D01*
X149762071Y-112140049D01*
X149755132Y-112143585D01*
X149755131Y-112143585D01*
X149650679Y-112196806D01*
X149650677Y-112196807D01*
X149643740Y-112200342D01*
X149549833Y-112294249D01*
X149546298Y-112301186D01*
X149546297Y-112301188D01*
X149497021Y-112397898D01*
X149489540Y-112412580D01*
X149488321Y-112420273D01*
X149488321Y-112420275D01*
X149477275Y-112490017D01*
X149473991Y-112510754D01*
X149473991Y-113089246D01*
X148900500Y-113089246D01*
X148900500Y-110934953D01*
X148902004Y-110917761D01*
X148902905Y-110912651D01*
X148905136Y-110900000D01*
X148904504Y-110896415D01*
X148887470Y-110723471D01*
X148886058Y-110718815D01*
X148837392Y-110558382D01*
X148837390Y-110558376D01*
X148835979Y-110553726D01*
X148808031Y-110501438D01*
X148754653Y-110401576D01*
X148752361Y-110397288D01*
X148639831Y-110260169D01*
X148549029Y-110185650D01*
X148506469Y-110150722D01*
X148506467Y-110150721D01*
X148502712Y-110147639D01*
X148438077Y-110113091D01*
X148350566Y-110066315D01*
X148350565Y-110066315D01*
X148346274Y-110064021D01*
X148341624Y-110062610D01*
X148341618Y-110062608D01*
X148181185Y-110013942D01*
X148181181Y-110013941D01*
X148176529Y-110012530D01*
X148000000Y-109995143D01*
X147823471Y-110012530D01*
X147818819Y-110013941D01*
X147818815Y-110013942D01*
X147658382Y-110062608D01*
X147658376Y-110062610D01*
X147653726Y-110064021D01*
X147649435Y-110066315D01*
X147649434Y-110066315D01*
X147561923Y-110113091D01*
X147497288Y-110147639D01*
X147493533Y-110150721D01*
X147493531Y-110150722D01*
X147450971Y-110185650D01*
X147360169Y-110260169D01*
X147357082Y-110263931D01*
X147353647Y-110267366D01*
X147352857Y-110266576D01*
X147305657Y-110296792D01*
X147280658Y-110300000D01*
X146499500Y-110300000D01*
X146441309Y-110281093D01*
X146405345Y-110231593D01*
X146400500Y-110201000D01*
X146400500Y-109685302D01*
X146419407Y-109627111D01*
X146429496Y-109615299D01*
X146865297Y-109179497D01*
X146919814Y-109151719D01*
X146935301Y-109150500D01*
X155500500Y-109150500D01*
X155558691Y-109169407D01*
X155594655Y-109218907D01*
X155599500Y-109249500D01*
X155599500Y-109634521D01*
X155580593Y-109692712D01*
X155570504Y-109704525D01*
X155137289Y-110137740D01*
X155082772Y-110165517D01*
X155020655Y-110155066D01*
X155018829Y-110154091D01*
X155017376Y-110153300D01*
X154987062Y-110136421D01*
X154985330Y-110135467D01*
X154949129Y-110115765D01*
X154949025Y-110115710D01*
X154948952Y-110115670D01*
X154947920Y-110115119D01*
X154946404Y-110114309D01*
X154946143Y-110114172D01*
X154943581Y-110112850D01*
X154909332Y-110095481D01*
X154906723Y-110094508D01*
X154906718Y-110094506D01*
X154901913Y-110092714D01*
X154896463Y-110090443D01*
X154890906Y-110086841D01*
X154884148Y-110084820D01*
X154884146Y-110084819D01*
X154866938Y-110079673D01*
X154866952Y-110079625D01*
X154866722Y-110079593D01*
X154866123Y-110079369D01*
X154864911Y-110079067D01*
X154767273Y-110049866D01*
X154690644Y-110049398D01*
X154645282Y-110049121D01*
X154638231Y-110049078D01*
X154631454Y-110051015D01*
X154631453Y-110051015D01*
X154520935Y-110082601D01*
X154520933Y-110082602D01*
X154514155Y-110084539D01*
X154405019Y-110153399D01*
X154319596Y-110250122D01*
X154264754Y-110366932D01*
X154244901Y-110494440D01*
X154261633Y-110622394D01*
X154264471Y-110628845D01*
X154264472Y-110628847D01*
X154310764Y-110734054D01*
X154313605Y-110740510D01*
X154354646Y-110789334D01*
X154392100Y-110833892D01*
X154392103Y-110833894D01*
X154396639Y-110839291D01*
X154504060Y-110910796D01*
X154508063Y-110912047D01*
X154551494Y-110953261D01*
X154562644Y-111013422D01*
X154536303Y-111068647D01*
X154482532Y-111097842D01*
X154464491Y-111099500D01*
X154240252Y-111099500D01*
X154214005Y-111104721D01*
X154191334Y-111109230D01*
X154191332Y-111109231D01*
X154181769Y-111111133D01*
X154115448Y-111155448D01*
X154071133Y-111221769D01*
X154059500Y-111280252D01*
X154059500Y-114319748D01*
X154060448Y-114324512D01*
X154067929Y-114362121D01*
X154071133Y-114378231D01*
X154115448Y-114444552D01*
X154181769Y-114488867D01*
X154191332Y-114490769D01*
X154191334Y-114490770D01*
X154214005Y-114495279D01*
X154240252Y-114500500D01*
X157279748Y-114500500D01*
X157305995Y-114495279D01*
X157328666Y-114490770D01*
X157328668Y-114490769D01*
X157338231Y-114488867D01*
X157404552Y-114444552D01*
X157448867Y-114378231D01*
X157452072Y-114362121D01*
X157459552Y-114324512D01*
X157460500Y-114319748D01*
X157460500Y-112755361D01*
X159135316Y-112755361D01*
X159147443Y-113007820D01*
X159196752Y-113255713D01*
X159282160Y-113493595D01*
X159401792Y-113716240D01*
X159553018Y-113918756D01*
X159732517Y-114096696D01*
X159735476Y-114098866D01*
X159735480Y-114098869D01*
X159818492Y-114159735D01*
X159936346Y-114246149D01*
X160160026Y-114363833D01*
X160163497Y-114365045D01*
X160163499Y-114365046D01*
X160224476Y-114386340D01*
X160398644Y-114447162D01*
X160646958Y-114494306D01*
X160784408Y-114499706D01*
X160895843Y-114504085D01*
X160895846Y-114504085D01*
X160899513Y-114504229D01*
X161150760Y-114476713D01*
X161303722Y-114436442D01*
X161391635Y-114413297D01*
X161391640Y-114413295D01*
X161395181Y-114412363D01*
X161610747Y-114319748D01*
X164199500Y-114319748D01*
X164200448Y-114324512D01*
X164207929Y-114362121D01*
X164211133Y-114378231D01*
X164255448Y-114444552D01*
X164321769Y-114488867D01*
X164331332Y-114490769D01*
X164331334Y-114490770D01*
X164354005Y-114495279D01*
X164380252Y-114500500D01*
X167419748Y-114500500D01*
X167445995Y-114495279D01*
X167468666Y-114490770D01*
X167468668Y-114490769D01*
X167478231Y-114488867D01*
X167544552Y-114444552D01*
X167588867Y-114378231D01*
X167592072Y-114362121D01*
X167599552Y-114324512D01*
X167600500Y-114319748D01*
X167600500Y-112755361D01*
X169275316Y-112755361D01*
X169287443Y-113007820D01*
X169336752Y-113255713D01*
X169422160Y-113493595D01*
X169541792Y-113716240D01*
X169693018Y-113918756D01*
X169872517Y-114096696D01*
X169875476Y-114098866D01*
X169875480Y-114098869D01*
X169958492Y-114159735D01*
X170076346Y-114246149D01*
X170300026Y-114363833D01*
X170303497Y-114365045D01*
X170303499Y-114365046D01*
X170364476Y-114386340D01*
X170538644Y-114447162D01*
X170786958Y-114494306D01*
X170924408Y-114499706D01*
X171035843Y-114504085D01*
X171035846Y-114504085D01*
X171039513Y-114504229D01*
X171290760Y-114476713D01*
X171443722Y-114436442D01*
X171531635Y-114413297D01*
X171531640Y-114413295D01*
X171535181Y-114412363D01*
X171767405Y-114312591D01*
X171868262Y-114250179D01*
X171979205Y-114181526D01*
X171979210Y-114181522D01*
X171982331Y-114179591D01*
X172011962Y-114154507D01*
X172149142Y-114038375D01*
X172175238Y-114016283D01*
X172270815Y-113907299D01*
X172339462Y-113829023D01*
X172339466Y-113829018D01*
X172341888Y-113826256D01*
X172478619Y-113613684D01*
X172485710Y-113597944D01*
X172580918Y-113386588D01*
X172582428Y-113383236D01*
X172651034Y-113139976D01*
X172682931Y-112889247D01*
X172685268Y-112800000D01*
X172685084Y-112797527D01*
X172685084Y-112797517D01*
X172681951Y-112755361D01*
X174355316Y-112755361D01*
X174367443Y-113007820D01*
X174416752Y-113255713D01*
X174502160Y-113493595D01*
X174621792Y-113716240D01*
X174773018Y-113918756D01*
X174952517Y-114096696D01*
X174955476Y-114098866D01*
X174955480Y-114098869D01*
X175038492Y-114159735D01*
X175156346Y-114246149D01*
X175380026Y-114363833D01*
X175383497Y-114365045D01*
X175383499Y-114365046D01*
X175444476Y-114386340D01*
X175618644Y-114447162D01*
X175866958Y-114494306D01*
X176004408Y-114499706D01*
X176115843Y-114504085D01*
X176115846Y-114504085D01*
X176119513Y-114504229D01*
X176370760Y-114476713D01*
X176523722Y-114436442D01*
X176611635Y-114413297D01*
X176611640Y-114413295D01*
X176615181Y-114412363D01*
X176847405Y-114312591D01*
X176948262Y-114250179D01*
X177059205Y-114181526D01*
X177059210Y-114181522D01*
X177062331Y-114179591D01*
X177091962Y-114154507D01*
X177229142Y-114038375D01*
X177255238Y-114016283D01*
X177350815Y-113907299D01*
X177419462Y-113829023D01*
X177419466Y-113829018D01*
X177421888Y-113826256D01*
X177558619Y-113613684D01*
X177565710Y-113597944D01*
X177660918Y-113386588D01*
X177662428Y-113383236D01*
X177731034Y-113139976D01*
X177762931Y-112889247D01*
X177765268Y-112800000D01*
X177765084Y-112797527D01*
X177765084Y-112797517D01*
X177746809Y-112551599D01*
X177746808Y-112551593D01*
X177746537Y-112547945D01*
X177690756Y-112301428D01*
X177689426Y-112298007D01*
X177600480Y-112069282D01*
X177600478Y-112069277D01*
X177599150Y-112065863D01*
X177473731Y-111846426D01*
X177317255Y-111647938D01*
X177314582Y-111645424D01*
X177314577Y-111645418D01*
X177157741Y-111497882D01*
X177133160Y-111474758D01*
X176925489Y-111330691D01*
X176880569Y-111308539D01*
X176702107Y-111220531D01*
X176702103Y-111220529D01*
X176698805Y-111218903D01*
X176695303Y-111217782D01*
X176695298Y-111217780D01*
X176525906Y-111163558D01*
X176458087Y-111141849D01*
X176454472Y-111141260D01*
X176454471Y-111141260D01*
X176212241Y-111101810D01*
X176212240Y-111101810D01*
X176208624Y-111101221D01*
X176204961Y-111101173D01*
X176204960Y-111101173D01*
X176077141Y-111099500D01*
X175955896Y-111097913D01*
X175952268Y-111098407D01*
X175952264Y-111098407D01*
X175818937Y-111116552D01*
X175705455Y-111131996D01*
X175462803Y-111202723D01*
X175233270Y-111308539D01*
X175116628Y-111385013D01*
X175031998Y-111440499D01*
X175021899Y-111447120D01*
X175019166Y-111449559D01*
X175019165Y-111449560D01*
X174877794Y-111575738D01*
X174833333Y-111615421D01*
X174830986Y-111618243D01*
X174830985Y-111618244D01*
X174747378Y-111718771D01*
X174671715Y-111809746D01*
X174540595Y-112025825D01*
X174442854Y-112258911D01*
X174441949Y-112262473D01*
X174441949Y-112262474D01*
X174381655Y-112499883D01*
X174380639Y-112503883D01*
X174355316Y-112755361D01*
X172681951Y-112755361D01*
X172666809Y-112551599D01*
X172666808Y-112551593D01*
X172666537Y-112547945D01*
X172610756Y-112301428D01*
X172609426Y-112298007D01*
X172520480Y-112069282D01*
X172520478Y-112069277D01*
X172519150Y-112065863D01*
X172393731Y-111846426D01*
X172237255Y-111647938D01*
X172234582Y-111645424D01*
X172234577Y-111645418D01*
X172077741Y-111497882D01*
X172053160Y-111474758D01*
X171845489Y-111330691D01*
X171800569Y-111308539D01*
X171622107Y-111220531D01*
X171622103Y-111220529D01*
X171618805Y-111218903D01*
X171615303Y-111217782D01*
X171615298Y-111217780D01*
X171445906Y-111163558D01*
X171378087Y-111141849D01*
X171374472Y-111141260D01*
X171374471Y-111141260D01*
X171132241Y-111101810D01*
X171132240Y-111101810D01*
X171128624Y-111101221D01*
X171124961Y-111101173D01*
X171124960Y-111101173D01*
X170997141Y-111099500D01*
X170875896Y-111097913D01*
X170872268Y-111098407D01*
X170872264Y-111098407D01*
X170738937Y-111116552D01*
X170625455Y-111131996D01*
X170382803Y-111202723D01*
X170153270Y-111308539D01*
X170036628Y-111385013D01*
X169951998Y-111440499D01*
X169941899Y-111447120D01*
X169939166Y-111449559D01*
X169939165Y-111449560D01*
X169797794Y-111575738D01*
X169753333Y-111615421D01*
X169750986Y-111618243D01*
X169750985Y-111618244D01*
X169667378Y-111718771D01*
X169591715Y-111809746D01*
X169460595Y-112025825D01*
X169362854Y-112258911D01*
X169361949Y-112262473D01*
X169361949Y-112262474D01*
X169301655Y-112499883D01*
X169300639Y-112503883D01*
X169275316Y-112755361D01*
X167600500Y-112755361D01*
X167600500Y-112713108D01*
X167600985Y-112703323D01*
X167601284Y-112700313D01*
X167601765Y-112695470D01*
X167600969Y-112687323D01*
X167600500Y-112677696D01*
X167600500Y-111280252D01*
X167588867Y-111221769D01*
X167544552Y-111155448D01*
X167488005Y-111117664D01*
X167450126Y-111069614D01*
X167447724Y-111008476D01*
X167450012Y-111001394D01*
X167458883Y-110977098D01*
X167467703Y-110958942D01*
X167526150Y-110864532D01*
X167573558Y-110787953D01*
X167583285Y-110774808D01*
X167589763Y-110767419D01*
X167765578Y-110566854D01*
X167769222Y-110560773D01*
X167770453Y-110558719D01*
X167785370Y-110539601D01*
X169845899Y-108479072D01*
X169863201Y-108465270D01*
X169869613Y-108461238D01*
X169869619Y-108461234D01*
X169873727Y-108458650D01*
X169877251Y-108455316D01*
X169877260Y-108455309D01*
X169898204Y-108435494D01*
X169903207Y-108431070D01*
X169909736Y-108425679D01*
X169921837Y-108415688D01*
X169928374Y-108410733D01*
X169929634Y-108409858D01*
X169939744Y-108402834D01*
X169947595Y-108397908D01*
X169954652Y-108393928D01*
X169962825Y-108389804D01*
X169970402Y-108386412D01*
X169977442Y-108383579D01*
X169986045Y-108380496D01*
X169991066Y-108378697D01*
X169995655Y-108377179D01*
X170019136Y-108370042D01*
X170020787Y-108369557D01*
X170029071Y-108367199D01*
X170054099Y-108360074D01*
X170056009Y-108359520D01*
X170095488Y-108347867D01*
X170097917Y-108347134D01*
X170098241Y-108347034D01*
X170101503Y-108345998D01*
X170138010Y-108334061D01*
X170140535Y-108332908D01*
X170140549Y-108332902D01*
X170156238Y-108325734D01*
X170171333Y-108320269D01*
X170172676Y-108319902D01*
X170173955Y-108319554D01*
X170173956Y-108319554D01*
X170180755Y-108317700D01*
X170290724Y-108250179D01*
X170331074Y-108205601D01*
X170372590Y-108159735D01*
X170372590Y-108159734D01*
X170377322Y-108154507D01*
X170414606Y-108077553D01*
X170430512Y-108044724D01*
X170430512Y-108044723D01*
X170433588Y-108038375D01*
X170451885Y-107929617D01*
X170454363Y-107914891D01*
X170454363Y-107914886D01*
X170454997Y-107911120D01*
X170455052Y-107906665D01*
X170455086Y-107903825D01*
X170455133Y-107900000D01*
X170436839Y-107772259D01*
X170392364Y-107674442D01*
X170386349Y-107661212D01*
X170386348Y-107661211D01*
X170383428Y-107654788D01*
X170316812Y-107577476D01*
X170303798Y-107562372D01*
X170303797Y-107562371D01*
X170299193Y-107557028D01*
X170293276Y-107553193D01*
X170293274Y-107553191D01*
X170196824Y-107490677D01*
X170190906Y-107486841D01*
X170184150Y-107484821D01*
X170184149Y-107484820D01*
X170141335Y-107472016D01*
X170067273Y-107449866D01*
X169990644Y-107449398D01*
X169945282Y-107449121D01*
X169938231Y-107449078D01*
X169931454Y-107451015D01*
X169931453Y-107451015D01*
X169820935Y-107482601D01*
X169820933Y-107482602D01*
X169814155Y-107484539D01*
X169705019Y-107553399D01*
X169619596Y-107650122D01*
X169602357Y-107686841D01*
X169574355Y-107746483D01*
X169571025Y-107752946D01*
X169568326Y-107757744D01*
X169568324Y-107757749D01*
X169565941Y-107761985D01*
X169564432Y-107766599D01*
X169564430Y-107766604D01*
X169557465Y-107787905D01*
X169554000Y-107798501D01*
X169552962Y-107801768D01*
X169552862Y-107802092D01*
X169552129Y-107804521D01*
X169540479Y-107843990D01*
X169539925Y-107845900D01*
X169534818Y-107863841D01*
X169530442Y-107879212D01*
X169529957Y-107880863D01*
X169522820Y-107904344D01*
X169521302Y-107908933D01*
X169516422Y-107922552D01*
X169513587Y-107929597D01*
X169511646Y-107933933D01*
X169510195Y-107937174D01*
X169506071Y-107945347D01*
X169502091Y-107952404D01*
X169497162Y-107960260D01*
X169489262Y-107971630D01*
X169484303Y-107978171D01*
X169478453Y-107985257D01*
X169469065Y-107996628D01*
X169468926Y-107996796D01*
X169464500Y-108001802D01*
X169444572Y-108022867D01*
X169444568Y-108022872D01*
X169441346Y-108026278D01*
X169438823Y-108030229D01*
X169438820Y-108030233D01*
X169434074Y-108037666D01*
X169420638Y-108054390D01*
X167358370Y-110116658D01*
X167338970Y-110131743D01*
X167331133Y-110136403D01*
X167327525Y-110139650D01*
X167327514Y-110139658D01*
X167056914Y-110383174D01*
X167047641Y-110390564D01*
X166805622Y-110560773D01*
X166794900Y-110567338D01*
X166732102Y-110600500D01*
X166572309Y-110684881D01*
X166562111Y-110689547D01*
X166346252Y-110773881D01*
X166339247Y-110776320D01*
X166117167Y-110844414D01*
X166115437Y-110844926D01*
X165884593Y-110911052D01*
X165884531Y-110911070D01*
X165884322Y-110911130D01*
X165879924Y-110912444D01*
X165879451Y-110912591D01*
X165879330Y-110912630D01*
X165879263Y-110912651D01*
X165877414Y-110913246D01*
X165875543Y-110913848D01*
X165875311Y-110913925D01*
X165875281Y-110913935D01*
X165638940Y-110992596D01*
X165638918Y-110992604D01*
X165638370Y-110992786D01*
X165629432Y-110995992D01*
X165628419Y-110996382D01*
X165627888Y-110996601D01*
X165627885Y-110996602D01*
X165620111Y-110999805D01*
X165620074Y-110999821D01*
X165619559Y-111000033D01*
X165548898Y-111031093D01*
X165412313Y-111091131D01*
X165372475Y-111099500D01*
X164380252Y-111099500D01*
X164354005Y-111104721D01*
X164331334Y-111109230D01*
X164331332Y-111109231D01*
X164321769Y-111111133D01*
X164255448Y-111155448D01*
X164211133Y-111221769D01*
X164199500Y-111280252D01*
X164199500Y-114319748D01*
X161610747Y-114319748D01*
X161627405Y-114312591D01*
X161728262Y-114250179D01*
X161839205Y-114181526D01*
X161839210Y-114181522D01*
X161842331Y-114179591D01*
X161871962Y-114154507D01*
X162009142Y-114038375D01*
X162035238Y-114016283D01*
X162130815Y-113907299D01*
X162199462Y-113829023D01*
X162199466Y-113829018D01*
X162201888Y-113826256D01*
X162338619Y-113613684D01*
X162345710Y-113597944D01*
X162440918Y-113386588D01*
X162442428Y-113383236D01*
X162511034Y-113139976D01*
X162542931Y-112889247D01*
X162545268Y-112800000D01*
X162545084Y-112797527D01*
X162545084Y-112797517D01*
X162526809Y-112551599D01*
X162526808Y-112551593D01*
X162526537Y-112547945D01*
X162470756Y-112301428D01*
X162469426Y-112298007D01*
X162380480Y-112069282D01*
X162380478Y-112069277D01*
X162379150Y-112065863D01*
X162253731Y-111846426D01*
X162097255Y-111647938D01*
X162094582Y-111645424D01*
X162094577Y-111645418D01*
X161937741Y-111497882D01*
X161913160Y-111474758D01*
X161705489Y-111330691D01*
X161660569Y-111308539D01*
X161482107Y-111220531D01*
X161482103Y-111220529D01*
X161478805Y-111218903D01*
X161475303Y-111217782D01*
X161475298Y-111217780D01*
X161305906Y-111163558D01*
X161238087Y-111141849D01*
X161234472Y-111141260D01*
X161234471Y-111141260D01*
X160992241Y-111101810D01*
X160992240Y-111101810D01*
X160988624Y-111101221D01*
X160984961Y-111101173D01*
X160984960Y-111101173D01*
X160857141Y-111099500D01*
X160735896Y-111097913D01*
X160732268Y-111098407D01*
X160732264Y-111098407D01*
X160598937Y-111116552D01*
X160485455Y-111131996D01*
X160242803Y-111202723D01*
X160013270Y-111308539D01*
X159896628Y-111385013D01*
X159811998Y-111440499D01*
X159801899Y-111447120D01*
X159799166Y-111449559D01*
X159799165Y-111449560D01*
X159657794Y-111575738D01*
X159613333Y-111615421D01*
X159610986Y-111618243D01*
X159610985Y-111618244D01*
X159527378Y-111718771D01*
X159451715Y-111809746D01*
X159320595Y-112025825D01*
X159222854Y-112258911D01*
X159221949Y-112262473D01*
X159221949Y-112262474D01*
X159161655Y-112499883D01*
X159160639Y-112503883D01*
X159135316Y-112755361D01*
X157460500Y-112755361D01*
X157460500Y-111280252D01*
X157448867Y-111221769D01*
X157404552Y-111155448D01*
X157338231Y-111111133D01*
X157328668Y-111109231D01*
X157328666Y-111109230D01*
X157305995Y-111104721D01*
X157279748Y-111099500D01*
X154935107Y-111099500D01*
X154876916Y-111080593D01*
X154840952Y-111031093D01*
X154840952Y-110969907D01*
X154876916Y-110920407D01*
X154883323Y-110916123D01*
X154884620Y-110915327D01*
X154900497Y-110907445D01*
X154904649Y-110905829D01*
X154909333Y-110904518D01*
X154913669Y-110902319D01*
X154913674Y-110902317D01*
X154929604Y-110894237D01*
X154943583Y-110887148D01*
X154946143Y-110885827D01*
X154946159Y-110885819D01*
X154946265Y-110885763D01*
X154946270Y-110885760D01*
X154946404Y-110885690D01*
X154947920Y-110884880D01*
X154948952Y-110884329D01*
X154949025Y-110884289D01*
X154949129Y-110884234D01*
X154985330Y-110864532D01*
X154985380Y-110864505D01*
X154986851Y-110863694D01*
X154987062Y-110863578D01*
X155017377Y-110846699D01*
X155018808Y-110845919D01*
X155028730Y-110840622D01*
X155040494Y-110834342D01*
X155044833Y-110832160D01*
X155053442Y-110828093D01*
X155057886Y-110825995D01*
X155064881Y-110823014D01*
X155072641Y-110820054D01*
X155081337Y-110817190D01*
X155083358Y-110816627D01*
X155089134Y-110815017D01*
X155098149Y-110812953D01*
X155111799Y-110810494D01*
X155119925Y-110809376D01*
X155143990Y-110807078D01*
X155150638Y-110806669D01*
X155184316Y-110805736D01*
X155197511Y-110802825D01*
X155218839Y-110800500D01*
X155227948Y-110800500D01*
X155232378Y-110799675D01*
X155237571Y-110799339D01*
X155253602Y-110798737D01*
X155258075Y-110798569D01*
X155267208Y-110798226D01*
X155275602Y-110794620D01*
X155275605Y-110794619D01*
X155277783Y-110793683D01*
X155298734Y-110787317D01*
X155310053Y-110785209D01*
X155332729Y-110771232D01*
X155345596Y-110764548D01*
X155363642Y-110756795D01*
X155363643Y-110756794D01*
X155370063Y-110754036D01*
X155374949Y-110750022D01*
X155379313Y-110745658D01*
X155397368Y-110731387D01*
X155405348Y-110726468D01*
X155423018Y-110703231D01*
X155431810Y-110693161D01*
X156074651Y-110050320D01*
X156077780Y-110047620D01*
X156082269Y-110045425D01*
X156109324Y-110016260D01*
X156115893Y-110009178D01*
X156118469Y-110006502D01*
X156132247Y-109992724D01*
X156134792Y-109989013D01*
X156138220Y-109985108D01*
X156158401Y-109963354D01*
X156162666Y-109952664D01*
X156172980Y-109933348D01*
X156174321Y-109931393D01*
X156174322Y-109931390D01*
X156179492Y-109923854D01*
X156185641Y-109897941D01*
X156190014Y-109884116D01*
X156197294Y-109865868D01*
X156197294Y-109865866D01*
X156199883Y-109859378D01*
X156200500Y-109853085D01*
X156200500Y-109846916D01*
X156203175Y-109824057D01*
X156203230Y-109823827D01*
X156203230Y-109823825D01*
X156205340Y-109814934D01*
X156201404Y-109786012D01*
X156200500Y-109772663D01*
X156200500Y-109249500D01*
X156219407Y-109191309D01*
X156268907Y-109155345D01*
X156299500Y-109150500D01*
X163462177Y-109150500D01*
X163466302Y-109150803D01*
X163471027Y-109152425D01*
X163520446Y-109150570D01*
X163524159Y-109150500D01*
X163543633Y-109150500D01*
X163548063Y-109149675D01*
X163553256Y-109149339D01*
X163569287Y-109148737D01*
X163573760Y-109148569D01*
X163582893Y-109148226D01*
X163591287Y-109144620D01*
X163591290Y-109144619D01*
X163593468Y-109143683D01*
X163614419Y-109137317D01*
X163625738Y-109135209D01*
X163648414Y-109121232D01*
X163661281Y-109114548D01*
X163679327Y-109106795D01*
X163679328Y-109106794D01*
X163685748Y-109104036D01*
X163690634Y-109100022D01*
X163694998Y-109095658D01*
X163713053Y-109081387D01*
X163721033Y-109076468D01*
X163738703Y-109053231D01*
X163747495Y-109043161D01*
X165561162Y-107229496D01*
X165615679Y-107201719D01*
X165631166Y-107200500D01*
X175768835Y-107200500D01*
X175827026Y-107219407D01*
G37*
G04 #@! TD.AperFunction*
G04 #@! TA.AperFunction,Conductor*
G36*
X185392713Y-109419407D02*
G01*
X185404528Y-109429499D01*
X185420506Y-109445478D01*
X185448282Y-109499995D01*
X185449500Y-109515479D01*
X185449500Y-110201000D01*
X185430593Y-110259191D01*
X185381093Y-110295155D01*
X185350500Y-110300000D01*
X184519342Y-110300000D01*
X184461151Y-110281093D01*
X184446469Y-110267250D01*
X184446353Y-110267366D01*
X184442918Y-110263931D01*
X184439831Y-110260169D01*
X184349029Y-110185650D01*
X184306469Y-110150722D01*
X184306467Y-110150721D01*
X184302712Y-110147639D01*
X184238077Y-110113091D01*
X184150566Y-110066315D01*
X184150565Y-110066315D01*
X184146274Y-110064021D01*
X184141624Y-110062610D01*
X184141618Y-110062608D01*
X183981185Y-110013942D01*
X183981181Y-110013941D01*
X183976529Y-110012530D01*
X183800000Y-109995143D01*
X183623471Y-110012530D01*
X183618819Y-110013941D01*
X183618815Y-110013942D01*
X183458382Y-110062608D01*
X183458376Y-110062610D01*
X183453726Y-110064021D01*
X183449435Y-110066315D01*
X183449434Y-110066315D01*
X183361923Y-110113091D01*
X183297288Y-110147639D01*
X183293533Y-110150721D01*
X183293531Y-110150722D01*
X183250971Y-110185650D01*
X183160169Y-110260169D01*
X183047639Y-110397288D01*
X183045347Y-110401576D01*
X182986810Y-110511091D01*
X182942704Y-110553498D01*
X182882096Y-110561881D01*
X182828135Y-110533039D01*
X182801434Y-110477987D01*
X182800500Y-110464423D01*
X182800500Y-110165479D01*
X182819407Y-110107288D01*
X182829496Y-110095475D01*
X183495476Y-109429496D01*
X183549993Y-109401719D01*
X183565480Y-109400500D01*
X185334522Y-109400500D01*
X185392713Y-109419407D01*
G37*
G04 #@! TD.AperFunction*
G04 #@! TA.AperFunction,Conductor*
G36*
X154268458Y-83819407D02*
G01*
X154304422Y-83868907D01*
X154304422Y-83930093D01*
X154288810Y-83959766D01*
X154275464Y-83977159D01*
X154214956Y-84123238D01*
X154214109Y-84129674D01*
X154200747Y-84231168D01*
X154174406Y-84286393D01*
X154116856Y-84316214D01*
X154087197Y-84320530D01*
X154077149Y-84321471D01*
X154022168Y-84323800D01*
X154017110Y-84324014D01*
X154012507Y-84324209D01*
X154008027Y-84325249D01*
X154008014Y-84325251D01*
X154000767Y-84326934D01*
X153978375Y-84329500D01*
X153523514Y-84329500D01*
X153519385Y-84329197D01*
X153514658Y-84327574D01*
X153473266Y-84329128D01*
X153465223Y-84329430D01*
X153461509Y-84329500D01*
X153442052Y-84329500D01*
X153437622Y-84330325D01*
X153432436Y-84330661D01*
X153411925Y-84331431D01*
X153411924Y-84331431D01*
X153402792Y-84331774D01*
X153394398Y-84335380D01*
X153394395Y-84335381D01*
X153392217Y-84336317D01*
X153371266Y-84342683D01*
X153359947Y-84344791D01*
X153337269Y-84358770D01*
X153324410Y-84365450D01*
X153299938Y-84375964D01*
X153295051Y-84379977D01*
X153290685Y-84384343D01*
X153272629Y-84398615D01*
X153272432Y-84398736D01*
X153272431Y-84398737D01*
X153264652Y-84403532D01*
X153246981Y-84426770D01*
X153238203Y-84436825D01*
X153025349Y-84649680D01*
X153022221Y-84652380D01*
X153017731Y-84654575D01*
X153011514Y-84661277D01*
X153011511Y-84661279D01*
X152984080Y-84690849D01*
X152981507Y-84693521D01*
X152970978Y-84704050D01*
X152970974Y-84704055D01*
X152967752Y-84707277D01*
X152965204Y-84710991D01*
X152961773Y-84714898D01*
X152941599Y-84736646D01*
X152938212Y-84745134D01*
X152938212Y-84745135D01*
X152937334Y-84747336D01*
X152927020Y-84766652D01*
X152925679Y-84768607D01*
X152925678Y-84768610D01*
X152920508Y-84776146D01*
X152918398Y-84785038D01*
X152914359Y-84802058D01*
X152909986Y-84815884D01*
X152902706Y-84834132D01*
X152900117Y-84840622D01*
X152899500Y-84846915D01*
X152899500Y-84853084D01*
X152896825Y-84875942D01*
X152895825Y-84880156D01*
X152890484Y-84888924D01*
X152897596Y-84906638D01*
X152898596Y-84913985D01*
X152899500Y-84927337D01*
X152899500Y-86470718D01*
X152880593Y-86528909D01*
X152877466Y-86531181D01*
X152882816Y-86535399D01*
X152899500Y-86590400D01*
X152899500Y-91034521D01*
X152880593Y-91092712D01*
X152870504Y-91104525D01*
X152270004Y-91705025D01*
X152215487Y-91732802D01*
X152155055Y-91723231D01*
X152129996Y-91705025D01*
X151979073Y-91554102D01*
X151965273Y-91536804D01*
X151958652Y-91526275D01*
X151955315Y-91522747D01*
X151955312Y-91522744D01*
X151935500Y-91501803D01*
X151931075Y-91496798D01*
X151915698Y-91478174D01*
X151910735Y-91471628D01*
X151902835Y-91460257D01*
X151897908Y-91452404D01*
X151893928Y-91445347D01*
X151889804Y-91437174D01*
X151886412Y-91429597D01*
X151883577Y-91422552D01*
X151878697Y-91408933D01*
X151877179Y-91404344D01*
X151870042Y-91380863D01*
X151869557Y-91379212D01*
X151866950Y-91370055D01*
X151860074Y-91345900D01*
X151859520Y-91343990D01*
X151847867Y-91304511D01*
X151847134Y-91302082D01*
X151847034Y-91301758D01*
X151845997Y-91298495D01*
X151845817Y-91297942D01*
X151834924Y-91264632D01*
X151834060Y-91261989D01*
X151814889Y-91220024D01*
X151812201Y-91215550D01*
X151812234Y-91215530D01*
X151805536Y-91203412D01*
X151802313Y-91196323D01*
X151783428Y-91154788D01*
X151717158Y-91077877D01*
X151703798Y-91062372D01*
X151703797Y-91062371D01*
X151699193Y-91057028D01*
X151693276Y-91053193D01*
X151693274Y-91053191D01*
X151596824Y-90990677D01*
X151590906Y-90986841D01*
X151584150Y-90984821D01*
X151584149Y-90984820D01*
X151541335Y-90972016D01*
X151467273Y-90949866D01*
X151390644Y-90949398D01*
X151345282Y-90949121D01*
X151338231Y-90949078D01*
X151331454Y-90951015D01*
X151331453Y-90951015D01*
X151220935Y-90982601D01*
X151220933Y-90982602D01*
X151214155Y-90984539D01*
X151105019Y-91053399D01*
X151019596Y-91150122D01*
X150964754Y-91266932D01*
X150944901Y-91394440D01*
X150961633Y-91522394D01*
X150964471Y-91528845D01*
X150964472Y-91528847D01*
X151008358Y-91628586D01*
X151013605Y-91640510D01*
X151023103Y-91651809D01*
X151092100Y-91733892D01*
X151092103Y-91733894D01*
X151096639Y-91739291D01*
X151204060Y-91810796D01*
X151226258Y-91817731D01*
X151231395Y-91819336D01*
X151250406Y-91827544D01*
X151261989Y-91834060D01*
X151298495Y-91845997D01*
X151298713Y-91846066D01*
X151298743Y-91846076D01*
X151301581Y-91846978D01*
X151301621Y-91846991D01*
X151301758Y-91847034D01*
X151302082Y-91847134D01*
X151304511Y-91847867D01*
X151343990Y-91859520D01*
X151345900Y-91860074D01*
X151367283Y-91866161D01*
X151379212Y-91869557D01*
X151380863Y-91870042D01*
X151404344Y-91877179D01*
X151408933Y-91878697D01*
X151415961Y-91881215D01*
X151422557Y-91883579D01*
X151429597Y-91886412D01*
X151437174Y-91889804D01*
X151445347Y-91893928D01*
X151452404Y-91897908D01*
X151460253Y-91902832D01*
X151471628Y-91910735D01*
X151478174Y-91915698D01*
X151496798Y-91931075D01*
X151501803Y-91935500D01*
X151520838Y-91953508D01*
X151526275Y-91958652D01*
X151530222Y-91961172D01*
X151530223Y-91961173D01*
X151537667Y-91965926D01*
X151554392Y-91979363D01*
X151705025Y-92129996D01*
X151732802Y-92184513D01*
X151723231Y-92244945D01*
X151705025Y-92270004D01*
X148625349Y-95349680D01*
X148622220Y-95352380D01*
X148617731Y-95354575D01*
X148611513Y-95361278D01*
X148584107Y-95390822D01*
X148581531Y-95393498D01*
X148567752Y-95407277D01*
X148565207Y-95410987D01*
X148561771Y-95414900D01*
X148541599Y-95436646D01*
X148538212Y-95445134D01*
X148538212Y-95445135D01*
X148537334Y-95447336D01*
X148527020Y-95466652D01*
X148525679Y-95468607D01*
X148525678Y-95468610D01*
X148520508Y-95476146D01*
X148518398Y-95485038D01*
X148514359Y-95502058D01*
X148509986Y-95515884D01*
X148503746Y-95531526D01*
X148500117Y-95540622D01*
X148499500Y-95546915D01*
X148499500Y-95553084D01*
X148496825Y-95575943D01*
X148494660Y-95585066D01*
X148498596Y-95613987D01*
X148499500Y-95627337D01*
X148499500Y-100146492D01*
X148499197Y-100150617D01*
X148497575Y-100155342D01*
X148497918Y-100164476D01*
X148499430Y-100204761D01*
X148499500Y-100208474D01*
X148499500Y-100227948D01*
X148500325Y-100232378D01*
X148500661Y-100237571D01*
X148501774Y-100267208D01*
X148505380Y-100275602D01*
X148505381Y-100275605D01*
X148506317Y-100277783D01*
X148512683Y-100298734D01*
X148514791Y-100310053D01*
X148519588Y-100317835D01*
X148528768Y-100332728D01*
X148535451Y-100345595D01*
X148545964Y-100370063D01*
X148549978Y-100374949D01*
X148554342Y-100379313D01*
X148568613Y-100397368D01*
X148573532Y-100405348D01*
X148596769Y-100423018D01*
X148606839Y-100431810D01*
X149042013Y-100866984D01*
X149069790Y-100921501D01*
X149060219Y-100981933D01*
X149016954Y-101025198D01*
X148982530Y-101035427D01*
X148958190Y-101038028D01*
X148958184Y-101038029D01*
X148955526Y-101038313D01*
X148952911Y-101038883D01*
X148952906Y-101038884D01*
X148822034Y-101067419D01*
X148595650Y-101116779D01*
X148246354Y-101233652D01*
X147911723Y-101387565D01*
X147909419Y-101388944D01*
X147909417Y-101388945D01*
X147597962Y-101575347D01*
X147597956Y-101575351D01*
X147595672Y-101576718D01*
X147593545Y-101578327D01*
X147593543Y-101578328D01*
X147400437Y-101724373D01*
X147301898Y-101798897D01*
X147169059Y-101924078D01*
X147071490Y-102016023D01*
X147033837Y-102051505D01*
X146934963Y-102167272D01*
X146850069Y-102266670D01*
X146794626Y-102331585D01*
X146587062Y-102635862D01*
X146585804Y-102638218D01*
X146585801Y-102638223D01*
X146416874Y-102954595D01*
X146413574Y-102960776D01*
X146412576Y-102963259D01*
X146412574Y-102963263D01*
X146277207Y-103300000D01*
X146276192Y-103302526D01*
X146275466Y-103305110D01*
X146275465Y-103305112D01*
X146273027Y-103313786D01*
X146176521Y-103657115D01*
X146115729Y-104020393D01*
X146115575Y-104023064D01*
X146115574Y-104023073D01*
X146109282Y-104132209D01*
X146094527Y-104388113D01*
X146094662Y-104390778D01*
X146094662Y-104390783D01*
X146112465Y-104742204D01*
X146113162Y-104755971D01*
X146113586Y-104758618D01*
X146170746Y-105115479D01*
X146171416Y-105119665D01*
X146172122Y-105122245D01*
X146172122Y-105122246D01*
X146266133Y-105465893D01*
X146268608Y-105474941D01*
X146269588Y-105477428D01*
X146269590Y-105477435D01*
X146322283Y-105611202D01*
X146403602Y-105817642D01*
X146404844Y-105820008D01*
X146404846Y-105820012D01*
X146425701Y-105859735D01*
X146574817Y-106143759D01*
X146576309Y-106145979D01*
X146576310Y-106145981D01*
X146642015Y-106243759D01*
X146780252Y-106449477D01*
X146781978Y-106451527D01*
X146781979Y-106451528D01*
X147003721Y-106714855D01*
X147017502Y-106731221D01*
X147019441Y-106733074D01*
X147247503Y-106951015D01*
X147283792Y-106985694D01*
X147285912Y-106987321D01*
X147285917Y-106987325D01*
X147452165Y-107114891D01*
X147576008Y-107209919D01*
X147890731Y-107401274D01*
X147893156Y-107402410D01*
X147893158Y-107402411D01*
X148215484Y-107553399D01*
X148224279Y-107557519D01*
X148226820Y-107558389D01*
X148226825Y-107558391D01*
X148392847Y-107615233D01*
X148572751Y-107676828D01*
X148855419Y-107740530D01*
X148928627Y-107757028D01*
X148932070Y-107757804D01*
X149298033Y-107799500D01*
X149666358Y-107801428D01*
X150032737Y-107763567D01*
X150392884Y-107686358D01*
X150395419Y-107685520D01*
X150395425Y-107685518D01*
X150740044Y-107571546D01*
X150740049Y-107571544D01*
X150742586Y-107570705D01*
X151077752Y-107417961D01*
X151394461Y-107229913D01*
X151689009Y-107008760D01*
X151698079Y-107000273D01*
X151955987Y-106758926D01*
X151955988Y-106758925D01*
X151957950Y-106757089D01*
X152134761Y-106551528D01*
X152196388Y-106479881D01*
X152196391Y-106479877D01*
X152198138Y-106477846D01*
X152406762Y-106174295D01*
X152581383Y-105849989D01*
X152583018Y-105845964D01*
X152718950Y-105511202D01*
X152719958Y-105508720D01*
X152820865Y-105154482D01*
X152882925Y-104791418D01*
X152905411Y-104423775D01*
X152905494Y-104400000D01*
X152896586Y-104235521D01*
X152885720Y-104034877D01*
X152885719Y-104034868D01*
X152885575Y-104032209D01*
X152868402Y-103927337D01*
X152826484Y-103671357D01*
X152826483Y-103671354D01*
X152826052Y-103668720D01*
X152727620Y-103313786D01*
X152723928Y-103304507D01*
X152598550Y-102989447D01*
X152591431Y-102971558D01*
X152585723Y-102960776D01*
X152420329Y-102648404D01*
X152419078Y-102646041D01*
X152416921Y-102642854D01*
X152214082Y-102343262D01*
X152214079Y-102343259D01*
X152212578Y-102341041D01*
X151974346Y-102060128D01*
X151904899Y-101994226D01*
X151875705Y-101940457D01*
X151883691Y-101879795D01*
X151925808Y-101835412D01*
X151947005Y-101826901D01*
X151980755Y-101817700D01*
X151986767Y-101814009D01*
X151990743Y-101812288D01*
X152000497Y-101807445D01*
X152004649Y-101805829D01*
X152009333Y-101804518D01*
X152013669Y-101802319D01*
X152013674Y-101802317D01*
X152029604Y-101794237D01*
X152043583Y-101787148D01*
X152046143Y-101785827D01*
X152046159Y-101785819D01*
X152046265Y-101785763D01*
X152046270Y-101785760D01*
X152046404Y-101785690D01*
X152047920Y-101784880D01*
X152048952Y-101784329D01*
X152049025Y-101784289D01*
X152049129Y-101784234D01*
X152085330Y-101764532D01*
X152085380Y-101764505D01*
X152086851Y-101763694D01*
X152087062Y-101763578D01*
X152117377Y-101746699D01*
X152118808Y-101745919D01*
X152127266Y-101741403D01*
X152140494Y-101734342D01*
X152144833Y-101732160D01*
X152153442Y-101728093D01*
X152157886Y-101725995D01*
X152164881Y-101723014D01*
X152172641Y-101720054D01*
X152181337Y-101717190D01*
X152183358Y-101716627D01*
X152189134Y-101715017D01*
X152198149Y-101712953D01*
X152211799Y-101710494D01*
X152219925Y-101709376D01*
X152243990Y-101707078D01*
X152250638Y-101706669D01*
X152284316Y-101705736D01*
X152297511Y-101702825D01*
X152318839Y-101700500D01*
X153334521Y-101700500D01*
X153392712Y-101719407D01*
X153404525Y-101729496D01*
X154070504Y-102395476D01*
X154098281Y-102449993D01*
X154099500Y-102465480D01*
X154099500Y-102781566D01*
X154097025Y-102803563D01*
X154094264Y-102815679D01*
X154094129Y-102820532D01*
X154094129Y-102820535D01*
X154093330Y-102849355D01*
X154092921Y-102856013D01*
X154092403Y-102861432D01*
X154090623Y-102880073D01*
X154089505Y-102888200D01*
X154087046Y-102901850D01*
X154084982Y-102910865D01*
X154083372Y-102916641D01*
X154082809Y-102918662D01*
X154079945Y-102927358D01*
X154076985Y-102935118D01*
X154074007Y-102942107D01*
X154067846Y-102955153D01*
X154065659Y-102959501D01*
X154054115Y-102981122D01*
X154053281Y-102982653D01*
X154036583Y-103012644D01*
X154036476Y-103012837D01*
X154035523Y-103014568D01*
X154015777Y-103050849D01*
X154014321Y-103053574D01*
X154014163Y-103053875D01*
X154014038Y-103054117D01*
X154014010Y-103054171D01*
X154012840Y-103056439D01*
X153997088Y-103087500D01*
X153995481Y-103090668D01*
X153979369Y-103133877D01*
X153979341Y-103133988D01*
X153975180Y-103144725D01*
X153964754Y-103166932D01*
X153944901Y-103294440D01*
X153945816Y-103301437D01*
X153945816Y-103301438D01*
X153946901Y-103309735D01*
X153961633Y-103422394D01*
X153964471Y-103428845D01*
X153964472Y-103428847D01*
X154010546Y-103533558D01*
X154013605Y-103540510D01*
X154040376Y-103572358D01*
X154092100Y-103633892D01*
X154092103Y-103633894D01*
X154096639Y-103639291D01*
X154204060Y-103710796D01*
X154210788Y-103712898D01*
X154210790Y-103712899D01*
X154265352Y-103729945D01*
X154327233Y-103749278D01*
X154391744Y-103750460D01*
X154449202Y-103751514D01*
X154449204Y-103751514D01*
X154456255Y-103751643D01*
X154463058Y-103749788D01*
X154463060Y-103749788D01*
X154535841Y-103729945D01*
X154580755Y-103717700D01*
X154690724Y-103650179D01*
X154777322Y-103554507D01*
X154825086Y-103455923D01*
X154830512Y-103444724D01*
X154830512Y-103444723D01*
X154833588Y-103438375D01*
X154854997Y-103311120D01*
X154855133Y-103300000D01*
X154836839Y-103172259D01*
X154819388Y-103133877D01*
X154815331Y-103124954D01*
X154810119Y-103110668D01*
X154805832Y-103095354D01*
X154805828Y-103095343D01*
X154804519Y-103090668D01*
X154787160Y-103056439D01*
X154785837Y-103053875D01*
X154785679Y-103053574D01*
X154784223Y-103050850D01*
X154773687Y-103031490D01*
X154764531Y-103014668D01*
X154763751Y-103013251D01*
X154763693Y-103013147D01*
X154763577Y-103012936D01*
X154746773Y-102982756D01*
X154745982Y-102981304D01*
X154734329Y-102959478D01*
X154732145Y-102955135D01*
X154727473Y-102945244D01*
X154725993Y-102942109D01*
X154723016Y-102935124D01*
X154720054Y-102927359D01*
X154717190Y-102918662D01*
X154716627Y-102916641D01*
X154715017Y-102910865D01*
X154712953Y-102901850D01*
X154710494Y-102888200D01*
X154709376Y-102880074D01*
X154707596Y-102861432D01*
X154707078Y-102856009D01*
X154706669Y-102849353D01*
X154705866Y-102820374D01*
X154705736Y-102815684D01*
X154702825Y-102802489D01*
X154700500Y-102781161D01*
X154700500Y-102353508D01*
X154700803Y-102349383D01*
X154702425Y-102344658D01*
X154700570Y-102295238D01*
X154700500Y-102291525D01*
X154700500Y-102272052D01*
X154699675Y-102267622D01*
X154699338Y-102262417D01*
X154698569Y-102241926D01*
X154698226Y-102232791D01*
X154693681Y-102222212D01*
X154687317Y-102201263D01*
X154686884Y-102198936D01*
X154686882Y-102198931D01*
X154685209Y-102189947D01*
X154671232Y-102167271D01*
X154664548Y-102154404D01*
X154656795Y-102136358D01*
X154656794Y-102136357D01*
X154654036Y-102129937D01*
X154650022Y-102125051D01*
X154645658Y-102120687D01*
X154631387Y-102102632D01*
X154631264Y-102102433D01*
X154626468Y-102094652D01*
X154603231Y-102076982D01*
X154593161Y-102068190D01*
X153796067Y-101271096D01*
X153768290Y-101216579D01*
X153777861Y-101156147D01*
X153821126Y-101112882D01*
X153862357Y-101102162D01*
X153899746Y-101100758D01*
X153904762Y-101100570D01*
X153908474Y-101100500D01*
X153927948Y-101100500D01*
X153932378Y-101099675D01*
X153937571Y-101099339D01*
X153953602Y-101098737D01*
X153958075Y-101098569D01*
X153967208Y-101098226D01*
X153975602Y-101094620D01*
X153975605Y-101094619D01*
X153977783Y-101093683D01*
X153998734Y-101087317D01*
X154010053Y-101085209D01*
X154032729Y-101071232D01*
X154045596Y-101064548D01*
X154063642Y-101056795D01*
X154063643Y-101056794D01*
X154070063Y-101054036D01*
X154074949Y-101050022D01*
X154079313Y-101045658D01*
X154097368Y-101031387D01*
X154105348Y-101026468D01*
X154123018Y-101003231D01*
X154131810Y-100993161D01*
X155049696Y-100075275D01*
X155104213Y-100047498D01*
X155164645Y-100057069D01*
X155207910Y-100100334D01*
X155217521Y-100160509D01*
X155210159Y-100207791D01*
X155211074Y-100214788D01*
X155211074Y-100214789D01*
X155212199Y-100223389D01*
X155226891Y-100335745D01*
X155229729Y-100342196D01*
X155229730Y-100342198D01*
X155254093Y-100397567D01*
X155278863Y-100453861D01*
X155304919Y-100484858D01*
X155357358Y-100547243D01*
X155357361Y-100547245D01*
X155361897Y-100552642D01*
X155469318Y-100624147D01*
X155476046Y-100626249D01*
X155476048Y-100626250D01*
X155530904Y-100643388D01*
X155592491Y-100662629D01*
X155657002Y-100663811D01*
X155714460Y-100664865D01*
X155714462Y-100664865D01*
X155721513Y-100664994D01*
X155728316Y-100663139D01*
X155728318Y-100663139D01*
X155770086Y-100651751D01*
X155846013Y-100631051D01*
X155955982Y-100563530D01*
X156021018Y-100491679D01*
X156037848Y-100473086D01*
X156037848Y-100473085D01*
X156042580Y-100467858D01*
X156098846Y-100351726D01*
X156118765Y-100233330D01*
X156119621Y-100228242D01*
X156119621Y-100228237D01*
X156120255Y-100224471D01*
X156120391Y-100213351D01*
X156102097Y-100085610D01*
X156065138Y-100004324D01*
X156051607Y-99974563D01*
X156051606Y-99974562D01*
X156048686Y-99968139D01*
X155964451Y-99870379D01*
X155958534Y-99866544D01*
X155958532Y-99866542D01*
X155888071Y-99820873D01*
X155856164Y-99800192D01*
X155849408Y-99798172D01*
X155849407Y-99798171D01*
X155806593Y-99785367D01*
X155732531Y-99763217D01*
X155603489Y-99762429D01*
X155603504Y-99759926D01*
X155554359Y-99751082D01*
X155512011Y-99706920D01*
X155503709Y-99646300D01*
X155531140Y-99593831D01*
X155595475Y-99529496D01*
X155649992Y-99501719D01*
X155665479Y-99500500D01*
X158981571Y-99500500D01*
X159003569Y-99502975D01*
X159015684Y-99505736D01*
X159020537Y-99505871D01*
X159020541Y-99505871D01*
X159037651Y-99506345D01*
X159049361Y-99506669D01*
X159056009Y-99507078D01*
X159080074Y-99509376D01*
X159088200Y-99510494D01*
X159101850Y-99512953D01*
X159110865Y-99515017D01*
X159116641Y-99516627D01*
X159118662Y-99517190D01*
X159127358Y-99520054D01*
X159135118Y-99523014D01*
X159142113Y-99525995D01*
X159146557Y-99528093D01*
X159155166Y-99532160D01*
X159159505Y-99534342D01*
X159169770Y-99539822D01*
X159181191Y-99545919D01*
X159182622Y-99546699D01*
X159212937Y-99563578D01*
X159213148Y-99563694D01*
X159214619Y-99564505D01*
X159214669Y-99564532D01*
X159250870Y-99584234D01*
X159250974Y-99584289D01*
X159251047Y-99584329D01*
X159251967Y-99584820D01*
X159253595Y-99585690D01*
X159253729Y-99585760D01*
X159253734Y-99585763D01*
X159253840Y-99585819D01*
X159253856Y-99585827D01*
X159256416Y-99587148D01*
X159275554Y-99596854D01*
X159288175Y-99603255D01*
X159288180Y-99603257D01*
X159290666Y-99604518D01*
X159298287Y-99607360D01*
X159299970Y-99608073D01*
X159304060Y-99610796D01*
X159322745Y-99616633D01*
X159327789Y-99618361D01*
X159333877Y-99620631D01*
X159338940Y-99621894D01*
X159338912Y-99622004D01*
X159344710Y-99623497D01*
X159392203Y-99638334D01*
X159420501Y-99647175D01*
X159420502Y-99647175D01*
X159427233Y-99649278D01*
X159493547Y-99650494D01*
X159549202Y-99651514D01*
X159549204Y-99651514D01*
X159556255Y-99651643D01*
X159563058Y-99649788D01*
X159563060Y-99649788D01*
X159604828Y-99638400D01*
X159680755Y-99617700D01*
X159790724Y-99550179D01*
X159809445Y-99529496D01*
X159872590Y-99459735D01*
X159872590Y-99459734D01*
X159877322Y-99454507D01*
X159929834Y-99346124D01*
X159930512Y-99344724D01*
X159930512Y-99344723D01*
X159933588Y-99338375D01*
X159952744Y-99224512D01*
X159954363Y-99214891D01*
X159954363Y-99214886D01*
X159954997Y-99211120D01*
X159955133Y-99200000D01*
X159936839Y-99072259D01*
X159892119Y-98973902D01*
X159886349Y-98961212D01*
X159886348Y-98961211D01*
X159883428Y-98954788D01*
X159827176Y-98889504D01*
X159803798Y-98862372D01*
X159803797Y-98862371D01*
X159799193Y-98857028D01*
X159793276Y-98853193D01*
X159793274Y-98853191D01*
X159701997Y-98794030D01*
X159690906Y-98786841D01*
X159684150Y-98784821D01*
X159684149Y-98784820D01*
X159609089Y-98762372D01*
X159567273Y-98749866D01*
X159490644Y-98749398D01*
X159445282Y-98749121D01*
X159438231Y-98749078D01*
X159431454Y-98751015D01*
X159431453Y-98751015D01*
X159423112Y-98753399D01*
X159314155Y-98784539D01*
X159308193Y-98788301D01*
X159301753Y-98791182D01*
X159301681Y-98791020D01*
X159295712Y-98794030D01*
X159295354Y-98794169D01*
X159290668Y-98795481D01*
X159256439Y-98812840D01*
X159253875Y-98814163D01*
X159253574Y-98814321D01*
X159250854Y-98815775D01*
X159214672Y-98835466D01*
X159213016Y-98836377D01*
X159212959Y-98836409D01*
X159212937Y-98836421D01*
X159182622Y-98853300D01*
X159181191Y-98854080D01*
X159176650Y-98856504D01*
X159159505Y-98865657D01*
X159155166Y-98867839D01*
X159146557Y-98871906D01*
X159142113Y-98874004D01*
X159135118Y-98876985D01*
X159127358Y-98879945D01*
X159118662Y-98882809D01*
X159116641Y-98883372D01*
X159110865Y-98884982D01*
X159101850Y-98887046D01*
X159088200Y-98889505D01*
X159080073Y-98890623D01*
X159075449Y-98891065D01*
X159056013Y-98892921D01*
X159049362Y-98893330D01*
X159015679Y-98894264D01*
X159002904Y-98897083D01*
X159002486Y-98897175D01*
X158981155Y-98899500D01*
X155553513Y-98899500D01*
X155549384Y-98899197D01*
X155544658Y-98897574D01*
X155509686Y-98898887D01*
X155495223Y-98899430D01*
X155491509Y-98899500D01*
X155472052Y-98899500D01*
X155467622Y-98900325D01*
X155462436Y-98900661D01*
X155441925Y-98901431D01*
X155441924Y-98901431D01*
X155432792Y-98901774D01*
X155424398Y-98905380D01*
X155424395Y-98905381D01*
X155422217Y-98906317D01*
X155401266Y-98912683D01*
X155389947Y-98914791D01*
X155382164Y-98919588D01*
X155382165Y-98919588D01*
X155367272Y-98928768D01*
X155354404Y-98935452D01*
X155336353Y-98943207D01*
X155336351Y-98943208D01*
X155329937Y-98945964D01*
X155325051Y-98949977D01*
X155320685Y-98954343D01*
X155302629Y-98968615D01*
X155302432Y-98968736D01*
X155302431Y-98968737D01*
X155294652Y-98973532D01*
X155289120Y-98980807D01*
X155289119Y-98980808D01*
X155276989Y-98996760D01*
X155268196Y-99006832D01*
X155122625Y-99152404D01*
X155068109Y-99180180D01*
X155007677Y-99170609D01*
X154964412Y-99127344D01*
X154954622Y-99096434D01*
X154954337Y-99094440D01*
X154936839Y-98972259D01*
X154899544Y-98890233D01*
X154886349Y-98861212D01*
X154886348Y-98861211D01*
X154883428Y-98854788D01*
X154799193Y-98757028D01*
X154793276Y-98753193D01*
X154793274Y-98753191D01*
X154696824Y-98690677D01*
X154690906Y-98686841D01*
X154684150Y-98684821D01*
X154684149Y-98684820D01*
X154641335Y-98672016D01*
X154567273Y-98649866D01*
X154490644Y-98649398D01*
X154445282Y-98649121D01*
X154438231Y-98649078D01*
X154431454Y-98651015D01*
X154431453Y-98651015D01*
X154320935Y-98682601D01*
X154320933Y-98682602D01*
X154314155Y-98684539D01*
X154205019Y-98753399D01*
X154119596Y-98850122D01*
X154064754Y-98966932D01*
X154044901Y-99094440D01*
X154045816Y-99101437D01*
X154045816Y-99101438D01*
X154060652Y-99214891D01*
X154061633Y-99222394D01*
X154064474Y-99228850D01*
X154084947Y-99275380D01*
X154089666Y-99288562D01*
X154095480Y-99309330D01*
X154112838Y-99343558D01*
X154114162Y-99346124D01*
X154114320Y-99346425D01*
X154115777Y-99349151D01*
X154135464Y-99385323D01*
X154136415Y-99387051D01*
X154141330Y-99395878D01*
X154153240Y-99417270D01*
X154154014Y-99418688D01*
X154155049Y-99420627D01*
X154165801Y-99480855D01*
X154137739Y-99537290D01*
X153604525Y-100070504D01*
X153550008Y-100098281D01*
X153534521Y-100099500D01*
X150082294Y-100099500D01*
X150024103Y-100080593D01*
X149996060Y-100049129D01*
X149993925Y-100045343D01*
X149989804Y-100037174D01*
X149986412Y-100029597D01*
X149983577Y-100022552D01*
X149978697Y-100008933D01*
X149977179Y-100004344D01*
X149970042Y-99980863D01*
X149969557Y-99979212D01*
X149960130Y-99946098D01*
X149960074Y-99945900D01*
X149959520Y-99943990D01*
X149947867Y-99904511D01*
X149947134Y-99902082D01*
X149947034Y-99901758D01*
X149945997Y-99898495D01*
X149934060Y-99861989D01*
X149914889Y-99820024D01*
X149912201Y-99815550D01*
X149912234Y-99815530D01*
X149905536Y-99803412D01*
X149903153Y-99798171D01*
X149883428Y-99754788D01*
X149799193Y-99657028D01*
X149793276Y-99653193D01*
X149793274Y-99653191D01*
X149696824Y-99590677D01*
X149690906Y-99586841D01*
X149684150Y-99584821D01*
X149684149Y-99584820D01*
X149641335Y-99572016D01*
X149567273Y-99549866D01*
X149490644Y-99549398D01*
X149445282Y-99549121D01*
X149438231Y-99549078D01*
X149431454Y-99551015D01*
X149431453Y-99551015D01*
X149320935Y-99582601D01*
X149320933Y-99582602D01*
X149314155Y-99584539D01*
X149308191Y-99588302D01*
X149252328Y-99623549D01*
X149193025Y-99638610D01*
X149136196Y-99615937D01*
X149103546Y-99564191D01*
X149100500Y-99539822D01*
X149100500Y-99214840D01*
X149750000Y-99214840D01*
X149750948Y-99224462D01*
X149759702Y-99268474D01*
X149767021Y-99286142D01*
X149800389Y-99336082D01*
X149813918Y-99349611D01*
X149863858Y-99382979D01*
X149881526Y-99390298D01*
X149925538Y-99399052D01*
X149935160Y-99400000D01*
X151084320Y-99400000D01*
X151097005Y-99395878D01*
X151100000Y-99391757D01*
X151100000Y-99384320D01*
X151400000Y-99384320D01*
X151404122Y-99397005D01*
X151408243Y-99400000D01*
X152564840Y-99400000D01*
X152574462Y-99399052D01*
X152618474Y-99390298D01*
X152636142Y-99382979D01*
X152686082Y-99349611D01*
X152699611Y-99336082D01*
X152732979Y-99286142D01*
X152740298Y-99268474D01*
X152749052Y-99224462D01*
X152750000Y-99214840D01*
X152750000Y-97565680D01*
X152745878Y-97552995D01*
X152741757Y-97550000D01*
X151415680Y-97550000D01*
X151402995Y-97554122D01*
X151400000Y-97558243D01*
X151400000Y-99384320D01*
X151100000Y-99384320D01*
X151100000Y-97565680D01*
X151095878Y-97552995D01*
X151091757Y-97550000D01*
X149765680Y-97550000D01*
X149752995Y-97554122D01*
X149750000Y-97558243D01*
X149750000Y-99214840D01*
X149100500Y-99214840D01*
X149100500Y-97501445D01*
X155546322Y-97501445D01*
X155549164Y-97523178D01*
X155550000Y-97536014D01*
X155550000Y-97764840D01*
X155550948Y-97774462D01*
X155559702Y-97818474D01*
X155567021Y-97836142D01*
X155600389Y-97886082D01*
X155613918Y-97899611D01*
X155663858Y-97932979D01*
X155681526Y-97940298D01*
X155725538Y-97949052D01*
X155735160Y-97950000D01*
X155993050Y-97950000D01*
X155994864Y-97950017D01*
X156049140Y-97951012D01*
X156051169Y-97950759D01*
X156063404Y-97950000D01*
X156834320Y-97950000D01*
X156847005Y-97945878D01*
X156850000Y-97941757D01*
X156850000Y-97934320D01*
X157150000Y-97934320D01*
X157154122Y-97947005D01*
X157158243Y-97950000D01*
X157993050Y-97950000D01*
X157994864Y-97950017D01*
X158049140Y-97951012D01*
X158051169Y-97950759D01*
X158063404Y-97950000D01*
X158264840Y-97950000D01*
X158274462Y-97949052D01*
X158318474Y-97940298D01*
X158336142Y-97932979D01*
X158386082Y-97899611D01*
X158399611Y-97886082D01*
X158432979Y-97836142D01*
X158440298Y-97818474D01*
X158449052Y-97774462D01*
X158450000Y-97764840D01*
X158450000Y-97546072D01*
X158451372Y-97529648D01*
X158453856Y-97514881D01*
X158454538Y-97507282D01*
X158454580Y-97503825D01*
X158454084Y-97496210D01*
X158451000Y-97474674D01*
X158450000Y-97460639D01*
X158450000Y-96665680D01*
X158445878Y-96652995D01*
X158441757Y-96650000D01*
X157165680Y-96650000D01*
X157152995Y-96654122D01*
X157150000Y-96658243D01*
X157150000Y-97934320D01*
X156850000Y-97934320D01*
X156850000Y-96665680D01*
X156845878Y-96652995D01*
X156841757Y-96650000D01*
X155565680Y-96650000D01*
X155552995Y-96654122D01*
X155550000Y-96658243D01*
X155550000Y-97457288D01*
X155548821Y-97472519D01*
X155546493Y-97487472D01*
X155546322Y-97501445D01*
X149100500Y-97501445D01*
X149100500Y-97234320D01*
X149750000Y-97234320D01*
X149754122Y-97247005D01*
X149758243Y-97250000D01*
X151084320Y-97250000D01*
X151097005Y-97245878D01*
X151100000Y-97241757D01*
X151100000Y-95415680D01*
X151095878Y-95402995D01*
X151091757Y-95400000D01*
X149935160Y-95400000D01*
X149925538Y-95400948D01*
X149881526Y-95409702D01*
X149863858Y-95417021D01*
X149813918Y-95450389D01*
X149800389Y-95463918D01*
X149767021Y-95513858D01*
X149759702Y-95531526D01*
X149750948Y-95575538D01*
X149750000Y-95585160D01*
X149750000Y-97234320D01*
X149100500Y-97234320D01*
X149100500Y-95765479D01*
X149119407Y-95707288D01*
X149129496Y-95695475D01*
X150713852Y-94111120D01*
X152324656Y-92500316D01*
X152327781Y-92497619D01*
X152332269Y-92495425D01*
X152365880Y-92459192D01*
X152368456Y-92456516D01*
X152382248Y-92442724D01*
X152382250Y-92442721D01*
X153374656Y-91450316D01*
X153377781Y-91447619D01*
X153382269Y-91445425D01*
X153415880Y-91409192D01*
X153418456Y-91406516D01*
X153432248Y-91392724D01*
X153434793Y-91389013D01*
X153438234Y-91385094D01*
X153452185Y-91370055D01*
X153452185Y-91370054D01*
X153458401Y-91363354D01*
X153461787Y-91354866D01*
X153461789Y-91354863D01*
X153462667Y-91352662D01*
X153472981Y-91333346D01*
X153474322Y-91331391D01*
X153474323Y-91331389D01*
X153479492Y-91323854D01*
X153485641Y-91297941D01*
X153490014Y-91284116D01*
X153497294Y-91265868D01*
X153497294Y-91265866D01*
X153499883Y-91259378D01*
X153500500Y-91253085D01*
X153500500Y-91246916D01*
X153503175Y-91224057D01*
X153503230Y-91223827D01*
X153503230Y-91223825D01*
X153505340Y-91214934D01*
X153501404Y-91186012D01*
X153500500Y-91172663D01*
X153500500Y-89894440D01*
X156844901Y-89894440D01*
X156845816Y-89901437D01*
X156845816Y-89901438D01*
X156846995Y-89910452D01*
X156861633Y-90022394D01*
X156864471Y-90028845D01*
X156864472Y-90028847D01*
X156871458Y-90044724D01*
X156913605Y-90140510D01*
X156955122Y-90189900D01*
X156992100Y-90233892D01*
X156992103Y-90233894D01*
X156996639Y-90239291D01*
X157104060Y-90310796D01*
X157110788Y-90312898D01*
X157110790Y-90312899D01*
X157165647Y-90330037D01*
X157227233Y-90349278D01*
X157291744Y-90350460D01*
X157349202Y-90351514D01*
X157349204Y-90351514D01*
X157356255Y-90351643D01*
X157363058Y-90349788D01*
X157363060Y-90349788D01*
X157404828Y-90338400D01*
X157480755Y-90317700D01*
X157590724Y-90250179D01*
X157677322Y-90154507D01*
X157733588Y-90038375D01*
X157754997Y-89911120D01*
X157755133Y-89900000D01*
X157736839Y-89772259D01*
X157683428Y-89654788D01*
X157599193Y-89557028D01*
X157593276Y-89553193D01*
X157593274Y-89553191D01*
X157496824Y-89490677D01*
X157490906Y-89486841D01*
X157484150Y-89484821D01*
X157484149Y-89484820D01*
X157441335Y-89472016D01*
X157367273Y-89449866D01*
X157290644Y-89449398D01*
X157245282Y-89449121D01*
X157238231Y-89449078D01*
X157231454Y-89451015D01*
X157231453Y-89451015D01*
X157120935Y-89482601D01*
X157120933Y-89482602D01*
X157114155Y-89484539D01*
X157005019Y-89553399D01*
X156919596Y-89650122D01*
X156864754Y-89766932D01*
X156844901Y-89894440D01*
X153500500Y-89894440D01*
X153500500Y-87413091D01*
X153519407Y-87354900D01*
X153568907Y-87318936D01*
X153629023Y-87318595D01*
X153727233Y-87349278D01*
X153791744Y-87350461D01*
X153849202Y-87351514D01*
X153849204Y-87351514D01*
X153856255Y-87351643D01*
X153863058Y-87349788D01*
X153863060Y-87349788D01*
X153904828Y-87338400D01*
X153980755Y-87317700D01*
X154090724Y-87250179D01*
X154177322Y-87154507D01*
X154233588Y-87038375D01*
X154254997Y-86911120D01*
X154255133Y-86900000D01*
X154236839Y-86772259D01*
X154183428Y-86654788D01*
X154099193Y-86557028D01*
X154098565Y-86556621D01*
X154068629Y-86506603D01*
X154074067Y-86445660D01*
X154114288Y-86399552D01*
X154165130Y-86385500D01*
X154204361Y-86385500D01*
X154321762Y-86370044D01*
X154467841Y-86309536D01*
X154593282Y-86213282D01*
X154689536Y-86087841D01*
X154708536Y-86041971D01*
X154748273Y-85995446D01*
X154807767Y-85981162D01*
X154864295Y-86004577D01*
X154891464Y-86041971D01*
X154910464Y-86087841D01*
X155006718Y-86213282D01*
X155132159Y-86309536D01*
X155278238Y-86370044D01*
X155395639Y-86385500D01*
X155474361Y-86385500D01*
X155591762Y-86370044D01*
X155737841Y-86309536D01*
X155863282Y-86213282D01*
X155959536Y-86087841D01*
X155978536Y-86041971D01*
X156018273Y-85995446D01*
X156077767Y-85981162D01*
X156134295Y-86004577D01*
X156161464Y-86041971D01*
X156180464Y-86087841D01*
X156276718Y-86213282D01*
X156402159Y-86309536D01*
X156548238Y-86370044D01*
X156665639Y-86385500D01*
X156744361Y-86385500D01*
X156861762Y-86370044D01*
X156867760Y-86367560D01*
X156867762Y-86367559D01*
X156902615Y-86353123D01*
X156963612Y-86348323D01*
X157015781Y-86380292D01*
X157039195Y-86436820D01*
X157039500Y-86444587D01*
X157039500Y-87686492D01*
X157039197Y-87690617D01*
X157037575Y-87695342D01*
X157037918Y-87704476D01*
X157039430Y-87744761D01*
X157039500Y-87748474D01*
X157039500Y-87767948D01*
X157040325Y-87772378D01*
X157040661Y-87777571D01*
X157041774Y-87807208D01*
X157045380Y-87815602D01*
X157045381Y-87815605D01*
X157046317Y-87817783D01*
X157052683Y-87838734D01*
X157054791Y-87850053D01*
X157059588Y-87857835D01*
X157068768Y-87872728D01*
X157075451Y-87885595D01*
X157085964Y-87910063D01*
X157089978Y-87914949D01*
X157094342Y-87919313D01*
X157108613Y-87937368D01*
X157113532Y-87945348D01*
X157136769Y-87963018D01*
X157146839Y-87971810D01*
X157555324Y-88380295D01*
X157569124Y-88397593D01*
X157575743Y-88408119D01*
X157579087Y-88411654D01*
X157579088Y-88411655D01*
X157598895Y-88432592D01*
X157603321Y-88437598D01*
X157618697Y-88456221D01*
X157623659Y-88462766D01*
X157631559Y-88474137D01*
X157636486Y-88481990D01*
X157640466Y-88489047D01*
X157644589Y-88497219D01*
X157647982Y-88504797D01*
X157650816Y-88511841D01*
X157655693Y-88525451D01*
X157657220Y-88530064D01*
X157664337Y-88553486D01*
X157664829Y-88555161D01*
X157674269Y-88588319D01*
X157674314Y-88588476D01*
X157674841Y-88590294D01*
X157674869Y-88590389D01*
X157674901Y-88590498D01*
X157674918Y-88590556D01*
X157686489Y-88629757D01*
X157686521Y-88629863D01*
X157686527Y-88629884D01*
X157687260Y-88632312D01*
X157687360Y-88632636D01*
X157688398Y-88635902D01*
X157700336Y-88672409D01*
X157719506Y-88714371D01*
X157720939Y-88716756D01*
X157720941Y-88716760D01*
X157722194Y-88718845D01*
X157722077Y-88718916D01*
X157722155Y-88719065D01*
X157728771Y-88731205D01*
X157748000Y-88774905D01*
X157789517Y-88824296D01*
X157826495Y-88868287D01*
X157826498Y-88868289D01*
X157831034Y-88873686D01*
X157938455Y-88945191D01*
X157945183Y-88947293D01*
X157945185Y-88947294D01*
X158000041Y-88964432D01*
X158061628Y-88983673D01*
X158126139Y-88984856D01*
X158183597Y-88985909D01*
X158183599Y-88985909D01*
X158190650Y-88986038D01*
X158197453Y-88984183D01*
X158197455Y-88984183D01*
X158239223Y-88972795D01*
X158315150Y-88952095D01*
X158425119Y-88884574D01*
X158511717Y-88788902D01*
X158567983Y-88672770D01*
X158578991Y-88607336D01*
X158588758Y-88549286D01*
X158588758Y-88549281D01*
X158589392Y-88545515D01*
X158589528Y-88534395D01*
X158571234Y-88406654D01*
X158517823Y-88289183D01*
X158433588Y-88191423D01*
X158427671Y-88187588D01*
X158427669Y-88187586D01*
X158331223Y-88125074D01*
X158331221Y-88125073D01*
X158325301Y-88121236D01*
X158302258Y-88114345D01*
X158282096Y-88105785D01*
X158272409Y-88100336D01*
X158235902Y-88088398D01*
X158235720Y-88088340D01*
X158232838Y-88087424D01*
X158232794Y-88087410D01*
X158232636Y-88087360D01*
X158232482Y-88087312D01*
X158232439Y-88087299D01*
X158232406Y-88087289D01*
X158232312Y-88087260D01*
X158229883Y-88086527D01*
X158190404Y-88074874D01*
X158188494Y-88074320D01*
X158155182Y-88064837D01*
X158153531Y-88064352D01*
X158130050Y-88057215D01*
X158125461Y-88055697D01*
X158118433Y-88053179D01*
X158111837Y-88050815D01*
X158104797Y-88047982D01*
X158097219Y-88044589D01*
X158089047Y-88040466D01*
X158081990Y-88036486D01*
X158074137Y-88031559D01*
X158062766Y-88023659D01*
X158056221Y-88018697D01*
X158037598Y-88003321D01*
X158032592Y-87998895D01*
X158011535Y-87978974D01*
X158011531Y-87978971D01*
X158008119Y-87975743D01*
X157996727Y-87968469D01*
X157980007Y-87955036D01*
X157669496Y-87644525D01*
X157641719Y-87590008D01*
X157640500Y-87574521D01*
X157640500Y-86444587D01*
X157659407Y-86386396D01*
X157708907Y-86350432D01*
X157770093Y-86350432D01*
X157777385Y-86353123D01*
X157812238Y-86367559D01*
X157812240Y-86367560D01*
X157818238Y-86370044D01*
X157935639Y-86385500D01*
X158014361Y-86385500D01*
X158131762Y-86370044D01*
X158277841Y-86309536D01*
X158403282Y-86213282D01*
X158499536Y-86087841D01*
X158518536Y-86041971D01*
X158558273Y-85995446D01*
X158617767Y-85981162D01*
X158674295Y-86004577D01*
X158701464Y-86041971D01*
X158720464Y-86087841D01*
X158816718Y-86213282D01*
X158942159Y-86309536D01*
X159088238Y-86370044D01*
X159205639Y-86385500D01*
X159284361Y-86385500D01*
X159401762Y-86370044D01*
X159547841Y-86309536D01*
X159673282Y-86213282D01*
X159769536Y-86087841D01*
X159830044Y-85941762D01*
X159850682Y-85785000D01*
X159830044Y-85628238D01*
X159769536Y-85482159D01*
X159673282Y-85356718D01*
X159547841Y-85260464D01*
X159401762Y-85199956D01*
X159341458Y-85192017D01*
X159288541Y-85185050D01*
X159233316Y-85158709D01*
X159204121Y-85104938D01*
X159203310Y-85073976D01*
X159208376Y-85035493D01*
X159209253Y-85028832D01*
X159235593Y-84973606D01*
X159293148Y-84943785D01*
X159322790Y-84939471D01*
X159332859Y-84938528D01*
X159392887Y-84935986D01*
X159392888Y-84935986D01*
X159397490Y-84935791D01*
X159401969Y-84934751D01*
X159401984Y-84934749D01*
X159409230Y-84933066D01*
X159431622Y-84930500D01*
X160463096Y-84930500D01*
X160485094Y-84932975D01*
X160497209Y-84935736D01*
X160502062Y-84935871D01*
X160502066Y-84935871D01*
X160519176Y-84936345D01*
X160530886Y-84936669D01*
X160537534Y-84937078D01*
X160561599Y-84939376D01*
X160569725Y-84940494D01*
X160583375Y-84942953D01*
X160592390Y-84945017D01*
X160597626Y-84946476D01*
X160600187Y-84947190D01*
X160608883Y-84950054D01*
X160616643Y-84953014D01*
X160623638Y-84955995D01*
X160625962Y-84957092D01*
X160636691Y-84962160D01*
X160641030Y-84964342D01*
X160653270Y-84970876D01*
X160662716Y-84975919D01*
X160664147Y-84976699D01*
X160694462Y-84993578D01*
X160694673Y-84993694D01*
X160696144Y-84994505D01*
X160696194Y-84994532D01*
X160732395Y-85014234D01*
X160732499Y-85014289D01*
X160732572Y-85014329D01*
X160733604Y-85014880D01*
X160735120Y-85015690D01*
X160735254Y-85015760D01*
X160735259Y-85015763D01*
X160735365Y-85015819D01*
X160735381Y-85015827D01*
X160737941Y-85017148D01*
X160757079Y-85026854D01*
X160769700Y-85033255D01*
X160769705Y-85033257D01*
X160772191Y-85034518D01*
X160779812Y-85037360D01*
X160781495Y-85038073D01*
X160785585Y-85040796D01*
X160804270Y-85046633D01*
X160809314Y-85048361D01*
X160815402Y-85050631D01*
X160820465Y-85051894D01*
X160820437Y-85052004D01*
X160826235Y-85053497D01*
X160873728Y-85068334D01*
X160902026Y-85077175D01*
X160902027Y-85077175D01*
X160908758Y-85079278D01*
X160975072Y-85080494D01*
X161030727Y-85081514D01*
X161030729Y-85081514D01*
X161037780Y-85081643D01*
X161044583Y-85079788D01*
X161044585Y-85079788D01*
X161097068Y-85065479D01*
X161162280Y-85047700D01*
X161272249Y-84980179D01*
X161293146Y-84957092D01*
X161354115Y-84889735D01*
X161354115Y-84889734D01*
X161358847Y-84884507D01*
X161415113Y-84768375D01*
X161433489Y-84659149D01*
X161435888Y-84644891D01*
X161435888Y-84644886D01*
X161436522Y-84641120D01*
X161436658Y-84630000D01*
X161418364Y-84502259D01*
X161376783Y-84410807D01*
X161367874Y-84391212D01*
X161367873Y-84391211D01*
X161364953Y-84384788D01*
X161308701Y-84319504D01*
X161285323Y-84292372D01*
X161285322Y-84292371D01*
X161280718Y-84287028D01*
X161274801Y-84283193D01*
X161274799Y-84283191D01*
X161183522Y-84224030D01*
X161172431Y-84216841D01*
X161165675Y-84214821D01*
X161165674Y-84214820D01*
X161122860Y-84202016D01*
X161048798Y-84179866D01*
X160972169Y-84179398D01*
X160926807Y-84179121D01*
X160919756Y-84179078D01*
X160912979Y-84181015D01*
X160912978Y-84181015D01*
X160802457Y-84212602D01*
X160795680Y-84214539D01*
X160789718Y-84218301D01*
X160783278Y-84221182D01*
X160783206Y-84221020D01*
X160777237Y-84224030D01*
X160776879Y-84224169D01*
X160772193Y-84225481D01*
X160737964Y-84242840D01*
X160735400Y-84244163D01*
X160735099Y-84244321D01*
X160732379Y-84245775D01*
X160696197Y-84265466D01*
X160694541Y-84266377D01*
X160694484Y-84266409D01*
X160694462Y-84266421D01*
X160664147Y-84283300D01*
X160662716Y-84284080D01*
X160658383Y-84286393D01*
X160641030Y-84295657D01*
X160636691Y-84297839D01*
X160628082Y-84301906D01*
X160623638Y-84304004D01*
X160616643Y-84306985D01*
X160608883Y-84309945D01*
X160600187Y-84312809D01*
X160598166Y-84313372D01*
X160592390Y-84314982D01*
X160583375Y-84317046D01*
X160569725Y-84319505D01*
X160561598Y-84320623D01*
X160556974Y-84321065D01*
X160537538Y-84322921D01*
X160530887Y-84323330D01*
X160497204Y-84324264D01*
X160485103Y-84326934D01*
X160484011Y-84327175D01*
X160462680Y-84329500D01*
X159431109Y-84329500D01*
X159407699Y-84326692D01*
X159402227Y-84325360D01*
X159402217Y-84325359D01*
X159397493Y-84324209D01*
X159332850Y-84321471D01*
X159322787Y-84320528D01*
X159293145Y-84316213D01*
X159238285Y-84289121D01*
X159209253Y-84231168D01*
X159195891Y-84129674D01*
X159195044Y-84123238D01*
X159134536Y-83977159D01*
X159121190Y-83959766D01*
X159100767Y-83902090D01*
X159118145Y-83843425D01*
X159166687Y-83806178D01*
X159199733Y-83800500D01*
X163601000Y-83800500D01*
X163659191Y-83819407D01*
X163695155Y-83868907D01*
X163700000Y-83899500D01*
X163700000Y-89100000D01*
X179649877Y-89100000D01*
X179708068Y-89118907D01*
X179736253Y-89150625D01*
X179950445Y-89533091D01*
X180203677Y-89912079D01*
X180485862Y-90270030D01*
X180795263Y-90604737D01*
X181129970Y-90914138D01*
X181487921Y-91196323D01*
X181586197Y-91261989D01*
X181853868Y-91440841D01*
X181866909Y-91449555D01*
X182264596Y-91672271D01*
X182266354Y-91673082D01*
X182266361Y-91673085D01*
X182676750Y-91862277D01*
X182676761Y-91862282D01*
X182678532Y-91863098D01*
X182680359Y-91863772D01*
X182680371Y-91863777D01*
X183086002Y-92013421D01*
X183106164Y-92020859D01*
X183108034Y-92021387D01*
X183108039Y-92021388D01*
X183264374Y-92065479D01*
X183544855Y-92144583D01*
X183546747Y-92144959D01*
X183546758Y-92144962D01*
X183745597Y-92184513D01*
X183991902Y-92233506D01*
X184444547Y-92287080D01*
X184720563Y-92297925D01*
X184888538Y-92304525D01*
X184888539Y-92304525D01*
X184898825Y-92304929D01*
X184900000Y-92305136D01*
X184917764Y-92302004D01*
X184934953Y-92300500D01*
X187500500Y-92300500D01*
X187558691Y-92319407D01*
X187594655Y-92368907D01*
X187599500Y-92399500D01*
X187599500Y-109178498D01*
X187580593Y-109236689D01*
X187531093Y-109272653D01*
X187469907Y-109272653D01*
X187446655Y-109261574D01*
X187430516Y-109251114D01*
X187430514Y-109251113D01*
X187424594Y-109247276D01*
X187417838Y-109245256D01*
X187417837Y-109245255D01*
X187375023Y-109232451D01*
X187300961Y-109210301D01*
X187224332Y-109209833D01*
X187178970Y-109209556D01*
X187171919Y-109209513D01*
X187165142Y-109211450D01*
X187165141Y-109211450D01*
X187054623Y-109243036D01*
X187054621Y-109243037D01*
X187047843Y-109244974D01*
X187041878Y-109248738D01*
X187041875Y-109248739D01*
X187004103Y-109272571D01*
X186944801Y-109287632D01*
X186887971Y-109264959D01*
X186855322Y-109213213D01*
X186852346Y-109192557D01*
X186852276Y-109190677D01*
X186850570Y-109145239D01*
X186850500Y-109141526D01*
X186850500Y-109122052D01*
X186849675Y-109117622D01*
X186849338Y-109112417D01*
X186849024Y-109104036D01*
X186848226Y-109082792D01*
X186844620Y-109074398D01*
X186844619Y-109074395D01*
X186843683Y-109072217D01*
X186837317Y-109051266D01*
X186835209Y-109039947D01*
X186821232Y-109017271D01*
X186814548Y-109004404D01*
X186806795Y-108986358D01*
X186806794Y-108986357D01*
X186804036Y-108979937D01*
X186800022Y-108975051D01*
X186795658Y-108970687D01*
X186781387Y-108952632D01*
X186781264Y-108952433D01*
X186776468Y-108944652D01*
X186753231Y-108926982D01*
X186743161Y-108918190D01*
X186350320Y-108525349D01*
X186347620Y-108522220D01*
X186345425Y-108517731D01*
X186321401Y-108495445D01*
X186309178Y-108484107D01*
X186306502Y-108481531D01*
X186292723Y-108467752D01*
X186289013Y-108465207D01*
X186285100Y-108461771D01*
X186270055Y-108447815D01*
X186263354Y-108441599D01*
X186252664Y-108437334D01*
X186233348Y-108427020D01*
X186231393Y-108425679D01*
X186231390Y-108425678D01*
X186223854Y-108420508D01*
X186197941Y-108414359D01*
X186184116Y-108409986D01*
X186165868Y-108402706D01*
X186165866Y-108402706D01*
X186159378Y-108400117D01*
X186153085Y-108399500D01*
X186146916Y-108399500D01*
X186124057Y-108396825D01*
X186123827Y-108396770D01*
X186123825Y-108396770D01*
X186114934Y-108394660D01*
X186087174Y-108398438D01*
X186086013Y-108398596D01*
X186072663Y-108399500D01*
X183287822Y-108399500D01*
X183283697Y-108399197D01*
X183278972Y-108397575D01*
X183229552Y-108399430D01*
X183225839Y-108399500D01*
X183206366Y-108399500D01*
X183201936Y-108400325D01*
X183196743Y-108400661D01*
X183177612Y-108401379D01*
X183176240Y-108401431D01*
X183167105Y-108401774D01*
X183158708Y-108405382D01*
X183158707Y-108405382D01*
X183156526Y-108406319D01*
X183135577Y-108412683D01*
X183133250Y-108413116D01*
X183133245Y-108413118D01*
X183124261Y-108414791D01*
X183103100Y-108427835D01*
X183101586Y-108428768D01*
X183088718Y-108435452D01*
X183070672Y-108443205D01*
X183070671Y-108443206D01*
X183064251Y-108445964D01*
X183059365Y-108449978D01*
X183055001Y-108454342D01*
X183036946Y-108468613D01*
X183028966Y-108473532D01*
X183011296Y-108496769D01*
X183002504Y-108506839D01*
X182069504Y-109439839D01*
X182014987Y-109467616D01*
X181954555Y-109458045D01*
X181911290Y-109414780D01*
X181900500Y-109369835D01*
X181900500Y-109180252D01*
X181894130Y-109148226D01*
X181890770Y-109131334D01*
X181890769Y-109131332D01*
X181888867Y-109121769D01*
X181844552Y-109055448D01*
X181778231Y-109011133D01*
X181768668Y-109009231D01*
X181768666Y-109009230D01*
X181744402Y-109004404D01*
X181719748Y-108999500D01*
X180438049Y-108999500D01*
X180391996Y-108988136D01*
X180376394Y-108979937D01*
X180344360Y-108963103D01*
X180333115Y-108956200D01*
X180227909Y-108881514D01*
X180218802Y-108874204D01*
X180191495Y-108849500D01*
X180091525Y-108759059D01*
X180087652Y-108756676D01*
X180087648Y-108756673D01*
X180081945Y-108753164D01*
X180063822Y-108738851D01*
X179404073Y-108079102D01*
X179390273Y-108061804D01*
X179383652Y-108051275D01*
X179380315Y-108047747D01*
X179380312Y-108047744D01*
X179360500Y-108026803D01*
X179356075Y-108021798D01*
X179340698Y-108003174D01*
X179335735Y-107996628D01*
X179327835Y-107985257D01*
X179322908Y-107977404D01*
X179318928Y-107970347D01*
X179314804Y-107962174D01*
X179311412Y-107954597D01*
X179308577Y-107947552D01*
X179303697Y-107933933D01*
X179302179Y-107929344D01*
X179295042Y-107905863D01*
X179294557Y-107904212D01*
X179287440Y-107879212D01*
X179285074Y-107870900D01*
X179284520Y-107868990D01*
X179272867Y-107829511D01*
X179272134Y-107827082D01*
X179272034Y-107826758D01*
X179270997Y-107823495D01*
X179269147Y-107817835D01*
X179263664Y-107801069D01*
X179259060Y-107786989D01*
X179239889Y-107745024D01*
X179237201Y-107740550D01*
X179237234Y-107740530D01*
X179230536Y-107728412D01*
X179228252Y-107723389D01*
X179208428Y-107679788D01*
X179124193Y-107582028D01*
X179118276Y-107578193D01*
X179118274Y-107578191D01*
X179025348Y-107517961D01*
X179015906Y-107511841D01*
X179009150Y-107509821D01*
X179009149Y-107509820D01*
X178945140Y-107490677D01*
X178892273Y-107474866D01*
X178815644Y-107474398D01*
X178770282Y-107474121D01*
X178763231Y-107474078D01*
X178756450Y-107476016D01*
X178744559Y-107479414D01*
X178683413Y-107477225D01*
X178635231Y-107439513D01*
X178618418Y-107380683D01*
X178628261Y-107341059D01*
X178628643Y-107340272D01*
X178664439Y-107266389D01*
X178682925Y-107156509D01*
X178685214Y-107142905D01*
X178685214Y-107142900D01*
X178685848Y-107139134D01*
X178685984Y-107128014D01*
X178667690Y-107000273D01*
X178644413Y-106949078D01*
X178617200Y-106889226D01*
X178617199Y-106889225D01*
X178614279Y-106882802D01*
X178530044Y-106785042D01*
X178524127Y-106781207D01*
X178524125Y-106781205D01*
X178447007Y-106731221D01*
X178421757Y-106714855D01*
X178415001Y-106712835D01*
X178415000Y-106712834D01*
X178372186Y-106700030D01*
X178298124Y-106677880D01*
X178221495Y-106677412D01*
X178176133Y-106677135D01*
X178169082Y-106677092D01*
X178162305Y-106679029D01*
X178162304Y-106679029D01*
X178051786Y-106710615D01*
X178051784Y-106710616D01*
X178045006Y-106712553D01*
X177935870Y-106781413D01*
X177850447Y-106878136D01*
X177795605Y-106994946D01*
X177794847Y-106999812D01*
X177760314Y-107049132D01*
X177702463Y-107069053D01*
X177643950Y-107051165D01*
X177630729Y-107040072D01*
X176808313Y-106217656D01*
X176780536Y-106163139D01*
X176790107Y-106102707D01*
X176833372Y-106059442D01*
X176856452Y-106052366D01*
X176856255Y-106051643D01*
X176980755Y-106017700D01*
X177090724Y-105950179D01*
X177122430Y-105915151D01*
X177172590Y-105859735D01*
X177172590Y-105859734D01*
X177177322Y-105854507D01*
X177233588Y-105738375D01*
X177254997Y-105611120D01*
X177255133Y-105600000D01*
X177236839Y-105472259D01*
X177221236Y-105437942D01*
X177214189Y-105415911D01*
X177212272Y-105406073D01*
X177210429Y-105401575D01*
X177209034Y-105396910D01*
X177209470Y-105396779D01*
X177205923Y-105384465D01*
X177205761Y-105383533D01*
X177204733Y-105375854D01*
X177203614Y-105363963D01*
X177203251Y-105358455D01*
X177202456Y-105337577D01*
X177202384Y-105334017D01*
X177202322Y-105304314D01*
X177202337Y-105302397D01*
X177202986Y-105264824D01*
X177202998Y-105264209D01*
X177203289Y-105251847D01*
X177204048Y-105219517D01*
X177204066Y-105218685D01*
X177205035Y-105168815D01*
X177205068Y-105166423D01*
X177205161Y-105154482D01*
X177205365Y-105128306D01*
X177205365Y-105128303D01*
X177205403Y-105123391D01*
X177202292Y-105107262D01*
X177200500Y-105088512D01*
X177200500Y-104488113D01*
X178894527Y-104488113D01*
X178894662Y-104490778D01*
X178894662Y-104490783D01*
X178912964Y-104852058D01*
X178913162Y-104855971D01*
X178913586Y-104858618D01*
X178963295Y-105168961D01*
X178971416Y-105219665D01*
X178972122Y-105222245D01*
X178972122Y-105222246D01*
X179041934Y-105477435D01*
X179068608Y-105574941D01*
X179069588Y-105577428D01*
X179069590Y-105577435D01*
X179135621Y-105745062D01*
X179203602Y-105917642D01*
X179204844Y-105920008D01*
X179204846Y-105920012D01*
X179257107Y-106019554D01*
X179374817Y-106243759D01*
X179376309Y-106245979D01*
X179376310Y-106245981D01*
X179514433Y-106451528D01*
X179580252Y-106549477D01*
X179581978Y-106551527D01*
X179581979Y-106551528D01*
X179761591Y-106764824D01*
X179817502Y-106831221D01*
X179819441Y-106833074D01*
X180047660Y-107051165D01*
X180083792Y-107085694D01*
X180085912Y-107087321D01*
X180085917Y-107087325D01*
X180153436Y-107139134D01*
X180376008Y-107309919D01*
X180690731Y-107501274D01*
X180693156Y-107502410D01*
X180693158Y-107502411D01*
X181021843Y-107656378D01*
X181024279Y-107657519D01*
X181026820Y-107658389D01*
X181026825Y-107658391D01*
X181266792Y-107740550D01*
X181372751Y-107776828D01*
X181732070Y-107857804D01*
X182098033Y-107899500D01*
X182466358Y-107901428D01*
X182832737Y-107863567D01*
X183123872Y-107801153D01*
X183190272Y-107786918D01*
X183190273Y-107786918D01*
X183192884Y-107786358D01*
X183195419Y-107785520D01*
X183195425Y-107785518D01*
X183540044Y-107671546D01*
X183540049Y-107671544D01*
X183542586Y-107670705D01*
X183877752Y-107517961D01*
X184194461Y-107329913D01*
X184489009Y-107108760D01*
X184498371Y-107100000D01*
X184755987Y-106858926D01*
X184755988Y-106858925D01*
X184757950Y-106857089D01*
X184818496Y-106786698D01*
X184996388Y-106579881D01*
X184996391Y-106579877D01*
X184998138Y-106577846D01*
X185206762Y-106274295D01*
X185381383Y-105949989D01*
X185393556Y-105920012D01*
X185518950Y-105611202D01*
X185519958Y-105608720D01*
X185521353Y-105603825D01*
X185567957Y-105440218D01*
X185620865Y-105254482D01*
X185682925Y-104891418D01*
X185705411Y-104523775D01*
X185705494Y-104500000D01*
X185694962Y-104305525D01*
X185685720Y-104134877D01*
X185685719Y-104134868D01*
X185685575Y-104132209D01*
X185674648Y-104065479D01*
X185626484Y-103771357D01*
X185626483Y-103771354D01*
X185626052Y-103768720D01*
X185527620Y-103413786D01*
X185523675Y-103403871D01*
X185392423Y-103074051D01*
X185391431Y-103071558D01*
X185388840Y-103066663D01*
X185261755Y-102826643D01*
X185219078Y-102746041D01*
X185212187Y-102735862D01*
X185014082Y-102443262D01*
X185014079Y-102443259D01*
X185012578Y-102441041D01*
X184774346Y-102160128D01*
X184507168Y-101906586D01*
X184214172Y-101683382D01*
X184205342Y-101678055D01*
X183901079Y-101494512D01*
X183901078Y-101494512D01*
X183898783Y-101493127D01*
X183564691Y-101338047D01*
X183562168Y-101337193D01*
X183562163Y-101337191D01*
X183318310Y-101254652D01*
X183215805Y-101219956D01*
X182917280Y-101153774D01*
X182858818Y-101140813D01*
X182858817Y-101140813D01*
X182856206Y-101140234D01*
X182565249Y-101108112D01*
X182492755Y-101100109D01*
X182492753Y-101100109D01*
X182490100Y-101099816D01*
X182487438Y-101099811D01*
X182487432Y-101099811D01*
X182300705Y-101099485D01*
X182121770Y-101099173D01*
X182119105Y-101099458D01*
X182119101Y-101099458D01*
X181758192Y-101138028D01*
X181758190Y-101138028D01*
X181755526Y-101138313D01*
X181752911Y-101138883D01*
X181752906Y-101138884D01*
X181599836Y-101172259D01*
X181395650Y-101216779D01*
X181046354Y-101333652D01*
X180711723Y-101487565D01*
X180709419Y-101488944D01*
X180709417Y-101488945D01*
X180397962Y-101675347D01*
X180397956Y-101675351D01*
X180395672Y-101676718D01*
X180393545Y-101678327D01*
X180393543Y-101678328D01*
X180136330Y-101872856D01*
X180101898Y-101898897D01*
X180033633Y-101963227D01*
X179849911Y-102136358D01*
X179833837Y-102151505D01*
X179771585Y-102224393D01*
X179607183Y-102416883D01*
X179594626Y-102431585D01*
X179387062Y-102735862D01*
X179385804Y-102738218D01*
X179385801Y-102738223D01*
X179214836Y-103058412D01*
X179213574Y-103060776D01*
X179212576Y-103063259D01*
X179212574Y-103063263D01*
X179112937Y-103311120D01*
X179076192Y-103402526D01*
X179075466Y-103405110D01*
X179075465Y-103405112D01*
X179073027Y-103413786D01*
X178976521Y-103757115D01*
X178915729Y-104120393D01*
X178915575Y-104123064D01*
X178915574Y-104123073D01*
X178905055Y-104305525D01*
X178894527Y-104488113D01*
X177200500Y-104488113D01*
X177200500Y-101668481D01*
X177200499Y-101668475D01*
X177200499Y-101636567D01*
X177198093Y-101629160D01*
X177198092Y-101629157D01*
X177193046Y-101613627D01*
X177189420Y-101598524D01*
X177186865Y-101582392D01*
X177185646Y-101574696D01*
X177174695Y-101553204D01*
X177168751Y-101538855D01*
X177163704Y-101523321D01*
X177163704Y-101523320D01*
X177161296Y-101515910D01*
X177147111Y-101496386D01*
X177139004Y-101483156D01*
X177128050Y-101461658D01*
X177038342Y-101371950D01*
X176510909Y-100844516D01*
X176510905Y-100844513D01*
X176488342Y-100821950D01*
X176466846Y-100810998D01*
X176453605Y-100802883D01*
X176440395Y-100793285D01*
X176434090Y-100788704D01*
X176411143Y-100781248D01*
X176396797Y-100775305D01*
X176375304Y-100764354D01*
X176367611Y-100763136D01*
X176367609Y-100763135D01*
X176351481Y-100760581D01*
X176336380Y-100756956D01*
X176313433Y-100749500D01*
X173681668Y-100749500D01*
X173663106Y-100747744D01*
X173659213Y-100747001D01*
X173646619Y-100744597D01*
X173603722Y-100744929D01*
X173603681Y-100744930D01*
X173603629Y-100744930D01*
X173601367Y-100744961D01*
X173601207Y-100744964D01*
X173551316Y-100745933D01*
X173550482Y-100745951D01*
X173550476Y-100745951D01*
X173505701Y-100747003D01*
X173505315Y-100747010D01*
X173472417Y-100747579D01*
X173467602Y-100747662D01*
X173465685Y-100747677D01*
X173462408Y-100747670D01*
X173435966Y-100747615D01*
X173432436Y-100747543D01*
X173411529Y-100746747D01*
X173406052Y-100746386D01*
X173394135Y-100745265D01*
X173386441Y-100744233D01*
X173385920Y-100744143D01*
X173385501Y-100744070D01*
X173368291Y-100739111D01*
X173368201Y-100739363D01*
X173366031Y-100738589D01*
X173363927Y-100737727D01*
X173361754Y-100737063D01*
X173361745Y-100737060D01*
X173329871Y-100727324D01*
X173329868Y-100727323D01*
X173327687Y-100726657D01*
X173325733Y-100726252D01*
X173322560Y-100725372D01*
X173237273Y-100699866D01*
X173158810Y-100699387D01*
X173115282Y-100699121D01*
X173108231Y-100699078D01*
X173101454Y-100701015D01*
X173101453Y-100701015D01*
X172990938Y-100732600D01*
X172990935Y-100732601D01*
X172984155Y-100734539D01*
X172981316Y-100736331D01*
X172979200Y-100737116D01*
X172976081Y-100737724D01*
X172971582Y-100739567D01*
X172966920Y-100740961D01*
X172966790Y-100740527D01*
X172954465Y-100744076D01*
X172953525Y-100744239D01*
X172945864Y-100745265D01*
X172933947Y-100746386D01*
X172928470Y-100746747D01*
X172907563Y-100747543D01*
X172904032Y-100747615D01*
X172878017Y-100747669D01*
X172874400Y-100747677D01*
X172872486Y-100747662D01*
X172863208Y-100747502D01*
X172834751Y-100747011D01*
X172834298Y-100747002D01*
X172789517Y-100745951D01*
X172788685Y-100745933D01*
X172738815Y-100744964D01*
X172738795Y-100744964D01*
X172738758Y-100744963D01*
X172736505Y-100744932D01*
X172736464Y-100744932D01*
X172736418Y-100744931D01*
X172723052Y-100744827D01*
X172698299Y-100744635D01*
X172698298Y-100744635D01*
X172693386Y-100744597D01*
X172677409Y-100747679D01*
X172677259Y-100747708D01*
X172658507Y-100749500D01*
X169186567Y-100749500D01*
X169163620Y-100756956D01*
X169148519Y-100760581D01*
X169132391Y-100763135D01*
X169132389Y-100763136D01*
X169124696Y-100764354D01*
X169103201Y-100775306D01*
X169088855Y-100781249D01*
X169073320Y-100786296D01*
X169073316Y-100786298D01*
X169065911Y-100788704D01*
X169046390Y-100802887D01*
X169033151Y-100810999D01*
X169018597Y-100818414D01*
X169018595Y-100818416D01*
X169011658Y-100821950D01*
X168989095Y-100844513D01*
X168989091Y-100844516D01*
X167428608Y-102404999D01*
X167414241Y-102416882D01*
X167400356Y-102426316D01*
X167396945Y-102429781D01*
X167396943Y-102429782D01*
X167370250Y-102456892D01*
X167368576Y-102458613D01*
X167368471Y-102458722D01*
X167333911Y-102494652D01*
X167333336Y-102495252D01*
X167333279Y-102495311D01*
X167302575Y-102527492D01*
X167302149Y-102527936D01*
X167275862Y-102555147D01*
X167274516Y-102556514D01*
X167253579Y-102577363D01*
X167251016Y-102579825D01*
X167235636Y-102594078D01*
X167231486Y-102597713D01*
X167222304Y-102605315D01*
X167216159Y-102610011D01*
X167215382Y-102610558D01*
X167199660Y-102619252D01*
X167199774Y-102619493D01*
X167197706Y-102620474D01*
X167195599Y-102621356D01*
X167193585Y-102622427D01*
X167193582Y-102622429D01*
X167187796Y-102625508D01*
X167177375Y-102629714D01*
X167177378Y-102629720D01*
X167170939Y-102632600D01*
X167164155Y-102634539D01*
X167161316Y-102636330D01*
X167159199Y-102637117D01*
X167156081Y-102637724D01*
X167151586Y-102639565D01*
X167146918Y-102640961D01*
X167146788Y-102640527D01*
X167134465Y-102644076D01*
X167133525Y-102644239D01*
X167125864Y-102645265D01*
X167113947Y-102646386D01*
X167108470Y-102646747D01*
X167087563Y-102647543D01*
X167084032Y-102647615D01*
X167058017Y-102647669D01*
X167054400Y-102647677D01*
X167052486Y-102647662D01*
X167044575Y-102647526D01*
X167014751Y-102647011D01*
X167014298Y-102647002D01*
X166969517Y-102645951D01*
X166968685Y-102645933D01*
X166918815Y-102644964D01*
X166918795Y-102644964D01*
X166918758Y-102644963D01*
X166916505Y-102644932D01*
X166916464Y-102644932D01*
X166916418Y-102644931D01*
X166903052Y-102644827D01*
X166878299Y-102644635D01*
X166878298Y-102644635D01*
X166873386Y-102644597D01*
X166857409Y-102647679D01*
X166857259Y-102647708D01*
X166838507Y-102649500D01*
X162099500Y-102649500D01*
X162041309Y-102630593D01*
X162005345Y-102581093D01*
X162000500Y-102550500D01*
X162000500Y-99964479D01*
X162019407Y-99906288D01*
X162068907Y-99870324D01*
X162130093Y-99870324D01*
X162169504Y-99894475D01*
X162822271Y-100547243D01*
X163420929Y-101145901D01*
X163434731Y-101163202D01*
X163441348Y-101173724D01*
X163444683Y-101177249D01*
X163444689Y-101177257D01*
X163464500Y-101198197D01*
X163468923Y-101203200D01*
X163483466Y-101220813D01*
X163484302Y-101221826D01*
X163489261Y-101228367D01*
X163492345Y-101232805D01*
X163497164Y-101239742D01*
X163502091Y-101247595D01*
X163506071Y-101254652D01*
X163510194Y-101262824D01*
X163513587Y-101270402D01*
X163516421Y-101277446D01*
X163521298Y-101291056D01*
X163522825Y-101295669D01*
X163529942Y-101319091D01*
X163530434Y-101320766D01*
X163539874Y-101353924D01*
X163539919Y-101354081D01*
X163540446Y-101355899D01*
X163540474Y-101355994D01*
X163540506Y-101356103D01*
X163540523Y-101356161D01*
X163552094Y-101395362D01*
X163552126Y-101395468D01*
X163552132Y-101395489D01*
X163552865Y-101397917D01*
X163552965Y-101398241D01*
X163554003Y-101401507D01*
X163565941Y-101438014D01*
X163567092Y-101440534D01*
X163567095Y-101440541D01*
X163578616Y-101465759D01*
X163585111Y-101479976D01*
X163586544Y-101482361D01*
X163586546Y-101482365D01*
X163587799Y-101484450D01*
X163587682Y-101484521D01*
X163587760Y-101484670D01*
X163594376Y-101496810D01*
X163613605Y-101540510D01*
X163649638Y-101583376D01*
X163692100Y-101633892D01*
X163692103Y-101633894D01*
X163696639Y-101639291D01*
X163804060Y-101710796D01*
X163810788Y-101712898D01*
X163810790Y-101712899D01*
X163843167Y-101723014D01*
X163927233Y-101749278D01*
X163991744Y-101750460D01*
X164049202Y-101751514D01*
X164049204Y-101751514D01*
X164056255Y-101751643D01*
X164063058Y-101749788D01*
X164063060Y-101749788D01*
X164104828Y-101738400D01*
X164180755Y-101717700D01*
X164290724Y-101650179D01*
X164334657Y-101601643D01*
X164372590Y-101559735D01*
X164372590Y-101559734D01*
X164377322Y-101554507D01*
X164414661Y-101477439D01*
X164430512Y-101444724D01*
X164430512Y-101444723D01*
X164433588Y-101438375D01*
X164446357Y-101362476D01*
X164454363Y-101314891D01*
X164454363Y-101314886D01*
X164454997Y-101311120D01*
X164455133Y-101300000D01*
X164436839Y-101172259D01*
X164403842Y-101099687D01*
X164386349Y-101061212D01*
X164386348Y-101061211D01*
X164383428Y-101054788D01*
X164320942Y-100982269D01*
X164303798Y-100962372D01*
X164303797Y-100962371D01*
X164299193Y-100957028D01*
X164293276Y-100953193D01*
X164293274Y-100953191D01*
X164196828Y-100890679D01*
X164196826Y-100890678D01*
X164190906Y-100886841D01*
X164167863Y-100879950D01*
X164147701Y-100871390D01*
X164138014Y-100865941D01*
X164101507Y-100854003D01*
X164101325Y-100853945D01*
X164098443Y-100853029D01*
X164098399Y-100853015D01*
X164098241Y-100852965D01*
X164098087Y-100852917D01*
X164098044Y-100852904D01*
X164098011Y-100852894D01*
X164097917Y-100852865D01*
X164095488Y-100852132D01*
X164056009Y-100840479D01*
X164054099Y-100839925D01*
X164020787Y-100830442D01*
X164019136Y-100829957D01*
X163995655Y-100822820D01*
X163991066Y-100821302D01*
X163983006Y-100818414D01*
X163977442Y-100816420D01*
X163970402Y-100813587D01*
X163962824Y-100810194D01*
X163954652Y-100806071D01*
X163947595Y-100802091D01*
X163939742Y-100797164D01*
X163938217Y-100796104D01*
X163928367Y-100789261D01*
X163921826Y-100784302D01*
X163920205Y-100782963D01*
X163903200Y-100768923D01*
X163898197Y-100764500D01*
X163877140Y-100744579D01*
X163877136Y-100744576D01*
X163873724Y-100741348D01*
X163862332Y-100734074D01*
X163845612Y-100720641D01*
X162529496Y-99404525D01*
X162501719Y-99350008D01*
X162500500Y-99334521D01*
X162500500Y-99219748D01*
X179049500Y-99219748D01*
X179050448Y-99224512D01*
X179058313Y-99264052D01*
X179061133Y-99278231D01*
X179105448Y-99344552D01*
X179171769Y-99388867D01*
X179181332Y-99390769D01*
X179181334Y-99390770D01*
X179204005Y-99395279D01*
X179230252Y-99400500D01*
X181869748Y-99400500D01*
X181895995Y-99395279D01*
X181918666Y-99390770D01*
X181918668Y-99390769D01*
X181928231Y-99388867D01*
X181994552Y-99344552D01*
X182038867Y-99278231D01*
X182041688Y-99264052D01*
X182049552Y-99224512D01*
X182050500Y-99219748D01*
X182050500Y-95580252D01*
X182041701Y-95536014D01*
X182040770Y-95531334D01*
X182040769Y-95531332D01*
X182038867Y-95521769D01*
X181994552Y-95455448D01*
X181928231Y-95411133D01*
X181918668Y-95409231D01*
X181918666Y-95409230D01*
X181892984Y-95404122D01*
X181869748Y-95399500D01*
X179230252Y-95399500D01*
X179207016Y-95404122D01*
X179181334Y-95409230D01*
X179181332Y-95409231D01*
X179171769Y-95411133D01*
X179105448Y-95455448D01*
X179061133Y-95521769D01*
X179059231Y-95531332D01*
X179059230Y-95531334D01*
X179058299Y-95536014D01*
X179049500Y-95580252D01*
X179049500Y-99219748D01*
X162500500Y-99219748D01*
X162500500Y-91953508D01*
X162500803Y-91949383D01*
X162502425Y-91944658D01*
X162500570Y-91895239D01*
X162500500Y-91891526D01*
X162500500Y-91872052D01*
X162499675Y-91867622D01*
X162499338Y-91862417D01*
X162499230Y-91859520D01*
X162498226Y-91832792D01*
X162494620Y-91824398D01*
X162494619Y-91824395D01*
X162493683Y-91822217D01*
X162487317Y-91801266D01*
X162485209Y-91789947D01*
X162471232Y-91767271D01*
X162464548Y-91754404D01*
X162456793Y-91736353D01*
X162456792Y-91736351D01*
X162454036Y-91729937D01*
X162450023Y-91725051D01*
X162445657Y-91720685D01*
X162431385Y-91702629D01*
X162431264Y-91702432D01*
X162431263Y-91702431D01*
X162426468Y-91694652D01*
X162403239Y-91676988D01*
X162393161Y-91668189D01*
X161950324Y-91225353D01*
X161947619Y-91222220D01*
X161945425Y-91217731D01*
X161909178Y-91184107D01*
X161906502Y-91181531D01*
X161892723Y-91167752D01*
X161889013Y-91165207D01*
X161885100Y-91161771D01*
X161870055Y-91147815D01*
X161863354Y-91141599D01*
X161852664Y-91137334D01*
X161833348Y-91127020D01*
X161831393Y-91125679D01*
X161831390Y-91125678D01*
X161823854Y-91120508D01*
X161797941Y-91114359D01*
X161784116Y-91109986D01*
X161765868Y-91102706D01*
X161765866Y-91102706D01*
X161759378Y-91100117D01*
X161753085Y-91099500D01*
X161746916Y-91099500D01*
X161724057Y-91096825D01*
X161723827Y-91096770D01*
X161723825Y-91096770D01*
X161714934Y-91094660D01*
X161686013Y-91098596D01*
X161672663Y-91099500D01*
X159553774Y-91099500D01*
X159533340Y-91097368D01*
X159523940Y-91095385D01*
X159523939Y-91095385D01*
X159519175Y-91094380D01*
X159469135Y-91093800D01*
X159466685Y-91093742D01*
X159442394Y-91092846D01*
X159418784Y-91091976D01*
X159416219Y-91091848D01*
X159375463Y-91089285D01*
X159373172Y-91089114D01*
X159336441Y-91085947D01*
X159334927Y-91085805D01*
X159298247Y-91082074D01*
X159298203Y-91082069D01*
X159260496Y-91078113D01*
X159258299Y-91077895D01*
X159253160Y-91077411D01*
X159219445Y-91074239D01*
X159219372Y-91074233D01*
X159219164Y-91074213D01*
X159218916Y-91074192D01*
X159218900Y-91074191D01*
X159214882Y-91073857D01*
X159214799Y-91073851D01*
X159214635Y-91073837D01*
X159214439Y-91073823D01*
X159214375Y-91073818D01*
X159172653Y-91070822D01*
X159172645Y-91070821D01*
X159172527Y-91070813D01*
X159169548Y-91070621D01*
X159169216Y-91070602D01*
X159169149Y-91070599D01*
X159169067Y-91070594D01*
X159166509Y-91070465D01*
X159166458Y-91070463D01*
X159166366Y-91070458D01*
X159166221Y-91070452D01*
X159166162Y-91070449D01*
X159153442Y-91069898D01*
X159119281Y-91068419D01*
X159119120Y-91068413D01*
X159119043Y-91068410D01*
X159116453Y-91068317D01*
X159116395Y-91068315D01*
X159116361Y-91068314D01*
X159116258Y-91068311D01*
X159116261Y-91068311D01*
X159116237Y-91068310D01*
X159116017Y-91068304D01*
X159115792Y-91068299D01*
X159115745Y-91068298D01*
X159114588Y-91068273D01*
X159112886Y-91068237D01*
X159112737Y-91068235D01*
X159112688Y-91068234D01*
X159069987Y-91067644D01*
X159069980Y-91067644D01*
X159069970Y-91067643D01*
X159069539Y-91067637D01*
X159069467Y-91067636D01*
X159069466Y-91067636D01*
X159066628Y-91067597D01*
X159063807Y-91067884D01*
X159063798Y-91067884D01*
X159026524Y-91071671D01*
X159015914Y-91072176D01*
X159000682Y-91072083D01*
X159000681Y-91072083D01*
X158993630Y-91072040D01*
X158986854Y-91073977D01*
X158986851Y-91073977D01*
X158876334Y-91105563D01*
X158876332Y-91105564D01*
X158869554Y-91107501D01*
X158760418Y-91176361D01*
X158674995Y-91273084D01*
X158620153Y-91389894D01*
X158600300Y-91517402D01*
X158617032Y-91645356D01*
X158619870Y-91651807D01*
X158619871Y-91651809D01*
X158666019Y-91756689D01*
X158669004Y-91763472D01*
X158700767Y-91801259D01*
X158747499Y-91856854D01*
X158747502Y-91856856D01*
X158752038Y-91862253D01*
X158859459Y-91933758D01*
X158866187Y-91935860D01*
X158866189Y-91935861D01*
X158921045Y-91952999D01*
X158982632Y-91972240D01*
X159047143Y-91973423D01*
X159104601Y-91974476D01*
X159104603Y-91974476D01*
X159111654Y-91974605D01*
X159118457Y-91972750D01*
X159118459Y-91972750D01*
X159160921Y-91961173D01*
X159236154Y-91940662D01*
X159346123Y-91873141D01*
X159354599Y-91863777D01*
X159423104Y-91788094D01*
X159428294Y-91782776D01*
X159428575Y-91782509D01*
X159428578Y-91782505D01*
X159432103Y-91779155D01*
X159447952Y-91756689D01*
X159448726Y-91755608D01*
X159455943Y-91745664D01*
X159505424Y-91709675D01*
X159521854Y-91705931D01*
X159525435Y-91705786D01*
X159529925Y-91704751D01*
X159529929Y-91704750D01*
X159537377Y-91703032D01*
X159559624Y-91700500D01*
X161534521Y-91700500D01*
X161592712Y-91719407D01*
X161604525Y-91729496D01*
X161870504Y-91995475D01*
X161898281Y-92049992D01*
X161899500Y-92065479D01*
X161899500Y-93094100D01*
X161880593Y-93152291D01*
X161831093Y-93188255D01*
X161769907Y-93188255D01*
X161730496Y-93164103D01*
X161260932Y-92694538D01*
X161260910Y-92694517D01*
X161260909Y-92694516D01*
X161260905Y-92694513D01*
X161238342Y-92671950D01*
X161216846Y-92660998D01*
X161203605Y-92652883D01*
X161190395Y-92643285D01*
X161184090Y-92638704D01*
X161161143Y-92631248D01*
X161146794Y-92625304D01*
X161125304Y-92614354D01*
X161117611Y-92613136D01*
X161117609Y-92613135D01*
X161101481Y-92610581D01*
X161086380Y-92606956D01*
X161063433Y-92599500D01*
X155281939Y-92599500D01*
X155223748Y-92580593D01*
X155187784Y-92531093D01*
X155184311Y-92484075D01*
X155186277Y-92472394D01*
X155204997Y-92361120D01*
X155205133Y-92350000D01*
X155186839Y-92222259D01*
X155151282Y-92144055D01*
X155136349Y-92111212D01*
X155136348Y-92111211D01*
X155133428Y-92104788D01*
X155064223Y-92024471D01*
X155053798Y-92012372D01*
X155053797Y-92012371D01*
X155049193Y-92007028D01*
X155043276Y-92003193D01*
X155043274Y-92003191D01*
X154961617Y-91950265D01*
X154940906Y-91936841D01*
X154934150Y-91934821D01*
X154934149Y-91934820D01*
X154870210Y-91915698D01*
X154817273Y-91899866D01*
X154740644Y-91899398D01*
X154695282Y-91899121D01*
X154688231Y-91899078D01*
X154681454Y-91901015D01*
X154681453Y-91901015D01*
X154570935Y-91932601D01*
X154570933Y-91932602D01*
X154564155Y-91934539D01*
X154455019Y-92003399D01*
X154369596Y-92100122D01*
X154314754Y-92216932D01*
X154294901Y-92344440D01*
X154295816Y-92351437D01*
X154295816Y-92351438D01*
X154297082Y-92361120D01*
X154311633Y-92472394D01*
X154313016Y-92475536D01*
X154310523Y-92535010D01*
X154272517Y-92582960D01*
X154217732Y-92599500D01*
X154068481Y-92599500D01*
X154068477Y-92599501D01*
X154036567Y-92599501D01*
X154029160Y-92601907D01*
X154029157Y-92601908D01*
X154013627Y-92606954D01*
X153998525Y-92610580D01*
X153974696Y-92614354D01*
X153953210Y-92625302D01*
X153953206Y-92625304D01*
X153938856Y-92631249D01*
X153915910Y-92638704D01*
X153896386Y-92652889D01*
X153883156Y-92660996D01*
X153861658Y-92671950D01*
X153839091Y-92694517D01*
X152994172Y-93539435D01*
X152994169Y-93539439D01*
X152971606Y-93562002D01*
X152960654Y-93583498D01*
X152952540Y-93596737D01*
X152938360Y-93616254D01*
X152935952Y-93623665D01*
X152930904Y-93639201D01*
X152924961Y-93653547D01*
X152914010Y-93675040D01*
X152912792Y-93682733D01*
X152912791Y-93682735D01*
X152910237Y-93698863D01*
X152906612Y-93713964D01*
X152899156Y-93736911D01*
X152899156Y-95436199D01*
X152880249Y-95494390D01*
X152830749Y-95530354D01*
X152769563Y-95530354D01*
X152717840Y-95491200D01*
X152699611Y-95463918D01*
X152686082Y-95450389D01*
X152636142Y-95417021D01*
X152618474Y-95409702D01*
X152574462Y-95400948D01*
X152564840Y-95400000D01*
X151415680Y-95400000D01*
X151402995Y-95404122D01*
X151400000Y-95408243D01*
X151400000Y-97234320D01*
X151404122Y-97247005D01*
X151408243Y-97250000D01*
X152734320Y-97250000D01*
X152747005Y-97245878D01*
X152750000Y-97241757D01*
X152750000Y-96717575D01*
X152768907Y-96659384D01*
X152818407Y-96623420D01*
X152879593Y-96623420D01*
X152924783Y-96653873D01*
X152991756Y-96733548D01*
X152991759Y-96733550D01*
X152996295Y-96738947D01*
X153103716Y-96810452D01*
X153110444Y-96812554D01*
X153110446Y-96812555D01*
X153165302Y-96829693D01*
X153226889Y-96848934D01*
X153291400Y-96850116D01*
X153348858Y-96851170D01*
X153348860Y-96851170D01*
X153355911Y-96851299D01*
X153362714Y-96849444D01*
X153362716Y-96849444D01*
X153404484Y-96838056D01*
X153480411Y-96817356D01*
X153590380Y-96749835D01*
X153676978Y-96654163D01*
X153733244Y-96538031D01*
X153754653Y-96410776D01*
X153754789Y-96399656D01*
X153736495Y-96271915D01*
X153720892Y-96237598D01*
X153713845Y-96215567D01*
X153711928Y-96205729D01*
X153710085Y-96201231D01*
X153708690Y-96196566D01*
X153709126Y-96196435D01*
X153705579Y-96184121D01*
X153705417Y-96183189D01*
X153704389Y-96175510D01*
X153703270Y-96163619D01*
X153702907Y-96158111D01*
X153702112Y-96137233D01*
X153702040Y-96133673D01*
X153701978Y-96103970D01*
X153701993Y-96102053D01*
X153702642Y-96064480D01*
X153702654Y-96063865D01*
X153703704Y-96019172D01*
X153703722Y-96018341D01*
X153704691Y-95968471D01*
X153704692Y-95968380D01*
X153704724Y-95966079D01*
X153704726Y-95965852D01*
X153705021Y-95927962D01*
X153705021Y-95927959D01*
X153705059Y-95923047D01*
X153701948Y-95906918D01*
X153700156Y-95888168D01*
X153700156Y-95501445D01*
X155546322Y-95501445D01*
X155549164Y-95523178D01*
X155550000Y-95536014D01*
X155550000Y-96334320D01*
X155554122Y-96347005D01*
X155558243Y-96350000D01*
X156834320Y-96350000D01*
X156847005Y-96345878D01*
X156850000Y-96341757D01*
X156850000Y-96334320D01*
X157150000Y-96334320D01*
X157154122Y-96347005D01*
X157158243Y-96350000D01*
X158434320Y-96350000D01*
X158447005Y-96345878D01*
X158450000Y-96341757D01*
X158450000Y-95546072D01*
X158451372Y-95529648D01*
X158453856Y-95514881D01*
X158454538Y-95507282D01*
X158454580Y-95503825D01*
X158454084Y-95496210D01*
X158451000Y-95474674D01*
X158450000Y-95460639D01*
X158450000Y-95235160D01*
X158449052Y-95225538D01*
X158440298Y-95181526D01*
X158432979Y-95163858D01*
X158399611Y-95113918D01*
X158386082Y-95100389D01*
X158336142Y-95067021D01*
X158318474Y-95059702D01*
X158274462Y-95050948D01*
X158264840Y-95050000D01*
X158007444Y-95050000D01*
X158006839Y-95049998D01*
X157941717Y-95049600D01*
X157935847Y-95050000D01*
X157165680Y-95050000D01*
X157152995Y-95054122D01*
X157150000Y-95058243D01*
X157150000Y-96334320D01*
X156850000Y-96334320D01*
X156850000Y-95065680D01*
X156845878Y-95052995D01*
X156841757Y-95050000D01*
X156007444Y-95050000D01*
X156006839Y-95049998D01*
X155941717Y-95049600D01*
X155935847Y-95050000D01*
X155735160Y-95050000D01*
X155725538Y-95050948D01*
X155681526Y-95059702D01*
X155663858Y-95067021D01*
X155613918Y-95100389D01*
X155600389Y-95113918D01*
X155567021Y-95163858D01*
X155559702Y-95181526D01*
X155550948Y-95225538D01*
X155550000Y-95235160D01*
X155550000Y-95457288D01*
X155548821Y-95472519D01*
X155546493Y-95487472D01*
X155546322Y-95501445D01*
X153700156Y-95501445D01*
X153700156Y-94007245D01*
X153719063Y-93949054D01*
X153729152Y-93937241D01*
X154236896Y-93429496D01*
X154291413Y-93401719D01*
X154306900Y-93400500D01*
X159467473Y-93400500D01*
X159525664Y-93419407D01*
X159561628Y-93468907D01*
X159562039Y-93516006D01*
X159564774Y-93516432D01*
X159555488Y-93576070D01*
X159527853Y-93630659D01*
X159473410Y-93658579D01*
X159457063Y-93659837D01*
X159419188Y-93659606D01*
X159412136Y-93659563D01*
X159405359Y-93661500D01*
X159405358Y-93661500D01*
X159294840Y-93693086D01*
X159294838Y-93693087D01*
X159288060Y-93695024D01*
X159178924Y-93763884D01*
X159093501Y-93860607D01*
X159038659Y-93977417D01*
X159018806Y-94104925D01*
X159035538Y-94232879D01*
X159038376Y-94239330D01*
X159038377Y-94239332D01*
X159084669Y-94344539D01*
X159087510Y-94350995D01*
X159094857Y-94359735D01*
X159166005Y-94444377D01*
X159166008Y-94444379D01*
X159170544Y-94449776D01*
X159277965Y-94521281D01*
X159300875Y-94528439D01*
X159305300Y-94529821D01*
X159324311Y-94538029D01*
X159335894Y-94544545D01*
X159372400Y-94556482D01*
X159372618Y-94556551D01*
X159372648Y-94556561D01*
X159375486Y-94557463D01*
X159375526Y-94557476D01*
X159375663Y-94557519D01*
X159375987Y-94557619D01*
X159378416Y-94558352D01*
X159417895Y-94570005D01*
X159419805Y-94570559D01*
X159444833Y-94577684D01*
X159453117Y-94580042D01*
X159454768Y-94580527D01*
X159478249Y-94587664D01*
X159482838Y-94589182D01*
X159489866Y-94591700D01*
X159496462Y-94594064D01*
X159503502Y-94596897D01*
X159511079Y-94600289D01*
X159519252Y-94604413D01*
X159526309Y-94608393D01*
X159534162Y-94613320D01*
X159545533Y-94621220D01*
X159552079Y-94626183D01*
X159570703Y-94641560D01*
X159575708Y-94645985D01*
X159600180Y-94669137D01*
X159604127Y-94671657D01*
X159604128Y-94671658D01*
X159611572Y-94676411D01*
X159628297Y-94689848D01*
X160270504Y-95332055D01*
X160298281Y-95386572D01*
X160299500Y-95402059D01*
X160299500Y-101853901D01*
X160280593Y-101912092D01*
X160231093Y-101948056D01*
X160172134Y-101948750D01*
X160092273Y-101924866D01*
X160015644Y-101924398D01*
X159970282Y-101924121D01*
X159963231Y-101924078D01*
X159956454Y-101926015D01*
X159956453Y-101926015D01*
X159845935Y-101957601D01*
X159845933Y-101957602D01*
X159839155Y-101959539D01*
X159833300Y-101963233D01*
X159772519Y-101969728D01*
X159719478Y-101939227D01*
X159694494Y-101883375D01*
X159693934Y-101872856D01*
X159693934Y-101716853D01*
X159696409Y-101694855D01*
X159698090Y-101687478D01*
X159699170Y-101682740D01*
X159699566Y-101668475D01*
X159699970Y-101653871D01*
X159700103Y-101649062D01*
X159700513Y-101642401D01*
X159702810Y-101618348D01*
X159703929Y-101610216D01*
X159705473Y-101601643D01*
X159706387Y-101596573D01*
X159708451Y-101587558D01*
X159710624Y-101579761D01*
X159713488Y-101571065D01*
X159716448Y-101563305D01*
X159719431Y-101556304D01*
X159719688Y-101555761D01*
X159725593Y-101543259D01*
X159727777Y-101538916D01*
X159739342Y-101517255D01*
X159740175Y-101515726D01*
X159743965Y-101508919D01*
X159756964Y-101485570D01*
X159757911Y-101483850D01*
X159761401Y-101477439D01*
X159777663Y-101447561D01*
X159777720Y-101447454D01*
X159779097Y-101444879D01*
X159779131Y-101444816D01*
X159779279Y-101444534D01*
X159780594Y-101441984D01*
X159797953Y-101407755D01*
X159814061Y-101364557D01*
X159817729Y-101355979D01*
X159823946Y-101343148D01*
X159823946Y-101343147D01*
X159827022Y-101336799D01*
X159837604Y-101273902D01*
X159847797Y-101213315D01*
X159847797Y-101213310D01*
X159848431Y-101209544D01*
X159848567Y-101198424D01*
X159830273Y-101070683D01*
X159799609Y-101003241D01*
X159779783Y-100959636D01*
X159779782Y-100959635D01*
X159776862Y-100953212D01*
X159719673Y-100886841D01*
X159697232Y-100860796D01*
X159697231Y-100860795D01*
X159692627Y-100855452D01*
X159686710Y-100851617D01*
X159686708Y-100851615D01*
X159610300Y-100802091D01*
X159584340Y-100785265D01*
X159577584Y-100783245D01*
X159577583Y-100783244D01*
X159526247Y-100767891D01*
X159460707Y-100748290D01*
X159384078Y-100747822D01*
X159338716Y-100747545D01*
X159331665Y-100747502D01*
X159324888Y-100749439D01*
X159324887Y-100749439D01*
X159214366Y-100781026D01*
X159207589Y-100782963D01*
X159201627Y-100786725D01*
X159195187Y-100789606D01*
X159195115Y-100789444D01*
X159189146Y-100792454D01*
X159188788Y-100792593D01*
X159184102Y-100793905D01*
X159149873Y-100811264D01*
X159147309Y-100812587D01*
X159147008Y-100812745D01*
X159146713Y-100812903D01*
X159146669Y-100812926D01*
X159144544Y-100814062D01*
X159144288Y-100814199D01*
X159114881Y-100830203D01*
X159108106Y-100833890D01*
X159106450Y-100834801D01*
X159106393Y-100834833D01*
X159106371Y-100834845D01*
X159076056Y-100851724D01*
X159074625Y-100852504D01*
X159069103Y-100855452D01*
X159052939Y-100864081D01*
X159048600Y-100866263D01*
X159044233Y-100868326D01*
X159035547Y-100872428D01*
X159028552Y-100875409D01*
X159020792Y-100878369D01*
X159012096Y-100881233D01*
X159010075Y-100881796D01*
X159004299Y-100883406D01*
X158995284Y-100885470D01*
X158981634Y-100887929D01*
X158973507Y-100889047D01*
X158968883Y-100889489D01*
X158949447Y-100891345D01*
X158942796Y-100891754D01*
X158909113Y-100892688D01*
X158896338Y-100895507D01*
X158895920Y-100895599D01*
X158874589Y-100897924D01*
X158255084Y-100897924D01*
X158250959Y-100897621D01*
X158246234Y-100895999D01*
X158196814Y-100897854D01*
X158193101Y-100897924D01*
X158173628Y-100897924D01*
X158169198Y-100898749D01*
X158164005Y-100899085D01*
X158144874Y-100899803D01*
X158143502Y-100899855D01*
X158134367Y-100900198D01*
X158125970Y-100903806D01*
X158125969Y-100903806D01*
X158123788Y-100904743D01*
X158102839Y-100911107D01*
X158100512Y-100911540D01*
X158100507Y-100911542D01*
X158091523Y-100913215D01*
X158068848Y-100927192D01*
X158055980Y-100933876D01*
X158037934Y-100941629D01*
X158037933Y-100941630D01*
X158031513Y-100944388D01*
X158026627Y-100948402D01*
X158022263Y-100952766D01*
X158004208Y-100967037D01*
X157996228Y-100971956D01*
X157978558Y-100995193D01*
X157969766Y-101005263D01*
X155325349Y-103649680D01*
X155322220Y-103652380D01*
X155317731Y-103654575D01*
X155311513Y-103661278D01*
X155284107Y-103690822D01*
X155281531Y-103693498D01*
X155267752Y-103707277D01*
X155265207Y-103710987D01*
X155261771Y-103714900D01*
X155241599Y-103736646D01*
X155238212Y-103745134D01*
X155238212Y-103745135D01*
X155237334Y-103747336D01*
X155227020Y-103766652D01*
X155225679Y-103768607D01*
X155225678Y-103768610D01*
X155220508Y-103776146D01*
X155218398Y-103785038D01*
X155214359Y-103802058D01*
X155209986Y-103815884D01*
X155202706Y-103834132D01*
X155200117Y-103840622D01*
X155199500Y-103846915D01*
X155199500Y-103853084D01*
X155196825Y-103875943D01*
X155194660Y-103885066D01*
X155198596Y-103913987D01*
X155199500Y-103927337D01*
X155199500Y-107368834D01*
X155180593Y-107427025D01*
X155170504Y-107438838D01*
X154488839Y-108120504D01*
X154434322Y-108148281D01*
X154418835Y-108149500D01*
X145948054Y-108149500D01*
X145889863Y-108130593D01*
X145853899Y-108081093D01*
X145850054Y-108064535D01*
X145845311Y-108031418D01*
X145836839Y-107972259D01*
X145803620Y-107899197D01*
X145786349Y-107861212D01*
X145786348Y-107861211D01*
X145783428Y-107854788D01*
X145724465Y-107786358D01*
X145703798Y-107762372D01*
X145703797Y-107762371D01*
X145699193Y-107757028D01*
X145693276Y-107753193D01*
X145693274Y-107753191D01*
X145596824Y-107690677D01*
X145590906Y-107686841D01*
X145584150Y-107684821D01*
X145584149Y-107684820D01*
X145516124Y-107664476D01*
X145467273Y-107649866D01*
X145390644Y-107649398D01*
X145345282Y-107649121D01*
X145338231Y-107649078D01*
X145331454Y-107651015D01*
X145331453Y-107651015D01*
X145220935Y-107682601D01*
X145220933Y-107682602D01*
X145214155Y-107684539D01*
X145105019Y-107753399D01*
X145019596Y-107850122D01*
X144964754Y-107966932D01*
X144944901Y-108094440D01*
X144961633Y-108222394D01*
X144964471Y-108228845D01*
X144964472Y-108228847D01*
X145010764Y-108334054D01*
X145013605Y-108340510D01*
X145066446Y-108403372D01*
X145074307Y-108414117D01*
X145077017Y-108418398D01*
X145078128Y-108420154D01*
X145078314Y-108420693D01*
X145077799Y-108421114D01*
X145078941Y-108422509D01*
X145092977Y-108463182D01*
X145093468Y-108468069D01*
X145093914Y-108474817D01*
X145094244Y-108485191D01*
X145095262Y-108489739D01*
X145095654Y-108492838D01*
X145095916Y-108494296D01*
X145098596Y-108513988D01*
X145099500Y-108527338D01*
X145099500Y-109373085D01*
X145080593Y-109431276D01*
X145031093Y-109467240D01*
X144969907Y-109467240D01*
X144920407Y-109431276D01*
X144910378Y-109414061D01*
X144886349Y-109361212D01*
X144886348Y-109361211D01*
X144883428Y-109354788D01*
X144819936Y-109281101D01*
X144803798Y-109262372D01*
X144803797Y-109262371D01*
X144799193Y-109257028D01*
X144793276Y-109253193D01*
X144793274Y-109253191D01*
X144696824Y-109190677D01*
X144690906Y-109186841D01*
X144684150Y-109184821D01*
X144684149Y-109184820D01*
X144609303Y-109162436D01*
X144567273Y-109149866D01*
X144490644Y-109149398D01*
X144445282Y-109149121D01*
X144438231Y-109149078D01*
X144431454Y-109151015D01*
X144431453Y-109151015D01*
X144326705Y-109180952D01*
X144265559Y-109178763D01*
X144217377Y-109141051D01*
X144200500Y-109085763D01*
X144200500Y-94094440D01*
X145944901Y-94094440D01*
X145945816Y-94101437D01*
X145945816Y-94101438D01*
X145947025Y-94110685D01*
X145961633Y-94222394D01*
X145964471Y-94228845D01*
X145964472Y-94228847D01*
X146010764Y-94334054D01*
X146013605Y-94340510D01*
X146055122Y-94389901D01*
X146092100Y-94433892D01*
X146092103Y-94433894D01*
X146096639Y-94439291D01*
X146204060Y-94510796D01*
X146210788Y-94512898D01*
X146210790Y-94512899D01*
X146237620Y-94521281D01*
X146327233Y-94549278D01*
X146391744Y-94550461D01*
X146449202Y-94551514D01*
X146449204Y-94551514D01*
X146456255Y-94551643D01*
X146463058Y-94549788D01*
X146463060Y-94549788D01*
X146524911Y-94532925D01*
X146580755Y-94517700D01*
X146690724Y-94450179D01*
X146705466Y-94433892D01*
X146772590Y-94359735D01*
X146772590Y-94359734D01*
X146777322Y-94354507D01*
X146833588Y-94238375D01*
X146849940Y-94141179D01*
X146854363Y-94114891D01*
X146854363Y-94114886D01*
X146854997Y-94111120D01*
X146855133Y-94100000D01*
X146836839Y-93972259D01*
X146818464Y-93931846D01*
X146786349Y-93861212D01*
X146786348Y-93861211D01*
X146783428Y-93854788D01*
X146718887Y-93779884D01*
X146703798Y-93762372D01*
X146703797Y-93762371D01*
X146699193Y-93757028D01*
X146693276Y-93753193D01*
X146693274Y-93753191D01*
X146600541Y-93693086D01*
X146590906Y-93686841D01*
X146584150Y-93684821D01*
X146584149Y-93684820D01*
X146528242Y-93668100D01*
X146467273Y-93649866D01*
X146390644Y-93649398D01*
X146345282Y-93649121D01*
X146338231Y-93649078D01*
X146331454Y-93651015D01*
X146331453Y-93651015D01*
X146220935Y-93682601D01*
X146220933Y-93682602D01*
X146214155Y-93684539D01*
X146105019Y-93753399D01*
X146019596Y-93850122D01*
X145964754Y-93966932D01*
X145944901Y-94094440D01*
X144200500Y-94094440D01*
X144200500Y-92399500D01*
X144219407Y-92341309D01*
X144268907Y-92305345D01*
X144299500Y-92300500D01*
X146865047Y-92300500D01*
X146882236Y-92302004D01*
X146900000Y-92305136D01*
X146901175Y-92304929D01*
X147355453Y-92287080D01*
X147808098Y-92233506D01*
X148054403Y-92184513D01*
X148253242Y-92144962D01*
X148253253Y-92144959D01*
X148255145Y-92144583D01*
X148535626Y-92065479D01*
X148691961Y-92021388D01*
X148691966Y-92021387D01*
X148693836Y-92020859D01*
X148713998Y-92013421D01*
X149119629Y-91863777D01*
X149119641Y-91863772D01*
X149121468Y-91863098D01*
X149123239Y-91862282D01*
X149123250Y-91862277D01*
X149533639Y-91673085D01*
X149533646Y-91673082D01*
X149535404Y-91672271D01*
X149933091Y-91449555D01*
X149946133Y-91440841D01*
X150213803Y-91261989D01*
X150312079Y-91196323D01*
X150670030Y-90914138D01*
X151004737Y-90604737D01*
X151314138Y-90270030D01*
X151596323Y-89912079D01*
X151849555Y-89533091D01*
X152072271Y-89135404D01*
X152073085Y-89133639D01*
X152262277Y-88723250D01*
X152262282Y-88723239D01*
X152263098Y-88721468D01*
X152263772Y-88719641D01*
X152263777Y-88719629D01*
X152420184Y-88295666D01*
X152420185Y-88295663D01*
X152420859Y-88293836D01*
X152544583Y-87855145D01*
X152550002Y-87827905D01*
X152600402Y-87574521D01*
X152633506Y-87408098D01*
X152687080Y-86955453D01*
X152701576Y-86586513D01*
X152722316Y-86530296D01*
X152720407Y-86528909D01*
X152703004Y-86487910D01*
X152702004Y-86482236D01*
X152700500Y-86465047D01*
X152700500Y-84919990D01*
X152708387Y-84895716D01*
X152708136Y-84895424D01*
X152700500Y-84857298D01*
X152700500Y-83899500D01*
X152719407Y-83841309D01*
X152768907Y-83805345D01*
X152799500Y-83800500D01*
X154210267Y-83800500D01*
X154268458Y-83819407D01*
G37*
G04 #@! TD.AperFunction*
G04 #@! TA.AperFunction,Conductor*
G36*
X172676899Y-101552256D02*
G01*
X172688610Y-101554492D01*
X172688615Y-101554492D01*
X172693385Y-101555403D01*
X172736283Y-101555070D01*
X172736336Y-101555069D01*
X172736365Y-101555069D01*
X172737373Y-101555055D01*
X172738678Y-101555037D01*
X172788683Y-101554066D01*
X172789517Y-101554048D01*
X172789523Y-101554048D01*
X172834298Y-101552996D01*
X172834684Y-101552989D01*
X172867582Y-101552420D01*
X172872397Y-101552337D01*
X172874314Y-101552322D01*
X172877591Y-101552329D01*
X172904033Y-101552384D01*
X172907563Y-101552456D01*
X172928470Y-101553252D01*
X172933947Y-101553613D01*
X172945864Y-101554734D01*
X172953525Y-101555760D01*
X172954379Y-101555908D01*
X172954465Y-101555923D01*
X172971713Y-101560892D01*
X172971804Y-101560637D01*
X172973957Y-101561405D01*
X172976073Y-101562272D01*
X172978257Y-101562939D01*
X172978262Y-101562941D01*
X172988364Y-101566027D01*
X173012304Y-101573341D01*
X173014554Y-101573807D01*
X173016752Y-101574369D01*
X173016733Y-101574443D01*
X173022627Y-101575970D01*
X173090496Y-101597174D01*
X173090501Y-101597175D01*
X173097233Y-101599278D01*
X173161744Y-101600460D01*
X173219202Y-101601514D01*
X173219204Y-101601514D01*
X173226255Y-101601643D01*
X173233058Y-101599788D01*
X173233060Y-101599788D01*
X173311772Y-101578328D01*
X173350755Y-101567700D01*
X173355491Y-101564792D01*
X173360658Y-101562909D01*
X173363931Y-101562271D01*
X173368433Y-101560426D01*
X173373095Y-101559032D01*
X173373227Y-101559474D01*
X173385578Y-101555915D01*
X173386535Y-101555749D01*
X173394135Y-101554734D01*
X173406052Y-101553613D01*
X173411529Y-101553252D01*
X173432436Y-101552456D01*
X173435967Y-101552384D01*
X173461982Y-101552330D01*
X173465599Y-101552322D01*
X173467513Y-101552337D01*
X173474414Y-101552456D01*
X173505248Y-101552988D01*
X173505701Y-101552997D01*
X173550482Y-101554048D01*
X173551314Y-101554066D01*
X173601183Y-101555035D01*
X173602987Y-101555060D01*
X173603497Y-101555067D01*
X173603516Y-101555067D01*
X173603575Y-101555068D01*
X173603692Y-101555069D01*
X173603701Y-101555069D01*
X173641697Y-101555365D01*
X173641699Y-101555365D01*
X173646610Y-101555403D01*
X173651428Y-101554474D01*
X173651434Y-101554473D01*
X173661887Y-101552456D01*
X173662738Y-101552292D01*
X173681489Y-101550500D01*
X176043100Y-101550500D01*
X176101291Y-101569407D01*
X176113103Y-101579496D01*
X176370503Y-101836895D01*
X176398281Y-101891412D01*
X176399500Y-101906899D01*
X176399500Y-105088332D01*
X176397744Y-105106894D01*
X176394597Y-105123381D01*
X176394929Y-105166277D01*
X176394962Y-105168677D01*
X176395933Y-105218683D01*
X176395951Y-105219517D01*
X176396711Y-105251847D01*
X176397001Y-105264209D01*
X176397013Y-105264824D01*
X176397662Y-105302397D01*
X176397677Y-105304314D01*
X176397615Y-105334017D01*
X176397543Y-105337577D01*
X176396748Y-105358455D01*
X176396385Y-105363963D01*
X176395266Y-105375854D01*
X176394238Y-105383533D01*
X176394076Y-105384465D01*
X176389106Y-105401723D01*
X176389358Y-105401813D01*
X176388589Y-105403969D01*
X176387724Y-105406081D01*
X176387057Y-105408265D01*
X176379359Y-105433464D01*
X176374293Y-105446614D01*
X176367752Y-105460545D01*
X176367751Y-105460549D01*
X176364754Y-105466932D01*
X176363669Y-105473901D01*
X176363668Y-105473904D01*
X176357861Y-105511202D01*
X176344901Y-105594440D01*
X176345816Y-105601437D01*
X176345816Y-105601438D01*
X176356732Y-105684911D01*
X176345530Y-105745062D01*
X176301111Y-105787141D01*
X176271920Y-105795844D01*
X176251696Y-105798596D01*
X176238349Y-105799500D01*
X165187823Y-105799500D01*
X165183698Y-105799197D01*
X165178973Y-105797575D01*
X165129554Y-105799430D01*
X165125841Y-105799500D01*
X165106367Y-105799500D01*
X165101937Y-105800325D01*
X165096744Y-105800661D01*
X165080713Y-105801263D01*
X165076240Y-105801431D01*
X165067107Y-105801774D01*
X165058713Y-105805380D01*
X165058710Y-105805381D01*
X165056532Y-105806317D01*
X165035581Y-105812683D01*
X165024262Y-105814791D01*
X165016479Y-105819588D01*
X165016480Y-105819588D01*
X165001587Y-105828768D01*
X164988719Y-105835452D01*
X164970673Y-105843205D01*
X164970672Y-105843206D01*
X164964252Y-105845964D01*
X164959366Y-105849978D01*
X164955002Y-105854342D01*
X164936947Y-105868613D01*
X164928967Y-105873532D01*
X164911297Y-105896769D01*
X164902505Y-105906839D01*
X163088839Y-107720504D01*
X163034322Y-107748281D01*
X163018835Y-107749500D01*
X162089271Y-107749500D01*
X162031080Y-107730593D01*
X161995116Y-107681093D01*
X161995116Y-107619907D01*
X162000177Y-107607334D01*
X162007700Y-107591808D01*
X162033588Y-107538375D01*
X162048285Y-107451015D01*
X162054363Y-107414891D01*
X162054363Y-107414886D01*
X162054997Y-107411120D01*
X162055133Y-107400000D01*
X162036839Y-107272259D01*
X161983428Y-107154788D01*
X161930395Y-107093240D01*
X161903798Y-107062372D01*
X161903797Y-107062371D01*
X161899193Y-107057028D01*
X161893276Y-107053193D01*
X161893274Y-107053191D01*
X161809682Y-106999011D01*
X161790906Y-106986841D01*
X161784150Y-106984821D01*
X161784149Y-106984820D01*
X161720685Y-106965840D01*
X161667273Y-106949866D01*
X161590644Y-106949398D01*
X161545282Y-106949121D01*
X161538231Y-106949078D01*
X161531454Y-106951015D01*
X161531453Y-106951015D01*
X161420935Y-106982601D01*
X161420933Y-106982602D01*
X161414155Y-106984539D01*
X161305019Y-107053399D01*
X161219596Y-107150122D01*
X161216601Y-107156502D01*
X161216596Y-107156509D01*
X161167572Y-107260927D01*
X161167565Y-107260944D01*
X161166133Y-107263994D01*
X161164627Y-107266825D01*
X161163224Y-107271480D01*
X161163224Y-107271481D01*
X161160940Y-107279060D01*
X161126049Y-107329323D01*
X161066149Y-107349500D01*
X159931939Y-107349500D01*
X159873748Y-107330593D01*
X159837784Y-107281093D01*
X159834311Y-107234075D01*
X159835012Y-107229913D01*
X159847361Y-107156509D01*
X159854363Y-107114891D01*
X159854363Y-107114886D01*
X159854997Y-107111120D01*
X159855133Y-107100000D01*
X159836839Y-106972259D01*
X159821236Y-106937942D01*
X159814189Y-106915911D01*
X159812272Y-106906073D01*
X159810429Y-106901575D01*
X159809034Y-106896910D01*
X159809470Y-106896779D01*
X159805923Y-106884465D01*
X159805761Y-106883533D01*
X159804733Y-106875854D01*
X159803613Y-106863947D01*
X159803251Y-106858455D01*
X159803122Y-106855052D01*
X159802456Y-106837563D01*
X159802384Y-106834017D01*
X159802322Y-106804314D01*
X159802337Y-106802397D01*
X159802420Y-106797582D01*
X159802989Y-106764684D01*
X159802998Y-106764209D01*
X159803166Y-106757089D01*
X159804048Y-106719517D01*
X159804066Y-106718685D01*
X159805035Y-106668815D01*
X159805068Y-106666423D01*
X159805403Y-106623391D01*
X159802292Y-106607262D01*
X159800500Y-106588512D01*
X159800500Y-105506901D01*
X159819407Y-105448710D01*
X159829496Y-105436897D01*
X161786897Y-103479496D01*
X161841414Y-103451719D01*
X161856901Y-103450500D01*
X166838336Y-103450500D01*
X166856899Y-103452256D01*
X166868610Y-103454492D01*
X166868615Y-103454492D01*
X166873385Y-103455403D01*
X166916283Y-103455070D01*
X166916336Y-103455069D01*
X166916365Y-103455069D01*
X166917373Y-103455055D01*
X166918678Y-103455037D01*
X166968683Y-103454066D01*
X166969517Y-103454048D01*
X166969523Y-103454048D01*
X167014298Y-103452996D01*
X167014684Y-103452989D01*
X167047582Y-103452420D01*
X167052397Y-103452337D01*
X167054314Y-103452322D01*
X167057591Y-103452329D01*
X167084033Y-103452384D01*
X167087563Y-103452456D01*
X167108470Y-103453252D01*
X167113947Y-103453613D01*
X167125864Y-103454734D01*
X167133525Y-103455760D01*
X167134379Y-103455908D01*
X167134465Y-103455923D01*
X167151713Y-103460892D01*
X167151804Y-103460637D01*
X167153957Y-103461405D01*
X167156073Y-103462272D01*
X167158257Y-103462939D01*
X167158262Y-103462941D01*
X167161765Y-103464011D01*
X167192304Y-103473341D01*
X167194554Y-103473807D01*
X167196752Y-103474369D01*
X167196733Y-103474443D01*
X167202627Y-103475970D01*
X167270496Y-103497174D01*
X167270501Y-103497175D01*
X167277233Y-103499278D01*
X167341744Y-103500460D01*
X167399202Y-103501514D01*
X167399204Y-103501514D01*
X167406255Y-103501643D01*
X167413058Y-103499788D01*
X167413060Y-103499788D01*
X167454828Y-103488400D01*
X167530755Y-103467700D01*
X167640724Y-103400179D01*
X167727322Y-103304507D01*
X167732200Y-103294440D01*
X167765547Y-103225611D01*
X167772532Y-103213469D01*
X167778651Y-103204386D01*
X167780530Y-103199900D01*
X167782838Y-103195621D01*
X167783240Y-103195838D01*
X167789456Y-103184595D01*
X167789999Y-103183824D01*
X167794684Y-103177695D01*
X167802286Y-103168513D01*
X167805929Y-103164354D01*
X167807645Y-103162503D01*
X167820174Y-103148983D01*
X167822636Y-103146420D01*
X167843485Y-103125483D01*
X167844852Y-103124137D01*
X167872063Y-103097850D01*
X167872507Y-103097424D01*
X167904649Y-103066757D01*
X167904660Y-103066746D01*
X167904747Y-103066663D01*
X167905157Y-103066270D01*
X167905345Y-103066090D01*
X167941286Y-103031520D01*
X167943005Y-103029847D01*
X167943033Y-103029820D01*
X167970179Y-103003092D01*
X167973678Y-102999647D01*
X167982881Y-102986046D01*
X167994871Y-102971522D01*
X169386897Y-101579496D01*
X169441414Y-101551719D01*
X169456901Y-101550500D01*
X172658336Y-101550500D01*
X172676899Y-101552256D01*
G37*
G04 #@! TD.AperFunction*
G04 #@! TA.AperFunction,Conductor*
G36*
X149727845Y-99917795D02*
G01*
X149736049Y-99921383D01*
X149738737Y-99925857D01*
X149750674Y-99962363D01*
X149750774Y-99962687D01*
X149762427Y-100002166D01*
X149772643Y-100038052D01*
X149782735Y-100071259D01*
X149794068Y-100102884D01*
X149808010Y-100134028D01*
X149825927Y-100165789D01*
X149849185Y-100199267D01*
X149849335Y-100199448D01*
X149849339Y-100199454D01*
X149879031Y-100235416D01*
X149879151Y-100235561D01*
X149904542Y-100262400D01*
X149909371Y-100267504D01*
X149912568Y-100275869D01*
X149909145Y-100283818D01*
X149783818Y-100409145D01*
X149775545Y-100412572D01*
X149767504Y-100409371D01*
X149735695Y-100379278D01*
X149735561Y-100379151D01*
X149699267Y-100349185D01*
X149665789Y-100325927D01*
X149634028Y-100308010D01*
X149602884Y-100294068D01*
X149584646Y-100287532D01*
X149571408Y-100282788D01*
X149571395Y-100282784D01*
X149571259Y-100282735D01*
X149538052Y-100272643D01*
X149502166Y-100262427D01*
X149474622Y-100254297D01*
X149462687Y-100250774D01*
X149462363Y-100250674D01*
X149425857Y-100238737D01*
X149419058Y-100232908D01*
X149417795Y-100227845D01*
X149411850Y-99923777D01*
X149415115Y-99915438D01*
X149423777Y-99911850D01*
X149727845Y-99917795D01*
G37*
G04 #@! TD.AperFunction*
G04 #@! TA.AperFunction,Conductor*
G36*
X176996482Y-105113427D02*
G01*
X176999909Y-105121791D01*
X176999576Y-105164688D01*
X176999574Y-105164823D01*
X176998605Y-105214693D01*
X176997535Y-105260261D01*
X176996816Y-105301857D01*
X176996896Y-105339891D01*
X176998224Y-105374776D01*
X177001249Y-105406921D01*
X177006421Y-105436738D01*
X177014188Y-105464636D01*
X177014315Y-105464946D01*
X177022111Y-105483976D01*
X177022076Y-105492930D01*
X177019717Y-105496521D01*
X176808433Y-105716231D01*
X176800229Y-105719819D01*
X176791567Y-105716231D01*
X176580283Y-105496521D01*
X176577018Y-105488182D01*
X176577889Y-105483976D01*
X176585684Y-105464946D01*
X176585811Y-105464636D01*
X176593578Y-105436738D01*
X176598750Y-105406921D01*
X176601775Y-105374776D01*
X176603103Y-105339891D01*
X176603183Y-105301857D01*
X176602464Y-105260261D01*
X176601394Y-105214693D01*
X176600425Y-105164823D01*
X176600423Y-105164687D01*
X176600091Y-105121791D01*
X176603454Y-105113491D01*
X176611791Y-105110000D01*
X176988209Y-105110000D01*
X176996482Y-105113427D01*
G37*
G04 #@! TD.AperFunction*
G04 #@! TA.AperFunction,Conductor*
G36*
X159290452Y-100979185D02*
G01*
X159327120Y-101014446D01*
X159454706Y-101137140D01*
X159454712Y-101137146D01*
X159454790Y-101137221D01*
X159512620Y-101192833D01*
X159515404Y-101197000D01*
X159516638Y-101200151D01*
X159284462Y-101423424D01*
X159242664Y-101402226D01*
X159208323Y-101383536D01*
X159208322Y-101383535D01*
X159206338Y-101382456D01*
X159173738Y-101364305D01*
X159143122Y-101347960D01*
X159112745Y-101333612D01*
X159080864Y-101321448D01*
X159062823Y-101316420D01*
X159045999Y-101311731D01*
X159045993Y-101311730D01*
X159045736Y-101311658D01*
X159005618Y-101304432D01*
X158978933Y-101301883D01*
X158958945Y-101299974D01*
X158958939Y-101299974D01*
X158958765Y-101299957D01*
X158958596Y-101299952D01*
X158958591Y-101299952D01*
X158914810Y-101298739D01*
X158906635Y-101295084D01*
X158903434Y-101287043D01*
X158903434Y-101109805D01*
X158906861Y-101101532D01*
X158914810Y-101098109D01*
X158958591Y-101096895D01*
X158958596Y-101096895D01*
X158958765Y-101096890D01*
X158958939Y-101096873D01*
X158958945Y-101096873D01*
X158978933Y-101094964D01*
X159005618Y-101092415D01*
X159045736Y-101085189D01*
X159045993Y-101085117D01*
X159045999Y-101085116D01*
X159062823Y-101080427D01*
X159080864Y-101075399D01*
X159112745Y-101063235D01*
X159143122Y-101048887D01*
X159173738Y-101032542D01*
X159206338Y-101014391D01*
X159242520Y-100994700D01*
X159242821Y-100994542D01*
X159277050Y-100977183D01*
X159285979Y-100976498D01*
X159290452Y-100979185D01*
G37*
G04 #@! TD.AperFunction*
G04 #@! TA.AperFunction,Conductor*
G36*
X153496138Y-95913083D02*
G01*
X153499565Y-95921447D01*
X153499232Y-95964344D01*
X153499230Y-95964479D01*
X153498261Y-96014349D01*
X153497191Y-96059917D01*
X153496472Y-96101513D01*
X153496552Y-96139547D01*
X153497880Y-96174432D01*
X153500905Y-96206577D01*
X153506077Y-96236394D01*
X153513844Y-96264292D01*
X153513971Y-96264602D01*
X153521767Y-96283632D01*
X153521732Y-96292586D01*
X153519373Y-96296177D01*
X153308089Y-96515887D01*
X153299885Y-96519475D01*
X153291223Y-96515887D01*
X153079939Y-96296177D01*
X153076674Y-96287838D01*
X153077545Y-96283632D01*
X153085340Y-96264602D01*
X153085467Y-96264292D01*
X153093234Y-96236394D01*
X153098406Y-96206577D01*
X153101431Y-96174432D01*
X153102759Y-96139547D01*
X153102839Y-96101513D01*
X153102120Y-96059917D01*
X153101050Y-96014349D01*
X153100081Y-95964479D01*
X153100079Y-95964343D01*
X153099747Y-95921447D01*
X153103110Y-95913147D01*
X153111447Y-95909656D01*
X153487865Y-95909656D01*
X153496138Y-95913083D01*
G37*
G04 #@! TD.AperFunction*
G04 #@! TA.AperFunction,Conductor*
G36*
X157866891Y-88125024D02*
G01*
X157898833Y-88155243D01*
X157935127Y-88185209D01*
X157968605Y-88208467D01*
X158000366Y-88226384D01*
X158031510Y-88240326D01*
X158049748Y-88246862D01*
X158062986Y-88251606D01*
X158062999Y-88251610D01*
X158063135Y-88251659D01*
X158096342Y-88261751D01*
X158132228Y-88271967D01*
X158159772Y-88280097D01*
X158171707Y-88283620D01*
X158172031Y-88283720D01*
X158208538Y-88295658D01*
X158215337Y-88301487D01*
X158216600Y-88306550D01*
X158222545Y-88610618D01*
X158219280Y-88618957D01*
X158210618Y-88622545D01*
X157906550Y-88616600D01*
X157898346Y-88613012D01*
X157895658Y-88608538D01*
X157883720Y-88572031D01*
X157883620Y-88571707D01*
X157871994Y-88532321D01*
X157871962Y-88532212D01*
X157861751Y-88496342D01*
X157851707Y-88463294D01*
X157851659Y-88463135D01*
X157840326Y-88431510D01*
X157826384Y-88400366D01*
X157808467Y-88368605D01*
X157785209Y-88335127D01*
X157757435Y-88301487D01*
X157755363Y-88298978D01*
X157755359Y-88298973D01*
X157755243Y-88298833D01*
X157725024Y-88266891D01*
X157721827Y-88258526D01*
X157725250Y-88250577D01*
X157850577Y-88125250D01*
X157858850Y-88121823D01*
X157866891Y-88125024D01*
G37*
G04 #@! TD.AperFunction*
G04 #@! TA.AperFunction,Conductor*
G36*
X154508433Y-98983769D02*
G01*
X154719239Y-99202981D01*
X154722504Y-99211320D01*
X154721241Y-99216383D01*
X154703882Y-99250612D01*
X154703724Y-99250913D01*
X154684037Y-99287085D01*
X154683982Y-99287183D01*
X154665937Y-99319594D01*
X154665881Y-99319695D01*
X154649536Y-99350311D01*
X154635188Y-99380688D01*
X154623024Y-99412569D01*
X154613234Y-99447697D01*
X154606008Y-99487815D01*
X154601533Y-99534668D01*
X154601528Y-99534837D01*
X154601528Y-99534842D01*
X154600315Y-99578624D01*
X154596660Y-99586799D01*
X154588619Y-99590000D01*
X154411381Y-99590000D01*
X154403108Y-99586573D01*
X154399685Y-99578624D01*
X154398471Y-99534842D01*
X154398471Y-99534837D01*
X154398466Y-99534668D01*
X154393991Y-99487815D01*
X154386765Y-99447697D01*
X154376975Y-99412569D01*
X154364811Y-99380688D01*
X154350463Y-99350311D01*
X154334118Y-99319695D01*
X154334062Y-99319594D01*
X154316017Y-99287183D01*
X154315962Y-99287085D01*
X154296275Y-99250913D01*
X154296117Y-99250612D01*
X154278759Y-99216384D01*
X154278074Y-99207455D01*
X154280761Y-99202982D01*
X154491567Y-98983769D01*
X154499771Y-98980181D01*
X154508433Y-98983769D01*
G37*
G04 #@! TD.AperFunction*
G04 #@! TA.AperFunction,Conductor*
G36*
X154816384Y-110278759D02*
G01*
X154850633Y-110296128D01*
X154850894Y-110296265D01*
X154887095Y-110315967D01*
X154919695Y-110334118D01*
X154950311Y-110350463D01*
X154980688Y-110364811D01*
X155012569Y-110376975D01*
X155030610Y-110382003D01*
X155047434Y-110386692D01*
X155047440Y-110386693D01*
X155047697Y-110386765D01*
X155087815Y-110393991D01*
X155114500Y-110396540D01*
X155134488Y-110398449D01*
X155134494Y-110398449D01*
X155134668Y-110398466D01*
X155134837Y-110398471D01*
X155134842Y-110398471D01*
X155178624Y-110399685D01*
X155186799Y-110403340D01*
X155190000Y-110411381D01*
X155190000Y-110588619D01*
X155186573Y-110596892D01*
X155178624Y-110600315D01*
X155134842Y-110601528D01*
X155134837Y-110601528D01*
X155134668Y-110601533D01*
X155134494Y-110601550D01*
X155134488Y-110601550D01*
X155114500Y-110603459D01*
X155087815Y-110606008D01*
X155047697Y-110613234D01*
X155047440Y-110613306D01*
X155047434Y-110613307D01*
X155030610Y-110617996D01*
X155012569Y-110623024D01*
X154980688Y-110635188D01*
X154950311Y-110649536D01*
X154919695Y-110665881D01*
X154887095Y-110684032D01*
X154850894Y-110703734D01*
X154850633Y-110703871D01*
X154833960Y-110712327D01*
X154816383Y-110721241D01*
X154807454Y-110721926D01*
X154802981Y-110719239D01*
X154786929Y-110703802D01*
X154583769Y-110508433D01*
X154580181Y-110500229D01*
X154583769Y-110491567D01*
X154802982Y-110280761D01*
X154811321Y-110277496D01*
X154816384Y-110278759D01*
G37*
G04 #@! TD.AperFunction*
G04 #@! TA.AperFunction,Conductor*
G36*
X178722018Y-107705761D02*
G01*
X178844417Y-107823466D01*
X178950000Y-107925000D01*
X178742246Y-108124787D01*
X178740654Y-108126318D01*
X178722018Y-108144239D01*
X178713679Y-108147504D01*
X178708616Y-108146241D01*
X178674366Y-108128871D01*
X178674105Y-108128734D01*
X178637904Y-108109032D01*
X178605304Y-108090881D01*
X178574688Y-108074536D01*
X178544311Y-108060188D01*
X178512430Y-108048024D01*
X178494389Y-108042996D01*
X178477565Y-108038307D01*
X178477559Y-108038306D01*
X178477302Y-108038234D01*
X178437184Y-108031008D01*
X178410499Y-108028459D01*
X178390511Y-108026550D01*
X178390505Y-108026550D01*
X178390331Y-108026533D01*
X178390162Y-108026528D01*
X178390157Y-108026528D01*
X178346376Y-108025315D01*
X178338201Y-108021660D01*
X178335000Y-108013619D01*
X178335000Y-107836381D01*
X178338427Y-107828108D01*
X178346376Y-107824685D01*
X178390157Y-107823471D01*
X178390162Y-107823471D01*
X178390331Y-107823466D01*
X178390505Y-107823449D01*
X178390511Y-107823449D01*
X178410499Y-107821540D01*
X178437184Y-107818991D01*
X178477302Y-107811765D01*
X178477559Y-107811693D01*
X178477565Y-107811692D01*
X178494389Y-107807003D01*
X178512430Y-107801975D01*
X178544311Y-107789811D01*
X178574688Y-107775463D01*
X178605304Y-107759118D01*
X178637904Y-107740967D01*
X178674086Y-107721276D01*
X178674387Y-107721118D01*
X178708616Y-107703759D01*
X178717545Y-107703074D01*
X178722018Y-107705761D01*
G37*
G04 #@! TD.AperFunction*
G04 #@! TA.AperFunction,Conductor*
G36*
X151754985Y-111579430D02*
G01*
X151965791Y-111798642D01*
X151969056Y-111806981D01*
X151967793Y-111812044D01*
X151950434Y-111846273D01*
X151950276Y-111846574D01*
X151930589Y-111882746D01*
X151930534Y-111882844D01*
X151912489Y-111915255D01*
X151912433Y-111915356D01*
X151896088Y-111945972D01*
X151881740Y-111976349D01*
X151869576Y-112008230D01*
X151859786Y-112043358D01*
X151852560Y-112083476D01*
X151848085Y-112130329D01*
X151846552Y-112185661D01*
X151646552Y-112185661D01*
X151645018Y-112130329D01*
X151640543Y-112083476D01*
X151633317Y-112043358D01*
X151623527Y-112008230D01*
X151611363Y-111976349D01*
X151597015Y-111945972D01*
X151580670Y-111915356D01*
X151580614Y-111915255D01*
X151562569Y-111882844D01*
X151562514Y-111882746D01*
X151542827Y-111846574D01*
X151542669Y-111846273D01*
X151525311Y-111812045D01*
X151524626Y-111803116D01*
X151527313Y-111798643D01*
X151738119Y-111579430D01*
X151746323Y-111575842D01*
X151754985Y-111579430D01*
G37*
G04 #@! TD.AperFunction*
G04 #@! TA.AperFunction,Conductor*
G36*
X159397018Y-98980761D02*
G01*
X159616231Y-99191567D01*
X159619819Y-99199771D01*
X159616231Y-99208433D01*
X159397018Y-99419239D01*
X159388679Y-99422504D01*
X159383616Y-99421241D01*
X159349366Y-99403871D01*
X159349105Y-99403734D01*
X159312904Y-99384032D01*
X159280304Y-99365881D01*
X159249688Y-99349536D01*
X159219311Y-99335188D01*
X159187430Y-99323024D01*
X159169389Y-99317996D01*
X159152565Y-99313307D01*
X159152559Y-99313306D01*
X159152302Y-99313234D01*
X159112184Y-99306008D01*
X159085499Y-99303459D01*
X159065511Y-99301550D01*
X159065505Y-99301550D01*
X159065331Y-99301533D01*
X159065162Y-99301528D01*
X159065157Y-99301528D01*
X159021376Y-99300315D01*
X159013201Y-99296660D01*
X159010000Y-99288619D01*
X159010000Y-99111381D01*
X159013427Y-99103108D01*
X159021376Y-99099685D01*
X159065157Y-99098471D01*
X159065162Y-99098471D01*
X159065331Y-99098466D01*
X159065505Y-99098449D01*
X159065511Y-99098449D01*
X159085499Y-99096540D01*
X159112184Y-99093991D01*
X159152302Y-99086765D01*
X159152559Y-99086693D01*
X159152565Y-99086692D01*
X159169389Y-99082003D01*
X159187430Y-99076975D01*
X159219311Y-99064811D01*
X159249688Y-99050463D01*
X159280304Y-99034118D01*
X159312904Y-99015967D01*
X159349086Y-98996276D01*
X159349387Y-98996118D01*
X159383616Y-98978759D01*
X159392545Y-98978074D01*
X159397018Y-98980761D01*
G37*
G04 #@! TD.AperFunction*
G04 #@! TA.AperFunction,Conductor*
G36*
X179953659Y-108911451D02*
G01*
X180094279Y-109038667D01*
X180230746Y-109135545D01*
X180231085Y-109135723D01*
X180231088Y-109135725D01*
X180357939Y-109202386D01*
X180357944Y-109202388D01*
X180358269Y-109202559D01*
X180480312Y-109247646D01*
X180521125Y-109258221D01*
X180600196Y-109278709D01*
X180600206Y-109278711D01*
X180600336Y-109278745D01*
X180710924Y-109301551D01*
X180721776Y-109303789D01*
X180721845Y-109303803D01*
X180847877Y-109330669D01*
X180848490Y-109330819D01*
X180907074Y-109346804D01*
X180982411Y-109367361D01*
X180983411Y-109367682D01*
X181128936Y-109421823D01*
X181130052Y-109422306D01*
X181283670Y-109498453D01*
X181289561Y-109505198D01*
X181290030Y-109510767D01*
X181160820Y-110325515D01*
X181130584Y-110516170D01*
X181125903Y-110523804D01*
X181116745Y-110525812D01*
X180118303Y-110327185D01*
X180110858Y-110322210D01*
X180108958Y-110317009D01*
X180091739Y-110162840D01*
X180091671Y-110161864D01*
X180087656Y-110016322D01*
X180087657Y-110015665D01*
X180091444Y-109883185D01*
X180091450Y-109883016D01*
X180096726Y-109760390D01*
X180096732Y-109760251D01*
X180097152Y-109644091D01*
X180086355Y-109531240D01*
X180057991Y-109418323D01*
X180005709Y-109301963D01*
X180005433Y-109301551D01*
X179923379Y-109179113D01*
X179923378Y-109179111D01*
X179923157Y-109178782D01*
X179811354Y-109053654D01*
X179808397Y-109045202D01*
X179811806Y-109037586D01*
X179937538Y-108911854D01*
X179945811Y-108908427D01*
X179953659Y-108911451D01*
G37*
G04 #@! TD.AperFunction*
G04 #@! TA.AperFunction,Conductor*
G36*
X170084562Y-107815115D02*
G01*
X170088150Y-107823777D01*
X170082205Y-108127845D01*
X170078617Y-108136049D01*
X170074143Y-108138737D01*
X170037636Y-108150674D01*
X170037312Y-108150774D01*
X170025377Y-108154297D01*
X169997833Y-108162427D01*
X169961947Y-108172643D01*
X169928740Y-108182735D01*
X169928604Y-108182784D01*
X169928591Y-108182788D01*
X169915353Y-108187532D01*
X169897115Y-108194068D01*
X169865971Y-108208010D01*
X169834210Y-108225927D01*
X169800732Y-108249185D01*
X169764438Y-108279151D01*
X169764304Y-108279278D01*
X169732496Y-108309371D01*
X169724131Y-108312568D01*
X169716182Y-108309145D01*
X169590855Y-108183818D01*
X169587428Y-108175545D01*
X169590629Y-108167504D01*
X169620721Y-108135695D01*
X169620848Y-108135561D01*
X169650814Y-108099267D01*
X169674072Y-108065789D01*
X169691989Y-108034028D01*
X169705931Y-108002884D01*
X169717264Y-107971259D01*
X169727356Y-107938052D01*
X169737572Y-107902166D01*
X169749222Y-107862697D01*
X169749322Y-107862373D01*
X169761263Y-107825857D01*
X169767092Y-107819058D01*
X169772155Y-107817795D01*
X170076223Y-107811850D01*
X170084562Y-107815115D01*
G37*
G04 #@! TD.AperFunction*
G04 #@! TA.AperFunction,Conductor*
G36*
X160227865Y-93567295D02*
G01*
X160236069Y-93570883D01*
X160238757Y-93575357D01*
X160250694Y-93611863D01*
X160250794Y-93612187D01*
X160262447Y-93651666D01*
X160272663Y-93687552D01*
X160282755Y-93720759D01*
X160294088Y-93752384D01*
X160308030Y-93783528D01*
X160325947Y-93815289D01*
X160349205Y-93848767D01*
X160349355Y-93848948D01*
X160349359Y-93848954D01*
X160379051Y-93884916D01*
X160379171Y-93885061D01*
X160404562Y-93911900D01*
X160409391Y-93917004D01*
X160412588Y-93925369D01*
X160409165Y-93933318D01*
X160283838Y-94058645D01*
X160275565Y-94062072D01*
X160267524Y-94058871D01*
X160235715Y-94028778D01*
X160235581Y-94028651D01*
X160199287Y-93998685D01*
X160165809Y-93975427D01*
X160134048Y-93957510D01*
X160102904Y-93943568D01*
X160084666Y-93937032D01*
X160071428Y-93932288D01*
X160071415Y-93932284D01*
X160071279Y-93932235D01*
X160038072Y-93922143D01*
X160002186Y-93911927D01*
X159974642Y-93903797D01*
X159962707Y-93900274D01*
X159962383Y-93900174D01*
X159925877Y-93888237D01*
X159919078Y-93882408D01*
X159917815Y-93877345D01*
X159911870Y-93573277D01*
X159915135Y-93564938D01*
X159923797Y-93561350D01*
X160227865Y-93567295D01*
G37*
G04 #@! TD.AperFunction*
G04 #@! TA.AperFunction,Conductor*
G36*
X167242931Y-102827924D02*
G01*
X167246521Y-102830283D01*
X167265567Y-102848599D01*
X167265569Y-102848600D01*
X167475000Y-103050000D01*
X167385608Y-103135964D01*
X167384016Y-103137495D01*
X167246521Y-103269717D01*
X167238182Y-103272982D01*
X167233976Y-103272111D01*
X167214946Y-103264315D01*
X167214636Y-103264188D01*
X167214314Y-103264098D01*
X167214310Y-103264097D01*
X167187029Y-103256502D01*
X167186738Y-103256421D01*
X167186453Y-103256371D01*
X167186446Y-103256370D01*
X167173649Y-103254151D01*
X167156921Y-103251249D01*
X167137759Y-103249446D01*
X167124938Y-103248239D01*
X167124930Y-103248238D01*
X167124776Y-103248224D01*
X167089891Y-103246896D01*
X167070691Y-103246856D01*
X167051960Y-103246816D01*
X167051857Y-103246816D01*
X167010261Y-103247535D01*
X166964693Y-103248605D01*
X166940592Y-103249074D01*
X166914824Y-103249574D01*
X166914688Y-103249576D01*
X166890343Y-103249765D01*
X166871790Y-103249909D01*
X166863491Y-103246546D01*
X166860000Y-103238209D01*
X166860000Y-102861791D01*
X166863427Y-102853518D01*
X166871791Y-102850091D01*
X166880437Y-102850158D01*
X166914687Y-102850423D01*
X166914823Y-102850425D01*
X166941147Y-102850936D01*
X166964693Y-102851394D01*
X167009138Y-102852438D01*
X167010218Y-102852463D01*
X167010261Y-102852464D01*
X167051857Y-102853183D01*
X167051960Y-102853183D01*
X167070691Y-102853143D01*
X167089891Y-102853103D01*
X167124776Y-102851775D01*
X167124930Y-102851761D01*
X167124938Y-102851760D01*
X167137759Y-102850553D01*
X167156921Y-102848750D01*
X167173649Y-102845848D01*
X167186446Y-102843629D01*
X167186453Y-102843628D01*
X167186738Y-102843578D01*
X167191059Y-102842375D01*
X167214310Y-102835902D01*
X167214314Y-102835901D01*
X167214636Y-102835811D01*
X167226613Y-102830905D01*
X167233976Y-102827889D01*
X167242931Y-102827924D01*
G37*
G04 #@! TD.AperFunction*
G04 #@! TA.AperFunction,Conductor*
G36*
X159067142Y-91273124D02*
G01*
X159110046Y-91273717D01*
X159110390Y-91273727D01*
X159157475Y-91275766D01*
X159157807Y-91275785D01*
X159176782Y-91277147D01*
X159199739Y-91278795D01*
X159199915Y-91278809D01*
X159236085Y-91282211D01*
X159238925Y-91282478D01*
X159239050Y-91282491D01*
X159277075Y-91286481D01*
X159316399Y-91290482D01*
X159316453Y-91290487D01*
X159316467Y-91290488D01*
X159350533Y-91293425D01*
X159359049Y-91294159D01*
X159407165Y-91297188D01*
X159407235Y-91297191D01*
X159407261Y-91297192D01*
X159445800Y-91298612D01*
X159462888Y-91299242D01*
X159516796Y-91299866D01*
X159525029Y-91303388D01*
X159528361Y-91311565D01*
X159528361Y-91488764D01*
X159524934Y-91497037D01*
X159517134Y-91500454D01*
X159505410Y-91500928D01*
X159484702Y-91501765D01*
X159484699Y-91501765D01*
X159484409Y-91501777D01*
X159484118Y-91501818D01*
X159447279Y-91507010D01*
X159447275Y-91507011D01*
X159446905Y-91507063D01*
X159414853Y-91515790D01*
X159387256Y-91527886D01*
X159363119Y-91543283D01*
X159341446Y-91561912D01*
X159321241Y-91583704D01*
X159301509Y-91608589D01*
X159301450Y-91608670D01*
X159301438Y-91608686D01*
X159281253Y-91636497D01*
X159281229Y-91636531D01*
X159264184Y-91660692D01*
X159256615Y-91665476D01*
X159251595Y-91665248D01*
X158958151Y-91586599D01*
X158951047Y-91581147D01*
X158950146Y-91571407D01*
X158979292Y-91488764D01*
X159052605Y-91280885D01*
X159058587Y-91274223D01*
X159063800Y-91273078D01*
X159067142Y-91273124D01*
G37*
G04 #@! TD.AperFunction*
G04 #@! TA.AperFunction,Conductor*
G36*
X159394857Y-101076452D02*
G01*
X159399024Y-101079237D01*
X159454637Y-101137068D01*
X159454659Y-101137090D01*
X159605988Y-101294453D01*
X159612673Y-101301405D01*
X159615938Y-101309744D01*
X159614675Y-101314807D01*
X159597316Y-101349036D01*
X159597168Y-101349318D01*
X159589026Y-101364278D01*
X159577471Y-101385509D01*
X159577416Y-101385607D01*
X159559371Y-101418018D01*
X159559315Y-101418119D01*
X159542970Y-101448735D01*
X159528622Y-101479112D01*
X159516458Y-101510993D01*
X159506668Y-101546121D01*
X159499442Y-101586239D01*
X159494967Y-101633092D01*
X159494962Y-101633261D01*
X159494962Y-101633266D01*
X159493749Y-101677048D01*
X159490094Y-101685223D01*
X159482053Y-101688424D01*
X159304815Y-101688424D01*
X159296542Y-101684997D01*
X159293119Y-101677048D01*
X159291905Y-101633266D01*
X159291905Y-101633261D01*
X159291900Y-101633092D01*
X159287425Y-101586239D01*
X159280199Y-101546121D01*
X159270409Y-101510993D01*
X159258245Y-101479112D01*
X159243897Y-101448735D01*
X159227552Y-101418119D01*
X159209401Y-101385519D01*
X159208322Y-101383535D01*
X159208321Y-101383534D01*
X159189631Y-101349193D01*
X159168434Y-101307396D01*
X159391039Y-101075914D01*
X159391535Y-101075399D01*
X159391708Y-101075219D01*
X159394857Y-101076452D01*
G37*
G04 #@! TD.AperFunction*
G04 #@! TA.AperFunction,Conductor*
G36*
X159596482Y-106613427D02*
G01*
X159599909Y-106621791D01*
X159599576Y-106664688D01*
X159599574Y-106664823D01*
X159598605Y-106714693D01*
X159597535Y-106760261D01*
X159596816Y-106801857D01*
X159596896Y-106839891D01*
X159598224Y-106874776D01*
X159601249Y-106906921D01*
X159606421Y-106936738D01*
X159614188Y-106964636D01*
X159614315Y-106964946D01*
X159622111Y-106983976D01*
X159622076Y-106992930D01*
X159619717Y-106996521D01*
X159408433Y-107216231D01*
X159400229Y-107219819D01*
X159391567Y-107216231D01*
X159180283Y-106996521D01*
X159177018Y-106988182D01*
X159177889Y-106983976D01*
X159185684Y-106964946D01*
X159185811Y-106964636D01*
X159193578Y-106936738D01*
X159198750Y-106906921D01*
X159201775Y-106874776D01*
X159203103Y-106839891D01*
X159203183Y-106801857D01*
X159202464Y-106760261D01*
X159201394Y-106714693D01*
X159200425Y-106664823D01*
X159200423Y-106664687D01*
X159200091Y-106621791D01*
X159203454Y-106613491D01*
X159211791Y-106610000D01*
X159588209Y-106610000D01*
X159596482Y-106613427D01*
G37*
G04 #@! TD.AperFunction*
G04 #@! TA.AperFunction,Conductor*
G36*
X154631754Y-84275874D02*
G01*
X154896013Y-84530000D01*
X154991231Y-84621567D01*
X154994819Y-84629771D01*
X154991231Y-84638433D01*
X154796822Y-84825387D01*
X154631753Y-84984126D01*
X154623414Y-84987391D01*
X154618160Y-84986029D01*
X154577173Y-84964288D01*
X154554440Y-84952229D01*
X154553757Y-84951835D01*
X154493842Y-84914629D01*
X154493378Y-84914326D01*
X154440914Y-84878196D01*
X154440786Y-84878106D01*
X154392704Y-84844037D01*
X154392689Y-84844026D01*
X154392578Y-84843948D01*
X154345389Y-84812663D01*
X154345197Y-84812556D01*
X154296283Y-84785325D01*
X154296278Y-84785323D01*
X154295995Y-84785165D01*
X154295691Y-84785039D01*
X154295686Y-84785036D01*
X154241427Y-84762447D01*
X154241423Y-84762446D01*
X154241078Y-84762302D01*
X154221106Y-84756858D01*
X154177661Y-84745014D01*
X154177653Y-84745012D01*
X154177318Y-84744921D01*
X154142071Y-84739791D01*
X154101701Y-84733915D01*
X154101699Y-84733915D01*
X154101398Y-84733871D01*
X154101102Y-84733858D01*
X154101097Y-84733858D01*
X154071692Y-84732613D01*
X154021204Y-84730475D01*
X154013084Y-84726701D01*
X154010000Y-84718785D01*
X154010000Y-84541215D01*
X154013427Y-84532942D01*
X154021204Y-84529525D01*
X154065529Y-84527648D01*
X154101097Y-84526141D01*
X154101102Y-84526141D01*
X154101398Y-84526128D01*
X154101699Y-84526084D01*
X154101701Y-84526084D01*
X154142071Y-84520208D01*
X154177318Y-84515078D01*
X154177653Y-84514987D01*
X154177661Y-84514985D01*
X154221106Y-84503141D01*
X154241078Y-84497697D01*
X154241423Y-84497553D01*
X154241427Y-84497552D01*
X154295686Y-84474963D01*
X154295691Y-84474960D01*
X154295995Y-84474834D01*
X154296278Y-84474676D01*
X154296283Y-84474674D01*
X154345197Y-84447443D01*
X154345199Y-84447442D01*
X154345389Y-84447336D01*
X154392578Y-84416051D01*
X154440786Y-84381893D01*
X154440914Y-84381803D01*
X154493378Y-84345673D01*
X154493842Y-84345370D01*
X154553757Y-84308164D01*
X154554440Y-84307771D01*
X154574724Y-84297011D01*
X154618160Y-84273971D01*
X154627075Y-84273122D01*
X154631754Y-84275874D01*
G37*
G04 #@! TD.AperFunction*
G04 #@! TA.AperFunction,Conductor*
G36*
X154496892Y-102813427D02*
G01*
X154500315Y-102821376D01*
X154501533Y-102865331D01*
X154506008Y-102912184D01*
X154513234Y-102952302D01*
X154523024Y-102987430D01*
X154535188Y-103019311D01*
X154549536Y-103049688D01*
X154565881Y-103080304D01*
X154565919Y-103080372D01*
X154565927Y-103080387D01*
X154583977Y-103112805D01*
X154584032Y-103112904D01*
X154603724Y-103149086D01*
X154603882Y-103149387D01*
X154621241Y-103183616D01*
X154621926Y-103192545D01*
X154619239Y-103197018D01*
X154408433Y-103416231D01*
X154400229Y-103419819D01*
X154391567Y-103416231D01*
X154180761Y-103197018D01*
X154177496Y-103188679D01*
X154178759Y-103183616D01*
X154196118Y-103149387D01*
X154196276Y-103149086D01*
X154215967Y-103112904D01*
X154216022Y-103112805D01*
X154234072Y-103080387D01*
X154234080Y-103080372D01*
X154234118Y-103080304D01*
X154250463Y-103049688D01*
X154264811Y-103019311D01*
X154276975Y-102987430D01*
X154286765Y-102952302D01*
X154293991Y-102912184D01*
X154298466Y-102865331D01*
X154299685Y-102821376D01*
X154303340Y-102813201D01*
X154311381Y-102810000D01*
X154488619Y-102810000D01*
X154496892Y-102813427D01*
G37*
G04 #@! TD.AperFunction*
G04 #@! TA.AperFunction,Conductor*
G36*
X167563397Y-102570434D02*
G01*
X167829565Y-102836602D01*
X167832992Y-102844875D01*
X167829501Y-102853212D01*
X167798926Y-102883317D01*
X167798828Y-102883412D01*
X167762921Y-102917949D01*
X167762887Y-102917982D01*
X167729909Y-102949447D01*
X167699988Y-102978351D01*
X167673150Y-103005302D01*
X167649422Y-103030908D01*
X167628831Y-103055777D01*
X167611405Y-103080517D01*
X167597170Y-103105736D01*
X167597036Y-103106055D01*
X167597034Y-103106060D01*
X167589098Y-103125013D01*
X167582742Y-103131321D01*
X167578535Y-103132192D01*
X167261612Y-103138388D01*
X167267246Y-102850213D01*
X167267808Y-102821465D01*
X167271396Y-102813261D01*
X167274985Y-102810903D01*
X167294263Y-102802829D01*
X167294552Y-102802666D01*
X167294560Y-102802662D01*
X167309481Y-102794239D01*
X167319482Y-102788594D01*
X167319708Y-102788435D01*
X167319714Y-102788431D01*
X167344036Y-102771299D01*
X167344222Y-102771168D01*
X167369091Y-102750577D01*
X167394697Y-102726849D01*
X167421648Y-102700011D01*
X167450552Y-102670090D01*
X167482017Y-102637112D01*
X167516587Y-102601171D01*
X167516682Y-102601073D01*
X167528225Y-102589350D01*
X167546788Y-102570497D01*
X167555033Y-102567007D01*
X167563397Y-102570434D01*
G37*
G04 #@! TD.AperFunction*
G04 #@! TA.AperFunction,Conductor*
G36*
X157697062Y-103002615D02*
G01*
X157700650Y-103011277D01*
X157694705Y-103315345D01*
X157691117Y-103323549D01*
X157686643Y-103326237D01*
X157650136Y-103338174D01*
X157649812Y-103338274D01*
X157637877Y-103341797D01*
X157610333Y-103349927D01*
X157574447Y-103360143D01*
X157541240Y-103370235D01*
X157541104Y-103370284D01*
X157541091Y-103370288D01*
X157527853Y-103375032D01*
X157509615Y-103381568D01*
X157478471Y-103395510D01*
X157446710Y-103413427D01*
X157413232Y-103436685D01*
X157376938Y-103466651D01*
X157376804Y-103466778D01*
X157344996Y-103496871D01*
X157336631Y-103500068D01*
X157328682Y-103496645D01*
X157203355Y-103371318D01*
X157199928Y-103363045D01*
X157203129Y-103355004D01*
X157233221Y-103323195D01*
X157233348Y-103323061D01*
X157263314Y-103286767D01*
X157286572Y-103253289D01*
X157304489Y-103221528D01*
X157318431Y-103190384D01*
X157329764Y-103158759D01*
X157339856Y-103125552D01*
X157350072Y-103089666D01*
X157361722Y-103050197D01*
X157361822Y-103049873D01*
X157373763Y-103013357D01*
X157379592Y-103006558D01*
X157384655Y-103005295D01*
X157688723Y-102999350D01*
X157697062Y-103002615D01*
G37*
G04 #@! TD.AperFunction*
G04 #@! TA.AperFunction,Conductor*
G36*
X173062931Y-100927924D02*
G01*
X173066521Y-100930283D01*
X173090683Y-100953518D01*
X173295000Y-101150000D01*
X173170000Y-101270207D01*
X173168408Y-101271738D01*
X173066521Y-101369717D01*
X173058182Y-101372982D01*
X173053976Y-101372111D01*
X173034946Y-101364315D01*
X173034636Y-101364188D01*
X173034314Y-101364098D01*
X173034310Y-101364097D01*
X173007029Y-101356502D01*
X173006738Y-101356421D01*
X173006453Y-101356371D01*
X173006446Y-101356370D01*
X172993649Y-101354151D01*
X172976921Y-101351249D01*
X172957759Y-101349446D01*
X172944938Y-101348239D01*
X172944930Y-101348238D01*
X172944776Y-101348224D01*
X172909891Y-101346896D01*
X172890691Y-101346856D01*
X172871960Y-101346816D01*
X172871857Y-101346816D01*
X172830261Y-101347535D01*
X172784693Y-101348605D01*
X172760592Y-101349074D01*
X172734824Y-101349574D01*
X172734688Y-101349576D01*
X172710343Y-101349765D01*
X172691790Y-101349909D01*
X172683491Y-101346546D01*
X172680000Y-101338209D01*
X172680000Y-100961791D01*
X172683427Y-100953518D01*
X172691791Y-100950091D01*
X172700437Y-100950158D01*
X172734687Y-100950423D01*
X172734823Y-100950425D01*
X172761147Y-100950936D01*
X172784693Y-100951394D01*
X172829138Y-100952438D01*
X172830218Y-100952463D01*
X172830261Y-100952464D01*
X172871857Y-100953183D01*
X172871960Y-100953183D01*
X172890691Y-100953143D01*
X172909891Y-100953103D01*
X172944776Y-100951775D01*
X172944930Y-100951761D01*
X172944938Y-100951760D01*
X172957759Y-100950553D01*
X172976921Y-100948750D01*
X172993649Y-100945848D01*
X173006446Y-100943629D01*
X173006453Y-100943628D01*
X173006738Y-100943578D01*
X173007029Y-100943497D01*
X173034310Y-100935902D01*
X173034314Y-100935901D01*
X173034636Y-100935811D01*
X173035872Y-100935305D01*
X173053976Y-100927889D01*
X173062931Y-100927924D01*
G37*
G04 #@! TD.AperFunction*
G04 #@! TA.AperFunction,Conductor*
G36*
X158791840Y-84273971D02*
G01*
X158834056Y-84296364D01*
X158855559Y-84307771D01*
X158856242Y-84308164D01*
X158916157Y-84345370D01*
X158916621Y-84345673D01*
X158969085Y-84381803D01*
X158969213Y-84381893D01*
X159017421Y-84416051D01*
X159064610Y-84447336D01*
X159064800Y-84447442D01*
X159064802Y-84447443D01*
X159113716Y-84474674D01*
X159113721Y-84474676D01*
X159114004Y-84474834D01*
X159114308Y-84474960D01*
X159114313Y-84474963D01*
X159168572Y-84497552D01*
X159168576Y-84497553D01*
X159168921Y-84497697D01*
X159188893Y-84503141D01*
X159232338Y-84514985D01*
X159232346Y-84514987D01*
X159232681Y-84515078D01*
X159267928Y-84520208D01*
X159308298Y-84526084D01*
X159308300Y-84526084D01*
X159308601Y-84526128D01*
X159308897Y-84526141D01*
X159308902Y-84526141D01*
X159344154Y-84527634D01*
X159388796Y-84529525D01*
X159396916Y-84533299D01*
X159400000Y-84541215D01*
X159400000Y-84718785D01*
X159396573Y-84727058D01*
X159388796Y-84730475D01*
X159338096Y-84732622D01*
X159308902Y-84733858D01*
X159308897Y-84733858D01*
X159308601Y-84733871D01*
X159308300Y-84733915D01*
X159308298Y-84733915D01*
X159267928Y-84739791D01*
X159232681Y-84744921D01*
X159232346Y-84745012D01*
X159232338Y-84745014D01*
X159188893Y-84756858D01*
X159168921Y-84762302D01*
X159168576Y-84762446D01*
X159168572Y-84762447D01*
X159114313Y-84785036D01*
X159114308Y-84785039D01*
X159114004Y-84785165D01*
X159113721Y-84785323D01*
X159113716Y-84785325D01*
X159064802Y-84812556D01*
X159064610Y-84812663D01*
X159017421Y-84843948D01*
X159017310Y-84844026D01*
X159017295Y-84844037D01*
X158969213Y-84878106D01*
X158969085Y-84878196D01*
X158916621Y-84914326D01*
X158916157Y-84914629D01*
X158856242Y-84951835D01*
X158855559Y-84952229D01*
X158831224Y-84965137D01*
X158791840Y-84986029D01*
X158782925Y-84986878D01*
X158778247Y-84984126D01*
X158613178Y-84825387D01*
X158418769Y-84638433D01*
X158415181Y-84630229D01*
X158418769Y-84621567D01*
X158513988Y-84530000D01*
X158778247Y-84275874D01*
X158786586Y-84272609D01*
X158791840Y-84273971D01*
G37*
G04 #@! TD.AperFunction*
G04 #@! TA.AperFunction,Conductor*
G36*
X178946077Y-107840707D02*
G01*
X179052845Y-107842795D01*
X179061049Y-107846383D01*
X179063737Y-107850857D01*
X179075674Y-107887363D01*
X179075774Y-107887687D01*
X179087427Y-107927166D01*
X179097643Y-107963052D01*
X179107735Y-107996259D01*
X179119068Y-108027884D01*
X179133010Y-108059028D01*
X179150927Y-108090789D01*
X179174185Y-108124267D01*
X179174335Y-108124448D01*
X179174339Y-108124454D01*
X179204031Y-108160416D01*
X179204151Y-108160561D01*
X179229542Y-108187400D01*
X179234371Y-108192504D01*
X179237568Y-108200869D01*
X179234145Y-108208818D01*
X179108818Y-108334145D01*
X179100545Y-108337572D01*
X179092504Y-108334371D01*
X179060695Y-108304278D01*
X179060561Y-108304151D01*
X179024267Y-108274185D01*
X178990789Y-108250927D01*
X178959028Y-108233010D01*
X178927884Y-108219068D01*
X178909646Y-108212532D01*
X178896408Y-108207788D01*
X178896395Y-108207784D01*
X178896259Y-108207735D01*
X178863052Y-108197643D01*
X178827166Y-108187427D01*
X178799622Y-108179297D01*
X178787687Y-108175774D01*
X178787363Y-108175674D01*
X178750857Y-108163737D01*
X178744058Y-108157908D01*
X178742795Y-108152845D01*
X178742292Y-108127114D01*
X178742291Y-108127113D01*
X178736612Y-107836612D01*
X178946077Y-107840707D01*
G37*
G04 #@! TD.AperFunction*
G04 #@! TA.AperFunction,Conductor*
G36*
X145405844Y-107988289D02*
G01*
X145410136Y-107992581D01*
X145570632Y-108270959D01*
X145571795Y-108279838D01*
X145568970Y-108284869D01*
X145563165Y-108290968D01*
X145551817Y-108304835D01*
X145541134Y-108320324D01*
X145531294Y-108337623D01*
X145522478Y-108356922D01*
X145514863Y-108378408D01*
X145508629Y-108402270D01*
X145508589Y-108402498D01*
X145508586Y-108402510D01*
X145503995Y-108428465D01*
X145503954Y-108428697D01*
X145501018Y-108457878D01*
X145501012Y-108458070D01*
X145500359Y-108478671D01*
X145496672Y-108486831D01*
X145488665Y-108490000D01*
X145311335Y-108490000D01*
X145303062Y-108486573D01*
X145299641Y-108478671D01*
X145298987Y-108458070D01*
X145298981Y-108457878D01*
X145296045Y-108428697D01*
X145296004Y-108428465D01*
X145291413Y-108402510D01*
X145291410Y-108402498D01*
X145291370Y-108402270D01*
X145285136Y-108378408D01*
X145277521Y-108356922D01*
X145268705Y-108337623D01*
X145258865Y-108320324D01*
X145248182Y-108304835D01*
X145236834Y-108290968D01*
X145236672Y-108290797D01*
X145231029Y-108284869D01*
X145227808Y-108276514D01*
X145229368Y-108270959D01*
X145389864Y-107992581D01*
X145396965Y-107987126D01*
X145405844Y-107988289D01*
G37*
G04 #@! TD.AperFunction*
G04 #@! TA.AperFunction,Conductor*
G36*
X167484696Y-110289581D02*
G01*
X167610521Y-110415406D01*
X167613948Y-110423679D01*
X167611046Y-110431391D01*
X167412439Y-110657956D01*
X167412115Y-110658326D01*
X167411859Y-110658740D01*
X167411858Y-110658741D01*
X167361436Y-110740188D01*
X167276549Y-110877306D01*
X167200444Y-111085739D01*
X167200360Y-111086358D01*
X167200359Y-111086360D01*
X167197293Y-111108832D01*
X167172675Y-111289274D01*
X167182116Y-111493562D01*
X167217640Y-111704249D01*
X167217673Y-111704393D01*
X167268124Y-111926986D01*
X167268122Y-111926986D01*
X167268126Y-111926994D01*
X167322382Y-112167160D01*
X167322488Y-112167685D01*
X167369382Y-112430733D01*
X167369509Y-112431648D01*
X167397239Y-112715454D01*
X167394632Y-112724021D01*
X167390200Y-112727347D01*
X165618898Y-113485911D01*
X165609944Y-113486018D01*
X165603365Y-113479338D01*
X164914644Y-111679836D01*
X164914887Y-111670885D01*
X164918382Y-111666423D01*
X165140803Y-111493214D01*
X165193021Y-111452550D01*
X165194228Y-111451726D01*
X165454912Y-111296977D01*
X165456176Y-111296327D01*
X165702253Y-111188160D01*
X165703266Y-111187770D01*
X165940439Y-111108832D01*
X165940912Y-111108685D01*
X166174761Y-111041698D01*
X166410172Y-110969517D01*
X166410176Y-110969516D01*
X166410390Y-110969450D01*
X166652994Y-110874667D01*
X166653286Y-110874513D01*
X166653290Y-110874511D01*
X166907656Y-110740188D01*
X166907657Y-110740187D01*
X166907991Y-110740011D01*
X167180802Y-110548146D01*
X167181057Y-110547917D01*
X167181064Y-110547911D01*
X167468597Y-110289157D01*
X167477039Y-110286170D01*
X167484696Y-110289581D01*
G37*
G04 #@! TD.AperFunction*
G04 #@! TA.AperFunction,Conductor*
G36*
X161681271Y-107315179D02*
G01*
X161684859Y-107323383D01*
X161684481Y-107326569D01*
X161626121Y-107550000D01*
X161602147Y-107641782D01*
X161596741Y-107648920D01*
X161591522Y-107650504D01*
X161563535Y-107652166D01*
X161553246Y-107652777D01*
X161553244Y-107652777D01*
X161552861Y-107652800D01*
X161552490Y-107652870D01*
X161552483Y-107652871D01*
X161531642Y-107656813D01*
X161512674Y-107660400D01*
X161512343Y-107660505D01*
X161512340Y-107660506D01*
X161477707Y-107671517D01*
X161477446Y-107671600D01*
X161477193Y-107671707D01*
X161477192Y-107671707D01*
X161445302Y-107685149D01*
X161445285Y-107685157D01*
X161445182Y-107685200D01*
X161445086Y-107685246D01*
X161445069Y-107685253D01*
X161413954Y-107699968D01*
X161413823Y-107700029D01*
X161381887Y-107714652D01*
X161381218Y-107714933D01*
X161346757Y-107728194D01*
X161345684Y-107728549D01*
X161306494Y-107739426D01*
X161305219Y-107739704D01*
X161259133Y-107747099D01*
X161257873Y-107747231D01*
X161214413Y-107749390D01*
X161205980Y-107746377D01*
X161202133Y-107737704D01*
X161202133Y-107560671D01*
X161205560Y-107552398D01*
X161212758Y-107549020D01*
X161226597Y-107547743D01*
X161239981Y-107546508D01*
X161240624Y-107546291D01*
X161240626Y-107546291D01*
X161268761Y-107536817D01*
X161269542Y-107536554D01*
X161270217Y-107536087D01*
X161270220Y-107536085D01*
X161291452Y-107521379D01*
X161292118Y-107520918D01*
X161309009Y-107500381D01*
X161321518Y-107475723D01*
X161330943Y-107447726D01*
X161338588Y-107417170D01*
X161338605Y-107417094D01*
X161338612Y-107417064D01*
X161345731Y-107384931D01*
X161345776Y-107384736D01*
X161353658Y-107351838D01*
X161353833Y-107351189D01*
X161361251Y-107326569D01*
X161361389Y-107326112D01*
X161367056Y-107319180D01*
X161372360Y-107317791D01*
X161672932Y-107311914D01*
X161681271Y-107315179D01*
G37*
G04 #@! TD.AperFunction*
G04 #@! TA.AperFunction,Conductor*
G36*
X150213434Y-113456079D02*
G01*
X150217649Y-113505306D01*
X150221824Y-113531199D01*
X150224457Y-113547533D01*
X150230569Y-113572092D01*
X150231813Y-113577089D01*
X150233682Y-113584601D01*
X150245149Y-113618353D01*
X150258680Y-113650630D01*
X150274100Y-113683276D01*
X150283923Y-113703263D01*
X150291182Y-113718033D01*
X150291231Y-113718133D01*
X150309837Y-113756915D01*
X150309969Y-113757201D01*
X150320365Y-113780457D01*
X150326539Y-113794270D01*
X150326787Y-113803222D01*
X150323897Y-113807545D01*
X150103747Y-114015698D01*
X150102899Y-114016500D01*
X150094533Y-114019693D01*
X150086052Y-114015698D01*
X149885886Y-113786694D01*
X149883021Y-113778210D01*
X149884506Y-113773243D01*
X149903625Y-113739373D01*
X149903753Y-113739152D01*
X149925058Y-113703263D01*
X149925061Y-113703265D01*
X149925065Y-113703250D01*
X149944336Y-113670883D01*
X149944359Y-113670844D01*
X149944386Y-113670798D01*
X149944405Y-113670763D01*
X149944423Y-113670733D01*
X149961465Y-113640292D01*
X149961552Y-113640137D01*
X149961624Y-113639989D01*
X149961634Y-113639970D01*
X149976320Y-113609791D01*
X149976324Y-113609782D01*
X149976430Y-113609564D01*
X149988890Y-113577365D01*
X149998804Y-113541824D01*
X150006044Y-113501228D01*
X150010483Y-113453861D01*
X150011991Y-113398009D01*
X150211991Y-113398009D01*
X150213434Y-113456079D01*
G37*
G04 #@! TD.AperFunction*
G04 #@! TA.AperFunction,Conductor*
G36*
X159701750Y-94028280D02*
G01*
X159709954Y-94031868D01*
X159712642Y-94036342D01*
X159724579Y-94072848D01*
X159724679Y-94073172D01*
X159736332Y-94112651D01*
X159746548Y-94148537D01*
X159756640Y-94181744D01*
X159767973Y-94213369D01*
X159781915Y-94244513D01*
X159799832Y-94276274D01*
X159823090Y-94309752D01*
X159823240Y-94309933D01*
X159823244Y-94309939D01*
X159852936Y-94345901D01*
X159853056Y-94346046D01*
X159878447Y-94372885D01*
X159883276Y-94377989D01*
X159886473Y-94386354D01*
X159883050Y-94394303D01*
X159757723Y-94519630D01*
X159749450Y-94523057D01*
X159741409Y-94519856D01*
X159709600Y-94489763D01*
X159709466Y-94489636D01*
X159673172Y-94459670D01*
X159639694Y-94436412D01*
X159607933Y-94418495D01*
X159576789Y-94404553D01*
X159558551Y-94398017D01*
X159545313Y-94393273D01*
X159545300Y-94393269D01*
X159545164Y-94393220D01*
X159511957Y-94383128D01*
X159476071Y-94372912D01*
X159448527Y-94364782D01*
X159436592Y-94361259D01*
X159436268Y-94361159D01*
X159399762Y-94349222D01*
X159392963Y-94343393D01*
X159391700Y-94338330D01*
X159385755Y-94034262D01*
X159389020Y-94025923D01*
X159397682Y-94022335D01*
X159701750Y-94028280D01*
G37*
G04 #@! TD.AperFunction*
G04 #@! TA.AperFunction,Conductor*
G36*
X157348433Y-84438769D02*
G01*
X157694037Y-84798154D01*
X157697302Y-84806493D01*
X157695860Y-84811895D01*
X157659267Y-84878537D01*
X157658662Y-84879521D01*
X157616914Y-84940429D01*
X157616377Y-84941150D01*
X157574507Y-84993171D01*
X157574231Y-84993501D01*
X157533399Y-85040488D01*
X157495103Y-85085959D01*
X157460799Y-85133529D01*
X157431812Y-85186956D01*
X157409466Y-85250003D01*
X157395087Y-85326431D01*
X157395067Y-85326806D01*
X157395066Y-85326811D01*
X157390602Y-85408935D01*
X157386731Y-85417010D01*
X157378919Y-85420000D01*
X157301081Y-85420000D01*
X157292808Y-85416573D01*
X157289398Y-85408935D01*
X157284933Y-85326811D01*
X157284932Y-85326806D01*
X157284912Y-85326431D01*
X157270533Y-85250003D01*
X157248187Y-85186956D01*
X157219200Y-85133529D01*
X157184896Y-85085959D01*
X157146600Y-85040488D01*
X157105768Y-84993501D01*
X157105492Y-84993171D01*
X157063622Y-84941150D01*
X157063085Y-84940429D01*
X157021332Y-84879514D01*
X157020737Y-84878546D01*
X156984140Y-84811895D01*
X156983162Y-84802994D01*
X156985963Y-84798154D01*
X157331567Y-84438769D01*
X157339771Y-84435181D01*
X157348433Y-84438769D01*
G37*
G04 #@! TD.AperFunction*
G04 #@! TA.AperFunction,Conductor*
G36*
X151627845Y-91317795D02*
G01*
X151636049Y-91321383D01*
X151638737Y-91325857D01*
X151650674Y-91362363D01*
X151650774Y-91362687D01*
X151662427Y-91402166D01*
X151672643Y-91438052D01*
X151682735Y-91471259D01*
X151694068Y-91502884D01*
X151708010Y-91534028D01*
X151725927Y-91565789D01*
X151749185Y-91599267D01*
X151749335Y-91599448D01*
X151749339Y-91599454D01*
X151779031Y-91635416D01*
X151779151Y-91635561D01*
X151804542Y-91662400D01*
X151809371Y-91667504D01*
X151812568Y-91675869D01*
X151809145Y-91683818D01*
X151683818Y-91809145D01*
X151675545Y-91812572D01*
X151667504Y-91809371D01*
X151635695Y-91779278D01*
X151635561Y-91779151D01*
X151599267Y-91749185D01*
X151565789Y-91725927D01*
X151534028Y-91708010D01*
X151502884Y-91694068D01*
X151484646Y-91687532D01*
X151471408Y-91682788D01*
X151471395Y-91682784D01*
X151471259Y-91682735D01*
X151438052Y-91672643D01*
X151402166Y-91662427D01*
X151374622Y-91654297D01*
X151362687Y-91650774D01*
X151362363Y-91650674D01*
X151325857Y-91638737D01*
X151319058Y-91632908D01*
X151317795Y-91627845D01*
X151311850Y-91323777D01*
X151315115Y-91315438D01*
X151323777Y-91311850D01*
X151627845Y-91317795D01*
G37*
G04 #@! TD.AperFunction*
G04 #@! TA.AperFunction,Conductor*
G36*
X163732496Y-100890629D02*
G01*
X163764438Y-100920848D01*
X163800732Y-100950814D01*
X163834210Y-100974072D01*
X163865971Y-100991989D01*
X163897115Y-101005931D01*
X163915353Y-101012467D01*
X163928591Y-101017211D01*
X163928604Y-101017215D01*
X163928740Y-101017264D01*
X163961947Y-101027356D01*
X163997833Y-101037572D01*
X164025377Y-101045702D01*
X164037312Y-101049225D01*
X164037636Y-101049325D01*
X164074143Y-101061263D01*
X164080942Y-101067092D01*
X164082205Y-101072155D01*
X164088150Y-101376223D01*
X164084885Y-101384562D01*
X164076223Y-101388150D01*
X163772155Y-101382205D01*
X163763951Y-101378617D01*
X163761263Y-101374143D01*
X163749325Y-101337636D01*
X163749225Y-101337312D01*
X163737599Y-101297926D01*
X163737567Y-101297817D01*
X163727356Y-101261947D01*
X163717312Y-101228899D01*
X163717264Y-101228740D01*
X163705931Y-101197115D01*
X163691989Y-101165971D01*
X163674072Y-101134210D01*
X163650814Y-101100732D01*
X163623040Y-101067092D01*
X163620968Y-101064583D01*
X163620964Y-101064578D01*
X163620848Y-101064438D01*
X163590629Y-101032496D01*
X163587432Y-101024131D01*
X163590855Y-101016182D01*
X163716182Y-100890855D01*
X163724455Y-100887428D01*
X163732496Y-100890629D01*
G37*
G04 #@! TD.AperFunction*
G04 #@! TA.AperFunction,Conductor*
G36*
X173286025Y-100927889D02*
G01*
X173305363Y-100935811D01*
X173305685Y-100935901D01*
X173305689Y-100935902D01*
X173332970Y-100943497D01*
X173333261Y-100943578D01*
X173333546Y-100943628D01*
X173333553Y-100943629D01*
X173346350Y-100945848D01*
X173363078Y-100948750D01*
X173382240Y-100950553D01*
X173395061Y-100951760D01*
X173395069Y-100951761D01*
X173395223Y-100951775D01*
X173430108Y-100953103D01*
X173449308Y-100953143D01*
X173468039Y-100953183D01*
X173468142Y-100953183D01*
X173509738Y-100952464D01*
X173555306Y-100951394D01*
X173578852Y-100950936D01*
X173605176Y-100950425D01*
X173605312Y-100950423D01*
X173639668Y-100950157D01*
X173648209Y-100950091D01*
X173656509Y-100953454D01*
X173660000Y-100961791D01*
X173660000Y-101338209D01*
X173656573Y-101346482D01*
X173648210Y-101349909D01*
X173629711Y-101349765D01*
X173605311Y-101349576D01*
X173605175Y-101349574D01*
X173579407Y-101349074D01*
X173555306Y-101348605D01*
X173509738Y-101347535D01*
X173468142Y-101346816D01*
X173468039Y-101346816D01*
X173449308Y-101346856D01*
X173430108Y-101346896D01*
X173395223Y-101348224D01*
X173395069Y-101348238D01*
X173395061Y-101348239D01*
X173382240Y-101349446D01*
X173363078Y-101351249D01*
X173346350Y-101354151D01*
X173333553Y-101356370D01*
X173333546Y-101356371D01*
X173333261Y-101356421D01*
X173305363Y-101364188D01*
X173305058Y-101364313D01*
X173305052Y-101364315D01*
X173286024Y-101372111D01*
X173277069Y-101372076D01*
X173273478Y-101369717D01*
X173259599Y-101356370D01*
X173045000Y-101150000D01*
X173170000Y-101029793D01*
X173251526Y-100951394D01*
X173254317Y-100948710D01*
X173273479Y-100930283D01*
X173281818Y-100927018D01*
X173286025Y-100927889D01*
G37*
G04 #@! TD.AperFunction*
G04 #@! TA.AperFunction,Conductor*
G36*
X151916384Y-101178759D02*
G01*
X151950633Y-101196128D01*
X151950894Y-101196265D01*
X151987095Y-101215967D01*
X152019695Y-101234118D01*
X152050311Y-101250463D01*
X152080688Y-101264811D01*
X152112569Y-101276975D01*
X152130610Y-101282003D01*
X152147434Y-101286692D01*
X152147440Y-101286693D01*
X152147697Y-101286765D01*
X152187815Y-101293991D01*
X152214500Y-101296540D01*
X152234488Y-101298449D01*
X152234494Y-101298449D01*
X152234668Y-101298466D01*
X152234837Y-101298471D01*
X152234842Y-101298471D01*
X152278624Y-101299685D01*
X152286799Y-101303340D01*
X152290000Y-101311381D01*
X152290000Y-101488619D01*
X152286573Y-101496892D01*
X152278624Y-101500315D01*
X152234842Y-101501528D01*
X152234837Y-101501528D01*
X152234668Y-101501533D01*
X152234494Y-101501550D01*
X152234488Y-101501550D01*
X152214500Y-101503459D01*
X152187815Y-101506008D01*
X152147697Y-101513234D01*
X152147440Y-101513306D01*
X152147434Y-101513307D01*
X152130610Y-101517996D01*
X152112569Y-101523024D01*
X152080688Y-101535188D01*
X152050311Y-101549536D01*
X152019695Y-101565881D01*
X151987095Y-101584032D01*
X151950894Y-101603734D01*
X151950633Y-101603871D01*
X151933960Y-101612327D01*
X151916383Y-101621241D01*
X151907454Y-101621926D01*
X151902981Y-101619239D01*
X151886929Y-101603802D01*
X151683769Y-101408433D01*
X151680181Y-101400229D01*
X151683769Y-101391567D01*
X151902982Y-101180761D01*
X151911321Y-101177496D01*
X151916384Y-101178759D01*
G37*
G04 #@! TD.AperFunction*
G04 #@! TA.AperFunction,Conductor*
G36*
X151850860Y-112030187D02*
G01*
X151855725Y-112065906D01*
X151863010Y-112119399D01*
X151881836Y-112194574D01*
X151906175Y-112259715D01*
X151934863Y-112318822D01*
X151966734Y-112375896D01*
X151966768Y-112375956D01*
X151966769Y-112375957D01*
X152000534Y-112434780D01*
X152000706Y-112435090D01*
X152035212Y-112499651D01*
X152035525Y-112500283D01*
X152069626Y-112574530D01*
X152069965Y-112575347D01*
X152099831Y-112655935D01*
X152099493Y-112664884D01*
X152096128Y-112669170D01*
X151667153Y-113009211D01*
X151658541Y-113011665D01*
X151650439Y-113006946D01*
X151327405Y-112564983D01*
X151325290Y-112556283D01*
X151327333Y-112551275D01*
X151372979Y-112487430D01*
X151373414Y-112486861D01*
X151415566Y-112434940D01*
X151421861Y-112427185D01*
X151422132Y-112426863D01*
X151468084Y-112374289D01*
X151468148Y-112374216D01*
X151468156Y-112374207D01*
X151510541Y-112325620D01*
X151510544Y-112325617D01*
X151510622Y-112325527D01*
X151548816Y-112277278D01*
X151581863Y-112226090D01*
X151596556Y-112194873D01*
X151608779Y-112168902D01*
X151608779Y-112168901D01*
X151608962Y-112168513D01*
X151609083Y-112168111D01*
X151609086Y-112168104D01*
X151629198Y-112101471D01*
X151629199Y-112101468D01*
X151629311Y-112101096D01*
X151642108Y-112020388D01*
X151646552Y-111922939D01*
X151846552Y-111922939D01*
X151850860Y-112030187D01*
G37*
G04 #@! TD.AperFunction*
G04 #@! TA.AperFunction,Conductor*
G36*
X160878543Y-84410761D02*
G01*
X161097756Y-84621567D01*
X161101344Y-84629771D01*
X161097756Y-84638433D01*
X160878543Y-84849239D01*
X160870204Y-84852504D01*
X160865141Y-84851241D01*
X160830891Y-84833871D01*
X160830630Y-84833734D01*
X160794429Y-84814032D01*
X160761829Y-84795881D01*
X160731213Y-84779536D01*
X160700836Y-84765188D01*
X160668955Y-84753024D01*
X160650914Y-84747996D01*
X160634090Y-84743307D01*
X160634084Y-84743306D01*
X160633827Y-84743234D01*
X160593709Y-84736008D01*
X160567024Y-84733459D01*
X160547036Y-84731550D01*
X160547030Y-84731550D01*
X160546856Y-84731533D01*
X160546687Y-84731528D01*
X160546682Y-84731528D01*
X160502901Y-84730315D01*
X160494726Y-84726660D01*
X160491525Y-84718619D01*
X160491525Y-84541381D01*
X160494952Y-84533108D01*
X160502901Y-84529685D01*
X160546682Y-84528471D01*
X160546687Y-84528471D01*
X160546856Y-84528466D01*
X160547030Y-84528449D01*
X160547036Y-84528449D01*
X160567024Y-84526540D01*
X160593709Y-84523991D01*
X160633827Y-84516765D01*
X160634084Y-84516693D01*
X160634090Y-84516692D01*
X160650914Y-84512003D01*
X160668955Y-84506975D01*
X160700836Y-84494811D01*
X160731213Y-84480463D01*
X160761829Y-84464118D01*
X160794429Y-84445967D01*
X160830611Y-84426276D01*
X160830912Y-84426118D01*
X160865141Y-84408759D01*
X160874070Y-84408074D01*
X160878543Y-84410761D01*
G37*
G04 #@! TD.AperFunction*
G04 #@! TA.AperFunction,Conductor*
G36*
X150120424Y-112590019D02*
G01*
X150499854Y-112984580D01*
X150503119Y-112992919D01*
X150501745Y-112998195D01*
X150463708Y-113069534D01*
X150463282Y-113070268D01*
X150421611Y-113136379D01*
X150421275Y-113136883D01*
X150380610Y-113194548D01*
X150380511Y-113194685D01*
X150341880Y-113247526D01*
X150341810Y-113247628D01*
X150306511Y-113298940D01*
X150306504Y-113298951D01*
X150306383Y-113299127D01*
X150275084Y-113353125D01*
X150248989Y-113413242D01*
X150229105Y-113483196D01*
X150216437Y-113566709D01*
X150211991Y-113667500D01*
X150011991Y-113667500D01*
X150007544Y-113566709D01*
X149994876Y-113483196D01*
X149974992Y-113413242D01*
X149948897Y-113353125D01*
X149917598Y-113299127D01*
X149917477Y-113298951D01*
X149917470Y-113298940D01*
X149882171Y-113247628D01*
X149882101Y-113247526D01*
X149843470Y-113194685D01*
X149843371Y-113194548D01*
X149802706Y-113136883D01*
X149802370Y-113136379D01*
X149760699Y-113070268D01*
X149760273Y-113069534D01*
X149722237Y-112998195D01*
X149721368Y-112989282D01*
X149724128Y-112984580D01*
X150103558Y-112590019D01*
X150111762Y-112586431D01*
X150120424Y-112590019D01*
G37*
G04 #@! TD.AperFunction*
M02*
