G04 #@! TF.GenerationSoftware,KiCad,Pcbnew,(6.0.9)*
G04 #@! TF.CreationDate,2022-11-24T22:46:59+01:00*
G04 #@! TF.ProjectId,telinksensor-hw,74656c69-6e6b-4736-956e-736f722d6877,rev?*
G04 #@! TF.SameCoordinates,Original*
G04 #@! TF.FileFunction,Paste,Top*
G04 #@! TF.FilePolarity,Positive*
%FSLAX46Y46*%
G04 Gerber Fmt 4.6, Leading zero omitted, Abs format (unit mm)*
G04 Created by KiCad (PCBNEW (6.0.9)) date 2022-11-24 22:46:59*
%MOMM*%
%LPD*%
G01*
G04 APERTURE LIST*
G04 Aperture macros list*
%AMRoundRect*
0 Rectangle with rounded corners*
0 $1 Rounding radius*
0 $2 $3 $4 $5 $6 $7 $8 $9 X,Y pos of 4 corners*
0 Add a 4 corners polygon primitive as box body*
4,1,4,$2,$3,$4,$5,$6,$7,$8,$9,$2,$3,0*
0 Add four circle primitives for the rounded corners*
1,1,$1+$1,$2,$3*
1,1,$1+$1,$4,$5*
1,1,$1+$1,$6,$7*
1,1,$1+$1,$8,$9*
0 Add four rect primitives between the rounded corners*
20,1,$1+$1,$2,$3,$4,$5,0*
20,1,$1+$1,$4,$5,$6,$7,0*
20,1,$1+$1,$6,$7,$8,$9,0*
20,1,$1+$1,$8,$9,$2,$3,0*%
%AMFreePoly0*
4,1,51,0.336391,0.320733,0.339746,0.321325,0.342697,0.319621,0.352657,0.317865,0.367915,0.305062,0.385173,0.295098,0.387540,0.288594,0.392839,0.284148,0.396298,0.264531,0.403113,0.245807,0.403113,-0.182281,0.402286,-0.186969,0.402821,-0.188965,0.401395,-0.192023,0.398488,-0.208508,0.387729,-0.221330,0.380653,-0.236504,0.317127,-0.300030,0.313229,-0.302759,0.312195,-0.304550,
0.309022,-0.305705,0.295311,-0.315305,0.278638,-0.316764,0.262904,-0.322490,-0.262904,-0.322490,-0.267592,-0.321663,-0.269588,-0.322198,-0.272646,-0.320772,-0.289131,-0.317865,-0.301953,-0.307106,-0.317127,-0.300030,-0.380653,-0.236504,-0.383382,-0.232606,-0.385173,-0.231572,-0.386328,-0.228399,-0.395928,-0.214688,-0.397387,-0.198015,-0.403113,-0.182281,-0.403113,0.245807,-0.401356,0.255768,
-0.401948,0.259123,-0.400244,0.262074,-0.398488,0.272034,-0.385685,0.287292,-0.375721,0.304550,-0.369217,0.306917,-0.364771,0.312216,-0.345154,0.315675,-0.326430,0.322490,0.326430,0.322490,0.336391,0.320733,0.336391,0.320733,$1*%
%AMFreePoly1*
4,1,51,0.267590,0.321664,0.269588,0.322199,0.272649,0.320771,0.289131,0.317865,0.301953,0.307106,0.317127,0.300030,0.380653,0.236504,0.383383,0.232606,0.385173,0.231572,0.386327,0.228400,0.395928,0.214689,0.397387,0.198015,0.403113,0.182281,0.403113,-0.245807,0.401356,-0.255768,0.401948,-0.259123,0.400244,-0.262074,0.398488,-0.272034,0.385685,-0.287292,0.375721,-0.304550,
0.369217,-0.306917,0.364771,-0.312216,0.345154,-0.315675,0.326430,-0.322490,-0.326430,-0.322490,-0.336391,-0.320733,-0.339746,-0.321325,-0.342697,-0.319621,-0.352657,-0.317865,-0.367915,-0.305062,-0.385173,-0.295098,-0.387540,-0.288594,-0.392839,-0.284148,-0.396298,-0.264531,-0.403113,-0.245807,-0.403113,0.182281,-0.402287,0.186967,-0.402822,0.188965,-0.401394,0.192026,-0.398488,0.208508,
-0.387729,0.221330,-0.380653,0.236504,-0.317127,0.300030,-0.313229,0.302760,-0.312195,0.304550,-0.309023,0.305704,-0.295312,0.315305,-0.278638,0.316764,-0.262904,0.322490,0.262904,0.322490,0.267590,0.321664,0.267590,0.321664,$1*%
%AMFreePoly2*
4,1,51,0.255768,0.401356,0.259123,0.401948,0.262074,0.400244,0.272034,0.398488,0.287292,0.385685,0.304550,0.375721,0.306917,0.369217,0.312216,0.364771,0.315675,0.345154,0.322490,0.326430,0.322490,-0.326430,0.320733,-0.336391,0.321325,-0.339746,0.319621,-0.342697,0.317865,-0.352657,0.305062,-0.367915,0.295098,-0.385173,0.288594,-0.387540,0.284148,-0.392839,0.264531,-0.396298,
0.245807,-0.403113,-0.182281,-0.403113,-0.186969,-0.402286,-0.188965,-0.402821,-0.192023,-0.401395,-0.208508,-0.398488,-0.221330,-0.387729,-0.236504,-0.380653,-0.300030,-0.317127,-0.302759,-0.313229,-0.304550,-0.312195,-0.305705,-0.309022,-0.315305,-0.295311,-0.316764,-0.278638,-0.322490,-0.262904,-0.322490,0.262904,-0.321664,0.267590,-0.322199,0.269588,-0.320771,0.272649,-0.317865,0.289131,
-0.307106,0.301953,-0.300030,0.317127,-0.236504,0.380653,-0.232606,0.383383,-0.231572,0.385173,-0.228400,0.386327,-0.214689,0.395928,-0.198015,0.397387,-0.182281,0.403113,0.245807,0.403113,0.255768,0.401356,0.255768,0.401356,$1*%
%AMFreePoly3*
4,1,48,0.243847,0.320420,0.247801,0.321117,0.251279,0.319109,0.263019,0.317039,0.281007,0.301946,0.301344,0.290204,0.304133,0.282540,0.310381,0.277298,0.314459,0.254171,0.322490,0.232106,0.322490,-0.232106,0.320420,-0.243847,0.321117,-0.247801,0.319109,-0.251279,0.317039,-0.263019,0.301946,-0.281007,0.290204,-0.301344,0.282540,-0.304133,0.277298,-0.310381,0.254171,-0.314459,
0.232106,-0.322490,-0.232106,-0.322490,-0.243847,-0.320420,-0.247801,-0.321117,-0.251279,-0.319109,-0.263019,-0.317039,-0.281007,-0.301946,-0.301344,-0.290204,-0.304133,-0.282540,-0.310381,-0.277298,-0.314459,-0.254171,-0.322490,-0.232106,-0.322490,0.157228,-0.321516,0.162753,-0.322146,0.165105,-0.320466,0.168709,-0.317039,0.188141,-0.304356,0.203257,-0.296017,0.221139,-0.221139,0.296017,
-0.216544,0.299234,-0.215326,0.301344,-0.211588,0.302705,-0.195426,0.314021,-0.175771,0.315741,-0.157228,0.322490,0.232106,0.322490,0.243847,0.320420,0.243847,0.320420,$1*%
%AMFreePoly4*
4,1,48,0.243847,0.320420,0.247801,0.321117,0.251279,0.319109,0.263019,0.317039,0.281007,0.301946,0.301344,0.290204,0.304133,0.282540,0.310381,0.277298,0.314459,0.254171,0.322490,0.232106,0.322490,-0.232106,0.320420,-0.243847,0.321117,-0.247801,0.319109,-0.251279,0.317039,-0.263019,0.301946,-0.281007,0.290204,-0.301344,0.282540,-0.304133,0.277298,-0.310381,0.254171,-0.314459,
0.232106,-0.322490,-0.157228,-0.322490,-0.162754,-0.321516,-0.165106,-0.322146,-0.168710,-0.320465,-0.188141,-0.317039,-0.203256,-0.304356,-0.221139,-0.296017,-0.296017,-0.221139,-0.299234,-0.216544,-0.301344,-0.215326,-0.302705,-0.211588,-0.314021,-0.195426,-0.315741,-0.175771,-0.322490,-0.157228,-0.322490,0.232106,-0.320420,0.243847,-0.321117,0.247801,-0.319109,0.251279,-0.317039,0.263019,
-0.301946,0.281007,-0.290204,0.301344,-0.282540,0.304133,-0.277298,0.310381,-0.254171,0.314459,-0.232106,0.322490,0.232106,0.322490,0.243847,0.320420,0.243847,0.320420,$1*%
%AMFreePoly5*
4,1,51,0.186967,0.402287,0.188965,0.402822,0.192026,0.401394,0.208508,0.398488,0.221330,0.387729,0.236504,0.380653,0.300030,0.317127,0.302760,0.313229,0.304550,0.312195,0.305704,0.309023,0.315305,0.295312,0.316764,0.278638,0.322490,0.262904,0.322490,-0.262904,0.321663,-0.267592,0.322198,-0.269588,0.320772,-0.272646,0.317865,-0.289131,0.307106,-0.301953,0.300030,-0.317127,
0.236504,-0.380653,0.232606,-0.383382,0.231572,-0.385173,0.228399,-0.386328,0.214688,-0.395928,0.198015,-0.397387,0.182281,-0.403113,-0.245807,-0.403113,-0.255768,-0.401356,-0.259123,-0.401948,-0.262074,-0.400244,-0.272034,-0.398488,-0.287292,-0.385685,-0.304550,-0.375721,-0.306917,-0.369217,-0.312216,-0.364771,-0.315675,-0.345154,-0.322490,-0.326430,-0.322490,0.326430,-0.320733,0.336391,
-0.321325,0.339746,-0.319621,0.342697,-0.317865,0.352657,-0.305062,0.367915,-0.295098,0.385173,-0.288594,0.387540,-0.284148,0.392839,-0.264531,0.396298,-0.245807,0.403113,0.182281,0.403113,0.186967,0.402287,0.186967,0.402287,$1*%
%AMFreePoly6*
4,1,48,0.243847,0.320420,0.247801,0.321117,0.251279,0.319109,0.263019,0.317039,0.281007,0.301946,0.301344,0.290204,0.304133,0.282540,0.310381,0.277298,0.314459,0.254171,0.322490,0.232106,0.322490,-0.157228,0.321516,-0.162754,0.322146,-0.165106,0.320465,-0.168710,0.317039,-0.188141,0.304356,-0.203256,0.296017,-0.221139,0.221139,-0.296017,0.216544,-0.299234,0.215326,-0.301344,
0.211588,-0.302705,0.195426,-0.314021,0.175771,-0.315741,0.157228,-0.322490,-0.232106,-0.322490,-0.243847,-0.320420,-0.247801,-0.321117,-0.251279,-0.319109,-0.263019,-0.317039,-0.281007,-0.301946,-0.301344,-0.290204,-0.304133,-0.282540,-0.310381,-0.277298,-0.314459,-0.254171,-0.322490,-0.232106,-0.322490,0.232106,-0.320420,0.243847,-0.321117,0.247801,-0.319109,0.251279,-0.317039,0.263019,
-0.301946,0.281007,-0.290204,0.301344,-0.282540,0.304133,-0.277298,0.310381,-0.254171,0.314459,-0.232106,0.322490,0.232106,0.322490,0.243847,0.320420,0.243847,0.320420,$1*%
%AMFreePoly7*
4,1,48,0.162753,0.321516,0.165105,0.322146,0.168709,0.320466,0.188141,0.317039,0.203257,0.304356,0.221139,0.296017,0.296017,0.221139,0.299234,0.216544,0.301344,0.215326,0.302705,0.211588,0.314021,0.195426,0.315741,0.175771,0.322490,0.157228,0.322490,-0.232106,0.320420,-0.243847,0.321117,-0.247801,0.319109,-0.251279,0.317039,-0.263019,0.301946,-0.281007,0.290204,-0.301344,
0.282540,-0.304133,0.277298,-0.310381,0.254171,-0.314459,0.232106,-0.322490,-0.232106,-0.322490,-0.243847,-0.320420,-0.247801,-0.321117,-0.251279,-0.319109,-0.263019,-0.317039,-0.281007,-0.301946,-0.301344,-0.290204,-0.304133,-0.282540,-0.310381,-0.277298,-0.314459,-0.254171,-0.322490,-0.232106,-0.322490,0.232106,-0.320420,0.243847,-0.321117,0.247801,-0.319109,0.251279,-0.317039,0.263019,
-0.301946,0.281007,-0.290204,0.301344,-0.282540,0.304133,-0.277298,0.310381,-0.254171,0.314459,-0.232106,0.322490,0.157228,0.322490,0.162753,0.321516,0.162753,0.321516,$1*%
G04 Aperture macros list end*
%ADD10RoundRect,0.160000X0.160000X-0.160000X0.160000X0.160000X-0.160000X0.160000X-0.160000X-0.160000X0*%
%ADD11RoundRect,0.140000X0.170000X-0.140000X0.170000X0.140000X-0.170000X0.140000X-0.170000X-0.140000X0*%
%ADD12RoundRect,0.140000X0.140000X0.170000X-0.140000X0.170000X-0.140000X-0.170000X0.140000X-0.170000X0*%
%ADD13RoundRect,0.225000X-0.225000X-0.250000X0.225000X-0.250000X0.225000X0.250000X-0.225000X0.250000X0*%
%ADD14RoundRect,0.140000X-0.170000X0.140000X-0.170000X-0.140000X0.170000X-0.140000X0.170000X0.140000X0*%
%ADD15RoundRect,0.200000X0.275000X-0.200000X0.275000X0.200000X-0.275000X0.200000X-0.275000X-0.200000X0*%
%ADD16RoundRect,0.140000X-0.140000X-0.170000X0.140000X-0.170000X0.140000X0.170000X-0.140000X0.170000X0*%
%ADD17RoundRect,0.147500X0.172500X-0.147500X0.172500X0.147500X-0.172500X0.147500X-0.172500X-0.147500X0*%
%ADD18FreePoly0,270.000000*%
%ADD19FreePoly1,270.000000*%
%ADD20FreePoly2,270.000000*%
%ADD21FreePoly3,270.000000*%
%ADD22FreePoly4,270.000000*%
%ADD23RoundRect,0.201557X-0.201556X0.201556X-0.201556X-0.201556X0.201556X-0.201556X0.201556X0.201556X0*%
%ADD24FreePoly5,270.000000*%
%ADD25FreePoly6,270.000000*%
%ADD26FreePoly7,270.000000*%
%ADD27RoundRect,0.062500X-0.062500X0.337500X-0.062500X-0.337500X0.062500X-0.337500X0.062500X0.337500X0*%
%ADD28RoundRect,0.062500X-0.337500X0.062500X-0.337500X-0.062500X0.337500X-0.062500X0.337500X0.062500X0*%
%ADD29R,0.450000X0.600000*%
%ADD30RoundRect,0.200000X0.200000X0.275000X-0.200000X0.275000X-0.200000X-0.275000X0.200000X-0.275000X0*%
%ADD31RoundRect,0.200000X-0.200000X-0.275000X0.200000X-0.275000X0.200000X0.275000X-0.200000X0.275000X0*%
%ADD32RoundRect,0.150000X0.150000X-0.587500X0.150000X0.587500X-0.150000X0.587500X-0.150000X-0.587500X0*%
%ADD33RoundRect,0.150000X0.587500X0.150000X-0.587500X0.150000X-0.587500X-0.150000X0.587500X-0.150000X0*%
%ADD34RoundRect,0.218750X0.381250X-0.218750X0.381250X0.218750X-0.381250X0.218750X-0.381250X-0.218750X0*%
%ADD35RoundRect,0.200000X-0.275000X0.200000X-0.275000X-0.200000X0.275000X-0.200000X0.275000X0.200000X0*%
%ADD36RoundRect,0.225000X0.250000X-0.225000X0.250000X0.225000X-0.250000X0.225000X-0.250000X-0.225000X0*%
%ADD37RoundRect,0.225000X-0.250000X0.225000X-0.250000X-0.225000X0.250000X-0.225000X0.250000X0.225000X0*%
%ADD38R,0.580000X0.500000*%
%ADD39R,0.800000X0.750000*%
%ADD40RoundRect,0.150000X-0.587500X-0.150000X0.587500X-0.150000X0.587500X0.150000X-0.587500X0.150000X0*%
%ADD41RoundRect,0.147500X-0.147500X-0.172500X0.147500X-0.172500X0.147500X0.172500X-0.147500X0.172500X0*%
%ADD42RoundRect,0.150000X-0.150000X0.587500X-0.150000X-0.587500X0.150000X-0.587500X0.150000X0.587500X0*%
%ADD43R,0.275000X0.250000*%
%ADD44R,0.250000X0.275000*%
%ADD45R,1.400000X1.200000*%
G04 APERTURE END LIST*
D10*
X176150000Y-91960000D03*
D11*
X176150000Y-91000000D03*
D12*
X152854536Y-97758963D03*
X151894536Y-97758963D03*
D13*
X158625000Y-104750000D03*
X160175000Y-104750000D03*
D14*
X162099999Y-97255000D03*
X162099999Y-98215000D03*
X165300001Y-97250000D03*
X165300001Y-98210000D03*
D11*
X157056411Y-92350086D03*
X157056411Y-91390086D03*
X156134793Y-92356173D03*
X156134793Y-91396173D03*
D15*
X174300000Y-104725000D03*
X174300000Y-103075000D03*
D13*
X148825000Y-96400000D03*
X150375000Y-96400000D03*
D12*
X152859272Y-99600000D03*
X151899272Y-99600000D03*
D16*
X161597306Y-95298807D03*
X162557306Y-95298807D03*
D17*
X160900000Y-98220000D03*
X160900000Y-97250000D03*
D12*
X186630000Y-113257570D03*
X185670000Y-113257570D03*
D18*
X158400000Y-97000000D03*
D19*
X155600000Y-97000000D03*
D20*
X156500000Y-97900000D03*
D21*
X155600000Y-97900000D03*
D22*
X158400000Y-97900000D03*
D23*
X156500000Y-97000000D03*
D19*
X155600000Y-96000000D03*
D20*
X157500000Y-97900000D03*
D23*
X156500000Y-96000000D03*
D24*
X156500000Y-95100000D03*
D25*
X158400000Y-95100000D03*
D24*
X157500000Y-95100000D03*
D23*
X157500000Y-96000000D03*
X157500000Y-97000000D03*
D18*
X158400000Y-96000000D03*
D26*
X155600000Y-95100000D03*
D27*
X158750000Y-94050000D03*
X158250000Y-94050000D03*
X157750000Y-94050000D03*
X157250000Y-94050000D03*
X156750000Y-94050000D03*
X156250000Y-94050000D03*
X155750000Y-94050000D03*
X155250000Y-94050000D03*
D28*
X154550000Y-94750000D03*
X154550000Y-95250000D03*
X154550000Y-95750000D03*
X154550000Y-96250000D03*
X154550000Y-96750000D03*
X154550000Y-97250000D03*
X154550000Y-97750000D03*
X154550000Y-98250000D03*
D27*
X155250000Y-98950000D03*
X155750000Y-98950000D03*
X156250000Y-98950000D03*
X156750000Y-98950000D03*
X157250000Y-98950000D03*
X157750000Y-98950000D03*
X158250000Y-98950000D03*
X158750000Y-98950000D03*
D28*
X159450000Y-98250000D03*
X159450000Y-97750000D03*
X159450000Y-97250000D03*
X159450000Y-96750000D03*
X159450000Y-96250000D03*
X159450000Y-95750000D03*
X159450000Y-95250000D03*
X159450000Y-94750000D03*
D29*
X185750000Y-116040000D03*
X186550000Y-116040000D03*
X186550000Y-114540000D03*
X185750000Y-114540000D03*
D30*
X150425000Y-93400000D03*
X148775000Y-93400000D03*
D13*
X145625000Y-96400000D03*
X147175000Y-96400000D03*
D14*
X156100000Y-100242624D03*
X156100000Y-101202624D03*
D31*
X148775000Y-94900000D03*
X150425000Y-94900000D03*
D14*
X168520000Y-97250000D03*
X168520000Y-98210000D03*
D15*
X159075000Y-92225000D03*
X159075000Y-90575000D03*
D13*
X154425000Y-89600000D03*
X155975000Y-89600000D03*
D32*
X155050000Y-107637500D03*
X156950000Y-107637500D03*
X156000000Y-105762500D03*
D16*
X161595000Y-96225000D03*
X162555000Y-96225000D03*
D15*
X162200000Y-103850000D03*
X162200000Y-102200000D03*
D16*
X163220000Y-97250000D03*
X164180000Y-97250000D03*
D33*
X172077500Y-103050000D03*
X172077500Y-101150000D03*
X170202500Y-102100000D03*
D13*
X168331250Y-106400000D03*
X169881250Y-106400000D03*
D15*
X174300000Y-107925000D03*
X174300000Y-106275000D03*
D12*
X152857588Y-98676164D03*
X151897588Y-98676164D03*
D34*
X152375000Y-95462500D03*
X152375000Y-93337500D03*
D16*
X145164014Y-113192664D03*
X146124014Y-113192664D03*
D30*
X156025000Y-88100000D03*
X154375000Y-88100000D03*
D31*
X145575000Y-93400000D03*
X147225000Y-93400000D03*
D35*
X176000000Y-106275000D03*
X176000000Y-107925000D03*
D36*
X160659441Y-92175000D03*
X160659441Y-90625000D03*
D35*
X177700000Y-106275000D03*
X177700000Y-107925000D03*
D13*
X169975000Y-104700000D03*
X171525000Y-104700000D03*
X166687500Y-104700000D03*
X168237500Y-104700000D03*
D35*
X166712500Y-106375000D03*
X166712500Y-108025000D03*
D11*
X154300000Y-92352403D03*
X154300000Y-91392403D03*
D14*
X155185478Y-100236648D03*
X155185478Y-101196648D03*
D31*
X158575000Y-107900000D03*
X160225000Y-107900000D03*
D37*
X166600000Y-90625000D03*
X166600000Y-92175000D03*
D16*
X161020000Y-99300000D03*
X161980000Y-99300000D03*
D38*
X172560000Y-97250000D03*
X170240000Y-97250000D03*
D39*
X170450000Y-98275000D03*
X170450000Y-96225000D03*
X172350000Y-98275000D03*
X172350000Y-96225000D03*
D16*
X176150000Y-90050000D03*
X177110000Y-90050000D03*
D40*
X166125000Y-101150000D03*
X166125000Y-103050000D03*
X168000000Y-102100000D03*
D41*
X166435000Y-97250000D03*
X167405000Y-97250000D03*
D35*
X171500000Y-106275000D03*
X171500000Y-107925000D03*
X164000000Y-102200000D03*
X164000000Y-103850000D03*
D15*
X176000000Y-104725000D03*
X176000000Y-103075000D03*
D30*
X160225000Y-103175000D03*
X158575000Y-103175000D03*
D42*
X164050000Y-105762500D03*
X162150000Y-105762500D03*
X163100000Y-107637500D03*
D11*
X155216441Y-92355000D03*
X155216441Y-91395000D03*
D30*
X147225000Y-94900000D03*
X145575000Y-94900000D03*
D31*
X150094491Y-110600000D03*
X151744491Y-110600000D03*
D12*
X152855000Y-96844312D03*
X151895000Y-96844312D03*
D43*
X144887500Y-115100000D03*
X144887500Y-115600000D03*
D44*
X145150000Y-116112500D03*
X145650000Y-116112500D03*
X146150000Y-116112500D03*
D43*
X146412500Y-115600000D03*
X146412500Y-115100000D03*
D44*
X146150000Y-114587500D03*
X145650000Y-114587500D03*
X145150000Y-114587500D03*
D31*
X158575000Y-106325000D03*
X160225000Y-106325000D03*
D45*
X162530151Y-92250000D03*
X164730151Y-92250000D03*
X164730151Y-90550000D03*
X162530151Y-90550000D03*
D30*
X160225000Y-101625000D03*
X158575000Y-101625000D03*
M02*
