G04 #@! TF.GenerationSoftware,KiCad,Pcbnew,(6.0.9)*
G04 #@! TF.CreationDate,2022-11-24T22:46:59+01:00*
G04 #@! TF.ProjectId,telinksensor-hw,74656c69-6e6b-4736-956e-736f722d6877,rev?*
G04 #@! TF.SameCoordinates,Original*
G04 #@! TF.FileFunction,Soldermask,Top*
G04 #@! TF.FilePolarity,Negative*
%FSLAX46Y46*%
G04 Gerber Fmt 4.6, Leading zero omitted, Abs format (unit mm)*
G04 Created by KiCad (PCBNEW (6.0.9)) date 2022-11-24 22:46:59*
%MOMM*%
%LPD*%
G01*
G04 APERTURE LIST*
G04 Aperture macros list*
%AMRoundRect*
0 Rectangle with rounded corners*
0 $1 Rounding radius*
0 $2 $3 $4 $5 $6 $7 $8 $9 X,Y pos of 4 corners*
0 Add a 4 corners polygon primitive as box body*
4,1,4,$2,$3,$4,$5,$6,$7,$8,$9,$2,$3,0*
0 Add four circle primitives for the rounded corners*
1,1,$1+$1,$2,$3*
1,1,$1+$1,$4,$5*
1,1,$1+$1,$6,$7*
1,1,$1+$1,$8,$9*
0 Add four rect primitives between the rounded corners*
20,1,$1+$1,$2,$3,$4,$5,0*
20,1,$1+$1,$4,$5,$6,$7,0*
20,1,$1+$1,$6,$7,$8,$9,0*
20,1,$1+$1,$8,$9,$2,$3,0*%
G04 Aperture macros list end*
%ADD10RoundRect,0.160000X0.160000X-0.160000X0.160000X0.160000X-0.160000X0.160000X-0.160000X-0.160000X0*%
%ADD11RoundRect,0.140000X0.170000X-0.140000X0.170000X0.140000X-0.170000X0.140000X-0.170000X-0.140000X0*%
%ADD12RoundRect,0.140000X0.140000X0.170000X-0.140000X0.170000X-0.140000X-0.170000X0.140000X-0.170000X0*%
%ADD13RoundRect,0.225000X-0.225000X-0.250000X0.225000X-0.250000X0.225000X0.250000X-0.225000X0.250000X0*%
%ADD14RoundRect,0.140000X-0.170000X0.140000X-0.170000X-0.140000X0.170000X-0.140000X0.170000X0.140000X0*%
%ADD15C,1.000000*%
%ADD16RoundRect,0.200000X0.275000X-0.200000X0.275000X0.200000X-0.275000X0.200000X-0.275000X-0.200000X0*%
%ADD17C,6.400000*%
%ADD18C,0.800000*%
%ADD19RoundRect,0.140000X-0.140000X-0.170000X0.140000X-0.170000X0.140000X0.170000X-0.140000X0.170000X0*%
%ADD20RoundRect,0.147500X0.172500X-0.147500X0.172500X0.147500X-0.172500X0.147500X-0.172500X-0.147500X0*%
%ADD21RoundRect,0.062500X-0.062500X0.337500X-0.062500X-0.337500X0.062500X-0.337500X0.062500X0.337500X0*%
%ADD22RoundRect,0.062500X-0.337500X0.062500X-0.337500X-0.062500X0.337500X-0.062500X0.337500X0.062500X0*%
%ADD23R,3.600000X3.600000*%
%ADD24R,0.450000X0.600000*%
%ADD25RoundRect,0.200000X0.200000X0.275000X-0.200000X0.275000X-0.200000X-0.275000X0.200000X-0.275000X0*%
%ADD26RoundRect,0.200000X-0.200000X-0.275000X0.200000X-0.275000X0.200000X0.275000X-0.200000X0.275000X0*%
%ADD27RoundRect,0.150000X0.150000X-0.587500X0.150000X0.587500X-0.150000X0.587500X-0.150000X-0.587500X0*%
%ADD28RoundRect,0.150000X0.587500X0.150000X-0.587500X0.150000X-0.587500X-0.150000X0.587500X-0.150000X0*%
%ADD29RoundRect,0.218750X0.381250X-0.218750X0.381250X0.218750X-0.381250X0.218750X-0.381250X-0.218750X0*%
%ADD30C,0.700000*%
%ADD31O,0.800000X1.500000*%
%ADD32RoundRect,0.200000X-0.275000X0.200000X-0.275000X-0.200000X0.275000X-0.200000X0.275000X0.200000X0*%
%ADD33RoundRect,0.225000X0.250000X-0.225000X0.250000X0.225000X-0.250000X0.225000X-0.250000X-0.225000X0*%
%ADD34RoundRect,0.225000X-0.250000X0.225000X-0.250000X-0.225000X0.250000X-0.225000X0.250000X0.225000X0*%
%ADD35R,0.580000X0.500000*%
%ADD36R,0.800000X0.750000*%
%ADD37RoundRect,0.150000X-0.587500X-0.150000X0.587500X-0.150000X0.587500X0.150000X-0.587500X0.150000X0*%
%ADD38RoundRect,0.147500X-0.147500X-0.172500X0.147500X-0.172500X0.147500X0.172500X-0.147500X0.172500X0*%
%ADD39RoundRect,0.150000X-0.150000X0.587500X-0.150000X-0.587500X0.150000X-0.587500X0.150000X0.587500X0*%
%ADD40R,0.275000X0.250000*%
%ADD41R,0.250000X0.275000*%
%ADD42R,1.400000X1.200000*%
%ADD43R,3.000000X3.000000*%
%ADD44C,3.000000*%
G04 APERTURE END LIST*
D10*
X176150000Y-91960000D03*
D11*
X176150000Y-91000000D03*
D12*
X152854536Y-97758963D03*
X151894536Y-97758963D03*
D13*
X158625000Y-104750000D03*
X160175000Y-104750000D03*
D14*
X162099999Y-97255000D03*
X162099999Y-98215000D03*
X165300001Y-97250000D03*
X165300001Y-98210000D03*
D11*
X157056411Y-92350086D03*
X157056411Y-91390086D03*
X156134793Y-92356173D03*
X156134793Y-91396173D03*
D15*
X145400000Y-107100000D03*
D16*
X174300000Y-104725000D03*
X174300000Y-103075000D03*
D13*
X148825000Y-96400000D03*
X150375000Y-96400000D03*
D17*
X182300000Y-104500000D03*
D18*
X183997056Y-106197056D03*
X180602944Y-106197056D03*
X184700000Y-104500000D03*
X182300000Y-106900000D03*
X179900000Y-104500000D03*
X183997056Y-102802944D03*
X182300000Y-102100000D03*
X180602944Y-102802944D03*
D12*
X152859272Y-99600000D03*
X151899272Y-99600000D03*
D19*
X161597306Y-95298807D03*
X162557306Y-95298807D03*
D20*
X160900000Y-98220000D03*
X160900000Y-97250000D03*
D12*
X186630000Y-113257570D03*
X185670000Y-113257570D03*
D21*
X158750000Y-94050000D03*
X158250000Y-94050000D03*
X157750000Y-94050000D03*
X157250000Y-94050000D03*
X156750000Y-94050000D03*
X156250000Y-94050000D03*
X155750000Y-94050000D03*
X155250000Y-94050000D03*
D22*
X154550000Y-94750000D03*
X154550000Y-95250000D03*
X154550000Y-95750000D03*
X154550000Y-96250000D03*
X154550000Y-96750000D03*
X154550000Y-97250000D03*
X154550000Y-97750000D03*
X154550000Y-98250000D03*
D21*
X155250000Y-98950000D03*
X155750000Y-98950000D03*
X156250000Y-98950000D03*
X156750000Y-98950000D03*
X157250000Y-98950000D03*
X157750000Y-98950000D03*
X158250000Y-98950000D03*
X158750000Y-98950000D03*
D22*
X159450000Y-98250000D03*
X159450000Y-97750000D03*
X159450000Y-97250000D03*
X159450000Y-96750000D03*
X159450000Y-96250000D03*
X159450000Y-95750000D03*
X159450000Y-95250000D03*
X159450000Y-94750000D03*
D23*
X157000000Y-96500000D03*
D24*
X185750000Y-116040000D03*
X186550000Y-116040000D03*
X186550000Y-114540000D03*
X185750000Y-114540000D03*
D25*
X150425000Y-93400000D03*
X148775000Y-93400000D03*
D13*
X145625000Y-96400000D03*
X147175000Y-96400000D03*
D14*
X156100000Y-100242624D03*
X156100000Y-101202624D03*
D15*
X153400000Y-101800000D03*
D26*
X148775000Y-94900000D03*
X150425000Y-94900000D03*
D14*
X168520000Y-97250000D03*
X168520000Y-98210000D03*
D16*
X159075000Y-92225000D03*
X159075000Y-90575000D03*
D13*
X154425000Y-89600000D03*
X155975000Y-89600000D03*
D27*
X155050000Y-107637500D03*
X156950000Y-107637500D03*
X156000000Y-105762500D03*
D19*
X161595000Y-96225000D03*
X162555000Y-96225000D03*
D16*
X162200000Y-103850000D03*
X162200000Y-102200000D03*
D19*
X163220000Y-97250000D03*
X164180000Y-97250000D03*
D28*
X172077500Y-103050000D03*
X172077500Y-101150000D03*
X170202500Y-102100000D03*
D13*
X168331250Y-106400000D03*
X169881250Y-106400000D03*
D16*
X174300000Y-107925000D03*
X174300000Y-106275000D03*
D12*
X152857588Y-98676164D03*
X151897588Y-98676164D03*
D29*
X152375000Y-95462500D03*
X152375000Y-93337500D03*
D19*
X145164014Y-113192664D03*
X146124014Y-113192664D03*
D25*
X156025000Y-88100000D03*
X154375000Y-88100000D03*
D26*
X145575000Y-93400000D03*
X147225000Y-93400000D03*
D15*
X146100000Y-99100000D03*
D18*
X147802944Y-102702944D03*
X149500000Y-102000000D03*
X151197056Y-102702944D03*
X151197056Y-106097056D03*
D17*
X149500000Y-104400000D03*
D18*
X147100000Y-104400000D03*
X149500000Y-106800000D03*
X147802944Y-106097056D03*
X151900000Y-104400000D03*
D30*
X154165000Y-85785000D03*
X155435000Y-85785000D03*
X159245000Y-85785000D03*
X156705000Y-85785000D03*
X157975000Y-85785000D03*
D31*
X154800000Y-84630000D03*
X156070000Y-84630000D03*
X157340000Y-84630000D03*
X158610000Y-84630000D03*
D32*
X176000000Y-106275000D03*
X176000000Y-107925000D03*
D33*
X160659441Y-92175000D03*
X160659441Y-90625000D03*
D32*
X177700000Y-106275000D03*
X177700000Y-107925000D03*
D13*
X169975000Y-104700000D03*
X171525000Y-104700000D03*
X166687500Y-104700000D03*
X168237500Y-104700000D03*
D32*
X166712500Y-106375000D03*
X166712500Y-108025000D03*
D11*
X154300000Y-92352403D03*
X154300000Y-91392403D03*
D14*
X155185478Y-100236648D03*
X155185478Y-101196648D03*
D26*
X158575000Y-107900000D03*
X160225000Y-107900000D03*
D34*
X166600000Y-90625000D03*
X166600000Y-92175000D03*
D19*
X161020000Y-99300000D03*
X161980000Y-99300000D03*
D35*
X172560000Y-97250000D03*
X170240000Y-97250000D03*
D36*
X170450000Y-98275000D03*
X170450000Y-96225000D03*
X172350000Y-98275000D03*
X172350000Y-96225000D03*
D15*
X148800000Y-98500000D03*
D19*
X176150000Y-90050000D03*
X177110000Y-90050000D03*
D37*
X166125000Y-101150000D03*
X166125000Y-103050000D03*
X168000000Y-102100000D03*
D38*
X166435000Y-97250000D03*
X167405000Y-97250000D03*
D32*
X171500000Y-106275000D03*
X171500000Y-107925000D03*
X164000000Y-102200000D03*
X164000000Y-103850000D03*
D16*
X176000000Y-104725000D03*
X176000000Y-103075000D03*
D15*
X153700000Y-110100000D03*
X158700000Y-87500000D03*
D25*
X160225000Y-103175000D03*
X158575000Y-103175000D03*
D39*
X164050000Y-105762500D03*
X162150000Y-105762500D03*
X163100000Y-107637500D03*
D11*
X155216441Y-92355000D03*
X155216441Y-91395000D03*
D15*
X152600000Y-91400000D03*
D25*
X147225000Y-94900000D03*
X145575000Y-94900000D03*
D26*
X150094491Y-110600000D03*
X151744491Y-110600000D03*
D15*
X164700000Y-94700000D03*
D12*
X152855000Y-96844312D03*
X151895000Y-96844312D03*
D40*
X144887500Y-115100000D03*
X144887500Y-115600000D03*
D41*
X145150000Y-116112500D03*
X145650000Y-116112500D03*
X146150000Y-116112500D03*
D40*
X146412500Y-115600000D03*
X146412500Y-115100000D03*
D41*
X146150000Y-114587500D03*
X145650000Y-114587500D03*
X145150000Y-114587500D03*
D26*
X158575000Y-106325000D03*
X160225000Y-106325000D03*
D42*
X162530151Y-92250000D03*
X164730151Y-92250000D03*
X164730151Y-90550000D03*
X162530151Y-90550000D03*
D25*
X160225000Y-101625000D03*
X158575000Y-101625000D03*
D43*
X155760000Y-112800000D03*
D44*
X160840000Y-112800000D03*
D43*
X165900000Y-112800000D03*
D44*
X170980000Y-112800000D03*
X176060000Y-112800000D03*
M02*
