%TF.GenerationSoftware,KiCad,Pcbnew,(6.0.9)*%
%TF.CreationDate,2022-11-24T22:47:09+01:00*%
%TF.ProjectId,telinksensor-hw,74656c69-6e6b-4736-956e-736f722d6877,rev?*%
%TF.SameCoordinates,Original*%
%TF.FileFunction,Drillmap*%
%TF.FilePolarity,Positive*%
%FSLAX45Y45*%
G04 Gerber Fmt 4.5, Leading zero omitted, Abs format (unit mm)*
G04 Created by KiCad (PCBNEW (6.0.9)) date 2022-11-24 22:47:09*
%MOMM*%
%LPD*%
G01*
G04 APERTURE LIST*
%ADD10C,0.200000*%
%ADD11C,0.070000*%
G04 APERTURE END LIST*
D10*
X15240000Y-8350000D02*
X15240000Y-8650000D01*
X14860000Y-11700000D02*
X18320000Y-11700000D01*
X18790000Y-11700000D02*
X18440000Y-11700000D01*
X14690000Y-9200000D02*
X14390000Y-9200000D01*
X18790000Y-9200000D02*
X18490000Y-9200000D01*
X18320000Y-11700000D02*
X18320000Y-11090000D01*
X17940000Y-8650000D02*
G75*
G03*
X18490000Y-9200000I550000J0D01*
G01*
X18440000Y-11090000D02*
G75*
G03*
X18320000Y-11090000I-60000J0D01*
G01*
X14740000Y-11700000D02*
X14390000Y-11700000D01*
X18790000Y-9200000D02*
X18790000Y-11700000D01*
X14390000Y-9200000D02*
X14390000Y-11700000D01*
X14740000Y-11090000D02*
X14740000Y-11700000D01*
X18440000Y-11700000D02*
X18440000Y-11090000D01*
X17940000Y-8650000D02*
X17940000Y-8350000D01*
X14860000Y-11090000D02*
X14860000Y-11700000D01*
X14690000Y-9200000D02*
G75*
G03*
X15240000Y-8650000I0J550000D01*
G01*
X17940000Y-8350000D02*
X15240000Y-8350000D01*
X14860000Y-11090000D02*
G75*
G03*
X14740000Y-11090000I-60000J0D01*
G01*
D11*
X15381500Y-8543500D02*
X15451500Y-8613500D01*
X15451500Y-8543500D02*
X15381500Y-8613500D01*
X15508500Y-8543500D02*
X15578500Y-8613500D01*
X15578500Y-8543500D02*
X15508500Y-8613500D01*
X15635500Y-8543500D02*
X15705500Y-8613500D01*
X15705500Y-8543500D02*
X15635500Y-8613500D01*
X15762500Y-8543500D02*
X15832500Y-8613500D01*
X15832500Y-8543500D02*
X15762500Y-8613500D01*
X15889500Y-8543500D02*
X15959500Y-8613500D01*
X15959500Y-8543500D02*
X15889500Y-8613500D01*
D10*
X14637619Y-12020476D02*
X14637619Y-11820476D01*
X14685238Y-11820476D01*
X14713809Y-11830000D01*
X14732857Y-11849048D01*
X14742381Y-11868095D01*
X14751905Y-11906190D01*
X14751905Y-11934762D01*
X14742381Y-11972857D01*
X14732857Y-11991905D01*
X14713809Y-12010952D01*
X14685238Y-12020476D01*
X14637619Y-12020476D01*
X14837619Y-12020476D02*
X14837619Y-11887143D01*
X14837619Y-11925238D02*
X14847143Y-11906190D01*
X14856667Y-11896667D01*
X14875714Y-11887143D01*
X14894762Y-11887143D01*
X14961428Y-12020476D02*
X14961428Y-11887143D01*
X14961428Y-11820476D02*
X14951905Y-11830000D01*
X14961428Y-11839524D01*
X14970952Y-11830000D01*
X14961428Y-11820476D01*
X14961428Y-11839524D01*
X15085238Y-12020476D02*
X15066190Y-12010952D01*
X15056667Y-11991905D01*
X15056667Y-11820476D01*
X15190000Y-12020476D02*
X15170952Y-12010952D01*
X15161428Y-11991905D01*
X15161428Y-11820476D01*
X15418571Y-12020476D02*
X15418571Y-11820476D01*
X15485238Y-11963333D01*
X15551905Y-11820476D01*
X15551905Y-12020476D01*
X15732857Y-12020476D02*
X15732857Y-11915714D01*
X15723333Y-11896667D01*
X15704286Y-11887143D01*
X15666190Y-11887143D01*
X15647143Y-11896667D01*
X15732857Y-12010952D02*
X15713809Y-12020476D01*
X15666190Y-12020476D01*
X15647143Y-12010952D01*
X15637619Y-11991905D01*
X15637619Y-11972857D01*
X15647143Y-11953809D01*
X15666190Y-11944286D01*
X15713809Y-11944286D01*
X15732857Y-11934762D01*
X15828095Y-11887143D02*
X15828095Y-12087143D01*
X15828095Y-11896667D02*
X15847143Y-11887143D01*
X15885238Y-11887143D01*
X15904286Y-11896667D01*
X15913809Y-11906190D01*
X15923333Y-11925238D01*
X15923333Y-11982381D01*
X15913809Y-12001428D01*
X15904286Y-12010952D01*
X15885238Y-12020476D01*
X15847143Y-12020476D01*
X15828095Y-12010952D01*
X16009048Y-12001428D02*
X16018571Y-12010952D01*
X16009048Y-12020476D01*
X15999524Y-12010952D01*
X16009048Y-12001428D01*
X16009048Y-12020476D01*
X16009048Y-11896667D02*
X16018571Y-11906190D01*
X16009048Y-11915714D01*
X15999524Y-11906190D01*
X16009048Y-11896667D01*
X16009048Y-11915714D01*
D11*
X14310000Y-12315000D02*
X14380000Y-12385000D01*
X14380000Y-12315000D02*
X14310000Y-12385000D01*
D10*
X14675714Y-12240476D02*
X14694762Y-12240476D01*
X14713809Y-12250000D01*
X14723333Y-12259524D01*
X14732857Y-12278571D01*
X14742381Y-12316667D01*
X14742381Y-12364286D01*
X14732857Y-12402381D01*
X14723333Y-12421428D01*
X14713809Y-12430952D01*
X14694762Y-12440476D01*
X14675714Y-12440476D01*
X14656667Y-12430952D01*
X14647143Y-12421428D01*
X14637619Y-12402381D01*
X14628095Y-12364286D01*
X14628095Y-12316667D01*
X14637619Y-12278571D01*
X14647143Y-12259524D01*
X14656667Y-12250000D01*
X14675714Y-12240476D01*
X14828095Y-12421428D02*
X14837619Y-12430952D01*
X14828095Y-12440476D01*
X14818571Y-12430952D01*
X14828095Y-12421428D01*
X14828095Y-12440476D01*
X14904286Y-12240476D02*
X15037619Y-12240476D01*
X14951905Y-12440476D01*
X15151905Y-12240476D02*
X15170952Y-12240476D01*
X15190000Y-12250000D01*
X15199524Y-12259524D01*
X15209048Y-12278571D01*
X15218571Y-12316667D01*
X15218571Y-12364286D01*
X15209048Y-12402381D01*
X15199524Y-12421428D01*
X15190000Y-12430952D01*
X15170952Y-12440476D01*
X15151905Y-12440476D01*
X15132857Y-12430952D01*
X15123333Y-12421428D01*
X15113809Y-12402381D01*
X15104286Y-12364286D01*
X15104286Y-12316667D01*
X15113809Y-12278571D01*
X15123333Y-12259524D01*
X15132857Y-12250000D01*
X15151905Y-12240476D01*
X15342381Y-12240476D02*
X15361428Y-12240476D01*
X15380476Y-12250000D01*
X15390000Y-12259524D01*
X15399524Y-12278571D01*
X15409048Y-12316667D01*
X15409048Y-12364286D01*
X15399524Y-12402381D01*
X15390000Y-12421428D01*
X15380476Y-12430952D01*
X15361428Y-12440476D01*
X15342381Y-12440476D01*
X15323333Y-12430952D01*
X15313809Y-12421428D01*
X15304286Y-12402381D01*
X15294762Y-12364286D01*
X15294762Y-12316667D01*
X15304286Y-12278571D01*
X15313809Y-12259524D01*
X15323333Y-12250000D01*
X15342381Y-12240476D01*
X15494762Y-12440476D02*
X15494762Y-12307143D01*
X15494762Y-12326190D02*
X15504286Y-12316667D01*
X15523333Y-12307143D01*
X15551905Y-12307143D01*
X15570952Y-12316667D01*
X15580476Y-12335714D01*
X15580476Y-12440476D01*
X15580476Y-12335714D02*
X15590000Y-12316667D01*
X15609048Y-12307143D01*
X15637619Y-12307143D01*
X15656667Y-12316667D01*
X15666190Y-12335714D01*
X15666190Y-12440476D01*
X15761428Y-12440476D02*
X15761428Y-12307143D01*
X15761428Y-12326190D02*
X15770952Y-12316667D01*
X15790000Y-12307143D01*
X15818571Y-12307143D01*
X15837619Y-12316667D01*
X15847143Y-12335714D01*
X15847143Y-12440476D01*
X15847143Y-12335714D02*
X15856667Y-12316667D01*
X15875714Y-12307143D01*
X15904286Y-12307143D01*
X15923333Y-12316667D01*
X15932857Y-12335714D01*
X15932857Y-12440476D01*
X16323333Y-12230952D02*
X16151905Y-12488095D01*
X16580476Y-12240476D02*
X16599524Y-12240476D01*
X16618571Y-12250000D01*
X16628095Y-12259524D01*
X16637619Y-12278571D01*
X16647143Y-12316667D01*
X16647143Y-12364286D01*
X16637619Y-12402381D01*
X16628095Y-12421428D01*
X16618571Y-12430952D01*
X16599524Y-12440476D01*
X16580476Y-12440476D01*
X16561428Y-12430952D01*
X16551905Y-12421428D01*
X16542381Y-12402381D01*
X16532857Y-12364286D01*
X16532857Y-12316667D01*
X16542381Y-12278571D01*
X16551905Y-12259524D01*
X16561428Y-12250000D01*
X16580476Y-12240476D01*
X16732857Y-12421428D02*
X16742381Y-12430952D01*
X16732857Y-12440476D01*
X16723333Y-12430952D01*
X16732857Y-12421428D01*
X16732857Y-12440476D01*
X16866190Y-12240476D02*
X16885238Y-12240476D01*
X16904286Y-12250000D01*
X16913810Y-12259524D01*
X16923333Y-12278571D01*
X16932857Y-12316667D01*
X16932857Y-12364286D01*
X16923333Y-12402381D01*
X16913810Y-12421428D01*
X16904286Y-12430952D01*
X16885238Y-12440476D01*
X16866190Y-12440476D01*
X16847143Y-12430952D01*
X16837619Y-12421428D01*
X16828095Y-12402381D01*
X16818571Y-12364286D01*
X16818571Y-12316667D01*
X16828095Y-12278571D01*
X16837619Y-12259524D01*
X16847143Y-12250000D01*
X16866190Y-12240476D01*
X17009048Y-12259524D02*
X17018571Y-12250000D01*
X17037619Y-12240476D01*
X17085238Y-12240476D01*
X17104286Y-12250000D01*
X17113810Y-12259524D01*
X17123333Y-12278571D01*
X17123333Y-12297619D01*
X17113810Y-12326190D01*
X16999524Y-12440476D01*
X17123333Y-12440476D01*
X17190000Y-12240476D02*
X17323333Y-12240476D01*
X17237619Y-12440476D01*
X17485238Y-12240476D02*
X17447143Y-12240476D01*
X17428095Y-12250000D01*
X17418571Y-12259524D01*
X17399524Y-12288095D01*
X17390000Y-12326190D01*
X17390000Y-12402381D01*
X17399524Y-12421428D01*
X17409048Y-12430952D01*
X17428095Y-12440476D01*
X17466190Y-12440476D01*
X17485238Y-12430952D01*
X17494762Y-12421428D01*
X17504286Y-12402381D01*
X17504286Y-12354762D01*
X17494762Y-12335714D01*
X17485238Y-12326190D01*
X17466190Y-12316667D01*
X17428095Y-12316667D01*
X17409048Y-12326190D01*
X17399524Y-12335714D01*
X17390000Y-12354762D01*
X17580476Y-12240476D02*
X17580476Y-12278571D01*
X17656667Y-12240476D02*
X17656667Y-12278571D01*
X17951905Y-12516667D02*
X17942381Y-12507143D01*
X17923333Y-12478571D01*
X17913810Y-12459524D01*
X17904286Y-12430952D01*
X17894762Y-12383333D01*
X17894762Y-12345238D01*
X17904286Y-12297619D01*
X17913810Y-12269048D01*
X17923333Y-12250000D01*
X17942381Y-12221428D01*
X17951905Y-12211905D01*
X18123333Y-12240476D02*
X18028095Y-12240476D01*
X18018571Y-12335714D01*
X18028095Y-12326190D01*
X18047143Y-12316667D01*
X18094762Y-12316667D01*
X18113810Y-12326190D01*
X18123333Y-12335714D01*
X18132857Y-12354762D01*
X18132857Y-12402381D01*
X18123333Y-12421428D01*
X18113810Y-12430952D01*
X18094762Y-12440476D01*
X18047143Y-12440476D01*
X18028095Y-12430952D01*
X18018571Y-12421428D01*
X18370952Y-12440476D02*
X18370952Y-12240476D01*
X18456667Y-12440476D02*
X18456667Y-12335714D01*
X18447143Y-12316667D01*
X18428095Y-12307143D01*
X18399524Y-12307143D01*
X18380476Y-12316667D01*
X18370952Y-12326190D01*
X18580476Y-12440476D02*
X18561429Y-12430952D01*
X18551905Y-12421428D01*
X18542381Y-12402381D01*
X18542381Y-12345238D01*
X18551905Y-12326190D01*
X18561429Y-12316667D01*
X18580476Y-12307143D01*
X18609048Y-12307143D01*
X18628095Y-12316667D01*
X18637619Y-12326190D01*
X18647143Y-12345238D01*
X18647143Y-12402381D01*
X18637619Y-12421428D01*
X18628095Y-12430952D01*
X18609048Y-12440476D01*
X18580476Y-12440476D01*
X18761429Y-12440476D02*
X18742381Y-12430952D01*
X18732857Y-12411905D01*
X18732857Y-12240476D01*
X18913810Y-12430952D02*
X18894762Y-12440476D01*
X18856667Y-12440476D01*
X18837619Y-12430952D01*
X18828095Y-12411905D01*
X18828095Y-12335714D01*
X18837619Y-12316667D01*
X18856667Y-12307143D01*
X18894762Y-12307143D01*
X18913810Y-12316667D01*
X18923333Y-12335714D01*
X18923333Y-12354762D01*
X18828095Y-12373809D01*
X18999524Y-12430952D02*
X19018571Y-12440476D01*
X19056667Y-12440476D01*
X19075714Y-12430952D01*
X19085238Y-12411905D01*
X19085238Y-12402381D01*
X19075714Y-12383333D01*
X19056667Y-12373809D01*
X19028095Y-12373809D01*
X19009048Y-12364286D01*
X18999524Y-12345238D01*
X18999524Y-12335714D01*
X19009048Y-12316667D01*
X19028095Y-12307143D01*
X19056667Y-12307143D01*
X19075714Y-12316667D01*
X19151905Y-12516667D02*
X19161429Y-12507143D01*
X19180476Y-12478571D01*
X19190000Y-12459524D01*
X19199524Y-12430952D01*
X19209048Y-12383333D01*
X19209048Y-12345238D01*
X19199524Y-12297619D01*
X19190000Y-12269048D01*
X19180476Y-12250000D01*
X19161429Y-12221428D01*
X19151905Y-12211905D01*
X19513810Y-12516667D02*
X19504286Y-12507143D01*
X19485238Y-12478571D01*
X19475714Y-12459524D01*
X19466190Y-12430952D01*
X19456667Y-12383333D01*
X19456667Y-12345238D01*
X19466190Y-12297619D01*
X19475714Y-12269048D01*
X19485238Y-12250000D01*
X19504286Y-12221428D01*
X19513810Y-12211905D01*
X19590000Y-12307143D02*
X19590000Y-12440476D01*
X19590000Y-12326190D02*
X19599524Y-12316667D01*
X19618571Y-12307143D01*
X19647143Y-12307143D01*
X19666190Y-12316667D01*
X19675714Y-12335714D01*
X19675714Y-12440476D01*
X19799524Y-12440476D02*
X19780476Y-12430952D01*
X19770952Y-12421428D01*
X19761429Y-12402381D01*
X19761429Y-12345238D01*
X19770952Y-12326190D01*
X19780476Y-12316667D01*
X19799524Y-12307143D01*
X19828095Y-12307143D01*
X19847143Y-12316667D01*
X19856667Y-12326190D01*
X19866190Y-12345238D01*
X19866190Y-12402381D01*
X19856667Y-12421428D01*
X19847143Y-12430952D01*
X19828095Y-12440476D01*
X19799524Y-12440476D01*
X19923333Y-12307143D02*
X19999524Y-12307143D01*
X19951905Y-12240476D02*
X19951905Y-12411905D01*
X19961429Y-12430952D01*
X19980476Y-12440476D01*
X19999524Y-12440476D01*
X20218571Y-12307143D02*
X20218571Y-12507143D01*
X20218571Y-12316667D02*
X20237619Y-12307143D01*
X20275714Y-12307143D01*
X20294762Y-12316667D01*
X20304286Y-12326190D01*
X20313810Y-12345238D01*
X20313810Y-12402381D01*
X20304286Y-12421428D01*
X20294762Y-12430952D01*
X20275714Y-12440476D01*
X20237619Y-12440476D01*
X20218571Y-12430952D01*
X20428095Y-12440476D02*
X20409048Y-12430952D01*
X20399524Y-12411905D01*
X20399524Y-12240476D01*
X20590000Y-12440476D02*
X20590000Y-12335714D01*
X20580476Y-12316667D01*
X20561429Y-12307143D01*
X20523333Y-12307143D01*
X20504286Y-12316667D01*
X20590000Y-12430952D02*
X20570952Y-12440476D01*
X20523333Y-12440476D01*
X20504286Y-12430952D01*
X20494762Y-12411905D01*
X20494762Y-12392857D01*
X20504286Y-12373809D01*
X20523333Y-12364286D01*
X20570952Y-12364286D01*
X20590000Y-12354762D01*
X20656667Y-12307143D02*
X20732857Y-12307143D01*
X20685238Y-12240476D02*
X20685238Y-12411905D01*
X20694762Y-12430952D01*
X20713810Y-12440476D01*
X20732857Y-12440476D01*
X20875714Y-12430952D02*
X20856667Y-12440476D01*
X20818571Y-12440476D01*
X20799524Y-12430952D01*
X20790000Y-12411905D01*
X20790000Y-12335714D01*
X20799524Y-12316667D01*
X20818571Y-12307143D01*
X20856667Y-12307143D01*
X20875714Y-12316667D01*
X20885238Y-12335714D01*
X20885238Y-12354762D01*
X20790000Y-12373809D01*
X21056667Y-12440476D02*
X21056667Y-12240476D01*
X21056667Y-12430952D02*
X21037619Y-12440476D01*
X20999524Y-12440476D01*
X20980476Y-12430952D01*
X20970952Y-12421428D01*
X20961429Y-12402381D01*
X20961429Y-12345238D01*
X20970952Y-12326190D01*
X20980476Y-12316667D01*
X20999524Y-12307143D01*
X21037619Y-12307143D01*
X21056667Y-12316667D01*
X21132857Y-12516667D02*
X21142381Y-12507143D01*
X21161429Y-12478571D01*
X21170952Y-12459524D01*
X21180476Y-12430952D01*
X21190000Y-12383333D01*
X21190000Y-12345238D01*
X21180476Y-12297619D01*
X21170952Y-12269048D01*
X21161429Y-12250000D01*
X21142381Y-12221428D01*
X21132857Y-12211905D01*
M02*
