M48
; DRILL file {KiCad (6.0.9)} date Thu 24 Nov 2022 10:47:09 PM CET
; FORMAT={-:-/ absolute / metric / decimal}
; #@! TF.CreationDate,2022-11-24T22:47:09+01:00
; #@! TF.GenerationSoftware,Kicad,Pcbnew,(6.0.9)
; #@! TF.FileFunction,Plated,1,4,PTH
FMAT,2
METRIC
; #@! TA.AperFunction,Plated,PTH,ViaDrill
T1C0.200
; #@! TA.AperFunction,Plated,PTH,ComponentDrill
T2C0.200
; #@! TA.AperFunction,Plated,PTH,ComponentDrill
T3C0.300
; #@! TA.AperFunction,Plated,PTH,ComponentDrill
T4C0.500
; #@! TA.AperFunction,Plated,PTH,ComponentDrill
T5C1.520
; #@! TA.AperFunction,Plated,PTH,ComponentDrill
T6C3.200
%
G90
G05
T1
X144.5Y-109.6
X144.615Y-112.55
X145.0Y-105.6
X145.3Y-102.7
X145.4Y-108.1
X145.65Y-115.55
X146.3Y-101.5
X146.4Y-94.1
X146.741Y-109.657
X149.5Y-100.0
X149.6Y-116.2
X149.9Y-92.1
X150.1Y-113.9
X151.3Y-114.5
X151.325Y-96.844
X151.325Y-97.759
X151.325Y-98.676
X151.325Y-99.6
X151.4Y-91.4
X151.747Y-111.696
X151.8Y-101.4
X152.3Y-107.5
X152.4Y-89.4
X152.46Y-114.52
X153.0Y-106.3
X153.3Y-96.4
X153.3Y-111.5
X153.3Y-112.5
X153.3Y-113.5
X153.8Y-86.9
X154.3Y-90.795
X154.4Y-103.3
X154.5Y-99.1
X154.7Y-110.5
X154.75Y-92.35
X155.185Y-101.823
X155.2Y-90.795
X155.665Y-100.213
X156.1Y-101.823
X156.135Y-90.795
X157.056Y-90.795
X157.3Y-89.9
X157.3Y-110.5
X157.612Y-103.087
X158.134Y-88.534
X158.3Y-110.5
X159.055Y-91.523
X159.081Y-89.748
X159.3Y-114.5
X159.3Y-115.5
X159.393Y-101.198
X159.4Y-107.1
X159.474Y-94.11
X159.5Y-99.2
X160.0Y-93.649
X160.025Y-102.375
X160.66Y-89.753
X160.982Y-84.63
X161.595Y-95.755
X161.6Y-107.4
X161.9Y-88.0
X162.0Y-85.4
X162.6Y-101.2
X162.62Y-114.52
X162.8Y-98.9
X163.15Y-95.3
X163.15Y-96.225
X163.196Y-84.09
X163.2Y-84.8
X163.2Y-85.6
X163.2Y-86.4
X163.2Y-87.2
X163.2Y-88.0
X163.2Y-88.8
X163.2Y-89.5
X163.3Y-112.5
X163.3Y-113.5
X163.393Y-98.508
X163.891Y-95.979
X164.0Y-89.5
X164.0Y-101.3
X164.038Y-98.511
X164.3Y-110.5
X164.7Y-96.0
X164.7Y-98.2
X164.8Y-89.5
X165.1Y-101.152
X165.3Y-104.4
X165.3Y-110.5
X165.303Y-98.756
X165.4Y-108.3
X165.478Y-95.968
X165.6Y-89.5
X165.9Y-98.2
X166.16Y-95.968
X166.3Y-102.1
X166.4Y-89.5
X166.497Y-98.466
X166.954Y-95.979
X167.145Y-98.444
X167.2Y-89.5
X167.35Y-103.05
X167.4Y-93.0
X167.747Y-95.979
X167.92Y-98.211
X168.0Y-89.5
X168.3Y-103.5
X168.3Y-107.5
X168.3Y-111.5
X168.3Y-112.5
X168.3Y-113.5
X168.3Y-114.5
X168.4Y-94.7
X168.528Y-98.763
X168.53Y-95.979
X168.8Y-89.5
X169.0Y-90.6
X169.1Y-98.2
X169.3Y-111.5
X169.3Y-114.5
X169.323Y-95.979
X169.6Y-89.5
X170.0Y-107.9
X170.3Y-91.5
X170.3Y-93.5
X170.3Y-99.5
X170.3Y-103.5
X170.4Y-89.5
X171.2Y-89.5
X171.2Y-94.9
X171.398Y-97.228
X171.4Y-92.5
X172.0Y-89.5
X172.3Y-91.5
X172.3Y-93.5
X172.3Y-99.5
X172.3Y-115.5
X172.8Y-89.5
X173.096Y-103.041
X173.17Y-101.15
X173.2Y-90.6
X173.3Y-111.5
X173.3Y-112.5
X173.3Y-113.5
X173.3Y-115.5
X173.345Y-98.547
X173.387Y-95.97
X173.5Y-94.7
X173.6Y-89.5
X173.8Y-102.0
X174.15Y-98.55
X174.233Y-95.951
X174.3Y-115.5
X174.4Y-89.5
X174.6Y-100.1
X174.805Y-90.467
X174.824Y-91.197
X174.847Y-95.273
X174.85Y-91.96
X174.85Y-92.782
X174.85Y-93.605
X174.85Y-94.427
X174.988Y-98.451
X175.3Y-115.5
X175.816Y-98.083
X176.3Y-99.5
X176.3Y-115.5
X176.533Y-97.572
X176.8Y-105.6
X177.006Y-96.86
X177.104Y-90.659
X177.108Y-89.41
X177.284Y-96.064
X177.3Y-110.5
X177.3Y-115.5
X177.437Y-91.21
X177.45Y-91.96
X177.45Y-92.782
X177.45Y-93.605
X177.45Y-94.427
X177.45Y-95.25
X177.681Y-90.042
X178.231Y-107.128
X178.3Y-97.5
X178.3Y-99.5
X178.3Y-101.5
X178.3Y-103.5
X178.3Y-112.5
X178.3Y-113.5
X178.3Y-115.5
X178.6Y-92.2
X178.825Y-107.925
X179.3Y-115.5
X179.661Y-96.054
X179.711Y-98.743
X180.3Y-91.5
X180.3Y-93.5
X180.3Y-113.5
X181.0Y-108.2
X181.3Y-100.2
X181.3Y-113.5
X181.417Y-98.775
X181.449Y-96.055
X182.3Y-93.5
X182.3Y-113.5
X182.3Y-114.5
X182.3Y-115.5
X184.3Y-93.5
X184.3Y-95.5
X184.3Y-97.5
X184.3Y-99.5
X185.082Y-109.669
X185.75Y-115.3
X186.3Y-93.5
X186.3Y-95.5
X186.3Y-97.5
X186.3Y-99.5
X186.3Y-101.5
X186.3Y-103.5
X186.3Y-105.5
X186.3Y-107.5
X186.55Y-115.3
X187.234Y-109.66
T2
X156.0Y-95.5
X156.0Y-96.5
X156.0Y-97.5
X157.0Y-95.5
X157.0Y-96.5
X157.0Y-97.5
X158.0Y-95.5
X158.0Y-96.5
X158.0Y-97.5
T3
X178.25Y-89.125
T4
X147.1Y-104.4
X147.803Y-102.703
X147.803Y-106.097
X149.5Y-102.0
X149.5Y-106.8
X151.197Y-102.703
X151.197Y-106.097
X151.9Y-104.4
X179.9Y-104.5
X180.603Y-102.803
X180.603Y-106.197
X182.3Y-102.1
X182.3Y-106.9
X183.997Y-102.803
X183.997Y-106.197
X184.7Y-104.5
T5
X155.76Y-112.8
X160.84Y-112.8
X165.9Y-112.8
X170.98Y-112.8
X176.06Y-112.8
T6
X149.5Y-104.4
X182.3Y-104.5
T0
M30
