G04 #@! TF.GenerationSoftware,KiCad,Pcbnew,(6.0.9)*
G04 #@! TF.CreationDate,2022-11-24T22:46:59+01:00*
G04 #@! TF.ProjectId,telinksensor-hw,74656c69-6e6b-4736-956e-736f722d6877,rev?*
G04 #@! TF.SameCoordinates,Original*
G04 #@! TF.FileFunction,Copper,L2,Inr*
G04 #@! TF.FilePolarity,Positive*
%FSLAX46Y46*%
G04 Gerber Fmt 4.6, Leading zero omitted, Abs format (unit mm)*
G04 Created by KiCad (PCBNEW (6.0.9)) date 2022-11-24 22:46:59*
%MOMM*%
%LPD*%
G01*
G04 APERTURE LIST*
G04 #@! TA.AperFunction,ComponentPad*
%ADD10C,6.400000*%
G04 #@! TD*
G04 #@! TA.AperFunction,ComponentPad*
%ADD11C,0.800000*%
G04 #@! TD*
G04 #@! TA.AperFunction,ComponentPad*
%ADD12C,0.500000*%
G04 #@! TD*
G04 #@! TA.AperFunction,ComponentPad*
%ADD13R,0.900000X0.800000*%
G04 #@! TD*
G04 #@! TA.AperFunction,ComponentPad*
%ADD14R,3.000000X3.000000*%
G04 #@! TD*
G04 #@! TA.AperFunction,ComponentPad*
%ADD15C,3.000000*%
G04 #@! TD*
G04 #@! TA.AperFunction,ViaPad*
%ADD16C,0.500000*%
G04 #@! TD*
G04 APERTURE END LIST*
D10*
X182300000Y-104500000D03*
D11*
X183997056Y-106197056D03*
X180602944Y-106197056D03*
X184700000Y-104500000D03*
X182300000Y-106900000D03*
X179900000Y-104500000D03*
X183997056Y-102802944D03*
X182300000Y-102100000D03*
X180602944Y-102802944D03*
D12*
X157000000Y-95500000D03*
X158000000Y-96500000D03*
X156000000Y-96500000D03*
X157000000Y-97500000D03*
X158000000Y-95500000D03*
X156000000Y-95500000D03*
X156000000Y-97500000D03*
X158000000Y-97500000D03*
X157000000Y-96500000D03*
D11*
X147802944Y-102702944D03*
X149500000Y-102000000D03*
X151197056Y-102702944D03*
X151197056Y-106097056D03*
D10*
X149500000Y-104400000D03*
D11*
X147100000Y-104400000D03*
X149500000Y-106800000D03*
X147802944Y-106097056D03*
X151900000Y-104400000D03*
D13*
X178250000Y-89125000D03*
D14*
X155760000Y-112800000D03*
D15*
X160840000Y-112800000D03*
D14*
X165900000Y-112800000D03*
D15*
X170980000Y-112800000D03*
X176060000Y-112800000D03*
D16*
X163200000Y-86400000D03*
X178300000Y-112500000D03*
X164038059Y-98510582D03*
X151300000Y-114500000D03*
X176533490Y-97571548D03*
X159300000Y-115500000D03*
X163200000Y-85600000D03*
X163200000Y-89500000D03*
X176300000Y-99500000D03*
X174149999Y-98550000D03*
X174400000Y-89500000D03*
X174600000Y-100100000D03*
X173600000Y-89500000D03*
X151325000Y-96844312D03*
X168300000Y-112500000D03*
X162620000Y-114520000D03*
X171398334Y-97227699D03*
X164000000Y-89500000D03*
X184300000Y-99500000D03*
X167919544Y-98210885D03*
X145300000Y-102700000D03*
X168000000Y-89500000D03*
X181000000Y-108200000D03*
X174824207Y-91197421D03*
X186300000Y-101500000D03*
X162000000Y-85400000D03*
X169000000Y-90600000D03*
X163300000Y-112500000D03*
X176300000Y-115500000D03*
X170300000Y-91500000D03*
X173300000Y-111500000D03*
X151325000Y-99600000D03*
X174850000Y-93605000D03*
X157300000Y-110500000D03*
X173200000Y-90600000D03*
X158300000Y-110500000D03*
X163200000Y-88000000D03*
X169600000Y-89500000D03*
X174300000Y-115500000D03*
X169300000Y-114500000D03*
X146300000Y-101500000D03*
X173300000Y-112500000D03*
X163200000Y-84800000D03*
X145000000Y-105600000D03*
X163300000Y-113500000D03*
X168300000Y-113500000D03*
X167145302Y-98443520D03*
X163150000Y-96225000D03*
X168529853Y-95979315D03*
X177283807Y-96064446D03*
X180300000Y-91500000D03*
X177300000Y-115500000D03*
X177005672Y-96860041D03*
X169300000Y-111500000D03*
X165400000Y-108300000D03*
X182300000Y-113500000D03*
X174846507Y-95273340D03*
X177300000Y-110500000D03*
X163891343Y-95979315D03*
X165478496Y-95968138D03*
X168300000Y-103500000D03*
X178300000Y-97500000D03*
X177450000Y-95250000D03*
X163150000Y-95300000D03*
X170300000Y-93500000D03*
X177107642Y-89409989D03*
X163393035Y-98507508D03*
X165300000Y-104400000D03*
X172300000Y-91500000D03*
X164700000Y-98200000D03*
X186300000Y-105500000D03*
X174850000Y-94427500D03*
X174804803Y-90466509D03*
X171200000Y-94900000D03*
X168800000Y-89500000D03*
X152300000Y-107500000D03*
X170400000Y-89500000D03*
X184300000Y-95500000D03*
X153000000Y-106300000D03*
X177437380Y-91210357D03*
X181300000Y-113500000D03*
X173300000Y-113500000D03*
X149600000Y-116200000D03*
X181300000Y-100200000D03*
X178300000Y-103500000D03*
X166400000Y-89500000D03*
X171400000Y-92500000D03*
X182300000Y-115500000D03*
X178300000Y-99500000D03*
X164300000Y-110500000D03*
X166160301Y-95968138D03*
X159300000Y-114500000D03*
X168528134Y-98762963D03*
X149900000Y-92100000D03*
X174232622Y-95950859D03*
X154300000Y-90794579D03*
X165300000Y-110500000D03*
X165900000Y-98200000D03*
X153300000Y-112500000D03*
X163200000Y-88800000D03*
X174987579Y-98451230D03*
X164800000Y-89500000D03*
X173095687Y-103041314D03*
X160660211Y-89753286D03*
X172300000Y-93500000D03*
X159080594Y-89748395D03*
X175300000Y-115500000D03*
X162800000Y-98900000D03*
X165303208Y-98756442D03*
X170300000Y-103500000D03*
X165600000Y-89500000D03*
X185081803Y-109668806D03*
X186300000Y-95500000D03*
X182300000Y-114500000D03*
X169323430Y-95979315D03*
X178300000Y-113500000D03*
X173300000Y-115500000D03*
X153300000Y-111500000D03*
X166953877Y-95979315D03*
X177450000Y-92782500D03*
X146741131Y-109656510D03*
X177104381Y-90658685D03*
X153300000Y-113500000D03*
X152400000Y-89400000D03*
X157056411Y-90794579D03*
X165100000Y-101152182D03*
X162600000Y-101200000D03*
X178600000Y-92200000D03*
X170300000Y-99500000D03*
X161900000Y-88000000D03*
X184300000Y-97500000D03*
X169100000Y-98200000D03*
X167747454Y-95979315D03*
X178300000Y-115500000D03*
X186300000Y-93500000D03*
X173800000Y-102000000D03*
X172800000Y-89500000D03*
X177681455Y-90042488D03*
X167200000Y-89500000D03*
X156134793Y-90794579D03*
X173345277Y-98547222D03*
X166300000Y-102100000D03*
X163196256Y-84089553D03*
X186300000Y-99500000D03*
X156100000Y-101822624D03*
X186300000Y-103500000D03*
X166497029Y-98465874D03*
X172000000Y-89500000D03*
X186300000Y-107500000D03*
X172300000Y-99500000D03*
X155185478Y-101822624D03*
X186300000Y-97500000D03*
X151325000Y-98676164D03*
X177450000Y-94427500D03*
X180300000Y-113500000D03*
X184300000Y-93500000D03*
X177450000Y-91960000D03*
X175815515Y-98082540D03*
X151325000Y-97758963D03*
X168300000Y-111500000D03*
X167400000Y-93000000D03*
X174850000Y-91960000D03*
X164700000Y-96000000D03*
X174850000Y-92782500D03*
X155200000Y-90794579D03*
X178300000Y-101500000D03*
X168300000Y-107500000D03*
X173500000Y-94700000D03*
X177450000Y-93605000D03*
X180300000Y-93500000D03*
X163200000Y-87200000D03*
X179300000Y-115500000D03*
X173386659Y-95969575D03*
X171200000Y-89500000D03*
X182300000Y-93500000D03*
X152460000Y-114520000D03*
X168400000Y-94700000D03*
X168300000Y-114500000D03*
X172300000Y-115500000D03*
X173170000Y-101150000D03*
X153299656Y-96399656D03*
X176800000Y-105600000D03*
X167350000Y-103050000D03*
X161595000Y-95755000D03*
X159400000Y-107100000D03*
X159500000Y-99200000D03*
X151400000Y-91400000D03*
X154750000Y-92350000D03*
X179660687Y-96054343D03*
X178230851Y-107128014D03*
X155665258Y-100213351D03*
X179710863Y-98742750D03*
X181416941Y-98774940D03*
X153800000Y-86900000D03*
X181449131Y-96054873D03*
X146400000Y-94100000D03*
X154400000Y-103300000D03*
X151800000Y-101400000D03*
X157300000Y-89900000D03*
X160025000Y-102375000D03*
X187233688Y-109660435D03*
X144500000Y-109600000D03*
X149500000Y-100000000D03*
X154500000Y-99100000D03*
X151746552Y-111695661D03*
X160000020Y-93649500D03*
X161600000Y-107400000D03*
X150100000Y-113900000D03*
X178825000Y-107925000D03*
X159473905Y-94110485D03*
X144614514Y-112550000D03*
X145400000Y-108100000D03*
X159393434Y-101198424D03*
X186550000Y-115300000D03*
X185750000Y-115300000D03*
X145650000Y-115550000D03*
X154700000Y-110500000D03*
X157612500Y-103087500D03*
X170000000Y-107900000D03*
X164000000Y-101300000D03*
X159055399Y-91522962D03*
X160981525Y-84630000D03*
X158134395Y-88534395D03*
G04 #@! TA.AperFunction,Conductor*
G36*
X163659191Y-83819407D02*
G01*
X163695155Y-83868907D01*
X163700000Y-83899500D01*
X163700000Y-89100000D01*
X179649877Y-89100000D01*
X179708068Y-89118907D01*
X179736253Y-89150625D01*
X179950445Y-89533091D01*
X180203677Y-89912079D01*
X180485862Y-90270030D01*
X180795263Y-90604737D01*
X181129970Y-90914138D01*
X181487921Y-91196323D01*
X181591956Y-91265837D01*
X181803669Y-91407299D01*
X181866909Y-91449555D01*
X182264596Y-91672271D01*
X182266354Y-91673082D01*
X182266361Y-91673085D01*
X182676750Y-91862277D01*
X182676761Y-91862282D01*
X182678532Y-91863098D01*
X182680359Y-91863772D01*
X182680371Y-91863777D01*
X183086002Y-92013421D01*
X183106164Y-92020859D01*
X183108034Y-92021387D01*
X183108039Y-92021388D01*
X183183847Y-92042768D01*
X183544855Y-92144583D01*
X183546747Y-92144959D01*
X183546758Y-92144962D01*
X183770976Y-92189561D01*
X183991902Y-92233506D01*
X184444547Y-92287080D01*
X184720563Y-92297925D01*
X184888538Y-92304525D01*
X184888539Y-92304525D01*
X184898825Y-92304929D01*
X184900000Y-92305136D01*
X184917764Y-92302004D01*
X184934953Y-92300500D01*
X187500500Y-92300500D01*
X187558691Y-92319407D01*
X187594655Y-92368907D01*
X187599500Y-92399500D01*
X187599500Y-109178498D01*
X187580593Y-109236689D01*
X187531093Y-109272653D01*
X187469907Y-109272653D01*
X187446655Y-109261574D01*
X187430516Y-109251114D01*
X187430514Y-109251113D01*
X187424594Y-109247276D01*
X187417838Y-109245256D01*
X187417837Y-109245255D01*
X187375023Y-109232451D01*
X187300961Y-109210301D01*
X187224332Y-109209833D01*
X187178970Y-109209556D01*
X187171919Y-109209513D01*
X187165142Y-109211450D01*
X187165141Y-109211450D01*
X187054623Y-109243036D01*
X187054621Y-109243037D01*
X187047843Y-109244974D01*
X186938707Y-109313834D01*
X186853284Y-109410557D01*
X186798442Y-109527367D01*
X186778589Y-109654875D01*
X186795321Y-109782829D01*
X186847293Y-109900945D01*
X186884281Y-109944948D01*
X186925788Y-109994327D01*
X186925791Y-109994329D01*
X186930327Y-109999726D01*
X187037748Y-110071231D01*
X187044475Y-110073333D01*
X187044480Y-110073335D01*
X187150649Y-110106504D01*
X187200554Y-110141904D01*
X187220121Y-110199877D01*
X187201875Y-110258278D01*
X187152786Y-110294801D01*
X187121127Y-110300000D01*
X184519342Y-110300000D01*
X184461151Y-110281093D01*
X184446469Y-110267250D01*
X184446353Y-110267366D01*
X184442918Y-110263931D01*
X184439831Y-110260169D01*
X184435365Y-110256504D01*
X184306469Y-110150722D01*
X184306467Y-110150721D01*
X184302712Y-110147639D01*
X184225754Y-110106504D01*
X184150566Y-110066315D01*
X184150565Y-110066315D01*
X184146274Y-110064021D01*
X184141624Y-110062610D01*
X184141618Y-110062608D01*
X183981185Y-110013942D01*
X183981181Y-110013941D01*
X183976529Y-110012530D01*
X183800000Y-109995143D01*
X183623471Y-110012530D01*
X183618819Y-110013941D01*
X183618815Y-110013942D01*
X183458382Y-110062608D01*
X183458376Y-110062610D01*
X183453726Y-110064021D01*
X183449435Y-110066315D01*
X183449434Y-110066315D01*
X183374246Y-110106504D01*
X183297288Y-110147639D01*
X183293533Y-110150721D01*
X183293531Y-110150722D01*
X183269545Y-110170407D01*
X183160169Y-110260169D01*
X183157080Y-110263933D01*
X183068180Y-110372259D01*
X183047639Y-110397288D01*
X183045347Y-110401576D01*
X182991970Y-110501438D01*
X182964021Y-110553726D01*
X182962610Y-110558376D01*
X182962608Y-110558382D01*
X182938343Y-110638375D01*
X182912530Y-110723471D01*
X182912053Y-110728314D01*
X182901582Y-110834624D01*
X182900893Y-110838677D01*
X182900117Y-110840622D01*
X182899500Y-110846915D01*
X182899500Y-110850902D01*
X182899023Y-110860606D01*
X182895496Y-110896415D01*
X182894864Y-110900000D01*
X182896368Y-110908527D01*
X182897996Y-110917761D01*
X182899500Y-110934953D01*
X182899500Y-116600500D01*
X182880593Y-116658691D01*
X182831093Y-116694655D01*
X182800500Y-116699500D01*
X148999500Y-116699500D01*
X148941309Y-116680593D01*
X148905345Y-116631093D01*
X148900500Y-116600500D01*
X148900500Y-113894440D01*
X149644901Y-113894440D01*
X149645816Y-113901437D01*
X149645816Y-113901438D01*
X149647082Y-113911120D01*
X149661633Y-114022394D01*
X149664471Y-114028845D01*
X149664472Y-114028847D01*
X149710764Y-114134054D01*
X149713605Y-114140510D01*
X149744459Y-114177215D01*
X149792100Y-114233892D01*
X149792103Y-114233894D01*
X149796639Y-114239291D01*
X149904060Y-114310796D01*
X149910788Y-114312898D01*
X149910790Y-114312899D01*
X149947962Y-114324512D01*
X150027233Y-114349278D01*
X150091744Y-114350461D01*
X150149202Y-114351514D01*
X150149204Y-114351514D01*
X150156255Y-114351643D01*
X150163058Y-114349788D01*
X150163060Y-114349788D01*
X150204828Y-114338400D01*
X150273243Y-114319748D01*
X154059500Y-114319748D01*
X154060448Y-114324512D01*
X154067929Y-114362121D01*
X154071133Y-114378231D01*
X154115448Y-114444552D01*
X154181769Y-114488867D01*
X154191332Y-114490769D01*
X154191334Y-114490770D01*
X154214005Y-114495279D01*
X154240252Y-114500500D01*
X157279748Y-114500500D01*
X157305995Y-114495279D01*
X157328666Y-114490770D01*
X157328668Y-114490769D01*
X157338231Y-114488867D01*
X157404552Y-114444552D01*
X157448867Y-114378231D01*
X157452072Y-114362121D01*
X157459552Y-114324512D01*
X157460500Y-114319748D01*
X157460500Y-112755361D01*
X159135316Y-112755361D01*
X159147443Y-113007820D01*
X159196752Y-113255713D01*
X159282160Y-113493595D01*
X159401792Y-113716240D01*
X159553018Y-113918756D01*
X159732517Y-114096696D01*
X159735476Y-114098866D01*
X159735480Y-114098869D01*
X159818492Y-114159735D01*
X159936346Y-114246149D01*
X160160026Y-114363833D01*
X160163497Y-114365045D01*
X160163499Y-114365046D01*
X160224476Y-114386340D01*
X160398644Y-114447162D01*
X160646958Y-114494306D01*
X160784408Y-114499706D01*
X160895843Y-114504085D01*
X160895846Y-114504085D01*
X160899513Y-114504229D01*
X161150760Y-114476713D01*
X161303722Y-114436442D01*
X161391635Y-114413297D01*
X161391640Y-114413295D01*
X161395181Y-114412363D01*
X161610747Y-114319748D01*
X164199500Y-114319748D01*
X164200448Y-114324512D01*
X164207929Y-114362121D01*
X164211133Y-114378231D01*
X164255448Y-114444552D01*
X164321769Y-114488867D01*
X164331332Y-114490769D01*
X164331334Y-114490770D01*
X164354005Y-114495279D01*
X164380252Y-114500500D01*
X167419748Y-114500500D01*
X167445995Y-114495279D01*
X167468666Y-114490770D01*
X167468668Y-114490769D01*
X167478231Y-114488867D01*
X167544552Y-114444552D01*
X167588867Y-114378231D01*
X167592072Y-114362121D01*
X167599552Y-114324512D01*
X167600500Y-114319748D01*
X167600500Y-112755361D01*
X169275316Y-112755361D01*
X169287443Y-113007820D01*
X169336752Y-113255713D01*
X169422160Y-113493595D01*
X169541792Y-113716240D01*
X169693018Y-113918756D01*
X169872517Y-114096696D01*
X169875476Y-114098866D01*
X169875480Y-114098869D01*
X169958492Y-114159735D01*
X170076346Y-114246149D01*
X170300026Y-114363833D01*
X170303497Y-114365045D01*
X170303499Y-114365046D01*
X170364476Y-114386340D01*
X170538644Y-114447162D01*
X170786958Y-114494306D01*
X170924408Y-114499706D01*
X171035843Y-114504085D01*
X171035846Y-114504085D01*
X171039513Y-114504229D01*
X171290760Y-114476713D01*
X171443722Y-114436442D01*
X171531635Y-114413297D01*
X171531640Y-114413295D01*
X171535181Y-114412363D01*
X171767405Y-114312591D01*
X171868262Y-114250179D01*
X171979205Y-114181526D01*
X171979210Y-114181522D01*
X171982331Y-114179591D01*
X172011962Y-114154507D01*
X172149142Y-114038375D01*
X172175238Y-114016283D01*
X172270815Y-113907299D01*
X172339462Y-113829023D01*
X172339466Y-113829018D01*
X172341888Y-113826256D01*
X172478619Y-113613684D01*
X172505776Y-113553399D01*
X172580918Y-113386588D01*
X172582428Y-113383236D01*
X172651034Y-113139976D01*
X172682931Y-112889247D01*
X172685268Y-112800000D01*
X172685084Y-112797527D01*
X172685084Y-112797517D01*
X172681951Y-112755361D01*
X174355316Y-112755361D01*
X174367443Y-113007820D01*
X174416752Y-113255713D01*
X174502160Y-113493595D01*
X174621792Y-113716240D01*
X174773018Y-113918756D01*
X174952517Y-114096696D01*
X174955476Y-114098866D01*
X174955480Y-114098869D01*
X175038492Y-114159735D01*
X175156346Y-114246149D01*
X175380026Y-114363833D01*
X175383497Y-114365045D01*
X175383499Y-114365046D01*
X175444476Y-114386340D01*
X175618644Y-114447162D01*
X175866958Y-114494306D01*
X176004408Y-114499706D01*
X176115843Y-114504085D01*
X176115846Y-114504085D01*
X176119513Y-114504229D01*
X176370760Y-114476713D01*
X176523722Y-114436442D01*
X176611635Y-114413297D01*
X176611640Y-114413295D01*
X176615181Y-114412363D01*
X176847405Y-114312591D01*
X176948262Y-114250179D01*
X177059205Y-114181526D01*
X177059210Y-114181522D01*
X177062331Y-114179591D01*
X177091962Y-114154507D01*
X177229142Y-114038375D01*
X177255238Y-114016283D01*
X177350815Y-113907299D01*
X177419462Y-113829023D01*
X177419466Y-113829018D01*
X177421888Y-113826256D01*
X177558619Y-113613684D01*
X177585776Y-113553399D01*
X177660918Y-113386588D01*
X177662428Y-113383236D01*
X177731034Y-113139976D01*
X177762931Y-112889247D01*
X177765268Y-112800000D01*
X177765084Y-112797527D01*
X177765084Y-112797517D01*
X177746809Y-112551599D01*
X177746808Y-112551593D01*
X177746537Y-112547945D01*
X177690756Y-112301428D01*
X177630821Y-112147304D01*
X177600480Y-112069282D01*
X177600478Y-112069277D01*
X177599150Y-112065863D01*
X177473731Y-111846426D01*
X177317255Y-111647938D01*
X177314582Y-111645424D01*
X177314577Y-111645418D01*
X177135832Y-111477272D01*
X177133160Y-111474758D01*
X176925489Y-111330691D01*
X176880569Y-111308539D01*
X176702107Y-111220531D01*
X176702103Y-111220529D01*
X176698805Y-111218903D01*
X176695303Y-111217782D01*
X176695298Y-111217780D01*
X176525906Y-111163558D01*
X176458087Y-111141849D01*
X176454472Y-111141260D01*
X176454471Y-111141260D01*
X176212241Y-111101810D01*
X176212240Y-111101810D01*
X176208624Y-111101221D01*
X176204961Y-111101173D01*
X176204960Y-111101173D01*
X176077141Y-111099500D01*
X175955896Y-111097913D01*
X175952268Y-111098407D01*
X175952264Y-111098407D01*
X175818937Y-111116552D01*
X175705455Y-111131996D01*
X175462803Y-111202723D01*
X175233270Y-111308539D01*
X175075794Y-111411785D01*
X175031998Y-111440499D01*
X175021899Y-111447120D01*
X175019166Y-111449559D01*
X175019165Y-111449560D01*
X174836070Y-111612978D01*
X174833333Y-111615421D01*
X174830986Y-111618243D01*
X174830985Y-111618244D01*
X174674067Y-111806918D01*
X174671715Y-111809746D01*
X174540595Y-112025825D01*
X174442854Y-112258911D01*
X174380639Y-112503883D01*
X174355316Y-112755361D01*
X172681951Y-112755361D01*
X172666809Y-112551599D01*
X172666808Y-112551593D01*
X172666537Y-112547945D01*
X172610756Y-112301428D01*
X172550821Y-112147304D01*
X172520480Y-112069282D01*
X172520478Y-112069277D01*
X172519150Y-112065863D01*
X172393731Y-111846426D01*
X172237255Y-111647938D01*
X172234582Y-111645424D01*
X172234577Y-111645418D01*
X172055832Y-111477272D01*
X172053160Y-111474758D01*
X171845489Y-111330691D01*
X171800569Y-111308539D01*
X171622107Y-111220531D01*
X171622103Y-111220529D01*
X171618805Y-111218903D01*
X171615303Y-111217782D01*
X171615298Y-111217780D01*
X171445906Y-111163558D01*
X171378087Y-111141849D01*
X171374472Y-111141260D01*
X171374471Y-111141260D01*
X171132241Y-111101810D01*
X171132240Y-111101810D01*
X171128624Y-111101221D01*
X171124961Y-111101173D01*
X171124960Y-111101173D01*
X170997141Y-111099500D01*
X170875896Y-111097913D01*
X170872268Y-111098407D01*
X170872264Y-111098407D01*
X170738937Y-111116552D01*
X170625455Y-111131996D01*
X170382803Y-111202723D01*
X170153270Y-111308539D01*
X169995794Y-111411785D01*
X169951998Y-111440499D01*
X169941899Y-111447120D01*
X169939166Y-111449559D01*
X169939165Y-111449560D01*
X169756070Y-111612978D01*
X169753333Y-111615421D01*
X169750986Y-111618243D01*
X169750985Y-111618244D01*
X169594067Y-111806918D01*
X169591715Y-111809746D01*
X169460595Y-112025825D01*
X169362854Y-112258911D01*
X169300639Y-112503883D01*
X169275316Y-112755361D01*
X167600500Y-112755361D01*
X167600500Y-111280252D01*
X167588867Y-111221769D01*
X167544552Y-111155448D01*
X167478231Y-111111133D01*
X167468668Y-111109231D01*
X167468666Y-111109230D01*
X167445995Y-111104721D01*
X167419748Y-111099500D01*
X164380252Y-111099500D01*
X164354005Y-111104721D01*
X164331334Y-111109230D01*
X164331332Y-111109231D01*
X164321769Y-111111133D01*
X164255448Y-111155448D01*
X164211133Y-111221769D01*
X164199500Y-111280252D01*
X164199500Y-114319748D01*
X161610747Y-114319748D01*
X161627405Y-114312591D01*
X161728262Y-114250179D01*
X161839205Y-114181526D01*
X161839210Y-114181522D01*
X161842331Y-114179591D01*
X161871962Y-114154507D01*
X162009142Y-114038375D01*
X162035238Y-114016283D01*
X162130815Y-113907299D01*
X162199462Y-113829023D01*
X162199466Y-113829018D01*
X162201888Y-113826256D01*
X162338619Y-113613684D01*
X162365776Y-113553399D01*
X162440918Y-113386588D01*
X162442428Y-113383236D01*
X162511034Y-113139976D01*
X162542931Y-112889247D01*
X162545268Y-112800000D01*
X162545084Y-112797527D01*
X162545084Y-112797517D01*
X162526809Y-112551599D01*
X162526808Y-112551593D01*
X162526537Y-112547945D01*
X162470756Y-112301428D01*
X162410821Y-112147304D01*
X162380480Y-112069282D01*
X162380478Y-112069277D01*
X162379150Y-112065863D01*
X162253731Y-111846426D01*
X162097255Y-111647938D01*
X162094582Y-111645424D01*
X162094577Y-111645418D01*
X161915832Y-111477272D01*
X161913160Y-111474758D01*
X161705489Y-111330691D01*
X161660569Y-111308539D01*
X161482107Y-111220531D01*
X161482103Y-111220529D01*
X161478805Y-111218903D01*
X161475303Y-111217782D01*
X161475298Y-111217780D01*
X161305906Y-111163558D01*
X161238087Y-111141849D01*
X161234472Y-111141260D01*
X161234471Y-111141260D01*
X160992241Y-111101810D01*
X160992240Y-111101810D01*
X160988624Y-111101221D01*
X160984961Y-111101173D01*
X160984960Y-111101173D01*
X160857141Y-111099500D01*
X160735896Y-111097913D01*
X160732268Y-111098407D01*
X160732264Y-111098407D01*
X160598937Y-111116552D01*
X160485455Y-111131996D01*
X160242803Y-111202723D01*
X160013270Y-111308539D01*
X159855794Y-111411785D01*
X159811998Y-111440499D01*
X159801899Y-111447120D01*
X159799166Y-111449559D01*
X159799165Y-111449560D01*
X159616070Y-111612978D01*
X159613333Y-111615421D01*
X159610986Y-111618243D01*
X159610985Y-111618244D01*
X159454067Y-111806918D01*
X159451715Y-111809746D01*
X159320595Y-112025825D01*
X159222854Y-112258911D01*
X159160639Y-112503883D01*
X159135316Y-112755361D01*
X157460500Y-112755361D01*
X157460500Y-111280252D01*
X157448867Y-111221769D01*
X157404552Y-111155448D01*
X157338231Y-111111133D01*
X157328668Y-111109231D01*
X157328666Y-111109230D01*
X157305995Y-111104721D01*
X157279748Y-111099500D01*
X154935106Y-111099500D01*
X154876915Y-111080593D01*
X154840951Y-111031093D01*
X154840951Y-110969907D01*
X154876915Y-110920407D01*
X154883305Y-110916134D01*
X154891433Y-110911144D01*
X154990724Y-110850179D01*
X155077322Y-110754507D01*
X155133588Y-110638375D01*
X155154997Y-110511120D01*
X155155133Y-110500000D01*
X155136839Y-110372259D01*
X155083428Y-110254788D01*
X154999193Y-110157028D01*
X154993276Y-110153193D01*
X154993274Y-110153191D01*
X154896824Y-110090677D01*
X154890906Y-110086841D01*
X154884150Y-110084821D01*
X154884149Y-110084820D01*
X154809878Y-110062608D01*
X154767273Y-110049866D01*
X154690644Y-110049398D01*
X154645282Y-110049121D01*
X154638231Y-110049078D01*
X154631454Y-110051015D01*
X154631453Y-110051015D01*
X154520935Y-110082601D01*
X154520933Y-110082602D01*
X154514155Y-110084539D01*
X154405019Y-110153399D01*
X154319596Y-110250122D01*
X154264754Y-110366932D01*
X154244901Y-110494440D01*
X154245816Y-110501437D01*
X154245816Y-110501438D01*
X154247082Y-110511120D01*
X154261633Y-110622394D01*
X154264471Y-110628845D01*
X154264472Y-110628847D01*
X154310764Y-110734054D01*
X154313605Y-110740510D01*
X154355122Y-110789900D01*
X154392100Y-110833892D01*
X154392103Y-110833894D01*
X154396639Y-110839291D01*
X154504060Y-110910796D01*
X154508063Y-110912047D01*
X154551494Y-110953261D01*
X154562644Y-111013422D01*
X154536303Y-111068647D01*
X154482532Y-111097842D01*
X154464491Y-111099500D01*
X154240252Y-111099500D01*
X154214005Y-111104721D01*
X154191334Y-111109230D01*
X154191332Y-111109231D01*
X154181769Y-111111133D01*
X154115448Y-111155448D01*
X154071133Y-111221769D01*
X154059500Y-111280252D01*
X154059500Y-114319748D01*
X150273243Y-114319748D01*
X150280755Y-114317700D01*
X150390724Y-114250179D01*
X150477322Y-114154507D01*
X150533588Y-114038375D01*
X150544596Y-113972941D01*
X150554363Y-113914891D01*
X150554363Y-113914886D01*
X150554997Y-113911120D01*
X150555133Y-113900000D01*
X150536839Y-113772259D01*
X150483428Y-113654788D01*
X150399193Y-113557028D01*
X150393276Y-113553193D01*
X150393274Y-113553191D01*
X150296824Y-113490677D01*
X150290906Y-113486841D01*
X150284150Y-113484821D01*
X150284149Y-113484820D01*
X150241335Y-113472016D01*
X150167273Y-113449866D01*
X150090644Y-113449398D01*
X150045282Y-113449121D01*
X150038231Y-113449078D01*
X150031454Y-113451015D01*
X150031453Y-113451015D01*
X149920935Y-113482601D01*
X149920933Y-113482602D01*
X149914155Y-113484539D01*
X149805019Y-113553399D01*
X149719596Y-113650122D01*
X149664754Y-113766932D01*
X149644901Y-113894440D01*
X148900500Y-113894440D01*
X148900500Y-111690101D01*
X151291453Y-111690101D01*
X151292368Y-111697098D01*
X151292368Y-111697099D01*
X151293634Y-111706781D01*
X151308185Y-111818055D01*
X151311023Y-111824506D01*
X151311024Y-111824508D01*
X151318010Y-111840385D01*
X151360157Y-111936171D01*
X151401674Y-111985561D01*
X151438652Y-112029553D01*
X151438655Y-112029555D01*
X151443191Y-112034952D01*
X151550612Y-112106457D01*
X151557340Y-112108559D01*
X151557342Y-112108560D01*
X151612198Y-112125698D01*
X151673785Y-112144939D01*
X151738296Y-112146121D01*
X151795754Y-112147175D01*
X151795756Y-112147175D01*
X151802807Y-112147304D01*
X151809610Y-112145449D01*
X151809612Y-112145449D01*
X151851380Y-112134061D01*
X151927307Y-112113361D01*
X152037276Y-112045840D01*
X152052018Y-112029553D01*
X152119142Y-111955396D01*
X152119142Y-111955395D01*
X152123874Y-111950168D01*
X152158270Y-111879176D01*
X152177064Y-111840385D01*
X152177064Y-111840384D01*
X152180140Y-111834036D01*
X152201549Y-111706781D01*
X152201685Y-111695661D01*
X152183391Y-111567920D01*
X152129980Y-111450449D01*
X152045745Y-111352689D01*
X152039828Y-111348854D01*
X152039826Y-111348852D01*
X151943376Y-111286338D01*
X151937458Y-111282502D01*
X151930702Y-111280482D01*
X151930701Y-111280481D01*
X151887887Y-111267677D01*
X151813825Y-111245527D01*
X151737196Y-111245059D01*
X151691834Y-111244782D01*
X151684783Y-111244739D01*
X151678006Y-111246676D01*
X151678005Y-111246676D01*
X151567487Y-111278262D01*
X151567485Y-111278263D01*
X151560707Y-111280200D01*
X151451571Y-111349060D01*
X151366148Y-111445783D01*
X151311306Y-111562593D01*
X151291453Y-111690101D01*
X148900500Y-111690101D01*
X148900500Y-110934953D01*
X148902004Y-110917761D01*
X148903632Y-110908527D01*
X148905136Y-110900000D01*
X148904504Y-110896415D01*
X148887470Y-110723471D01*
X148861657Y-110638375D01*
X148837392Y-110558382D01*
X148837390Y-110558376D01*
X148835979Y-110553726D01*
X148808031Y-110501438D01*
X148754653Y-110401576D01*
X148752361Y-110397288D01*
X148731821Y-110372259D01*
X148642920Y-110263933D01*
X148639831Y-110260169D01*
X148530455Y-110170407D01*
X148506469Y-110150722D01*
X148506467Y-110150721D01*
X148502712Y-110147639D01*
X148425754Y-110106504D01*
X148350566Y-110066315D01*
X148350565Y-110066315D01*
X148346274Y-110064021D01*
X148341624Y-110062610D01*
X148341618Y-110062608D01*
X148181185Y-110013942D01*
X148181181Y-110013941D01*
X148176529Y-110012530D01*
X148000000Y-109995143D01*
X147823471Y-110012530D01*
X147818819Y-110013941D01*
X147818815Y-110013942D01*
X147658382Y-110062608D01*
X147658376Y-110062610D01*
X147653726Y-110064021D01*
X147649435Y-110066315D01*
X147649434Y-110066315D01*
X147574246Y-110106504D01*
X147497288Y-110147639D01*
X147493533Y-110150721D01*
X147493531Y-110150722D01*
X147364635Y-110256504D01*
X147360169Y-110260169D01*
X147357082Y-110263931D01*
X147353647Y-110267366D01*
X147352857Y-110266576D01*
X147305657Y-110296792D01*
X147280658Y-110300000D01*
X144299500Y-110300000D01*
X144241309Y-110281093D01*
X144205345Y-110231593D01*
X144200500Y-110201000D01*
X144200500Y-110113091D01*
X144219407Y-110054900D01*
X144268907Y-110018936D01*
X144329023Y-110018595D01*
X144427233Y-110049278D01*
X144491744Y-110050460D01*
X144549202Y-110051514D01*
X144549204Y-110051514D01*
X144556255Y-110051643D01*
X144563058Y-110049788D01*
X144563060Y-110049788D01*
X144604828Y-110038400D01*
X144680755Y-110017700D01*
X144790724Y-109950179D01*
X144811109Y-109927658D01*
X144872590Y-109859735D01*
X144872590Y-109859734D01*
X144877322Y-109854507D01*
X144933588Y-109738375D01*
X144944596Y-109672941D01*
X144954363Y-109614891D01*
X144954363Y-109614886D01*
X144954997Y-109611120D01*
X144955133Y-109600000D01*
X144936839Y-109472259D01*
X144883428Y-109354788D01*
X144830395Y-109293240D01*
X144803798Y-109262372D01*
X144803797Y-109262371D01*
X144799193Y-109257028D01*
X144793276Y-109253193D01*
X144793274Y-109253191D01*
X144696824Y-109190677D01*
X144690906Y-109186841D01*
X144684150Y-109184821D01*
X144684149Y-109184820D01*
X144641335Y-109172016D01*
X144567273Y-109149866D01*
X144490644Y-109149398D01*
X144445282Y-109149121D01*
X144438231Y-109149078D01*
X144431454Y-109151015D01*
X144431453Y-109151015D01*
X144326705Y-109180952D01*
X144265559Y-109178763D01*
X144217377Y-109141051D01*
X144200500Y-109085763D01*
X144200500Y-108094440D01*
X144944901Y-108094440D01*
X144945816Y-108101437D01*
X144945816Y-108101438D01*
X144947082Y-108111120D01*
X144961633Y-108222394D01*
X144964471Y-108228845D01*
X144964472Y-108228847D01*
X145001456Y-108312899D01*
X145013605Y-108340510D01*
X145043978Y-108376643D01*
X145092100Y-108433892D01*
X145092103Y-108433894D01*
X145096639Y-108439291D01*
X145204060Y-108510796D01*
X145210788Y-108512898D01*
X145210790Y-108512899D01*
X145265646Y-108530037D01*
X145327233Y-108549278D01*
X145391744Y-108550460D01*
X145449202Y-108551514D01*
X145449204Y-108551514D01*
X145456255Y-108551643D01*
X145463058Y-108549788D01*
X145463060Y-108549788D01*
X145504828Y-108538400D01*
X145580755Y-108517700D01*
X145690724Y-108450179D01*
X145705466Y-108433892D01*
X145772590Y-108359735D01*
X145772590Y-108359734D01*
X145777322Y-108354507D01*
X145833588Y-108238375D01*
X145854997Y-108111120D01*
X145855133Y-108100000D01*
X145836839Y-107972259D01*
X145801457Y-107894440D01*
X169544901Y-107894440D01*
X169545816Y-107901437D01*
X169545816Y-107901438D01*
X169547082Y-107911120D01*
X169561633Y-108022394D01*
X169564471Y-108028845D01*
X169564472Y-108028847D01*
X169595780Y-108100000D01*
X169613605Y-108140510D01*
X169650780Y-108184735D01*
X169692100Y-108233892D01*
X169692103Y-108233894D01*
X169696639Y-108239291D01*
X169804060Y-108310796D01*
X169810788Y-108312898D01*
X169810790Y-108312899D01*
X169865646Y-108330037D01*
X169927233Y-108349278D01*
X169991744Y-108350461D01*
X170049202Y-108351514D01*
X170049204Y-108351514D01*
X170056255Y-108351643D01*
X170063058Y-108349788D01*
X170063060Y-108349788D01*
X170120770Y-108334054D01*
X170180755Y-108317700D01*
X170290724Y-108250179D01*
X170300579Y-108239291D01*
X170372590Y-108159735D01*
X170372590Y-108159734D01*
X170377322Y-108154507D01*
X170418399Y-108069724D01*
X170430512Y-108044724D01*
X170430512Y-108044723D01*
X170433588Y-108038375D01*
X170451434Y-107932299D01*
X170454363Y-107914891D01*
X170454363Y-107914886D01*
X170454997Y-107911120D01*
X170455133Y-107900000D01*
X170436839Y-107772259D01*
X170391719Y-107673022D01*
X170386349Y-107661212D01*
X170386348Y-107661211D01*
X170383428Y-107654788D01*
X170318580Y-107579528D01*
X170303798Y-107562372D01*
X170303797Y-107562371D01*
X170299193Y-107557028D01*
X170293276Y-107553193D01*
X170293274Y-107553191D01*
X170196824Y-107490677D01*
X170190906Y-107486841D01*
X170184150Y-107484821D01*
X170184149Y-107484820D01*
X170138651Y-107471213D01*
X170067273Y-107449866D01*
X169990644Y-107449398D01*
X169945282Y-107449121D01*
X169938231Y-107449078D01*
X169931454Y-107451015D01*
X169931453Y-107451015D01*
X169820935Y-107482601D01*
X169820933Y-107482602D01*
X169814155Y-107484539D01*
X169705019Y-107553399D01*
X169619596Y-107650122D01*
X169564754Y-107766932D01*
X169544901Y-107894440D01*
X145801457Y-107894440D01*
X145787420Y-107863567D01*
X145786349Y-107861212D01*
X145786348Y-107861211D01*
X145783428Y-107854788D01*
X145723766Y-107785546D01*
X145703798Y-107762372D01*
X145703797Y-107762371D01*
X145699193Y-107757028D01*
X145693276Y-107753193D01*
X145693274Y-107753191D01*
X145596824Y-107690677D01*
X145590906Y-107686841D01*
X145584150Y-107684821D01*
X145584149Y-107684820D01*
X145533241Y-107669595D01*
X145467273Y-107649866D01*
X145390644Y-107649398D01*
X145345282Y-107649121D01*
X145338231Y-107649078D01*
X145331454Y-107651015D01*
X145331453Y-107651015D01*
X145220935Y-107682601D01*
X145220933Y-107682602D01*
X145214155Y-107684539D01*
X145105019Y-107753399D01*
X145019596Y-107850122D01*
X144964754Y-107966932D01*
X144944901Y-108094440D01*
X144200500Y-108094440D01*
X144200500Y-104388113D01*
X146094527Y-104388113D01*
X146094662Y-104390778D01*
X146094662Y-104390783D01*
X146099458Y-104485447D01*
X146113162Y-104755971D01*
X146171416Y-105119665D01*
X146172122Y-105122245D01*
X146172122Y-105122246D01*
X146234462Y-105350122D01*
X146268608Y-105474941D01*
X146269588Y-105477428D01*
X146269590Y-105477435D01*
X146322283Y-105611202D01*
X146403602Y-105817642D01*
X146404844Y-105820008D01*
X146404846Y-105820012D01*
X146467469Y-105939291D01*
X146574817Y-106143759D01*
X146576309Y-106145979D01*
X146576310Y-106145981D01*
X146642015Y-106243759D01*
X146780252Y-106449477D01*
X146781978Y-106451527D01*
X146781979Y-106451528D01*
X147003721Y-106714855D01*
X147017502Y-106731221D01*
X147019441Y-106733074D01*
X147247503Y-106951015D01*
X147283792Y-106985694D01*
X147285912Y-106987321D01*
X147285917Y-106987325D01*
X147462021Y-107122454D01*
X147576008Y-107209919D01*
X147890731Y-107401274D01*
X147893156Y-107402410D01*
X147893158Y-107402411D01*
X148215484Y-107553399D01*
X148224279Y-107557519D01*
X148226820Y-107558389D01*
X148226825Y-107558391D01*
X148447819Y-107634054D01*
X148572751Y-107676828D01*
X148891333Y-107748623D01*
X148928627Y-107757028D01*
X148932070Y-107757804D01*
X149298033Y-107799500D01*
X149666358Y-107801428D01*
X150032737Y-107763567D01*
X150392884Y-107686358D01*
X150395419Y-107685520D01*
X150395425Y-107685518D01*
X150740044Y-107571546D01*
X150740049Y-107571544D01*
X150742586Y-107570705D01*
X151077752Y-107417961D01*
X151394461Y-107229913D01*
X151574894Y-107094440D01*
X158944901Y-107094440D01*
X158945816Y-107101437D01*
X158945816Y-107101438D01*
X158950246Y-107135313D01*
X158961633Y-107222394D01*
X158964471Y-107228845D01*
X158964472Y-107228847D01*
X159008237Y-107328310D01*
X159013605Y-107340510D01*
X159041692Y-107373923D01*
X159092100Y-107433892D01*
X159092103Y-107433894D01*
X159096639Y-107439291D01*
X159204060Y-107510796D01*
X159210788Y-107512898D01*
X159210790Y-107512899D01*
X159265647Y-107530037D01*
X159327233Y-107549278D01*
X159391744Y-107550461D01*
X159449202Y-107551514D01*
X159449204Y-107551514D01*
X159456255Y-107551643D01*
X159463058Y-107549788D01*
X159463060Y-107549788D01*
X159504921Y-107538375D01*
X159580755Y-107517700D01*
X159690724Y-107450179D01*
X159697042Y-107443199D01*
X159741177Y-107394440D01*
X161144901Y-107394440D01*
X161145816Y-107401437D01*
X161145816Y-107401438D01*
X161147082Y-107411120D01*
X161161633Y-107522394D01*
X161164471Y-107528845D01*
X161164472Y-107528847D01*
X161186772Y-107579528D01*
X161213605Y-107640510D01*
X161252144Y-107686358D01*
X161292100Y-107733892D01*
X161292103Y-107733894D01*
X161296639Y-107739291D01*
X161374076Y-107790837D01*
X161394216Y-107804243D01*
X161404060Y-107810796D01*
X161410788Y-107812898D01*
X161410790Y-107812899D01*
X161465646Y-107830037D01*
X161527233Y-107849278D01*
X161591744Y-107850461D01*
X161649202Y-107851514D01*
X161649204Y-107851514D01*
X161656255Y-107851643D01*
X161663058Y-107849788D01*
X161663060Y-107849788D01*
X161704828Y-107838400D01*
X161780755Y-107817700D01*
X161890724Y-107750179D01*
X161949884Y-107684820D01*
X161972590Y-107659735D01*
X161972590Y-107659734D01*
X161977322Y-107654507D01*
X162028243Y-107549407D01*
X162030512Y-107544724D01*
X162030512Y-107544723D01*
X162033588Y-107538375D01*
X162048426Y-107450179D01*
X162054363Y-107414891D01*
X162054363Y-107414886D01*
X162054997Y-107411120D01*
X162055133Y-107400000D01*
X162036839Y-107272259D01*
X161983428Y-107154788D01*
X161955567Y-107122454D01*
X177775752Y-107122454D01*
X177776667Y-107129451D01*
X177776667Y-107129452D01*
X177777933Y-107139134D01*
X177792484Y-107250408D01*
X177795322Y-107256859D01*
X177795323Y-107256861D01*
X177841615Y-107362068D01*
X177844456Y-107368524D01*
X177884863Y-107416594D01*
X177922951Y-107461906D01*
X177922954Y-107461908D01*
X177927490Y-107467305D01*
X178034911Y-107538810D01*
X178041639Y-107540912D01*
X178041641Y-107540913D01*
X178093223Y-107557028D01*
X178158084Y-107577292D01*
X178222595Y-107578475D01*
X178280053Y-107579528D01*
X178280055Y-107579528D01*
X178287106Y-107579657D01*
X178293907Y-107577803D01*
X178293913Y-107577802D01*
X178312400Y-107572761D01*
X178373515Y-107575695D01*
X178421233Y-107613991D01*
X178437328Y-107673022D01*
X178428057Y-107710347D01*
X178395711Y-107779243D01*
X178389754Y-107791932D01*
X178369901Y-107919440D01*
X178370816Y-107926437D01*
X178370816Y-107926438D01*
X178372082Y-107936120D01*
X178386633Y-108047394D01*
X178389471Y-108053845D01*
X178389472Y-108053847D01*
X178435764Y-108159054D01*
X178438605Y-108165510D01*
X178480122Y-108214901D01*
X178517100Y-108258892D01*
X178517103Y-108258894D01*
X178521639Y-108264291D01*
X178629060Y-108335796D01*
X178635788Y-108337898D01*
X178635790Y-108337899D01*
X178679370Y-108351514D01*
X178752233Y-108374278D01*
X178816744Y-108375461D01*
X178874202Y-108376514D01*
X178874204Y-108376514D01*
X178881255Y-108376643D01*
X178888058Y-108374788D01*
X178888060Y-108374788D01*
X178943272Y-108359735D01*
X179005755Y-108342700D01*
X179115724Y-108275179D01*
X179143088Y-108244948D01*
X179197590Y-108184735D01*
X179197590Y-108184734D01*
X179202322Y-108179507D01*
X179258588Y-108063375D01*
X179273917Y-107972259D01*
X179279363Y-107939891D01*
X179279363Y-107939886D01*
X179279997Y-107936120D01*
X179280133Y-107925000D01*
X179261839Y-107797259D01*
X179237259Y-107743199D01*
X179211349Y-107686212D01*
X179211348Y-107686211D01*
X179208428Y-107679788D01*
X179124193Y-107582028D01*
X179118276Y-107578193D01*
X179118274Y-107578191D01*
X179042143Y-107528847D01*
X179015906Y-107511841D01*
X179009150Y-107509821D01*
X179009149Y-107509820D01*
X178945140Y-107490677D01*
X178892273Y-107474866D01*
X178815644Y-107474398D01*
X178770282Y-107474121D01*
X178763231Y-107474078D01*
X178756450Y-107476016D01*
X178744559Y-107479414D01*
X178683413Y-107477225D01*
X178635231Y-107439513D01*
X178618418Y-107380683D01*
X178628261Y-107341059D01*
X178633662Y-107329913D01*
X178664439Y-107266389D01*
X178682926Y-107156504D01*
X178685214Y-107142905D01*
X178685214Y-107142900D01*
X178685848Y-107139134D01*
X178685984Y-107128014D01*
X178667690Y-107000273D01*
X178614279Y-106882802D01*
X178530044Y-106785042D01*
X178524127Y-106781207D01*
X178524125Y-106781205D01*
X178447007Y-106731221D01*
X178421757Y-106714855D01*
X178415001Y-106712835D01*
X178415000Y-106712834D01*
X178340913Y-106690677D01*
X178298124Y-106677880D01*
X178221495Y-106677412D01*
X178176133Y-106677135D01*
X178169082Y-106677092D01*
X178162305Y-106679029D01*
X178162304Y-106679029D01*
X178051786Y-106710615D01*
X178051784Y-106710616D01*
X178045006Y-106712553D01*
X177935870Y-106781413D01*
X177850447Y-106878136D01*
X177795605Y-106994946D01*
X177775752Y-107122454D01*
X161955567Y-107122454D01*
X161925420Y-107087466D01*
X161903798Y-107062372D01*
X161903797Y-107062371D01*
X161899193Y-107057028D01*
X161893276Y-107053193D01*
X161893274Y-107053191D01*
X161811629Y-107000273D01*
X161790906Y-106986841D01*
X161784150Y-106984821D01*
X161784149Y-106984820D01*
X161720675Y-106965837D01*
X161667273Y-106949866D01*
X161590644Y-106949398D01*
X161545282Y-106949121D01*
X161538231Y-106949078D01*
X161531454Y-106951015D01*
X161531453Y-106951015D01*
X161420935Y-106982601D01*
X161420933Y-106982602D01*
X161414155Y-106984539D01*
X161305019Y-107053399D01*
X161219596Y-107150122D01*
X161164754Y-107266932D01*
X161144901Y-107394440D01*
X159741177Y-107394440D01*
X159772590Y-107359735D01*
X159772590Y-107359734D01*
X159777322Y-107354507D01*
X159833588Y-107238375D01*
X159847362Y-107156504D01*
X159854363Y-107114891D01*
X159854363Y-107114886D01*
X159854997Y-107111120D01*
X159855133Y-107100000D01*
X159836839Y-106972259D01*
X159799086Y-106889226D01*
X159786349Y-106861212D01*
X159786348Y-106861211D01*
X159783428Y-106854788D01*
X159699193Y-106757028D01*
X159693276Y-106753193D01*
X159693274Y-106753191D01*
X159596824Y-106690677D01*
X159590906Y-106686841D01*
X159584150Y-106684821D01*
X159584149Y-106684820D01*
X159541335Y-106672016D01*
X159467273Y-106649866D01*
X159390644Y-106649398D01*
X159345282Y-106649121D01*
X159338231Y-106649078D01*
X159331454Y-106651015D01*
X159331453Y-106651015D01*
X159220935Y-106682601D01*
X159220933Y-106682602D01*
X159214155Y-106684539D01*
X159105019Y-106753399D01*
X159019596Y-106850122D01*
X158964754Y-106966932D01*
X158944901Y-107094440D01*
X151574894Y-107094440D01*
X151689009Y-107008760D01*
X151698079Y-107000273D01*
X151955987Y-106758926D01*
X151955988Y-106758925D01*
X151957950Y-106757089D01*
X152048438Y-106651888D01*
X152196388Y-106479881D01*
X152196391Y-106479877D01*
X152198138Y-106477846D01*
X152406762Y-106174295D01*
X152581383Y-105849989D01*
X152593556Y-105820012D01*
X152685151Y-105594440D01*
X176344901Y-105594440D01*
X176345816Y-105601437D01*
X176345816Y-105601438D01*
X176346768Y-105608720D01*
X176361633Y-105722394D01*
X176364471Y-105728845D01*
X176364472Y-105728847D01*
X176410764Y-105834054D01*
X176413605Y-105840510D01*
X176455122Y-105889900D01*
X176492100Y-105933892D01*
X176492103Y-105933894D01*
X176496639Y-105939291D01*
X176604060Y-106010796D01*
X176610788Y-106012898D01*
X176610790Y-106012899D01*
X176665646Y-106030037D01*
X176727233Y-106049278D01*
X176791744Y-106050461D01*
X176849202Y-106051514D01*
X176849204Y-106051514D01*
X176856255Y-106051643D01*
X176863058Y-106049788D01*
X176863060Y-106049788D01*
X176904828Y-106038400D01*
X176980755Y-106017700D01*
X177090724Y-105950179D01*
X177177322Y-105854507D01*
X177233588Y-105738375D01*
X177254997Y-105611120D01*
X177255133Y-105600000D01*
X177236839Y-105472259D01*
X177183428Y-105354788D01*
X177099193Y-105257028D01*
X177093276Y-105253193D01*
X177093274Y-105253191D01*
X176996824Y-105190677D01*
X176990906Y-105186841D01*
X176984150Y-105184821D01*
X176984149Y-105184820D01*
X176941335Y-105172016D01*
X176867273Y-105149866D01*
X176790644Y-105149398D01*
X176745282Y-105149121D01*
X176738231Y-105149078D01*
X176731454Y-105151015D01*
X176731453Y-105151015D01*
X176620935Y-105182601D01*
X176620933Y-105182602D01*
X176614155Y-105184539D01*
X176505019Y-105253399D01*
X176419596Y-105350122D01*
X176364754Y-105466932D01*
X176344901Y-105594440D01*
X152685151Y-105594440D01*
X152718950Y-105511202D01*
X152719958Y-105508720D01*
X152820865Y-105154482D01*
X152882925Y-104791418D01*
X152901476Y-104488113D01*
X178894527Y-104488113D01*
X178894662Y-104490778D01*
X178894662Y-104490783D01*
X178910026Y-104794060D01*
X178913162Y-104855971D01*
X178913586Y-104858618D01*
X178965835Y-105184820D01*
X178971416Y-105219665D01*
X178972122Y-105222245D01*
X178972122Y-105222246D01*
X179041934Y-105477435D01*
X179068608Y-105574941D01*
X179069588Y-105577428D01*
X179069590Y-105577435D01*
X179154680Y-105793447D01*
X179203602Y-105917642D01*
X179204844Y-105920008D01*
X179204846Y-105920012D01*
X179257107Y-106019554D01*
X179374817Y-106243759D01*
X179376309Y-106245979D01*
X179376310Y-106245981D01*
X179514433Y-106451528D01*
X179580252Y-106549477D01*
X179581978Y-106551527D01*
X179581979Y-106551528D01*
X179731566Y-106729168D01*
X179817502Y-106831221D01*
X179819441Y-106833074D01*
X180046060Y-107049636D01*
X180083792Y-107085694D01*
X180085912Y-107087321D01*
X180085917Y-107087325D01*
X180153436Y-107139134D01*
X180376008Y-107309919D01*
X180690731Y-107501274D01*
X180693156Y-107502410D01*
X180693158Y-107502411D01*
X181008488Y-107650122D01*
X181024279Y-107657519D01*
X181026820Y-107658389D01*
X181026825Y-107658391D01*
X181263115Y-107739291D01*
X181372751Y-107776828D01*
X181732070Y-107857804D01*
X182098033Y-107899500D01*
X182466358Y-107901428D01*
X182832737Y-107863567D01*
X183134372Y-107798902D01*
X183190272Y-107786918D01*
X183190273Y-107786918D01*
X183192884Y-107786358D01*
X183195419Y-107785520D01*
X183195425Y-107785518D01*
X183540044Y-107671546D01*
X183540049Y-107671544D01*
X183542586Y-107670705D01*
X183877752Y-107517961D01*
X184194461Y-107329913D01*
X184489009Y-107108760D01*
X184496834Y-107101438D01*
X184755987Y-106858926D01*
X184755988Y-106858925D01*
X184757950Y-106857089D01*
X184818496Y-106786698D01*
X184996388Y-106579881D01*
X184996391Y-106579877D01*
X184998138Y-106577846D01*
X185206762Y-106274295D01*
X185381383Y-105949989D01*
X185387920Y-105933892D01*
X185518950Y-105611202D01*
X185519958Y-105608720D01*
X185521353Y-105603825D01*
X185593815Y-105349442D01*
X185620865Y-105254482D01*
X185682925Y-104891418D01*
X185705411Y-104523775D01*
X185705494Y-104500000D01*
X185697145Y-104345844D01*
X185685720Y-104134877D01*
X185685719Y-104134868D01*
X185685575Y-104132209D01*
X185683206Y-104117742D01*
X185626484Y-103771357D01*
X185626483Y-103771354D01*
X185626052Y-103768720D01*
X185527620Y-103413786D01*
X185523675Y-103403871D01*
X185392423Y-103074051D01*
X185391431Y-103071558D01*
X185385905Y-103061120D01*
X185260571Y-102824407D01*
X185219078Y-102746041D01*
X185212187Y-102735862D01*
X185014082Y-102443262D01*
X185014079Y-102443259D01*
X185012578Y-102441041D01*
X184774346Y-102160128D01*
X184507168Y-101906586D01*
X184214172Y-101683382D01*
X184200853Y-101675347D01*
X183901079Y-101494512D01*
X183901078Y-101494512D01*
X183898783Y-101493127D01*
X183564691Y-101338047D01*
X183562168Y-101337193D01*
X183562163Y-101337191D01*
X183272582Y-101239174D01*
X183215805Y-101219956D01*
X182917510Y-101153825D01*
X182858818Y-101140813D01*
X182858817Y-101140813D01*
X182856206Y-101140234D01*
X182565249Y-101108112D01*
X182492755Y-101100109D01*
X182492753Y-101100109D01*
X182490100Y-101099816D01*
X182487438Y-101099811D01*
X182487432Y-101099811D01*
X182300705Y-101099485D01*
X182121770Y-101099173D01*
X182119105Y-101099458D01*
X182119101Y-101099458D01*
X181758192Y-101138028D01*
X181758190Y-101138028D01*
X181755526Y-101138313D01*
X181752911Y-101138883D01*
X181752906Y-101138884D01*
X181629290Y-101165837D01*
X181395650Y-101216779D01*
X181046354Y-101333652D01*
X180711723Y-101487565D01*
X180709419Y-101488944D01*
X180709417Y-101488945D01*
X180397962Y-101675347D01*
X180397956Y-101675351D01*
X180395672Y-101676718D01*
X180393545Y-101678327D01*
X180393543Y-101678328D01*
X180197094Y-101826901D01*
X180101898Y-101898897D01*
X180033553Y-101963302D01*
X179850066Y-102136212D01*
X179833837Y-102151505D01*
X179714232Y-102291545D01*
X179633457Y-102386120D01*
X179594626Y-102431585D01*
X179387062Y-102735862D01*
X179385804Y-102738218D01*
X179385801Y-102738223D01*
X179214836Y-103058412D01*
X179213574Y-103060776D01*
X179212576Y-103063259D01*
X179212574Y-103063263D01*
X179112937Y-103311120D01*
X179076192Y-103402526D01*
X179075466Y-103405110D01*
X179075465Y-103405112D01*
X179073027Y-103413786D01*
X178976521Y-103757115D01*
X178915729Y-104120393D01*
X178915575Y-104123064D01*
X178915574Y-104123073D01*
X178902479Y-104350202D01*
X178894527Y-104488113D01*
X152901476Y-104488113D01*
X152905411Y-104423775D01*
X152905494Y-104400000D01*
X152897145Y-104245844D01*
X152885720Y-104034877D01*
X152885719Y-104034868D01*
X152885575Y-104032209D01*
X152842859Y-103771357D01*
X152826484Y-103671357D01*
X152826483Y-103671354D01*
X152826052Y-103668720D01*
X152727620Y-103313786D01*
X152723928Y-103304507D01*
X152719922Y-103294440D01*
X153944901Y-103294440D01*
X153945816Y-103301437D01*
X153945816Y-103301438D01*
X153946901Y-103309735D01*
X153961633Y-103422394D01*
X153964471Y-103428845D01*
X153964472Y-103428847D01*
X153995519Y-103499407D01*
X154013605Y-103540510D01*
X154055122Y-103589901D01*
X154092100Y-103633892D01*
X154092103Y-103633894D01*
X154096639Y-103639291D01*
X154204060Y-103710796D01*
X154210788Y-103712898D01*
X154210790Y-103712899D01*
X154265647Y-103730037D01*
X154327233Y-103749278D01*
X154391744Y-103750460D01*
X154449202Y-103751514D01*
X154449204Y-103751514D01*
X154456255Y-103751643D01*
X154463058Y-103749788D01*
X154463060Y-103749788D01*
X154504828Y-103738400D01*
X154580755Y-103717700D01*
X154690724Y-103650179D01*
X154777322Y-103554507D01*
X154822725Y-103460796D01*
X154830512Y-103444724D01*
X154830512Y-103444723D01*
X154833588Y-103438375D01*
X154851247Y-103333409D01*
X154854363Y-103314891D01*
X154854363Y-103314886D01*
X154854997Y-103311120D01*
X154855133Y-103300000D01*
X154836839Y-103172259D01*
X154801620Y-103094799D01*
X154795773Y-103081940D01*
X157157401Y-103081940D01*
X157158316Y-103088937D01*
X157158316Y-103088938D01*
X157159582Y-103098620D01*
X157174133Y-103209894D01*
X157176971Y-103216345D01*
X157176972Y-103216347D01*
X157220986Y-103316376D01*
X157226105Y-103328010D01*
X157267622Y-103377400D01*
X157304600Y-103421392D01*
X157304603Y-103421394D01*
X157309139Y-103426791D01*
X157416560Y-103498296D01*
X157423288Y-103500398D01*
X157423290Y-103500399D01*
X157478147Y-103517537D01*
X157539733Y-103536778D01*
X157604244Y-103537960D01*
X157661702Y-103539014D01*
X157661704Y-103539014D01*
X157668755Y-103539143D01*
X157675558Y-103537288D01*
X157675560Y-103537288D01*
X157717328Y-103525900D01*
X157793255Y-103505200D01*
X157903224Y-103437679D01*
X157932702Y-103405112D01*
X157985090Y-103347235D01*
X157985090Y-103347234D01*
X157989822Y-103342007D01*
X158046088Y-103225875D01*
X158067497Y-103098620D01*
X158067633Y-103087500D01*
X158061466Y-103044440D01*
X166894901Y-103044440D01*
X166895816Y-103051437D01*
X166895816Y-103051438D01*
X166896728Y-103058412D01*
X166911633Y-103172394D01*
X166914471Y-103178845D01*
X166914472Y-103178847D01*
X166960764Y-103284054D01*
X166963605Y-103290510D01*
X166985348Y-103316376D01*
X167042100Y-103383892D01*
X167042103Y-103383894D01*
X167046639Y-103389291D01*
X167154060Y-103460796D01*
X167160788Y-103462898D01*
X167160790Y-103462899D01*
X167215647Y-103480037D01*
X167277233Y-103499278D01*
X167341744Y-103500460D01*
X167399202Y-103501514D01*
X167399204Y-103501514D01*
X167406255Y-103501643D01*
X167413058Y-103499788D01*
X167413060Y-103499788D01*
X167454828Y-103488400D01*
X167530755Y-103467700D01*
X167640724Y-103400179D01*
X167727322Y-103304507D01*
X167783588Y-103188375D01*
X167799331Y-103094799D01*
X167804363Y-103064891D01*
X167804363Y-103064886D01*
X167804997Y-103061120D01*
X167805054Y-103056504D01*
X167805086Y-103053825D01*
X167805133Y-103050000D01*
X167786839Y-102922259D01*
X167753399Y-102848712D01*
X167736349Y-102811212D01*
X167736348Y-102811211D01*
X167733428Y-102804788D01*
X167649193Y-102707028D01*
X167643276Y-102703193D01*
X167643274Y-102703191D01*
X167546824Y-102640677D01*
X167540906Y-102636841D01*
X167534150Y-102634821D01*
X167534149Y-102634820D01*
X167487634Y-102620909D01*
X167417273Y-102599866D01*
X167340644Y-102599398D01*
X167295282Y-102599121D01*
X167288231Y-102599078D01*
X167281454Y-102601015D01*
X167281453Y-102601015D01*
X167170935Y-102632601D01*
X167170933Y-102632602D01*
X167164155Y-102634539D01*
X167158191Y-102638302D01*
X167142180Y-102648404D01*
X167055019Y-102703399D01*
X166969596Y-102800122D01*
X166914754Y-102916932D01*
X166894901Y-103044440D01*
X158061466Y-103044440D01*
X158049339Y-102959759D01*
X158029369Y-102915837D01*
X157998849Y-102848712D01*
X157998848Y-102848711D01*
X157995928Y-102842288D01*
X157911693Y-102744528D01*
X157905776Y-102740693D01*
X157905774Y-102740691D01*
X157809324Y-102678177D01*
X157803406Y-102674341D01*
X157796650Y-102672321D01*
X157796649Y-102672320D01*
X157753835Y-102659516D01*
X157679773Y-102637366D01*
X157603144Y-102636898D01*
X157557782Y-102636621D01*
X157550731Y-102636578D01*
X157543954Y-102638515D01*
X157543953Y-102638515D01*
X157433435Y-102670101D01*
X157433433Y-102670102D01*
X157426655Y-102672039D01*
X157317519Y-102740899D01*
X157232096Y-102837622D01*
X157177254Y-102954432D01*
X157157401Y-103081940D01*
X154795773Y-103081940D01*
X154786349Y-103061212D01*
X154786348Y-103061211D01*
X154783428Y-103054788D01*
X154707564Y-102966743D01*
X154703798Y-102962372D01*
X154703797Y-102962371D01*
X154699193Y-102957028D01*
X154693276Y-102953193D01*
X154693274Y-102953191D01*
X154596824Y-102890677D01*
X154590906Y-102886841D01*
X154584150Y-102884821D01*
X154584149Y-102884820D01*
X154541335Y-102872016D01*
X154467273Y-102849866D01*
X154390644Y-102849398D01*
X154345282Y-102849121D01*
X154338231Y-102849078D01*
X154331454Y-102851015D01*
X154331453Y-102851015D01*
X154220935Y-102882601D01*
X154220933Y-102882602D01*
X154214155Y-102884539D01*
X154105019Y-102953399D01*
X154019596Y-103050122D01*
X153964754Y-103166932D01*
X153944901Y-103294440D01*
X152719922Y-103294440D01*
X152592423Y-102974051D01*
X152591431Y-102971558D01*
X152586568Y-102962372D01*
X152420329Y-102648404D01*
X152419078Y-102646041D01*
X152415447Y-102640677D01*
X152231806Y-102369440D01*
X159569901Y-102369440D01*
X159570816Y-102376437D01*
X159570816Y-102376438D01*
X159572082Y-102386120D01*
X159586633Y-102497394D01*
X159589471Y-102503845D01*
X159589472Y-102503847D01*
X159632227Y-102601015D01*
X159638605Y-102615510D01*
X159680122Y-102664901D01*
X159717100Y-102708892D01*
X159717103Y-102708894D01*
X159721639Y-102714291D01*
X159829060Y-102785796D01*
X159835788Y-102787898D01*
X159835790Y-102787899D01*
X159890646Y-102805037D01*
X159952233Y-102824278D01*
X160016744Y-102825460D01*
X160074202Y-102826514D01*
X160074204Y-102826514D01*
X160081255Y-102826643D01*
X160088058Y-102824788D01*
X160088060Y-102824788D01*
X160129828Y-102813400D01*
X160205755Y-102792700D01*
X160315724Y-102725179D01*
X160330655Y-102708684D01*
X160397590Y-102634735D01*
X160397590Y-102634734D01*
X160402322Y-102629507D01*
X160458588Y-102513375D01*
X160479997Y-102386120D01*
X160480133Y-102375000D01*
X160461839Y-102247259D01*
X160408428Y-102129788D01*
X160342732Y-102053544D01*
X160328798Y-102037372D01*
X160328797Y-102037371D01*
X160324193Y-102032028D01*
X160318276Y-102028193D01*
X160318274Y-102028191D01*
X160221824Y-101965677D01*
X160215906Y-101961841D01*
X160209150Y-101959821D01*
X160209149Y-101959820D01*
X160144404Y-101940457D01*
X160092273Y-101924866D01*
X160015644Y-101924398D01*
X159970282Y-101924121D01*
X159963231Y-101924078D01*
X159956454Y-101926015D01*
X159956453Y-101926015D01*
X159845935Y-101957601D01*
X159845933Y-101957602D01*
X159839155Y-101959539D01*
X159730019Y-102028399D01*
X159644596Y-102125122D01*
X159589754Y-102241932D01*
X159569901Y-102369440D01*
X152231806Y-102369440D01*
X152214082Y-102343262D01*
X152214079Y-102343259D01*
X152212578Y-102341041D01*
X151974346Y-102060128D01*
X151904899Y-101994226D01*
X151875705Y-101940457D01*
X151883691Y-101879795D01*
X151925808Y-101835412D01*
X151947005Y-101826901D01*
X151980755Y-101817700D01*
X152090724Y-101750179D01*
X152095459Y-101744948D01*
X152172590Y-101659735D01*
X152172590Y-101659734D01*
X152177322Y-101654507D01*
X152223239Y-101559735D01*
X152230512Y-101544724D01*
X152230512Y-101544723D01*
X152233588Y-101538375D01*
X152249344Y-101444724D01*
X152254363Y-101414891D01*
X152254363Y-101414886D01*
X152254997Y-101411120D01*
X152255133Y-101400000D01*
X152236839Y-101272259D01*
X152200740Y-101192864D01*
X158938335Y-101192864D01*
X158939250Y-101199861D01*
X158939250Y-101199862D01*
X158940516Y-101209544D01*
X158955067Y-101320818D01*
X158957905Y-101327269D01*
X158957906Y-101327271D01*
X159003732Y-101431418D01*
X159007039Y-101438934D01*
X159029588Y-101465759D01*
X159085534Y-101532316D01*
X159085537Y-101532318D01*
X159090073Y-101537715D01*
X159197494Y-101609220D01*
X159204222Y-101611322D01*
X159204224Y-101611323D01*
X159259081Y-101628461D01*
X159320667Y-101647702D01*
X159385178Y-101648885D01*
X159442636Y-101649938D01*
X159442638Y-101649938D01*
X159449689Y-101650067D01*
X159456492Y-101648212D01*
X159456494Y-101648212D01*
X159498262Y-101636824D01*
X159574189Y-101616124D01*
X159684158Y-101548603D01*
X159690476Y-101541623D01*
X159766024Y-101458159D01*
X159766024Y-101458158D01*
X159770756Y-101452931D01*
X159827022Y-101336799D01*
X159834148Y-101294440D01*
X163544901Y-101294440D01*
X163545816Y-101301437D01*
X163545816Y-101301438D01*
X163547082Y-101311120D01*
X163561633Y-101422394D01*
X163564471Y-101428845D01*
X163564472Y-101428847D01*
X163610764Y-101534054D01*
X163613605Y-101540510D01*
X163631900Y-101562274D01*
X163692100Y-101633892D01*
X163692103Y-101633894D01*
X163696639Y-101639291D01*
X163804060Y-101710796D01*
X163810788Y-101712898D01*
X163810790Y-101712899D01*
X163865647Y-101730037D01*
X163927233Y-101749278D01*
X163991744Y-101750460D01*
X164049202Y-101751514D01*
X164049204Y-101751514D01*
X164056255Y-101751643D01*
X164063058Y-101749788D01*
X164063060Y-101749788D01*
X164104828Y-101738400D01*
X164180755Y-101717700D01*
X164290724Y-101650179D01*
X164334657Y-101601643D01*
X164372590Y-101559735D01*
X164372590Y-101559734D01*
X164377322Y-101554507D01*
X164433588Y-101438375D01*
X164449609Y-101343148D01*
X164454363Y-101314891D01*
X164454363Y-101314886D01*
X164454997Y-101311120D01*
X164455133Y-101300000D01*
X164436839Y-101172259D01*
X164424191Y-101144440D01*
X172714901Y-101144440D01*
X172715816Y-101151437D01*
X172715816Y-101151438D01*
X172717082Y-101161120D01*
X172731633Y-101272394D01*
X172734471Y-101278845D01*
X172734472Y-101278847D01*
X172780764Y-101384054D01*
X172783605Y-101390510D01*
X172815831Y-101428847D01*
X172862100Y-101483892D01*
X172862103Y-101483894D01*
X172866639Y-101489291D01*
X172974060Y-101560796D01*
X172980788Y-101562898D01*
X172980790Y-101562899D01*
X173025023Y-101576718D01*
X173097233Y-101599278D01*
X173161744Y-101600460D01*
X173219202Y-101601514D01*
X173219204Y-101601514D01*
X173226255Y-101601643D01*
X173233058Y-101599788D01*
X173233060Y-101599788D01*
X173311772Y-101578328D01*
X173350755Y-101567700D01*
X173460724Y-101500179D01*
X173475466Y-101483892D01*
X173542590Y-101409735D01*
X173542590Y-101409734D01*
X173547322Y-101404507D01*
X173590741Y-101314891D01*
X173600512Y-101294724D01*
X173600512Y-101294723D01*
X173603588Y-101288375D01*
X173619359Y-101194634D01*
X173624363Y-101164891D01*
X173624363Y-101164886D01*
X173624997Y-101161120D01*
X173625054Y-101156504D01*
X173625086Y-101153825D01*
X173625133Y-101150000D01*
X173606839Y-101022259D01*
X173573324Y-100948546D01*
X173556349Y-100911212D01*
X173556348Y-100911211D01*
X173553428Y-100904788D01*
X173469193Y-100807028D01*
X173463276Y-100803193D01*
X173463274Y-100803191D01*
X173392813Y-100757522D01*
X173360906Y-100736841D01*
X173354150Y-100734821D01*
X173354149Y-100734820D01*
X173311335Y-100722016D01*
X173237273Y-100699866D01*
X173160644Y-100699398D01*
X173115282Y-100699121D01*
X173108231Y-100699078D01*
X173101454Y-100701015D01*
X173101453Y-100701015D01*
X172990935Y-100732601D01*
X172990933Y-100732602D01*
X172984155Y-100734539D01*
X172875019Y-100803399D01*
X172789596Y-100900122D01*
X172734754Y-101016932D01*
X172714901Y-101144440D01*
X164424191Y-101144440D01*
X164403609Y-101099173D01*
X164386349Y-101061212D01*
X164386348Y-101061211D01*
X164383428Y-101054788D01*
X164299193Y-100957028D01*
X164293276Y-100953193D01*
X164293274Y-100953191D01*
X164196824Y-100890677D01*
X164190906Y-100886841D01*
X164184150Y-100884821D01*
X164184149Y-100884820D01*
X164141335Y-100872016D01*
X164067273Y-100849866D01*
X163990644Y-100849398D01*
X163945282Y-100849121D01*
X163938231Y-100849078D01*
X163931454Y-100851015D01*
X163931453Y-100851015D01*
X163820935Y-100882601D01*
X163820933Y-100882602D01*
X163814155Y-100884539D01*
X163705019Y-100953399D01*
X163619596Y-101050122D01*
X163564754Y-101166932D01*
X163544901Y-101294440D01*
X159834148Y-101294440D01*
X159844518Y-101232805D01*
X159847797Y-101213315D01*
X159847797Y-101213310D01*
X159848431Y-101209544D01*
X159848567Y-101198424D01*
X159830273Y-101070683D01*
X159791106Y-100984539D01*
X159779783Y-100959636D01*
X159779782Y-100959635D01*
X159776862Y-100953212D01*
X159692627Y-100855452D01*
X159686710Y-100851617D01*
X159686708Y-100851615D01*
X159590258Y-100789101D01*
X159584340Y-100785265D01*
X159577584Y-100783245D01*
X159577583Y-100783244D01*
X159534769Y-100770440D01*
X159460707Y-100748290D01*
X159384078Y-100747822D01*
X159338716Y-100747545D01*
X159331665Y-100747502D01*
X159324888Y-100749439D01*
X159324887Y-100749439D01*
X159214369Y-100781025D01*
X159214367Y-100781026D01*
X159207589Y-100782963D01*
X159098453Y-100851823D01*
X159013030Y-100948546D01*
X158958188Y-101065356D01*
X158938335Y-101192864D01*
X152200740Y-101192864D01*
X152183428Y-101154788D01*
X152106369Y-101065356D01*
X152103798Y-101062372D01*
X152103797Y-101062371D01*
X152099193Y-101057028D01*
X152093276Y-101053193D01*
X152093274Y-101053191D01*
X152010924Y-100999816D01*
X151990906Y-100986841D01*
X151984150Y-100984821D01*
X151984149Y-100984820D01*
X151909089Y-100962372D01*
X151867273Y-100949866D01*
X151790644Y-100949398D01*
X151745282Y-100949121D01*
X151738231Y-100949078D01*
X151731454Y-100951015D01*
X151731453Y-100951015D01*
X151620935Y-100982601D01*
X151620933Y-100982602D01*
X151614155Y-100984539D01*
X151505019Y-101053399D01*
X151419596Y-101150122D01*
X151364754Y-101266932D01*
X151359010Y-101303825D01*
X151346643Y-101383250D01*
X151319009Y-101437839D01*
X151264565Y-101465759D01*
X151204108Y-101456346D01*
X151197685Y-101452789D01*
X151187403Y-101446586D01*
X151098783Y-101393127D01*
X150764691Y-101238047D01*
X150762168Y-101237193D01*
X150762163Y-101237191D01*
X150535732Y-101160549D01*
X150415805Y-101119956D01*
X150114651Y-101053191D01*
X150058818Y-101040813D01*
X150058817Y-101040813D01*
X150056206Y-101040234D01*
X149765249Y-101008112D01*
X149692755Y-101000109D01*
X149692753Y-101000109D01*
X149690100Y-100999816D01*
X149687438Y-100999811D01*
X149687432Y-100999811D01*
X149500705Y-100999485D01*
X149321770Y-100999173D01*
X149319105Y-100999458D01*
X149319101Y-100999458D01*
X148958192Y-101038028D01*
X148958190Y-101038028D01*
X148955526Y-101038313D01*
X148952911Y-101038883D01*
X148952906Y-101038884D01*
X148836518Y-101064261D01*
X148595650Y-101116779D01*
X148246354Y-101233652D01*
X147911723Y-101387565D01*
X147909419Y-101388944D01*
X147909417Y-101388945D01*
X147597962Y-101575347D01*
X147597956Y-101575351D01*
X147595672Y-101576718D01*
X147593545Y-101578327D01*
X147593543Y-101578328D01*
X147370287Y-101747175D01*
X147301898Y-101798897D01*
X147216051Y-101879795D01*
X147048835Y-102037372D01*
X147033837Y-102051505D01*
X146914232Y-102191545D01*
X146876649Y-102235549D01*
X146794626Y-102331585D01*
X146587062Y-102635862D01*
X146585804Y-102638218D01*
X146585801Y-102638223D01*
X146419522Y-102949636D01*
X146413574Y-102960776D01*
X146327898Y-103173902D01*
X146279443Y-103294440D01*
X146276192Y-103302526D01*
X146275466Y-103305110D01*
X146275465Y-103305112D01*
X146273027Y-103313786D01*
X146176521Y-103657115D01*
X146115729Y-104020393D01*
X146115575Y-104023064D01*
X146115574Y-104023073D01*
X146109282Y-104132209D01*
X146094527Y-104388113D01*
X144200500Y-104388113D01*
X144200500Y-99994440D01*
X149044901Y-99994440D01*
X149045816Y-100001437D01*
X149045816Y-100001438D01*
X149047082Y-100011120D01*
X149061633Y-100122394D01*
X149064471Y-100128845D01*
X149064472Y-100128847D01*
X149108207Y-100228242D01*
X149113605Y-100240510D01*
X149155122Y-100289900D01*
X149192100Y-100333892D01*
X149192103Y-100333894D01*
X149196639Y-100339291D01*
X149304060Y-100410796D01*
X149310788Y-100412898D01*
X149310790Y-100412899D01*
X149365646Y-100430037D01*
X149427233Y-100449278D01*
X149491744Y-100450460D01*
X149549202Y-100451514D01*
X149549204Y-100451514D01*
X149556255Y-100451643D01*
X149563058Y-100449788D01*
X149563060Y-100449788D01*
X149604828Y-100438400D01*
X149680755Y-100417700D01*
X149790724Y-100350179D01*
X149877322Y-100254507D01*
X149899956Y-100207791D01*
X155210159Y-100207791D01*
X155211074Y-100214788D01*
X155211074Y-100214789D01*
X155215144Y-100245909D01*
X155226891Y-100335745D01*
X155229729Y-100342196D01*
X155229730Y-100342198D01*
X155275921Y-100447175D01*
X155278863Y-100453861D01*
X155320380Y-100503251D01*
X155357358Y-100547243D01*
X155357361Y-100547245D01*
X155361897Y-100552642D01*
X155469318Y-100624147D01*
X155476046Y-100626249D01*
X155476048Y-100626250D01*
X155530904Y-100643388D01*
X155592491Y-100662629D01*
X155657002Y-100663811D01*
X155714460Y-100664865D01*
X155714462Y-100664865D01*
X155721513Y-100664994D01*
X155728316Y-100663139D01*
X155728318Y-100663139D01*
X155770086Y-100651751D01*
X155846013Y-100631051D01*
X155955982Y-100563530D01*
X156042580Y-100467858D01*
X156098846Y-100351726D01*
X156115202Y-100254507D01*
X156119621Y-100228242D01*
X156119621Y-100228237D01*
X156120255Y-100224471D01*
X156120391Y-100213351D01*
X156102097Y-100085610D01*
X156066491Y-100007299D01*
X156051607Y-99974563D01*
X156051606Y-99974562D01*
X156048686Y-99968139D01*
X155964451Y-99870379D01*
X155958534Y-99866544D01*
X155958532Y-99866542D01*
X155862082Y-99804028D01*
X155856164Y-99800192D01*
X155849408Y-99798172D01*
X155849407Y-99798171D01*
X155806593Y-99785367D01*
X155732531Y-99763217D01*
X155655902Y-99762749D01*
X155610540Y-99762472D01*
X155603489Y-99762429D01*
X155596712Y-99764366D01*
X155596711Y-99764366D01*
X155486193Y-99795952D01*
X155486191Y-99795953D01*
X155479413Y-99797890D01*
X155370277Y-99866750D01*
X155284854Y-99963473D01*
X155230012Y-100080283D01*
X155210159Y-100207791D01*
X149899956Y-100207791D01*
X149933588Y-100138375D01*
X149954997Y-100011120D01*
X149955133Y-100000000D01*
X149936839Y-99872259D01*
X149887783Y-99764366D01*
X149886349Y-99761212D01*
X149886348Y-99761211D01*
X149883428Y-99754788D01*
X149799193Y-99657028D01*
X149793276Y-99653193D01*
X149793274Y-99653191D01*
X149696824Y-99590677D01*
X149690906Y-99586841D01*
X149684150Y-99584821D01*
X149684149Y-99584820D01*
X149580664Y-99553871D01*
X149567273Y-99549866D01*
X149490644Y-99549398D01*
X149445282Y-99549121D01*
X149438231Y-99549078D01*
X149431454Y-99551015D01*
X149431453Y-99551015D01*
X149320935Y-99582601D01*
X149320933Y-99582602D01*
X149314155Y-99584539D01*
X149205019Y-99653399D01*
X149119596Y-99750122D01*
X149064754Y-99866932D01*
X149044901Y-99994440D01*
X144200500Y-99994440D01*
X144200500Y-99094440D01*
X154044901Y-99094440D01*
X154045816Y-99101437D01*
X154045816Y-99101438D01*
X154046783Y-99108832D01*
X154061633Y-99222394D01*
X154064471Y-99228845D01*
X154064472Y-99228847D01*
X154108473Y-99328847D01*
X154113605Y-99340510D01*
X154155122Y-99389900D01*
X154192100Y-99433892D01*
X154192103Y-99433894D01*
X154196639Y-99439291D01*
X154304060Y-99510796D01*
X154310788Y-99512898D01*
X154310790Y-99512899D01*
X154365647Y-99530037D01*
X154427233Y-99549278D01*
X154491744Y-99550461D01*
X154549202Y-99551514D01*
X154549204Y-99551514D01*
X154556255Y-99551643D01*
X154563058Y-99549788D01*
X154563060Y-99549788D01*
X154621364Y-99533892D01*
X154680755Y-99517700D01*
X154790724Y-99450179D01*
X154877322Y-99354507D01*
X154933588Y-99238375D01*
X154940980Y-99194440D01*
X159044901Y-99194440D01*
X159045816Y-99201437D01*
X159045816Y-99201438D01*
X159047082Y-99211120D01*
X159061633Y-99322394D01*
X159064471Y-99328845D01*
X159064472Y-99328847D01*
X159072971Y-99348162D01*
X159113605Y-99440510D01*
X159155122Y-99489901D01*
X159192100Y-99533892D01*
X159192103Y-99533894D01*
X159196639Y-99539291D01*
X159304060Y-99610796D01*
X159310788Y-99612898D01*
X159310790Y-99612899D01*
X159365646Y-99630037D01*
X159427233Y-99649278D01*
X159491744Y-99650460D01*
X159549202Y-99651514D01*
X159549204Y-99651514D01*
X159556255Y-99651643D01*
X159563058Y-99649788D01*
X159563060Y-99649788D01*
X159604828Y-99638400D01*
X159680755Y-99617700D01*
X159790724Y-99550179D01*
X159805466Y-99533892D01*
X159872590Y-99459735D01*
X159872590Y-99459734D01*
X159877322Y-99454507D01*
X159933588Y-99338375D01*
X159952396Y-99226583D01*
X159954363Y-99214891D01*
X159954363Y-99214886D01*
X159954997Y-99211120D01*
X159955133Y-99200000D01*
X159936839Y-99072259D01*
X159898828Y-98988659D01*
X159886349Y-98961212D01*
X159886348Y-98961211D01*
X159883428Y-98954788D01*
X159813962Y-98874168D01*
X159803798Y-98862372D01*
X159803797Y-98862371D01*
X159799193Y-98857028D01*
X159793276Y-98853193D01*
X159793274Y-98853191D01*
X159696824Y-98790677D01*
X159690906Y-98786841D01*
X159684150Y-98784821D01*
X159684149Y-98784820D01*
X159632522Y-98769380D01*
X159567273Y-98749866D01*
X159490644Y-98749398D01*
X159445282Y-98749121D01*
X159438231Y-98749078D01*
X159431454Y-98751015D01*
X159431453Y-98751015D01*
X159320935Y-98782601D01*
X159320933Y-98782602D01*
X159314155Y-98784539D01*
X159205019Y-98853399D01*
X159119596Y-98950122D01*
X159064754Y-99066932D01*
X159044901Y-99194440D01*
X154940980Y-99194440D01*
X154946698Y-99160450D01*
X154954363Y-99114891D01*
X154954363Y-99114886D01*
X154954997Y-99111120D01*
X154955133Y-99100000D01*
X154936839Y-98972259D01*
X154899594Y-98890343D01*
X154886349Y-98861212D01*
X154886348Y-98861211D01*
X154883428Y-98854788D01*
X154824881Y-98786841D01*
X154803798Y-98762372D01*
X154803797Y-98762371D01*
X154799193Y-98757028D01*
X154793276Y-98753193D01*
X154793274Y-98753191D01*
X154768587Y-98737190D01*
X179255764Y-98737190D01*
X179256679Y-98744187D01*
X179256679Y-98744188D01*
X179257572Y-98751015D01*
X179272496Y-98865144D01*
X179275334Y-98871595D01*
X179275335Y-98871597D01*
X179319627Y-98972259D01*
X179324468Y-98983260D01*
X179356065Y-99020849D01*
X179402963Y-99076642D01*
X179402966Y-99076644D01*
X179407502Y-99082041D01*
X179514923Y-99153546D01*
X179521651Y-99155648D01*
X179521653Y-99155649D01*
X179576510Y-99172787D01*
X179638096Y-99192028D01*
X179702607Y-99193210D01*
X179760065Y-99194264D01*
X179760067Y-99194264D01*
X179767118Y-99194393D01*
X179773921Y-99192538D01*
X179773923Y-99192538D01*
X179815691Y-99181150D01*
X179891618Y-99160450D01*
X180001587Y-99092929D01*
X180016329Y-99076642D01*
X180083453Y-99002485D01*
X180083453Y-99002484D01*
X180088185Y-98997257D01*
X180144451Y-98881125D01*
X180160313Y-98786841D01*
X180163251Y-98769380D01*
X180961842Y-98769380D01*
X180962757Y-98776377D01*
X180962757Y-98776378D01*
X180963571Y-98782601D01*
X180978574Y-98897334D01*
X180981412Y-98903785D01*
X180981413Y-98903787D01*
X181019749Y-98990912D01*
X181030546Y-99015450D01*
X181068456Y-99060549D01*
X181109041Y-99108832D01*
X181109044Y-99108834D01*
X181113580Y-99114231D01*
X181221001Y-99185736D01*
X181227729Y-99187838D01*
X181227731Y-99187839D01*
X181266657Y-99200000D01*
X181344174Y-99224218D01*
X181408685Y-99225400D01*
X181466143Y-99226454D01*
X181466145Y-99226454D01*
X181473196Y-99226583D01*
X181479999Y-99224728D01*
X181480001Y-99224728D01*
X181556670Y-99203825D01*
X181597696Y-99192640D01*
X181707665Y-99125119D01*
X181723795Y-99107299D01*
X181789531Y-99034675D01*
X181789531Y-99034674D01*
X181794263Y-99029447D01*
X181850529Y-98913315D01*
X181862049Y-98844838D01*
X181871304Y-98789831D01*
X181871304Y-98789826D01*
X181871938Y-98786060D01*
X181872074Y-98774940D01*
X181853780Y-98647199D01*
X181800369Y-98529728D01*
X181716134Y-98431968D01*
X181710217Y-98428133D01*
X181710215Y-98428131D01*
X181613765Y-98365617D01*
X181607847Y-98361781D01*
X181601091Y-98359761D01*
X181601090Y-98359760D01*
X181558276Y-98346956D01*
X181484214Y-98324806D01*
X181407585Y-98324338D01*
X181362223Y-98324061D01*
X181355172Y-98324018D01*
X181348395Y-98325955D01*
X181348394Y-98325955D01*
X181237876Y-98357541D01*
X181237874Y-98357542D01*
X181231096Y-98359479D01*
X181121960Y-98428339D01*
X181036537Y-98525062D01*
X180981695Y-98641872D01*
X180961842Y-98769380D01*
X180163251Y-98769380D01*
X180165226Y-98757641D01*
X180165226Y-98757636D01*
X180165860Y-98753870D01*
X180165910Y-98749823D01*
X180165949Y-98746575D01*
X180165996Y-98742750D01*
X180147702Y-98615009D01*
X180108927Y-98529728D01*
X180097212Y-98503962D01*
X180097211Y-98503961D01*
X180094291Y-98497538D01*
X180010056Y-98399778D01*
X180004139Y-98395943D01*
X180004137Y-98395941D01*
X179907687Y-98333427D01*
X179901769Y-98329591D01*
X179895013Y-98327571D01*
X179895012Y-98327570D01*
X179852198Y-98314766D01*
X179778136Y-98292616D01*
X179701507Y-98292148D01*
X179656145Y-98291871D01*
X179649094Y-98291828D01*
X179642317Y-98293765D01*
X179642316Y-98293765D01*
X179531798Y-98325351D01*
X179531796Y-98325352D01*
X179525018Y-98327289D01*
X179415882Y-98396149D01*
X179330459Y-98492872D01*
X179275617Y-98609682D01*
X179255764Y-98737190D01*
X154768587Y-98737190D01*
X154696824Y-98690677D01*
X154690906Y-98686841D01*
X154684150Y-98684821D01*
X154684149Y-98684820D01*
X154641335Y-98672016D01*
X154567273Y-98649866D01*
X154490644Y-98649398D01*
X154445282Y-98649121D01*
X154438231Y-98649078D01*
X154431454Y-98651015D01*
X154431453Y-98651015D01*
X154320935Y-98682601D01*
X154320933Y-98682602D01*
X154314155Y-98684539D01*
X154205019Y-98753399D01*
X154119596Y-98850122D01*
X154064754Y-98966932D01*
X154044901Y-99094440D01*
X144200500Y-99094440D01*
X144200500Y-97910137D01*
X155807820Y-97910137D01*
X155809039Y-97911505D01*
X155810999Y-97912440D01*
X155920582Y-97946676D01*
X155934368Y-97948908D01*
X156049140Y-97951012D01*
X156062998Y-97949286D01*
X156173750Y-97919091D01*
X156183422Y-97914906D01*
X156187488Y-97910137D01*
X156807820Y-97910137D01*
X156809039Y-97911505D01*
X156810999Y-97912440D01*
X156920582Y-97946676D01*
X156934368Y-97948908D01*
X157049140Y-97951012D01*
X157062998Y-97949286D01*
X157173750Y-97919091D01*
X157183422Y-97914906D01*
X157187488Y-97910137D01*
X157807820Y-97910137D01*
X157809039Y-97911505D01*
X157810999Y-97912440D01*
X157920582Y-97946676D01*
X157934368Y-97948908D01*
X158049140Y-97951012D01*
X158062998Y-97949286D01*
X158173750Y-97919091D01*
X158183422Y-97914906D01*
X158190677Y-97906397D01*
X158186099Y-97898231D01*
X158011086Y-97723218D01*
X157999203Y-97717164D01*
X157994172Y-97717960D01*
X157813871Y-97898261D01*
X157807820Y-97910137D01*
X157187488Y-97910137D01*
X157190677Y-97906397D01*
X157186099Y-97898231D01*
X157011086Y-97723218D01*
X156999203Y-97717164D01*
X156994172Y-97717960D01*
X156813871Y-97898261D01*
X156807820Y-97910137D01*
X156187488Y-97910137D01*
X156190677Y-97906397D01*
X156186099Y-97898231D01*
X156011086Y-97723218D01*
X155999203Y-97717164D01*
X155994172Y-97717960D01*
X155813871Y-97898261D01*
X155807820Y-97910137D01*
X144200500Y-97910137D01*
X144200500Y-97501444D01*
X155546322Y-97501444D01*
X155561205Y-97615261D01*
X155564962Y-97628717D01*
X155587428Y-97679773D01*
X155594315Y-97687489D01*
X155605849Y-97682019D01*
X155776782Y-97511086D01*
X155782024Y-97500797D01*
X156217164Y-97500797D01*
X156217960Y-97505828D01*
X156395012Y-97682880D01*
X156404837Y-97687886D01*
X156424490Y-97667834D01*
X156425476Y-97668800D01*
X156453369Y-97639765D01*
X156513597Y-97628984D01*
X156568660Y-97655663D01*
X156578585Y-97669866D01*
X156594315Y-97687489D01*
X156605849Y-97682019D01*
X156776782Y-97511086D01*
X156782024Y-97500797D01*
X157217164Y-97500797D01*
X157217960Y-97505828D01*
X157395012Y-97682880D01*
X157404837Y-97687886D01*
X157424490Y-97667834D01*
X157425476Y-97668800D01*
X157453369Y-97639765D01*
X157513597Y-97628984D01*
X157568660Y-97655663D01*
X157578585Y-97669866D01*
X157594315Y-97687489D01*
X157605849Y-97682019D01*
X157776782Y-97511086D01*
X157782024Y-97500797D01*
X158217164Y-97500797D01*
X158217960Y-97505828D01*
X158395012Y-97682880D01*
X158404837Y-97687886D01*
X158413157Y-97679397D01*
X158430031Y-97644569D01*
X158434276Y-97631265D01*
X158453856Y-97514881D01*
X158454538Y-97507282D01*
X158454580Y-97503825D01*
X158454084Y-97496210D01*
X158437353Y-97379385D01*
X158433433Y-97365979D01*
X158412642Y-97320252D01*
X158405506Y-97312451D01*
X158394265Y-97317867D01*
X158223218Y-97488914D01*
X158217164Y-97500797D01*
X157782024Y-97500797D01*
X157782836Y-97499203D01*
X157782040Y-97494172D01*
X157604986Y-97317118D01*
X157595362Y-97312214D01*
X157575409Y-97332822D01*
X157574189Y-97331641D01*
X157547739Y-97359854D01*
X157487647Y-97371369D01*
X157432263Y-97345363D01*
X157420103Y-97328408D01*
X157405506Y-97312451D01*
X157394265Y-97317867D01*
X157223218Y-97488914D01*
X157217164Y-97500797D01*
X156782024Y-97500797D01*
X156782836Y-97499203D01*
X156782040Y-97494172D01*
X156604986Y-97317118D01*
X156595362Y-97312214D01*
X156575409Y-97332822D01*
X156574189Y-97331641D01*
X156547739Y-97359854D01*
X156487647Y-97371369D01*
X156432263Y-97345363D01*
X156420103Y-97328408D01*
X156405506Y-97312451D01*
X156394265Y-97317867D01*
X156223218Y-97488914D01*
X156217164Y-97500797D01*
X155782024Y-97500797D01*
X155782836Y-97499203D01*
X155782040Y-97494172D01*
X155604986Y-97317118D01*
X155595362Y-97312214D01*
X155586889Y-97320966D01*
X155568235Y-97360697D01*
X155564153Y-97374050D01*
X155546493Y-97487472D01*
X155546322Y-97501444D01*
X144200500Y-97501444D01*
X144200500Y-96910137D01*
X155807820Y-96910137D01*
X155814270Y-96917379D01*
X155851496Y-96952694D01*
X155862656Y-97012853D01*
X155836324Y-97068082D01*
X155820249Y-97079465D01*
X155808778Y-97093256D01*
X155813246Y-97101114D01*
X155988914Y-97276782D01*
X156000797Y-97282836D01*
X156005828Y-97282040D01*
X156185599Y-97102269D01*
X156191565Y-97090559D01*
X156176989Y-97074385D01*
X156177008Y-97074368D01*
X156148731Y-97048183D01*
X156136848Y-96988163D01*
X156162513Y-96932620D01*
X156181845Y-96916755D01*
X156187488Y-96910137D01*
X156807820Y-96910137D01*
X156814270Y-96917379D01*
X156851496Y-96952694D01*
X156862656Y-97012853D01*
X156836324Y-97068082D01*
X156820249Y-97079465D01*
X156808778Y-97093256D01*
X156813246Y-97101114D01*
X156988914Y-97276782D01*
X157000797Y-97282836D01*
X157005828Y-97282040D01*
X157185599Y-97102269D01*
X157191565Y-97090559D01*
X157176989Y-97074385D01*
X157177008Y-97074368D01*
X157148731Y-97048183D01*
X157136848Y-96988163D01*
X157162513Y-96932620D01*
X157181845Y-96916755D01*
X157187488Y-96910137D01*
X157807820Y-96910137D01*
X157814270Y-96917379D01*
X157851496Y-96952694D01*
X157862656Y-97012853D01*
X157836324Y-97068082D01*
X157820249Y-97079465D01*
X157808778Y-97093256D01*
X157813246Y-97101114D01*
X157988914Y-97276782D01*
X158000797Y-97282836D01*
X158005828Y-97282040D01*
X158185599Y-97102269D01*
X158191565Y-97090559D01*
X158176989Y-97074385D01*
X158177008Y-97074368D01*
X158148731Y-97048183D01*
X158136848Y-96988163D01*
X158162513Y-96932620D01*
X158181845Y-96916755D01*
X158190677Y-96906397D01*
X158186099Y-96898231D01*
X158011086Y-96723218D01*
X157999203Y-96717164D01*
X157994172Y-96717960D01*
X157813871Y-96898261D01*
X157807820Y-96910137D01*
X157187488Y-96910137D01*
X157190677Y-96906397D01*
X157186099Y-96898231D01*
X157011086Y-96723218D01*
X156999203Y-96717164D01*
X156994172Y-96717960D01*
X156813871Y-96898261D01*
X156807820Y-96910137D01*
X156187488Y-96910137D01*
X156190677Y-96906397D01*
X156186099Y-96898231D01*
X156011086Y-96723218D01*
X155999203Y-96717164D01*
X155994172Y-96717960D01*
X155813871Y-96898261D01*
X155807820Y-96910137D01*
X144200500Y-96910137D01*
X144200500Y-96394096D01*
X152844557Y-96394096D01*
X152845472Y-96401093D01*
X152845472Y-96401094D01*
X152846403Y-96408214D01*
X152861289Y-96522050D01*
X152864127Y-96528501D01*
X152864128Y-96528503D01*
X152908223Y-96628717D01*
X152913261Y-96640166D01*
X152946238Y-96679397D01*
X152991756Y-96733548D01*
X152991759Y-96733550D01*
X152996295Y-96738947D01*
X153103716Y-96810452D01*
X153110444Y-96812554D01*
X153110446Y-96812555D01*
X153165302Y-96829693D01*
X153226889Y-96848934D01*
X153291400Y-96850116D01*
X153348858Y-96851170D01*
X153348860Y-96851170D01*
X153355911Y-96851299D01*
X153362714Y-96849444D01*
X153362716Y-96849444D01*
X153404484Y-96838056D01*
X153480411Y-96817356D01*
X153590380Y-96749835D01*
X153619952Y-96717164D01*
X153672246Y-96659391D01*
X153672246Y-96659390D01*
X153676978Y-96654163D01*
X153733244Y-96538031D01*
X153739399Y-96501444D01*
X155546322Y-96501444D01*
X155561205Y-96615261D01*
X155564962Y-96628717D01*
X155587428Y-96679773D01*
X155594315Y-96687489D01*
X155605849Y-96682019D01*
X155776782Y-96511086D01*
X155782024Y-96500797D01*
X156217164Y-96500797D01*
X156217960Y-96505828D01*
X156395012Y-96682880D01*
X156404837Y-96687886D01*
X156424490Y-96667834D01*
X156425476Y-96668800D01*
X156453369Y-96639765D01*
X156513597Y-96628984D01*
X156568660Y-96655663D01*
X156578585Y-96669866D01*
X156594315Y-96687489D01*
X156605849Y-96682019D01*
X156776782Y-96511086D01*
X156782024Y-96500797D01*
X157217164Y-96500797D01*
X157217960Y-96505828D01*
X157395012Y-96682880D01*
X157404837Y-96687886D01*
X157424490Y-96667834D01*
X157425476Y-96668800D01*
X157453369Y-96639765D01*
X157513597Y-96628984D01*
X157568660Y-96655663D01*
X157578585Y-96669866D01*
X157594315Y-96687489D01*
X157605849Y-96682019D01*
X157776782Y-96511086D01*
X157782024Y-96500797D01*
X158217164Y-96500797D01*
X158217960Y-96505828D01*
X158395012Y-96682880D01*
X158404837Y-96687886D01*
X158413157Y-96679397D01*
X158430031Y-96644569D01*
X158434276Y-96631265D01*
X158453856Y-96514881D01*
X158454538Y-96507282D01*
X158454580Y-96503825D01*
X158454084Y-96496210D01*
X158437353Y-96379385D01*
X158433433Y-96365979D01*
X158412642Y-96320252D01*
X158405506Y-96312451D01*
X158394265Y-96317867D01*
X158223218Y-96488914D01*
X158217164Y-96500797D01*
X157782024Y-96500797D01*
X157782836Y-96499203D01*
X157782040Y-96494172D01*
X157604986Y-96317118D01*
X157595362Y-96312214D01*
X157575409Y-96332822D01*
X157574189Y-96331641D01*
X157547739Y-96359854D01*
X157487647Y-96371369D01*
X157432263Y-96345363D01*
X157420103Y-96328408D01*
X157405506Y-96312451D01*
X157394265Y-96317867D01*
X157223218Y-96488914D01*
X157217164Y-96500797D01*
X156782024Y-96500797D01*
X156782836Y-96499203D01*
X156782040Y-96494172D01*
X156604986Y-96317118D01*
X156595362Y-96312214D01*
X156575409Y-96332822D01*
X156574189Y-96331641D01*
X156547739Y-96359854D01*
X156487647Y-96371369D01*
X156432263Y-96345363D01*
X156420103Y-96328408D01*
X156405506Y-96312451D01*
X156394265Y-96317867D01*
X156223218Y-96488914D01*
X156217164Y-96500797D01*
X155782024Y-96500797D01*
X155782836Y-96499203D01*
X155782040Y-96494172D01*
X155604986Y-96317118D01*
X155595362Y-96312214D01*
X155586889Y-96320966D01*
X155568235Y-96360697D01*
X155564153Y-96374050D01*
X155546493Y-96487472D01*
X155546322Y-96501444D01*
X153739399Y-96501444D01*
X153745507Y-96465139D01*
X153754019Y-96414547D01*
X153754019Y-96414542D01*
X153754653Y-96410776D01*
X153754789Y-96399656D01*
X153736495Y-96271915D01*
X153693220Y-96176737D01*
X153686005Y-96160868D01*
X153686004Y-96160867D01*
X153683084Y-96154444D01*
X153614101Y-96074385D01*
X153603454Y-96062028D01*
X153603453Y-96062027D01*
X153598849Y-96056684D01*
X153592932Y-96052849D01*
X153592930Y-96052847D01*
X153512797Y-96000909D01*
X153490562Y-95986497D01*
X153483806Y-95984477D01*
X153483805Y-95984476D01*
X153440991Y-95971672D01*
X153366929Y-95949522D01*
X153290300Y-95949054D01*
X153244938Y-95948777D01*
X153237887Y-95948734D01*
X153231110Y-95950671D01*
X153231109Y-95950671D01*
X153120591Y-95982257D01*
X153120589Y-95982258D01*
X153113811Y-95984195D01*
X153004675Y-96053055D01*
X152919252Y-96149778D01*
X152864410Y-96266588D01*
X152844557Y-96394096D01*
X144200500Y-96394096D01*
X144200500Y-95910137D01*
X155807820Y-95910137D01*
X155814270Y-95917379D01*
X155851496Y-95952694D01*
X155862656Y-96012853D01*
X155836324Y-96068082D01*
X155820249Y-96079465D01*
X155808778Y-96093256D01*
X155813246Y-96101114D01*
X155988914Y-96276782D01*
X156000797Y-96282836D01*
X156005828Y-96282040D01*
X156185599Y-96102269D01*
X156191565Y-96090559D01*
X156176989Y-96074385D01*
X156177008Y-96074368D01*
X156148731Y-96048183D01*
X156136848Y-95988163D01*
X156162513Y-95932620D01*
X156181845Y-95916755D01*
X156187488Y-95910137D01*
X156807820Y-95910137D01*
X156814270Y-95917379D01*
X156851496Y-95952694D01*
X156862656Y-96012853D01*
X156836324Y-96068082D01*
X156820249Y-96079465D01*
X156808778Y-96093256D01*
X156813246Y-96101114D01*
X156988914Y-96276782D01*
X157000797Y-96282836D01*
X157005828Y-96282040D01*
X157185599Y-96102269D01*
X157191565Y-96090559D01*
X157176989Y-96074385D01*
X157177008Y-96074368D01*
X157148731Y-96048183D01*
X157136848Y-95988163D01*
X157162513Y-95932620D01*
X157181845Y-95916755D01*
X157187488Y-95910137D01*
X157807820Y-95910137D01*
X157814270Y-95917379D01*
X157851496Y-95952694D01*
X157862656Y-96012853D01*
X157836324Y-96068082D01*
X157820249Y-96079465D01*
X157808778Y-96093256D01*
X157813246Y-96101114D01*
X157988914Y-96276782D01*
X158000797Y-96282836D01*
X158005828Y-96282040D01*
X158185599Y-96102269D01*
X158191565Y-96090559D01*
X158176989Y-96074385D01*
X158177008Y-96074368D01*
X158148731Y-96048183D01*
X158136848Y-95988163D01*
X158162513Y-95932620D01*
X158181845Y-95916755D01*
X158190677Y-95906397D01*
X158186099Y-95898231D01*
X158037308Y-95749440D01*
X161139901Y-95749440D01*
X161140816Y-95756437D01*
X161140816Y-95756438D01*
X161142082Y-95766120D01*
X161156633Y-95877394D01*
X161159471Y-95883845D01*
X161159472Y-95883847D01*
X161203626Y-95984195D01*
X161208605Y-95995510D01*
X161247523Y-96041809D01*
X161287100Y-96088892D01*
X161287103Y-96088894D01*
X161291639Y-96094291D01*
X161399060Y-96165796D01*
X161405788Y-96167898D01*
X161405790Y-96167899D01*
X161456431Y-96183720D01*
X161522233Y-96204278D01*
X161586744Y-96205461D01*
X161644202Y-96206514D01*
X161644204Y-96206514D01*
X161651255Y-96206643D01*
X161658058Y-96204788D01*
X161658060Y-96204788D01*
X161727848Y-96185761D01*
X161775755Y-96172700D01*
X161885724Y-96105179D01*
X161896516Y-96093256D01*
X161936771Y-96048783D01*
X179205588Y-96048783D01*
X179206503Y-96055780D01*
X179206503Y-96055781D01*
X179207320Y-96062028D01*
X179222320Y-96176737D01*
X179225158Y-96183188D01*
X179225159Y-96183190D01*
X179267272Y-96278899D01*
X179274292Y-96294853D01*
X179302498Y-96328408D01*
X179352787Y-96388235D01*
X179352790Y-96388237D01*
X179357326Y-96393634D01*
X179464747Y-96465139D01*
X179471475Y-96467241D01*
X179471477Y-96467242D01*
X179526333Y-96484380D01*
X179587920Y-96503621D01*
X179652431Y-96504804D01*
X179709889Y-96505857D01*
X179709891Y-96505857D01*
X179716942Y-96505986D01*
X179723745Y-96504131D01*
X179723747Y-96504131D01*
X179765515Y-96492743D01*
X179841442Y-96472043D01*
X179951411Y-96404522D01*
X179981420Y-96371369D01*
X180033277Y-96314078D01*
X180033277Y-96314077D01*
X180038009Y-96308850D01*
X180094275Y-96192718D01*
X180109686Y-96101114D01*
X180115050Y-96069234D01*
X180115050Y-96069229D01*
X180115684Y-96065463D01*
X180115820Y-96054343D01*
X180115100Y-96049313D01*
X180994032Y-96049313D01*
X180994947Y-96056310D01*
X180994947Y-96056311D01*
X180996144Y-96065463D01*
X181010764Y-96177267D01*
X181013602Y-96183718D01*
X181013603Y-96183720D01*
X181047257Y-96260205D01*
X181062736Y-96295383D01*
X181093214Y-96331641D01*
X181141231Y-96388765D01*
X181141234Y-96388767D01*
X181145770Y-96394164D01*
X181253191Y-96465669D01*
X181259919Y-96467771D01*
X181259921Y-96467772D01*
X181314777Y-96484910D01*
X181376364Y-96504151D01*
X181440875Y-96505334D01*
X181498333Y-96506387D01*
X181498335Y-96506387D01*
X181505386Y-96506516D01*
X181512189Y-96504661D01*
X181512191Y-96504661D01*
X181553959Y-96493273D01*
X181629886Y-96472573D01*
X181739855Y-96405052D01*
X181755077Y-96388235D01*
X181821721Y-96314608D01*
X181821721Y-96314607D01*
X181826453Y-96309380D01*
X181877128Y-96204788D01*
X181879643Y-96199597D01*
X181879643Y-96199596D01*
X181882719Y-96193248D01*
X181896914Y-96108871D01*
X181903494Y-96069764D01*
X181903494Y-96069759D01*
X181904128Y-96065993D01*
X181904177Y-96062028D01*
X181904217Y-96058698D01*
X181904264Y-96054873D01*
X181885970Y-95927132D01*
X181832559Y-95809661D01*
X181774660Y-95742466D01*
X181752929Y-95717245D01*
X181752928Y-95717244D01*
X181748324Y-95711901D01*
X181742407Y-95708066D01*
X181742405Y-95708064D01*
X181645955Y-95645550D01*
X181640037Y-95641714D01*
X181633281Y-95639694D01*
X181633280Y-95639693D01*
X181573892Y-95621932D01*
X181516404Y-95604739D01*
X181439775Y-95604271D01*
X181394413Y-95603994D01*
X181387362Y-95603951D01*
X181380585Y-95605888D01*
X181380584Y-95605888D01*
X181270066Y-95637474D01*
X181270064Y-95637475D01*
X181263286Y-95639412D01*
X181154150Y-95708272D01*
X181068727Y-95804995D01*
X181013885Y-95921805D01*
X180994032Y-96049313D01*
X180115100Y-96049313D01*
X180097526Y-95926602D01*
X180044115Y-95809131D01*
X179970088Y-95723218D01*
X179964485Y-95716715D01*
X179964484Y-95716714D01*
X179959880Y-95711371D01*
X179953963Y-95707536D01*
X179953961Y-95707534D01*
X179857511Y-95645020D01*
X179851593Y-95641184D01*
X179844837Y-95639164D01*
X179844836Y-95639163D01*
X179764914Y-95615261D01*
X179727960Y-95604209D01*
X179651331Y-95603741D01*
X179605969Y-95603464D01*
X179598918Y-95603421D01*
X179592141Y-95605358D01*
X179592140Y-95605358D01*
X179481622Y-95636944D01*
X179481620Y-95636945D01*
X179474842Y-95638882D01*
X179365706Y-95707742D01*
X179280283Y-95804465D01*
X179225441Y-95921275D01*
X179205588Y-96048783D01*
X161936771Y-96048783D01*
X161967590Y-96014735D01*
X161967590Y-96014734D01*
X161972322Y-96009507D01*
X162028588Y-95893375D01*
X162043571Y-95804315D01*
X162049363Y-95769891D01*
X162049363Y-95769886D01*
X162049997Y-95766120D01*
X162050133Y-95755000D01*
X162031839Y-95627259D01*
X161978428Y-95509788D01*
X161894193Y-95412028D01*
X161888276Y-95408193D01*
X161888274Y-95408191D01*
X161791824Y-95345677D01*
X161785906Y-95341841D01*
X161779150Y-95339821D01*
X161779149Y-95339820D01*
X161705744Y-95317867D01*
X161662273Y-95304866D01*
X161585644Y-95304398D01*
X161540282Y-95304121D01*
X161533231Y-95304078D01*
X161526454Y-95306015D01*
X161526453Y-95306015D01*
X161415935Y-95337601D01*
X161415933Y-95337602D01*
X161409155Y-95339539D01*
X161300019Y-95408399D01*
X161214596Y-95505122D01*
X161159754Y-95621932D01*
X161139901Y-95749440D01*
X158037308Y-95749440D01*
X158011086Y-95723218D01*
X157999203Y-95717164D01*
X157994172Y-95717960D01*
X157813871Y-95898261D01*
X157807820Y-95910137D01*
X157187488Y-95910137D01*
X157190677Y-95906397D01*
X157186099Y-95898231D01*
X157011086Y-95723218D01*
X156999203Y-95717164D01*
X156994172Y-95717960D01*
X156813871Y-95898261D01*
X156807820Y-95910137D01*
X156187488Y-95910137D01*
X156190677Y-95906397D01*
X156186099Y-95898231D01*
X156011086Y-95723218D01*
X155999203Y-95717164D01*
X155994172Y-95717960D01*
X155813871Y-95898261D01*
X155807820Y-95910137D01*
X144200500Y-95910137D01*
X144200500Y-95501444D01*
X155546322Y-95501444D01*
X155561205Y-95615261D01*
X155564962Y-95628717D01*
X155587428Y-95679773D01*
X155594315Y-95687489D01*
X155605849Y-95682019D01*
X155776782Y-95511086D01*
X155782024Y-95500797D01*
X156217164Y-95500797D01*
X156217960Y-95505828D01*
X156395012Y-95682880D01*
X156404837Y-95687886D01*
X156424490Y-95667834D01*
X156425476Y-95668800D01*
X156453369Y-95639765D01*
X156513597Y-95628984D01*
X156568660Y-95655663D01*
X156578585Y-95669866D01*
X156594315Y-95687489D01*
X156605849Y-95682019D01*
X156776782Y-95511086D01*
X156782024Y-95500797D01*
X157217164Y-95500797D01*
X157217960Y-95505828D01*
X157395012Y-95682880D01*
X157404837Y-95687886D01*
X157424490Y-95667834D01*
X157425476Y-95668800D01*
X157453369Y-95639765D01*
X157513597Y-95628984D01*
X157568660Y-95655663D01*
X157578585Y-95669866D01*
X157594315Y-95687489D01*
X157605849Y-95682019D01*
X157776782Y-95511086D01*
X157782024Y-95500797D01*
X158217164Y-95500797D01*
X158217960Y-95505828D01*
X158395012Y-95682880D01*
X158404837Y-95687886D01*
X158413157Y-95679397D01*
X158430031Y-95644569D01*
X158434276Y-95631265D01*
X158453856Y-95514881D01*
X158454538Y-95507282D01*
X158454580Y-95503825D01*
X158454084Y-95496210D01*
X158437353Y-95379385D01*
X158433433Y-95365979D01*
X158412642Y-95320252D01*
X158405506Y-95312451D01*
X158394265Y-95317867D01*
X158223218Y-95488914D01*
X158217164Y-95500797D01*
X157782024Y-95500797D01*
X157782836Y-95499203D01*
X157782040Y-95494172D01*
X157604986Y-95317118D01*
X157595362Y-95312214D01*
X157575409Y-95332822D01*
X157574189Y-95331641D01*
X157547739Y-95359854D01*
X157487647Y-95371369D01*
X157432263Y-95345363D01*
X157420103Y-95328408D01*
X157405506Y-95312451D01*
X157394265Y-95317867D01*
X157223218Y-95488914D01*
X157217164Y-95500797D01*
X156782024Y-95500797D01*
X156782836Y-95499203D01*
X156782040Y-95494172D01*
X156604986Y-95317118D01*
X156595362Y-95312214D01*
X156575409Y-95332822D01*
X156574189Y-95331641D01*
X156547739Y-95359854D01*
X156487647Y-95371369D01*
X156432263Y-95345363D01*
X156420103Y-95328408D01*
X156405506Y-95312451D01*
X156394265Y-95317867D01*
X156223218Y-95488914D01*
X156217164Y-95500797D01*
X155782024Y-95500797D01*
X155782836Y-95499203D01*
X155782040Y-95494172D01*
X155604986Y-95317118D01*
X155595362Y-95312214D01*
X155586889Y-95320966D01*
X155568235Y-95360697D01*
X155564153Y-95374050D01*
X155546493Y-95487472D01*
X155546322Y-95501444D01*
X144200500Y-95501444D01*
X144200500Y-95093256D01*
X155808778Y-95093256D01*
X155813246Y-95101114D01*
X155988914Y-95276782D01*
X156000797Y-95282836D01*
X156005828Y-95282040D01*
X156185599Y-95102269D01*
X156190191Y-95093256D01*
X156808778Y-95093256D01*
X156813246Y-95101114D01*
X156988914Y-95276782D01*
X157000797Y-95282836D01*
X157005828Y-95282040D01*
X157185599Y-95102269D01*
X157190191Y-95093256D01*
X157808778Y-95093256D01*
X157813246Y-95101114D01*
X157988914Y-95276782D01*
X158000797Y-95282836D01*
X158005828Y-95282040D01*
X158185599Y-95102269D01*
X158191565Y-95090559D01*
X158188856Y-95087553D01*
X158183935Y-95085279D01*
X158073959Y-95052389D01*
X158060141Y-95050324D01*
X157945351Y-95049622D01*
X157931522Y-95051516D01*
X157821139Y-95083064D01*
X157814955Y-95085831D01*
X157808778Y-95093256D01*
X157190191Y-95093256D01*
X157191565Y-95090559D01*
X157188856Y-95087553D01*
X157183935Y-95085279D01*
X157073959Y-95052389D01*
X157060141Y-95050324D01*
X156945351Y-95049622D01*
X156931522Y-95051516D01*
X156821139Y-95083064D01*
X156814955Y-95085831D01*
X156808778Y-95093256D01*
X156190191Y-95093256D01*
X156191565Y-95090559D01*
X156188856Y-95087553D01*
X156183935Y-95085279D01*
X156073959Y-95052389D01*
X156060141Y-95050324D01*
X155945351Y-95049622D01*
X155931522Y-95051516D01*
X155821139Y-95083064D01*
X155814955Y-95085831D01*
X155808778Y-95093256D01*
X144200500Y-95093256D01*
X144200500Y-94094440D01*
X145944901Y-94094440D01*
X145945816Y-94101437D01*
X145945816Y-94101438D01*
X145946999Y-94110485D01*
X145961633Y-94222394D01*
X145964471Y-94228845D01*
X145964472Y-94228847D01*
X145970217Y-94241903D01*
X146013605Y-94340510D01*
X146038579Y-94370220D01*
X146092100Y-94433892D01*
X146092103Y-94433894D01*
X146096639Y-94439291D01*
X146204060Y-94510796D01*
X146210788Y-94512898D01*
X146210790Y-94512899D01*
X146265646Y-94530037D01*
X146327233Y-94549278D01*
X146391744Y-94550461D01*
X146449202Y-94551514D01*
X146449204Y-94551514D01*
X146456255Y-94551643D01*
X146463058Y-94549788D01*
X146463060Y-94549788D01*
X146504828Y-94538400D01*
X146580755Y-94517700D01*
X146690724Y-94450179D01*
X146763099Y-94370220D01*
X146772590Y-94359735D01*
X146772590Y-94359734D01*
X146777322Y-94354507D01*
X146833588Y-94238375D01*
X146844596Y-94172941D01*
X146854363Y-94114891D01*
X146854363Y-94114886D01*
X146854997Y-94111120D01*
X146855073Y-94104925D01*
X159018806Y-94104925D01*
X159035538Y-94232879D01*
X159038376Y-94239330D01*
X159038377Y-94239332D01*
X159084669Y-94344539D01*
X159087510Y-94350995D01*
X159129027Y-94400386D01*
X159166005Y-94444377D01*
X159166008Y-94444379D01*
X159170544Y-94449776D01*
X159277965Y-94521281D01*
X159284693Y-94523383D01*
X159284695Y-94523384D01*
X159339551Y-94540522D01*
X159401138Y-94559763D01*
X159465649Y-94560945D01*
X159523107Y-94561999D01*
X159523109Y-94561999D01*
X159530160Y-94562128D01*
X159536963Y-94560273D01*
X159536965Y-94560273D01*
X159585006Y-94547175D01*
X159654660Y-94528185D01*
X159764629Y-94460664D01*
X159774484Y-94449776D01*
X159846495Y-94370220D01*
X159846495Y-94370219D01*
X159851227Y-94364992D01*
X159907493Y-94248860D01*
X159918573Y-94183000D01*
X159946872Y-94128753D01*
X160001653Y-94101500D01*
X160018015Y-94100442D01*
X160049221Y-94101014D01*
X160049223Y-94101014D01*
X160056275Y-94101143D01*
X160063078Y-94099288D01*
X160063080Y-94099288D01*
X160106441Y-94087466D01*
X160180775Y-94067200D01*
X160290744Y-93999679D01*
X160377342Y-93904007D01*
X160433608Y-93787875D01*
X160449555Y-93693086D01*
X160454383Y-93664391D01*
X160454383Y-93664386D01*
X160455017Y-93660620D01*
X160455153Y-93649500D01*
X160436859Y-93521759D01*
X160383448Y-93404288D01*
X160299213Y-93306528D01*
X160293296Y-93302693D01*
X160293294Y-93302691D01*
X160196844Y-93240177D01*
X160190926Y-93236341D01*
X160184170Y-93234321D01*
X160184169Y-93234320D01*
X160141355Y-93221516D01*
X160067293Y-93199366D01*
X159990664Y-93198898D01*
X159945302Y-93198621D01*
X159938251Y-93198578D01*
X159931474Y-93200515D01*
X159931473Y-93200515D01*
X159820955Y-93232101D01*
X159820953Y-93232102D01*
X159814175Y-93234039D01*
X159705039Y-93302899D01*
X159619616Y-93399622D01*
X159564774Y-93516432D01*
X159563689Y-93523402D01*
X159555488Y-93576070D01*
X159527853Y-93630659D01*
X159473410Y-93658579D01*
X159457063Y-93659837D01*
X159419188Y-93659606D01*
X159412136Y-93659563D01*
X159405359Y-93661500D01*
X159405358Y-93661500D01*
X159294840Y-93693086D01*
X159294838Y-93693087D01*
X159288060Y-93695024D01*
X159178924Y-93763884D01*
X159093501Y-93860607D01*
X159038659Y-93977417D01*
X159018806Y-94104925D01*
X146855073Y-94104925D01*
X146855133Y-94100000D01*
X146836839Y-93972259D01*
X146802922Y-93897662D01*
X146786349Y-93861212D01*
X146786348Y-93861211D01*
X146783428Y-93854788D01*
X146719778Y-93780918D01*
X146703798Y-93762372D01*
X146703797Y-93762371D01*
X146699193Y-93757028D01*
X146693276Y-93753193D01*
X146693274Y-93753191D01*
X146596824Y-93690677D01*
X146590906Y-93686841D01*
X146584150Y-93684821D01*
X146584149Y-93684820D01*
X146515840Y-93664391D01*
X146467273Y-93649866D01*
X146390644Y-93649398D01*
X146345282Y-93649121D01*
X146338231Y-93649078D01*
X146331454Y-93651015D01*
X146331453Y-93651015D01*
X146220935Y-93682601D01*
X146220933Y-93682602D01*
X146214155Y-93684539D01*
X146105019Y-93753399D01*
X146019596Y-93850122D01*
X145964754Y-93966932D01*
X145944901Y-94094440D01*
X144200500Y-94094440D01*
X144200500Y-92399500D01*
X144218390Y-92344440D01*
X154294901Y-92344440D01*
X154295816Y-92351437D01*
X154295816Y-92351438D01*
X154297082Y-92361120D01*
X154311633Y-92472394D01*
X154314471Y-92478845D01*
X154314472Y-92478847D01*
X154321458Y-92494724D01*
X154363605Y-92590510D01*
X154405122Y-92639900D01*
X154442100Y-92683892D01*
X154442103Y-92683894D01*
X154446639Y-92689291D01*
X154554060Y-92760796D01*
X154560788Y-92762898D01*
X154560790Y-92762899D01*
X154615646Y-92780037D01*
X154677233Y-92799278D01*
X154741744Y-92800460D01*
X154799202Y-92801514D01*
X154799204Y-92801514D01*
X154806255Y-92801643D01*
X154813058Y-92799788D01*
X154813060Y-92799788D01*
X154854828Y-92788400D01*
X154930755Y-92767700D01*
X155040724Y-92700179D01*
X155127322Y-92604507D01*
X155183588Y-92488375D01*
X155204997Y-92361120D01*
X155205133Y-92350000D01*
X155186839Y-92222259D01*
X155133428Y-92104788D01*
X155068842Y-92029832D01*
X155053798Y-92012372D01*
X155053797Y-92012371D01*
X155049193Y-92007028D01*
X155043276Y-92003193D01*
X155043274Y-92003191D01*
X154972366Y-91957232D01*
X154940906Y-91936841D01*
X154934150Y-91934821D01*
X154934149Y-91934820D01*
X154833650Y-91904764D01*
X154817273Y-91899866D01*
X154740644Y-91899398D01*
X154695282Y-91899121D01*
X154688231Y-91899078D01*
X154681454Y-91901015D01*
X154681453Y-91901015D01*
X154570935Y-91932601D01*
X154570933Y-91932602D01*
X154564155Y-91934539D01*
X154455019Y-92003399D01*
X154369596Y-92100122D01*
X154314754Y-92216932D01*
X154294901Y-92344440D01*
X144218390Y-92344440D01*
X144219407Y-92341309D01*
X144268907Y-92305345D01*
X144299500Y-92300500D01*
X146865047Y-92300500D01*
X146882236Y-92302004D01*
X146900000Y-92305136D01*
X146901175Y-92304929D01*
X147355453Y-92287080D01*
X147808098Y-92233506D01*
X148029024Y-92189561D01*
X148253242Y-92144962D01*
X148253253Y-92144959D01*
X148255145Y-92144583D01*
X148616153Y-92042768D01*
X148691961Y-92021388D01*
X148691966Y-92021387D01*
X148693836Y-92020859D01*
X148713998Y-92013421D01*
X149119629Y-91863777D01*
X149119641Y-91863772D01*
X149121468Y-91863098D01*
X149123239Y-91862282D01*
X149123250Y-91862277D01*
X149533639Y-91673085D01*
X149533646Y-91673082D01*
X149535404Y-91672271D01*
X149933091Y-91449555D01*
X149996332Y-91407299D01*
X150015577Y-91394440D01*
X150944901Y-91394440D01*
X150945816Y-91401437D01*
X150945816Y-91401438D01*
X150947082Y-91411120D01*
X150961633Y-91522394D01*
X150964471Y-91528845D01*
X150964472Y-91528847D01*
X150969554Y-91540397D01*
X151013605Y-91640510D01*
X151031112Y-91661337D01*
X151092100Y-91733892D01*
X151092103Y-91733894D01*
X151096639Y-91739291D01*
X151204060Y-91810796D01*
X151210788Y-91812898D01*
X151210790Y-91812899D01*
X151265647Y-91830037D01*
X151327233Y-91849278D01*
X151391744Y-91850460D01*
X151449202Y-91851514D01*
X151449204Y-91851514D01*
X151456255Y-91851643D01*
X151463058Y-91849788D01*
X151463060Y-91849788D01*
X151511263Y-91836646D01*
X151580755Y-91817700D01*
X151690724Y-91750179D01*
X151731244Y-91705413D01*
X151772590Y-91659735D01*
X151772590Y-91659734D01*
X151777322Y-91654507D01*
X151833588Y-91538375D01*
X151837116Y-91517402D01*
X158600300Y-91517402D01*
X158601215Y-91524399D01*
X158601215Y-91524400D01*
X158603307Y-91540397D01*
X158617032Y-91645356D01*
X158619870Y-91651807D01*
X158619871Y-91651809D01*
X158660853Y-91744948D01*
X158669004Y-91763472D01*
X158705077Y-91806386D01*
X158747499Y-91856854D01*
X158747502Y-91856856D01*
X158752038Y-91862253D01*
X158859459Y-91933758D01*
X158866187Y-91935860D01*
X158866189Y-91935861D01*
X158921045Y-91952999D01*
X158982632Y-91972240D01*
X159047143Y-91973423D01*
X159104601Y-91974476D01*
X159104603Y-91974476D01*
X159111654Y-91974605D01*
X159118457Y-91972750D01*
X159118459Y-91972750D01*
X159160227Y-91961362D01*
X159236154Y-91940662D01*
X159346123Y-91873141D01*
X159354599Y-91863777D01*
X159427989Y-91782697D01*
X159427989Y-91782696D01*
X159432721Y-91777469D01*
X159483295Y-91673085D01*
X159485911Y-91667686D01*
X159485911Y-91667685D01*
X159488987Y-91661337D01*
X159510396Y-91534082D01*
X159510532Y-91522962D01*
X159492238Y-91395221D01*
X159438827Y-91277750D01*
X159369602Y-91197410D01*
X159359197Y-91185334D01*
X159359196Y-91185333D01*
X159354592Y-91179990D01*
X159348675Y-91176155D01*
X159348673Y-91176153D01*
X159252223Y-91113639D01*
X159246305Y-91109803D01*
X159239549Y-91107783D01*
X159239548Y-91107782D01*
X159196734Y-91094978D01*
X159122672Y-91072828D01*
X159046043Y-91072360D01*
X159000681Y-91072083D01*
X158993630Y-91072040D01*
X158986853Y-91073977D01*
X158986852Y-91073977D01*
X158876334Y-91105563D01*
X158876332Y-91105564D01*
X158869554Y-91107501D01*
X158760418Y-91176361D01*
X158674995Y-91273084D01*
X158620153Y-91389894D01*
X158600300Y-91517402D01*
X151837116Y-91517402D01*
X151844596Y-91472941D01*
X151854363Y-91414891D01*
X151854363Y-91414886D01*
X151854997Y-91411120D01*
X151855133Y-91400000D01*
X151836839Y-91272259D01*
X151802313Y-91196323D01*
X151786349Y-91161212D01*
X151786348Y-91161211D01*
X151783428Y-91154788D01*
X151730395Y-91093240D01*
X151703798Y-91062372D01*
X151703797Y-91062371D01*
X151699193Y-91057028D01*
X151693276Y-91053193D01*
X151693274Y-91053191D01*
X151596824Y-90990677D01*
X151590906Y-90986841D01*
X151584150Y-90984821D01*
X151584149Y-90984820D01*
X151541335Y-90972016D01*
X151467273Y-90949866D01*
X151390644Y-90949398D01*
X151345282Y-90949121D01*
X151338231Y-90949078D01*
X151331454Y-90951015D01*
X151331453Y-90951015D01*
X151220935Y-90982601D01*
X151220933Y-90982602D01*
X151214155Y-90984539D01*
X151105019Y-91053399D01*
X151019596Y-91150122D01*
X150964754Y-91266932D01*
X150944901Y-91394440D01*
X150015577Y-91394440D01*
X150208044Y-91265837D01*
X150312079Y-91196323D01*
X150670030Y-90914138D01*
X151004737Y-90604737D01*
X151314138Y-90270030D01*
X151596323Y-89912079D01*
X151608109Y-89894440D01*
X156844901Y-89894440D01*
X156845816Y-89901437D01*
X156845816Y-89901438D01*
X156846995Y-89910452D01*
X156861633Y-90022394D01*
X156864471Y-90028845D01*
X156864472Y-90028847D01*
X156871458Y-90044724D01*
X156913605Y-90140510D01*
X156955122Y-90189900D01*
X156992100Y-90233892D01*
X156992103Y-90233894D01*
X156996639Y-90239291D01*
X157104060Y-90310796D01*
X157110788Y-90312898D01*
X157110790Y-90312899D01*
X157165647Y-90330037D01*
X157227233Y-90349278D01*
X157291744Y-90350460D01*
X157349202Y-90351514D01*
X157349204Y-90351514D01*
X157356255Y-90351643D01*
X157363058Y-90349788D01*
X157363060Y-90349788D01*
X157404828Y-90338400D01*
X157480755Y-90317700D01*
X157590724Y-90250179D01*
X157677322Y-90154507D01*
X157733588Y-90038375D01*
X157754997Y-89911120D01*
X157755133Y-89900000D01*
X157736839Y-89772259D01*
X157683428Y-89654788D01*
X157599193Y-89557028D01*
X157593276Y-89553193D01*
X157593274Y-89553191D01*
X157496824Y-89490677D01*
X157490906Y-89486841D01*
X157484150Y-89484821D01*
X157484149Y-89484820D01*
X157441335Y-89472016D01*
X157367273Y-89449866D01*
X157290644Y-89449398D01*
X157245282Y-89449121D01*
X157238231Y-89449078D01*
X157231454Y-89451015D01*
X157231453Y-89451015D01*
X157120935Y-89482601D01*
X157120933Y-89482602D01*
X157114155Y-89484539D01*
X157005019Y-89553399D01*
X156919596Y-89650122D01*
X156864754Y-89766932D01*
X156844901Y-89894440D01*
X151608109Y-89894440D01*
X151849555Y-89533091D01*
X152072271Y-89135404D01*
X152073085Y-89133639D01*
X152262277Y-88723250D01*
X152262282Y-88723239D01*
X152263098Y-88721468D01*
X152263772Y-88719641D01*
X152263777Y-88719629D01*
X152334164Y-88528835D01*
X157679296Y-88528835D01*
X157680211Y-88535832D01*
X157680211Y-88535833D01*
X157681477Y-88545515D01*
X157696028Y-88656789D01*
X157698866Y-88663240D01*
X157698867Y-88663242D01*
X157705853Y-88679119D01*
X157748000Y-88774905D01*
X157789517Y-88824296D01*
X157826495Y-88868287D01*
X157826498Y-88868289D01*
X157831034Y-88873686D01*
X157938455Y-88945191D01*
X157945183Y-88947293D01*
X157945185Y-88947294D01*
X158000041Y-88964432D01*
X158061628Y-88983673D01*
X158126139Y-88984856D01*
X158183597Y-88985909D01*
X158183599Y-88985909D01*
X158190650Y-88986038D01*
X158197453Y-88984183D01*
X158197455Y-88984183D01*
X158239223Y-88972795D01*
X158315150Y-88952095D01*
X158425119Y-88884574D01*
X158511717Y-88788902D01*
X158567983Y-88672770D01*
X158589392Y-88545515D01*
X158589528Y-88534395D01*
X158571234Y-88406654D01*
X158517823Y-88289183D01*
X158433588Y-88191423D01*
X158427671Y-88187588D01*
X158427669Y-88187586D01*
X158331219Y-88125072D01*
X158325301Y-88121236D01*
X158318545Y-88119216D01*
X158318544Y-88119215D01*
X158275730Y-88106411D01*
X158201668Y-88084261D01*
X158125039Y-88083793D01*
X158079677Y-88083516D01*
X158072626Y-88083473D01*
X158065849Y-88085410D01*
X158065848Y-88085410D01*
X157955330Y-88116996D01*
X157955328Y-88116997D01*
X157948550Y-88118934D01*
X157839414Y-88187794D01*
X157753991Y-88284517D01*
X157699149Y-88401327D01*
X157679296Y-88528835D01*
X152334164Y-88528835D01*
X152420184Y-88295666D01*
X152420185Y-88295663D01*
X152420859Y-88293836D01*
X152421688Y-88290899D01*
X152467487Y-88128505D01*
X152544583Y-87855145D01*
X152633506Y-87408098D01*
X152687080Y-86955453D01*
X152689477Y-86894440D01*
X153344901Y-86894440D01*
X153345816Y-86901437D01*
X153345816Y-86901438D01*
X153347082Y-86911120D01*
X153361633Y-87022394D01*
X153364471Y-87028845D01*
X153364472Y-87028847D01*
X153371458Y-87044724D01*
X153413605Y-87140510D01*
X153455122Y-87189900D01*
X153492100Y-87233892D01*
X153492103Y-87233894D01*
X153496639Y-87239291D01*
X153604060Y-87310796D01*
X153610788Y-87312898D01*
X153610790Y-87312899D01*
X153665646Y-87330037D01*
X153727233Y-87349278D01*
X153791744Y-87350461D01*
X153849202Y-87351514D01*
X153849204Y-87351514D01*
X153856255Y-87351643D01*
X153863058Y-87349788D01*
X153863060Y-87349788D01*
X153904828Y-87338400D01*
X153980755Y-87317700D01*
X154090724Y-87250179D01*
X154177322Y-87154507D01*
X154233588Y-87038375D01*
X154254997Y-86911120D01*
X154255133Y-86900000D01*
X154236839Y-86772259D01*
X154183428Y-86654788D01*
X154099193Y-86557028D01*
X154098565Y-86556621D01*
X154068629Y-86506603D01*
X154074067Y-86445660D01*
X154114288Y-86399552D01*
X154165130Y-86385500D01*
X154204361Y-86385500D01*
X154321762Y-86370044D01*
X154467841Y-86309536D01*
X154593282Y-86213282D01*
X154689536Y-86087841D01*
X154708536Y-86041971D01*
X154748273Y-85995446D01*
X154807767Y-85981162D01*
X154864295Y-86004577D01*
X154891464Y-86041971D01*
X154910464Y-86087841D01*
X155006718Y-86213282D01*
X155132159Y-86309536D01*
X155278238Y-86370044D01*
X155395639Y-86385500D01*
X155474361Y-86385500D01*
X155591762Y-86370044D01*
X155737841Y-86309536D01*
X155863282Y-86213282D01*
X155959536Y-86087841D01*
X155978536Y-86041971D01*
X156018273Y-85995446D01*
X156077767Y-85981162D01*
X156134295Y-86004577D01*
X156161464Y-86041971D01*
X156180464Y-86087841D01*
X156276718Y-86213282D01*
X156402159Y-86309536D01*
X156548238Y-86370044D01*
X156665639Y-86385500D01*
X156744361Y-86385500D01*
X156861762Y-86370044D01*
X157007841Y-86309536D01*
X157133282Y-86213282D01*
X157229536Y-86087841D01*
X157248536Y-86041971D01*
X157288273Y-85995446D01*
X157347767Y-85981162D01*
X157404295Y-86004577D01*
X157431464Y-86041971D01*
X157450464Y-86087841D01*
X157546718Y-86213282D01*
X157672159Y-86309536D01*
X157818238Y-86370044D01*
X157935639Y-86385500D01*
X158014361Y-86385500D01*
X158131762Y-86370044D01*
X158277841Y-86309536D01*
X158403282Y-86213282D01*
X158499536Y-86087841D01*
X158518536Y-86041971D01*
X158558273Y-85995446D01*
X158617767Y-85981162D01*
X158674295Y-86004577D01*
X158701464Y-86041971D01*
X158720464Y-86087841D01*
X158816718Y-86213282D01*
X158942159Y-86309536D01*
X159088238Y-86370044D01*
X159205639Y-86385500D01*
X159284361Y-86385500D01*
X159401762Y-86370044D01*
X159547841Y-86309536D01*
X159673282Y-86213282D01*
X159769536Y-86087841D01*
X159830044Y-85941762D01*
X159850682Y-85785000D01*
X159830044Y-85628238D01*
X159769536Y-85482159D01*
X159673282Y-85356718D01*
X159547841Y-85260464D01*
X159401762Y-85199956D01*
X159284361Y-85184500D01*
X159205639Y-85184500D01*
X159088238Y-85199956D01*
X158942159Y-85260464D01*
X158816718Y-85356718D01*
X158720464Y-85482159D01*
X158717981Y-85488154D01*
X158701464Y-85528029D01*
X158661727Y-85574554D01*
X158602233Y-85588838D01*
X158545705Y-85565423D01*
X158518536Y-85528029D01*
X158502019Y-85488154D01*
X158499536Y-85482159D01*
X158403282Y-85356718D01*
X158277841Y-85260464D01*
X158131762Y-85199956D01*
X158014361Y-85184500D01*
X157935639Y-85184500D01*
X157818238Y-85199956D01*
X157672159Y-85260464D01*
X157546718Y-85356718D01*
X157450464Y-85482159D01*
X157447981Y-85488154D01*
X157431464Y-85528029D01*
X157391727Y-85574554D01*
X157332233Y-85588838D01*
X157275705Y-85565423D01*
X157248536Y-85528029D01*
X157232019Y-85488154D01*
X157229536Y-85482159D01*
X157133282Y-85356718D01*
X157007841Y-85260464D01*
X156861762Y-85199956D01*
X156744361Y-85184500D01*
X156665639Y-85184500D01*
X156548238Y-85199956D01*
X156402159Y-85260464D01*
X156276718Y-85356718D01*
X156180464Y-85482159D01*
X156177981Y-85488154D01*
X156161464Y-85528029D01*
X156121727Y-85574554D01*
X156062233Y-85588838D01*
X156005705Y-85565423D01*
X155978536Y-85528029D01*
X155962019Y-85488154D01*
X155959536Y-85482159D01*
X155863282Y-85356718D01*
X155737841Y-85260464D01*
X155591762Y-85199956D01*
X155474361Y-85184500D01*
X155395639Y-85184500D01*
X155278238Y-85199956D01*
X155132159Y-85260464D01*
X155006718Y-85356718D01*
X154910464Y-85482159D01*
X154907981Y-85488154D01*
X154891464Y-85528029D01*
X154851727Y-85574554D01*
X154792233Y-85588838D01*
X154735705Y-85565423D01*
X154708536Y-85528029D01*
X154692019Y-85488154D01*
X154689536Y-85482159D01*
X154593282Y-85356718D01*
X154467841Y-85260464D01*
X154321762Y-85199956D01*
X154204361Y-85184500D01*
X154125639Y-85184500D01*
X154008238Y-85199956D01*
X153862159Y-85260464D01*
X153736718Y-85356718D01*
X153640464Y-85482159D01*
X153579956Y-85628238D01*
X153559318Y-85785000D01*
X153579956Y-85941762D01*
X153640464Y-86087841D01*
X153736718Y-86213282D01*
X153741871Y-86217236D01*
X153812747Y-86271621D01*
X153847403Y-86322045D01*
X153845802Y-86383210D01*
X153808554Y-86431751D01*
X153751878Y-86449161D01*
X153745284Y-86449121D01*
X153738231Y-86449078D01*
X153731454Y-86451015D01*
X153731453Y-86451015D01*
X153620935Y-86482601D01*
X153620933Y-86482602D01*
X153614155Y-86484539D01*
X153505019Y-86553399D01*
X153419596Y-86650122D01*
X153364754Y-86766932D01*
X153344901Y-86894440D01*
X152689477Y-86894440D01*
X152699284Y-86644838D01*
X152704525Y-86511462D01*
X152704525Y-86511461D01*
X152704929Y-86501175D01*
X152705136Y-86500000D01*
X152702004Y-86482236D01*
X152700500Y-86465047D01*
X152700500Y-84624440D01*
X160526426Y-84624440D01*
X160527341Y-84631437D01*
X160527341Y-84631438D01*
X160528607Y-84641120D01*
X160543158Y-84752394D01*
X160545996Y-84758845D01*
X160545997Y-84758847D01*
X160552983Y-84774724D01*
X160595130Y-84870510D01*
X160636647Y-84919901D01*
X160673625Y-84963892D01*
X160673628Y-84963894D01*
X160678164Y-84969291D01*
X160785585Y-85040796D01*
X160792313Y-85042898D01*
X160792315Y-85042899D01*
X160847171Y-85060037D01*
X160908758Y-85079278D01*
X160973269Y-85080460D01*
X161030727Y-85081514D01*
X161030729Y-85081514D01*
X161037780Y-85081643D01*
X161044583Y-85079788D01*
X161044585Y-85079788D01*
X161086353Y-85068400D01*
X161162280Y-85047700D01*
X161272249Y-84980179D01*
X161358847Y-84884507D01*
X161415113Y-84768375D01*
X161436522Y-84641120D01*
X161436658Y-84630000D01*
X161418364Y-84502259D01*
X161364953Y-84384788D01*
X161280718Y-84287028D01*
X161274801Y-84283193D01*
X161274799Y-84283191D01*
X161178349Y-84220677D01*
X161172431Y-84216841D01*
X161165675Y-84214821D01*
X161165674Y-84214820D01*
X161122860Y-84202016D01*
X161048798Y-84179866D01*
X160972169Y-84179398D01*
X160926807Y-84179121D01*
X160919756Y-84179078D01*
X160912979Y-84181015D01*
X160912978Y-84181015D01*
X160802460Y-84212601D01*
X160802458Y-84212602D01*
X160795680Y-84214539D01*
X160686544Y-84283399D01*
X160601121Y-84380122D01*
X160546279Y-84496932D01*
X160526426Y-84624440D01*
X152700500Y-84624440D01*
X152700500Y-83899500D01*
X152719407Y-83841309D01*
X152768907Y-83805345D01*
X152799500Y-83800500D01*
X163601000Y-83800500D01*
X163659191Y-83819407D01*
G37*
G04 #@! TD.AperFunction*
M02*
